<?xml version="1.0" encoding="utf-8" standalone="no"?>
<!DOCTYPE svg PUBLIC "-//W3C//DTD SVG 1.1//EN"
  "http://www.w3.org/Graphics/SVG/1.1/DTD/svg11.dtd">
<svg xmlns:xlink="http://www.w3.org/1999/xlink" width="360pt" height="432pt" viewBox="0 0 360 432" xmlns="http://www.w3.org/2000/svg" version="1.1">
 <metadata>
  <rdf:RDF xmlns:dc="http://purl.org/dc/elements/1.1/" xmlns:cc="http://creativecommons.org/ns#" xmlns:rdf="http://www.w3.org/1999/02/22-rdf-syntax-ns#">
   <cc:Work>
    <dc:type rdf:resource="http://purl.org/dc/dcmitype/StillImage"/>
    <dc:date>2024-10-29T11:59:58.097948</dc:date>
    <dc:format>image/svg+xml</dc:format>
    <dc:creator>
     <cc:Agent>
      <dc:title>Matplotlib v3.8.0, https://matplotlib.org/</dc:title>
     </cc:Agent>
    </dc:creator>
   </cc:Work>
  </rdf:RDF>
 </metadata>
 <defs>
  <style type="text/css">*{stroke-linejoin: round; stroke-linecap: butt}</style>
 </defs>
 <g id="figure_1">
  <g id="patch_1">
   <path d="M 0 432 
L 360 432 
L 360 0 
L 0 0 
z
" style="fill: #ffffff"/>
  </g>
  <g id="axes_1">
   <g id="patch_2">
    <path d="M 45 384.48 
L 324 384.48 
L 324 51.84 
L 45 51.84 
z
" style="fill: #ffffff"/>
   </g>
   <g id="patch_3">
    <path d="M 57.681818 384.48 
L 87.52139 384.48 
L 87.52139 210.269831 
L 57.681818 210.269831 
z
" clip-path="url(#pffb9ccf810)" style="fill: #89c9c8; opacity: 0.4"/>
   </g>
   <g id="patch_4">
    <path d="M 132.280749 384.48 
L 162.120321 384.48 
L 162.120321 269.930847 
L 132.280749 269.930847 
z
" clip-path="url(#pffb9ccf810)" style="fill: #89c9c8; opacity: 0.4"/>
   </g>
   <g id="patch_5">
    <path d="M 206.879679 384.48 
L 236.719251 384.48 
L 236.719251 249.347797 
L 206.879679 249.347797 
z
" clip-path="url(#pffb9ccf810)" style="fill: #89c9c8; opacity: 0.4"/>
   </g>
   <g id="patch_6">
    <path d="M 281.47861 384.48 
L 311.318182 384.48 
L 311.318182 287.232542 
L 281.47861 287.232542 
z
" clip-path="url(#pffb9ccf810)" style="fill: #89c9c8; opacity: 0.4"/>
   </g>
   <g id="PathCollection_1">
    <defs>
     <path id="m197302f6b4" d="M 0 2.738613 
C 0.726289 2.738613 1.422928 2.450055 1.936492 1.936492 
C 2.450055 1.422928 2.738613 0.726289 2.738613 0 
C 2.738613 -0.726289 2.450055 -1.422928 1.936492 -1.936492 
C 1.422928 -2.450055 0.726289 -2.738613 0 -2.738613 
C -0.726289 -2.738613 -1.422928 -2.450055 -1.936492 -1.936492 
C -2.450055 -1.422928 -2.738613 -0.726289 -2.738613 0 
C -2.738613 0.726289 -2.450055 1.422928 -1.936492 1.936492 
C -1.422928 2.450055 -0.726289 2.738613 0 2.738613 
z
" style="stroke: #89c9c8; stroke-opacity: 0.7"/>
    </defs>
    <g clip-path="url(#pffb9ccf810)">
     <use xlink:href="#m197302f6b4" x="69.968575" y="228.764746" style="fill: #89c9c8; fill-opacity: 0.7; stroke: #89c9c8; stroke-opacity: 0.7"/>
     <use xlink:href="#m197302f6b4" x="69.162558" y="126.744407" style="fill: #89c9c8; fill-opacity: 0.7; stroke: #89c9c8; stroke-opacity: 0.7"/>
     <use xlink:href="#m197302f6b4" x="74.470828" y="266.351186" style="fill: #89c9c8; fill-opacity: 0.7; stroke: #89c9c8; stroke-opacity: 0.7"/>
     <use xlink:href="#m197302f6b4" x="71.743363" y="379.110508" style="fill: #89c9c8; fill-opacity: 0.7; stroke: #89c9c8; stroke-opacity: 0.7"/>
     <use xlink:href="#m197302f6b4" x="69.405151" y="153.591864" style="fill: #89c9c8; fill-opacity: 0.7; stroke: #89c9c8; stroke-opacity: 0.7"/>
     <use xlink:href="#m197302f6b4" x="72.220521" y="207.28678" style="fill: #89c9c8; fill-opacity: 0.7; stroke: #89c9c8; stroke-opacity: 0.7"/>
     <use xlink:href="#m197302f6b4" x="74.166584" y="142.852881" style="fill: #89c9c8; fill-opacity: 0.7; stroke: #89c9c8; stroke-opacity: 0.7"/>
     <use xlink:href="#m197302f6b4" x="75.142061" y="287.829153" style="fill: #89c9c8; fill-opacity: 0.7; stroke: #89c9c8; stroke-opacity: 0.7"/>
     <use xlink:href="#m197302f6b4" x="73.568017" y="277.090169" style="fill: #89c9c8; fill-opacity: 0.7; stroke: #89c9c8; stroke-opacity: 0.7"/>
     <use xlink:href="#m197302f6b4" x="71.220743" y="244.87322" style="fill: #89c9c8; fill-opacity: 0.7; stroke: #89c9c8; stroke-opacity: 0.7"/>
     <use xlink:href="#m197302f6b4" x="72.854057" y="116.005424" style="fill: #89c9c8; fill-opacity: 0.7; stroke: #89c9c8; stroke-opacity: 0.7"/>
     <use xlink:href="#m197302f6b4" x="75.03635" y="196.547797" style="fill: #89c9c8; fill-opacity: 0.7; stroke: #89c9c8; stroke-opacity: 0.7"/>
     <use xlink:href="#m197302f6b4" x="71.235059" y="271.720678" style="fill: #89c9c8; fill-opacity: 0.7; stroke: #89c9c8; stroke-opacity: 0.7"/>
     <use xlink:href="#m197302f6b4" x="73.501837" y="212.656271" style="fill: #89c9c8; fill-opacity: 0.7; stroke: #89c9c8; stroke-opacity: 0.7"/>
     <use xlink:href="#m197302f6b4" x="72.908189" y="239.503729" style="fill: #89c9c8; fill-opacity: 0.7; stroke: #89c9c8; stroke-opacity: 0.7"/>
     <use xlink:href="#m197302f6b4" x="73.894867" y="67.68" style="fill: #89c9c8; fill-opacity: 0.7; stroke: #89c9c8; stroke-opacity: 0.7"/>
     <use xlink:href="#m197302f6b4" x="72.928984" y="169.700339" style="fill: #89c9c8; fill-opacity: 0.7; stroke: #89c9c8; stroke-opacity: 0.7"/>
     <use xlink:href="#m197302f6b4" x="73.515339" y="196.547797" style="fill: #89c9c8; fill-opacity: 0.7; stroke: #89c9c8; stroke-opacity: 0.7"/>
    </g>
   </g>
   <g id="PathCollection_2">
    <g clip-path="url(#pffb9ccf810)">
     <use xlink:href="#m197302f6b4" x="146.886816" y="282.459661" style="fill: #89c9c8; fill-opacity: 0.7; stroke: #89c9c8; stroke-opacity: 0.7"/>
     <use xlink:href="#m197302f6b4" x="147.911397" y="320.046102" style="fill: #89c9c8; fill-opacity: 0.7; stroke: #89c9c8; stroke-opacity: 0.7"/>
     <use xlink:href="#m197302f6b4" x="148.220819" y="218.025763" style="fill: #89c9c8; fill-opacity: 0.7; stroke: #89c9c8; stroke-opacity: 0.7"/>
     <use xlink:href="#m197302f6b4" x="144.081255" y="191.178305" style="fill: #89c9c8; fill-opacity: 0.7; stroke: #89c9c8; stroke-opacity: 0.7"/>
     <use xlink:href="#m197302f6b4" x="149.531695" y="185.808814" style="fill: #89c9c8; fill-opacity: 0.7; stroke: #89c9c8; stroke-opacity: 0.7"/>
     <use xlink:href="#m197302f6b4" x="146.306195" y="223.395254" style="fill: #89c9c8; fill-opacity: 0.7; stroke: #89c9c8; stroke-opacity: 0.7"/>
     <use xlink:href="#m197302f6b4" x="149.752852" y="368.371525" style="fill: #89c9c8; fill-opacity: 0.7; stroke: #89c9c8; stroke-opacity: 0.7"/>
     <use xlink:href="#m197302f6b4" x="147.054038" y="169.700339" style="fill: #89c9c8; fill-opacity: 0.7; stroke: #89c9c8; stroke-opacity: 0.7"/>
     <use xlink:href="#m197302f6b4" x="144.251236" y="346.893559" style="fill: #89c9c8; fill-opacity: 0.7; stroke: #89c9c8; stroke-opacity: 0.7"/>
     <use xlink:href="#m197302f6b4" x="147.40815" y="266.351186" style="fill: #89c9c8; fill-opacity: 0.7; stroke: #89c9c8; stroke-opacity: 0.7"/>
     <use xlink:href="#m197302f6b4" x="147.881126" y="368.371525" style="fill: #89c9c8; fill-opacity: 0.7; stroke: #89c9c8; stroke-opacity: 0.7"/>
     <use xlink:href="#m197302f6b4" x="148.437369" y="352.263051" style="fill: #89c9c8; fill-opacity: 0.7; stroke: #89c9c8; stroke-opacity: 0.7"/>
     <use xlink:href="#m197302f6b4" x="148.875086" y="260.981695" style="fill: #89c9c8; fill-opacity: 0.7; stroke: #89c9c8; stroke-opacity: 0.7"/>
     <use xlink:href="#m197302f6b4" x="147.212295" y="228.764746" style="fill: #89c9c8; fill-opacity: 0.7; stroke: #89c9c8; stroke-opacity: 0.7"/>
     <use xlink:href="#m197302f6b4" x="150.410308" y="196.547797" style="fill: #89c9c8; fill-opacity: 0.7; stroke: #89c9c8; stroke-opacity: 0.7"/>
     <use xlink:href="#m197302f6b4" x="145.246477" y="298.568136" style="fill: #89c9c8; fill-opacity: 0.7; stroke: #89c9c8; stroke-opacity: 0.7"/>
     <use xlink:href="#m197302f6b4" x="143.613279" y="228.764746" style="fill: #89c9c8; fill-opacity: 0.7; stroke: #89c9c8; stroke-opacity: 0.7"/>
     <use xlink:href="#m197302f6b4" x="147.79902" y="352.263051" style="fill: #89c9c8; fill-opacity: 0.7; stroke: #89c9c8; stroke-opacity: 0.7"/>
    </g>
   </g>
   <g id="PathCollection_3">
    <g clip-path="url(#pffb9ccf810)">
     <use xlink:href="#m197302f6b4" x="220.29227" y="287.829153" style="fill: #89c9c8; fill-opacity: 0.7; stroke: #89c9c8; stroke-opacity: 0.7"/>
     <use xlink:href="#m197302f6b4" x="219.20844" y="320.046102" style="fill: #89c9c8; fill-opacity: 0.7; stroke: #89c9c8; stroke-opacity: 0.7"/>
     <use xlink:href="#m197302f6b4" x="220.625287" y="287.829153" style="fill: #89c9c8; fill-opacity: 0.7; stroke: #89c9c8; stroke-opacity: 0.7"/>
     <use xlink:href="#m197302f6b4" x="224.031577" y="260.981695" style="fill: #89c9c8; fill-opacity: 0.7; stroke: #89c9c8; stroke-opacity: 0.7"/>
     <use xlink:href="#m197302f6b4" x="221.836115" y="287.829153" style="fill: #89c9c8; fill-opacity: 0.7; stroke: #89c9c8; stroke-opacity: 0.7"/>
     <use xlink:href="#m197302f6b4" x="218.872102" y="207.28678" style="fill: #89c9c8; fill-opacity: 0.7; stroke: #89c9c8; stroke-opacity: 0.7"/>
     <use xlink:href="#m197302f6b4" x="225.06564" y="255.612203" style="fill: #89c9c8; fill-opacity: 0.7; stroke: #89c9c8; stroke-opacity: 0.7"/>
     <use xlink:href="#m197302f6b4" x="222.387653" y="191.178305" style="fill: #89c9c8; fill-opacity: 0.7; stroke: #89c9c8; stroke-opacity: 0.7"/>
     <use xlink:href="#m197302f6b4" x="220.138969" y="298.568136" style="fill: #89c9c8; fill-opacity: 0.7; stroke: #89c9c8; stroke-opacity: 0.7"/>
     <use xlink:href="#m197302f6b4" x="224.666376" y="277.090169" style="fill: #89c9c8; fill-opacity: 0.7; stroke: #89c9c8; stroke-opacity: 0.7"/>
     <use xlink:href="#m197302f6b4" x="218.195219" y="228.764746" style="fill: #89c9c8; fill-opacity: 0.7; stroke: #89c9c8; stroke-opacity: 0.7"/>
     <use xlink:href="#m197302f6b4" x="223.665036" y="164.330847" style="fill: #89c9c8; fill-opacity: 0.7; stroke: #89c9c8; stroke-opacity: 0.7"/>
     <use xlink:href="#m197302f6b4" x="223.918622" y="218.025763" style="fill: #89c9c8; fill-opacity: 0.7; stroke: #89c9c8; stroke-opacity: 0.7"/>
     <use xlink:href="#m197302f6b4" x="224.830265" y="175.069831" style="fill: #89c9c8; fill-opacity: 0.7; stroke: #89c9c8; stroke-opacity: 0.7"/>
     <use xlink:href="#m197302f6b4" x="223.431718" y="164.330847" style="fill: #89c9c8; fill-opacity: 0.7; stroke: #89c9c8; stroke-opacity: 0.7"/>
     <use xlink:href="#m197302f6b4" x="219.335873" y="341.524068" style="fill: #89c9c8; fill-opacity: 0.7; stroke: #89c9c8; stroke-opacity: 0.7"/>
     <use xlink:href="#m197302f6b4" x="221.447033" y="255.612203" style="fill: #89c9c8; fill-opacity: 0.7; stroke: #89c9c8; stroke-opacity: 0.7"/>
     <use xlink:href="#m197302f6b4" x="224.284487" y="266.351186" style="fill: #89c9c8; fill-opacity: 0.7; stroke: #89c9c8; stroke-opacity: 0.7"/>
    </g>
   </g>
   <g id="PathCollection_4">
    <g clip-path="url(#pffb9ccf810)">
     <use xlink:href="#m197302f6b4" x="295.151263" y="373.741017" style="fill: #89c9c8; fill-opacity: 0.7; stroke: #89c9c8; stroke-opacity: 0.7"/>
     <use xlink:href="#m197302f6b4" x="293.443722" y="212.656271" style="fill: #89c9c8; fill-opacity: 0.7; stroke: #89c9c8; stroke-opacity: 0.7"/>
     <use xlink:href="#m197302f6b4" x="300.078787" y="336.154576" style="fill: #89c9c8; fill-opacity: 0.7; stroke: #89c9c8; stroke-opacity: 0.7"/>
     <use xlink:href="#m197302f6b4" x="292.827802" y="255.612203" style="fill: #89c9c8; fill-opacity: 0.7; stroke: #89c9c8; stroke-opacity: 0.7"/>
     <use xlink:href="#m197302f6b4" x="300.024411" y="277.090169" style="fill: #89c9c8; fill-opacity: 0.7; stroke: #89c9c8; stroke-opacity: 0.7"/>
     <use xlink:href="#m197302f6b4" x="298.768091" y="266.351186" style="fill: #89c9c8; fill-opacity: 0.7; stroke: #89c9c8; stroke-opacity: 0.7"/>
     <use xlink:href="#m197302f6b4" x="293.659197" y="223.395254" style="fill: #89c9c8; fill-opacity: 0.7; stroke: #89c9c8; stroke-opacity: 0.7"/>
     <use xlink:href="#m197302f6b4" x="292.728619" y="282.459661" style="fill: #89c9c8; fill-opacity: 0.7; stroke: #89c9c8; stroke-opacity: 0.7"/>
     <use xlink:href="#m197302f6b4" x="293.715278" y="234.134237" style="fill: #89c9c8; fill-opacity: 0.7; stroke: #89c9c8; stroke-opacity: 0.7"/>
     <use xlink:href="#m197302f6b4" x="296.746513" y="180.439322" style="fill: #89c9c8; fill-opacity: 0.7; stroke: #89c9c8; stroke-opacity: 0.7"/>
     <use xlink:href="#m197302f6b4" x="299.084862" y="330.785085" style="fill: #89c9c8; fill-opacity: 0.7; stroke: #89c9c8; stroke-opacity: 0.7"/>
     <use xlink:href="#m197302f6b4" x="297.902733" y="105.266441" style="fill: #89c9c8; fill-opacity: 0.7; stroke: #89c9c8; stroke-opacity: 0.7"/>
     <use xlink:href="#m197302f6b4" x="294.230795" y="379.110508" style="fill: #89c9c8; fill-opacity: 0.7; stroke: #89c9c8; stroke-opacity: 0.7"/>
     <use xlink:href="#m197302f6b4" x="297.381588" y="325.415593" style="fill: #89c9c8; fill-opacity: 0.7; stroke: #89c9c8; stroke-opacity: 0.7"/>
     <use xlink:href="#m197302f6b4" x="299.467862" y="357.632542" style="fill: #89c9c8; fill-opacity: 0.7; stroke: #89c9c8; stroke-opacity: 0.7"/>
     <use xlink:href="#m197302f6b4" x="298.972806" y="368.371525" style="fill: #89c9c8; fill-opacity: 0.7; stroke: #89c9c8; stroke-opacity: 0.7"/>
     <use xlink:href="#m197302f6b4" x="295.063284" y="330.785085" style="fill: #89c9c8; fill-opacity: 0.7; stroke: #89c9c8; stroke-opacity: 0.7"/>
     <use xlink:href="#m197302f6b4" x="299.58752" y="330.785085" style="fill: #89c9c8; fill-opacity: 0.7; stroke: #89c9c8; stroke-opacity: 0.7"/>
    </g>
   </g>
   <g id="matplotlib.axis_1">
    <g id="xtick_1">
     <g id="line2d_1">
      <defs>
       <path id="m42a35dd610" d="M 0 0 
L 0 3.5 
" style="stroke: #000000; stroke-width: 0.8"/>
      </defs>
      <g>
       <use xlink:href="#m42a35dd610" x="72.601604" y="384.48" style="stroke: #000000; stroke-width: 0.8"/>
      </g>
     </g>
     <g id="text_1">
      <!-- 对照组 -->
      <g transform="translate(57.601604 398.720625) scale(0.1 -0.1)">
       <defs>
        <path id="STZhongsong-5bf9" d="M 5082 3290 
L 5357 3290 
L 5638 3642 
Q 5690 3706 5741 3706 
Q 5792 3706 5923 3578 
Q 6054 3450 6166 3325 
Q 6278 3200 6278 3126 
Q 6278 3053 6093 3053 
L 5082 3053 
L 5082 -141 
Q 5082 -461 4963 -617 
Q 4845 -774 4617 -889 
Q 4390 -1005 4307 -1005 
Q 4224 -1005 4211 -902 
Q 4173 -602 4019 -467 
Q 3866 -333 3373 -160 
L 3405 13 
Q 4058 -128 4230 -128 
Q 4403 -128 4457 -99 
Q 4512 -70 4512 6 
L 4512 3053 
L 3149 3053 
Q 2989 3053 2874 3021 
L 2765 3322 
Q 2899 3290 3085 3290 
L 4512 3290 
L 4512 4230 
Q 4512 4595 4499 4909 
Q 4666 4864 4957 4771 
Q 5248 4678 5328 4633 
Q 5408 4589 5408 4544 
Q 5408 4454 5082 4358 
L 5082 3290 
z
M 1747 2234 
Q 2061 2976 2214 3802 
L 742 3802 
Q 570 3802 474 3757 
L 358 4032 
Q 493 4000 678 4000 
L 2189 4000 
L 2362 4230 
Q 2413 4294 2441 4294 
Q 2470 4294 2668 4166 
Q 2867 4038 2985 3955 
Q 3104 3872 3104 3821 
Q 3104 3770 2989 3750 
Q 2778 3718 2701 3482 
Q 2374 2464 2054 1862 
Q 2547 1261 2713 963 
Q 2880 666 2880 464 
Q 2880 262 2768 80 
Q 2656 -102 2557 -102 
Q 2458 -102 2416 -32 
Q 2374 38 2336 186 
Q 2195 768 1818 1440 
Q 1325 627 205 -435 
L 109 -346 
Q 1075 826 1581 1862 
Q 1293 2362 698 3270 
L 787 3341 
Q 1466 2573 1747 2234 
z
M 3021 2387 
Q 3597 1997 3795 1763 
Q 3994 1530 3994 1334 
Q 3994 1139 3885 1011 
Q 3776 883 3648 883 
Q 3578 883 3539 1018 
Q 3418 1440 3290 1712 
Q 3162 1984 2950 2317 
L 3021 2387 
z
" transform="scale(0.015625)"/>
        <path id="STZhongsong-7167" d="M 3776 4250 
L 3315 4250 
Q 3142 4250 3046 4205 
L 2931 4480 
Q 3066 4448 3251 4448 
L 5069 4448 
L 5267 4698 
Q 5318 4762 5369 4762 
Q 5421 4762 5680 4602 
Q 5939 4442 5939 4378 
Q 5939 4314 5715 4192 
Q 5651 3462 5584 3180 
Q 5517 2899 5190 2720 
Q 4864 2541 4787 2541 
Q 4730 2541 4672 2688 
Q 4589 2925 4096 3091 
L 4122 3206 
Q 4557 3130 4761 3130 
Q 4966 3130 5030 3245 
Q 5094 3360 5145 3715 
Q 5197 4070 5197 4250 
L 4320 4250 
Q 4198 3430 3878 3049 
Q 3558 2669 2816 2374 
L 2726 2490 
Q 3251 2816 3491 3190 
Q 3731 3565 3776 4250 
z
M 1331 4333 
L 2093 4333 
L 2272 4563 
Q 2304 4614 2345 4614 
Q 2387 4614 2627 4460 
Q 2867 4307 2867 4256 
Q 2867 4205 2682 4122 
L 2682 1638 
L 2694 1062 
Q 2694 986 2681 970 
Q 2669 954 2566 890 
Q 2464 826 2345 778 
Q 2227 730 2198 730 
Q 2170 730 2170 806 
L 2170 1114 
L 1286 1114 
L 1286 979 
Q 1286 909 1222 854 
Q 1158 800 1020 745 
Q 883 691 800 691 
Q 768 691 774 749 
Q 806 1062 806 1389 
L 806 4013 
Q 806 4282 787 4557 
Q 1050 4480 1331 4333 
z
M 2170 2810 
L 2170 4134 
L 1286 4134 
L 1286 2810 
L 2170 2810 
z
M 2170 1312 
L 2170 2611 
L 1286 2611 
L 1286 1312 
L 2170 1312 
z
M 3936 2355 
L 4992 2355 
L 5165 2554 
Q 5216 2611 5270 2611 
Q 5325 2611 5539 2454 
Q 5754 2298 5754 2253 
Q 5754 2208 5594 2099 
L 5594 1254 
Q 5594 1158 5600 1082 
L 5613 947 
Q 5613 864 5379 765 
Q 5146 666 5110 666 
Q 5075 666 5075 736 
L 5075 1037 
L 3878 1037 
L 3878 845 
Q 3878 794 3820 762 
Q 3763 730 3593 688 
Q 3424 646 3347 646 
Q 3315 646 3322 710 
Q 3354 928 3354 1190 
L 3354 2067 
Q 3354 2330 3334 2605 
Q 3571 2541 3936 2355 
z
M 5075 1242 
L 5075 2170 
L 3878 2170 
L 3878 1242 
L 5075 1242 
z
M 4742 672 
Q 5517 262 5789 38 
Q 6061 -186 6061 -362 
Q 6061 -538 5981 -717 
Q 5901 -896 5734 -896 
Q 5632 -896 5530 -666 
Q 5254 -26 4678 557 
L 4742 672 
z
M 2118 627 
Q 2509 333 2697 102 
Q 2886 -128 2886 -317 
Q 2886 -506 2771 -694 
Q 2656 -883 2464 -883 
Q 2355 -883 2323 -528 
Q 2291 -173 2217 57 
Q 2144 288 1997 557 
L 2118 627 
z
M 1318 608 
Q 1331 410 1331 250 
Q 1331 -422 1065 -697 
Q 800 -973 563 -973 
Q 422 -973 345 -889 
Q 269 -806 269 -707 
Q 269 -608 506 -435 
Q 819 -211 960 25 
Q 1101 262 1184 621 
L 1318 608 
z
M 3558 557 
Q 4026 282 4266 45 
Q 4506 -192 4506 -387 
Q 4506 -582 4397 -732 
Q 4288 -883 4154 -883 
Q 4051 -883 3981 -614 
Q 3827 -58 3450 467 
L 3558 557 
z
" transform="scale(0.015625)"/>
        <path id="STZhongsong-7ec4" d="M 1632 2394 
Q 858 2202 531 2029 
Q 493 2010 461 2010 
Q 429 2010 358 2144 
Q 288 2278 179 2528 
Q 365 2605 461 2665 
Q 557 2726 633 2835 
Q 710 2944 892 3318 
Q 1075 3693 1209 4051 
Q 1344 4410 1446 4806 
Q 1798 4653 2000 4534 
Q 2202 4416 2202 4371 
Q 2202 4326 2080 4314 
Q 1978 4294 1856 4102 
Q 1318 3213 800 2573 
L 1754 2611 
Q 1990 3059 2182 3590 
Q 2790 3174 2790 3078 
Q 2790 3027 2707 3014 
Q 2624 3002 2573 2957 
Q 2522 2912 2413 2758 
Q 1958 2131 1274 1338 
L 2758 1357 
L 2752 1197 
Q 2016 1062 1536 944 
Q 1056 826 909 710 
Q 858 666 813 666 
Q 768 666 736 762 
L 531 1235 
Q 730 1254 829 1302 
Q 928 1350 1005 1443 
Q 1082 1536 1283 1833 
Q 1485 2131 1632 2394 
z
M 3590 4237 
L 4723 4237 
L 4845 4467 
Q 4890 4538 4954 4538 
Q 5018 4538 5312 4365 
Q 5606 4192 5606 4131 
Q 5606 4070 5350 3930 
L 5350 -320 
L 5382 -320 
L 5594 19 
Q 5638 90 5699 90 
Q 5760 90 5987 -137 
Q 6214 -365 6214 -435 
Q 6214 -486 6035 -486 
L 2189 -486 
Q 2016 -486 1920 -531 
L 1805 -288 
Q 1939 -320 2125 -320 
L 2950 -320 
L 2950 3750 
Q 2950 4243 2931 4538 
Q 3283 4422 3590 4237 
z
M 4787 2816 
L 4787 4038 
L 3494 4038 
L 3494 2816 
L 4787 2816 
z
M 4787 1382 
L 4787 2618 
L 3494 2618 
L 3494 1382 
L 4787 1382 
z
M 4787 -320 
L 4787 1171 
L 3494 1171 
L 3494 -320 
L 4787 -320 
z
M 2803 365 
L 1613 -128 
Q 1018 -365 819 -512 
Q 755 -557 723 -557 
Q 646 -557 307 102 
Q 1472 218 2778 480 
L 2803 365 
z
" transform="scale(0.015625)"/>
       </defs>
       <use xlink:href="#STZhongsong-5bf9"/>
       <use xlink:href="#STZhongsong-7167" x="99.999985"/>
       <use xlink:href="#STZhongsong-7ec4" x="199.999969"/>
      </g>
     </g>
    </g>
    <g id="xtick_2">
     <g id="line2d_2">
      <g>
       <use xlink:href="#m42a35dd610" x="147.200535" y="384.48" style="stroke: #000000; stroke-width: 0.8"/>
      </g>
     </g>
     <g id="text_2">
      <!-- 低剂量组 -->
      <g transform="translate(127.200535 398.959687) scale(0.1 -0.1)">
       <defs>
        <path id="STZhongsong-4f4e" d="M 1549 3085 
Q 1766 2995 1766 2963 
Q 1766 2931 1651 2874 
L 1651 -819 
Q 1651 -896 1603 -928 
Q 1555 -960 1376 -1024 
Q 1197 -1088 1126 -1088 
Q 1101 -1088 1101 -1056 
L 1120 -627 
Q 1133 -307 1133 115 
L 1133 2426 
Q 685 1811 205 1357 
L 109 1446 
Q 1126 2739 1670 4858 
Q 2157 4640 2281 4563 
Q 2406 4486 2406 4444 
Q 2406 4403 2304 4374 
Q 2202 4346 2157 4282 
Q 2112 4218 1933 3821 
Q 1754 3424 1549 3085 
z
M 4454 2528 
L 5082 2528 
L 5376 2963 
Q 5427 3034 5478 3034 
Q 5530 3034 5750 2835 
Q 5971 2637 6057 2547 
Q 6144 2458 6144 2387 
Q 6144 2317 6003 2317 
L 4474 2317 
Q 4602 1216 5008 592 
Q 5414 -32 5517 -32 
Q 5549 -32 5581 35 
Q 5613 102 5734 454 
Q 5856 806 5920 1037 
L 6035 1018 
Q 5933 307 5933 -61 
Q 5933 -429 6016 -643 
Q 6099 -858 6099 -938 
Q 6099 -1018 6009 -1018 
Q 5920 -1018 5584 -832 
Q 5248 -646 4921 -246 
Q 4595 154 4345 778 
Q 4096 1402 3994 2317 
L 2925 2317 
L 2925 198 
L 4147 902 
L 4218 813 
L 3680 333 
Q 4173 26 4329 -131 
Q 4486 -288 4486 -442 
Q 4486 -672 4358 -841 
Q 4230 -1011 4096 -1011 
Q 4019 -1011 3996 -969 
Q 3974 -928 3948 -774 
Q 3923 -621 3811 -320 
Q 3699 -19 3558 218 
Q 2925 -371 2682 -704 
Q 2624 -781 2592 -781 
Q 2515 -781 2253 -218 
Q 2374 -128 2400 -77 
Q 2426 -26 2426 128 
L 2426 3552 
L 2406 4262 
Q 2784 4128 3034 3981 
Q 4442 4371 5254 4819 
Q 5466 4595 5603 4419 
Q 5741 4243 5741 4192 
Q 5741 4141 5683 4141 
Q 5626 4141 5549 4160 
Q 5472 4179 5389 4179 
Q 5306 4179 5216 4160 
L 4397 4006 
Q 4397 3149 4454 2528 
z
M 2925 2528 
L 3968 2528 
Q 3917 3187 3898 3923 
Q 3277 3834 2925 3802 
L 2925 2528 
z
" transform="scale(0.015625)"/>
        <path id="STZhongsong-5242" d="M 1517 4979 
Q 2061 4806 2240 4678 
Q 2419 4550 2419 4403 
Q 2419 4122 2300 4026 
Q 2182 3930 2064 3930 
Q 1946 3930 1898 4144 
Q 1850 4358 1744 4512 
Q 1638 4666 1453 4870 
L 1517 4979 
z
M 5203 4826 
Q 5350 4781 5619 4685 
Q 5888 4589 5933 4557 
Q 5978 4525 5978 4486 
Q 5978 4403 5760 4301 
L 5760 -371 
Q 5760 -595 5648 -726 
Q 5536 -858 5309 -960 
Q 5082 -1062 5021 -1062 
Q 4960 -1062 4947 -979 
Q 4896 -698 4701 -560 
Q 4506 -422 4173 -320 
L 4211 -205 
Q 4858 -314 5008 -314 
Q 5158 -314 5187 -288 
Q 5216 -262 5216 -205 
L 5216 4256 
Q 5216 4576 5203 4826 
z
M 2413 3693 
L 710 3693 
Q 538 3693 442 3648 
L 326 3936 
Q 461 3904 646 3904 
L 2982 3904 
L 3187 4186 
Q 3232 4250 3283 4250 
Q 3334 4250 3609 4026 
Q 3885 3802 3885 3747 
Q 3885 3693 3782 3693 
L 3002 3693 
Q 2778 3200 2522 2867 
Q 3206 2618 3411 2442 
Q 3616 2266 3616 2010 
Q 3616 1696 3437 1696 
Q 3360 1696 3270 1798 
Q 2957 2138 2246 2541 
Q 1901 2195 1478 1939 
Q 1843 1869 1936 1833 
Q 2029 1798 2029 1753 
Q 2029 1709 1949 1673 
Q 1869 1638 1869 1523 
Q 1843 755 1731 329 
Q 1619 -96 1331 -393 
Q 1043 -691 448 -973 
L 397 -890 
Q 826 -557 1018 -262 
Q 1210 32 1270 486 
Q 1331 941 1338 1856 
Q 877 1606 230 1389 
L 179 1498 
Q 1280 2099 1837 2765 
Q 1325 3034 736 3258 
L 781 3373 
Q 1395 3226 2042 3027 
Q 2259 3341 2413 3693 
z
M 4026 3930 
Q 4493 3808 4589 3766 
Q 4685 3725 4685 3686 
Q 4685 3648 4550 3578 
L 4550 1139 
L 4563 570 
Q 4563 506 4524 474 
Q 4486 442 4313 374 
Q 4141 307 4083 307 
Q 4026 307 4026 378 
L 4032 627 
Q 4038 768 4038 1139 
L 4038 3418 
Q 4038 3706 4026 3930 
z
M 2528 1939 
Q 2650 1914 2883 1853 
Q 3117 1792 3152 1766 
Q 3187 1741 3187 1696 
Q 3187 1651 3046 1568 
L 3046 -570 
Q 3046 -634 2998 -669 
Q 2950 -704 2796 -761 
Q 2643 -819 2579 -819 
Q 2515 -819 2515 -742 
L 2528 -474 
Q 2534 -173 2534 90 
L 2534 1370 
Q 2534 1843 2528 1939 
z
" transform="scale(0.015625)"/>
        <path id="STZhongsong-91cf" d="M 2054 4480 
L 4410 4480 
L 4576 4691 
Q 4608 4730 4640 4730 
Q 4691 4730 4969 4582 
Q 5248 4435 5248 4368 
Q 5248 4301 5024 4198 
L 5024 3738 
Q 5024 3552 5037 3341 
L 5043 3142 
Q 5043 3098 5030 3075 
Q 5018 3053 4922 2992 
Q 4826 2931 4685 2876 
Q 4544 2822 4509 2822 
Q 4474 2822 4474 2880 
L 4474 3046 
L 2016 3046 
Q 2029 2989 2006 2960 
Q 1984 2931 1897 2886 
Q 1811 2842 1660 2797 
Q 1510 2752 1475 2752 
Q 1440 2752 1446 2822 
Q 1478 3130 1478 3456 
L 1478 4198 
Q 1478 4467 1459 4742 
Q 1830 4608 2054 4480 
z
M 4474 3853 
L 4474 4294 
L 2016 4294 
L 2016 3853 
L 4474 3853 
z
M 4474 3213 
L 4474 3674 
L 2016 3674 
L 2016 3213 
L 4474 3213 
z
M 5171 2675 
L 5395 3040 
Q 5434 3110 5491 3110 
Q 5549 3110 5690 2989 
L 5984 2746 
Q 6138 2618 6138 2560 
Q 6138 2502 5990 2502 
L 640 2502 
Q 467 2502 371 2458 
L 256 2707 
Q 390 2675 576 2675 
L 5171 2675 
z
M 3482 672 
L 3482 166 
L 4666 166 
L 4864 416 
Q 4902 474 4950 474 
Q 4998 474 5251 285 
Q 5504 96 5504 38 
Q 5504 -19 5286 -19 
L 3482 -19 
L 3482 -550 
L 5203 -550 
L 5434 -230 
Q 5485 -160 5542 -160 
Q 5600 -160 5865 -390 
Q 6131 -621 6131 -691 
Q 6131 -736 5965 -736 
L 582 -736 
Q 410 -736 314 -781 
L 198 -518 
Q 333 -550 518 -550 
L 2931 -550 
L 2931 -19 
L 1274 -19 
Q 1101 -19 1005 -64 
L 877 198 
Q 1011 166 1197 166 
L 2931 166 
L 2931 672 
L 1843 672 
Q 1843 589 1824 569 
Q 1805 550 1725 505 
Q 1645 461 1481 413 
Q 1318 365 1296 365 
Q 1274 365 1280 422 
Q 1312 717 1312 1050 
L 1312 1747 
Q 1312 2074 1293 2355 
Q 1715 2253 1926 2150 
L 4544 2150 
L 4685 2362 
Q 4717 2413 4765 2413 
Q 4813 2413 4944 2333 
Q 5075 2253 5209 2157 
Q 5344 2061 5344 2029 
Q 5344 1971 5126 1850 
L 5126 1363 
Q 5126 1056 5133 954 
L 5139 762 
Q 5139 704 5091 669 
Q 5043 634 4880 592 
Q 4717 550 4627 550 
Q 4576 550 4576 627 
L 4576 672 
L 3482 672 
z
M 2931 1510 
L 2931 1978 
L 1843 1978 
L 1843 1510 
L 2931 1510 
z
M 3482 1978 
L 3482 1510 
L 4576 1510 
L 4576 1978 
L 3482 1978 
z
M 3482 1312 
L 3482 858 
L 4576 858 
L 4576 1312 
L 3482 1312 
z
M 2931 858 
L 2931 1312 
L 1843 1312 
L 1843 858 
L 2931 858 
z
" transform="scale(0.015625)"/>
       </defs>
       <use xlink:href="#STZhongsong-4f4e"/>
       <use xlink:href="#STZhongsong-5242" x="99.999985"/>
       <use xlink:href="#STZhongsong-91cf" x="199.999969"/>
       <use xlink:href="#STZhongsong-7ec4" x="299.999954"/>
      </g>
     </g>
    </g>
    <g id="xtick_3">
     <g id="line2d_3">
      <g>
       <use xlink:href="#m42a35dd610" x="221.799465" y="384.48" style="stroke: #000000; stroke-width: 0.8"/>
      </g>
     </g>
     <g id="text_3">
      <!-- 中剂量组 -->
      <g transform="translate(201.799465 398.919062) scale(0.1 -0.1)">
       <defs>
        <path id="STZhongsong-4e2d" d="M 1510 3296 
L 2854 3296 
L 2854 4352 
Q 2854 4685 2842 4922 
Q 3322 4762 3517 4688 
Q 3712 4614 3712 4553 
Q 3712 4493 3450 4390 
L 3450 3296 
L 4883 3296 
L 5050 3610 
Q 5088 3680 5133 3680 
Q 5197 3680 5523 3491 
Q 5850 3302 5850 3232 
Q 5850 3162 5530 3014 
L 5530 1504 
Q 5530 1408 5536 1325 
L 5549 1190 
Q 5549 1146 5485 1107 
Q 5421 1069 5241 1021 
Q 5062 973 4979 973 
Q 4941 973 4941 1037 
L 4941 1376 
L 3450 1376 
L 3450 -64 
Q 3450 -275 3462 -512 
L 3469 -730 
Q 3469 -781 3424 -813 
Q 3379 -845 3145 -918 
Q 2912 -992 2873 -992 
Q 2835 -992 2835 -890 
L 2848 -640 
Q 2854 -384 2854 -64 
L 2854 1376 
L 1382 1376 
L 1382 1101 
Q 1382 1056 1331 1017 
Q 1280 979 1065 908 
Q 851 838 803 838 
Q 755 838 762 902 
Q 794 1120 794 1382 
L 794 3123 
Q 794 3392 774 3667 
Q 1235 3488 1510 3296 
z
M 2854 3110 
L 1382 3110 
L 1382 1562 
L 2854 1562 
L 2854 3110 
z
M 4941 1562 
L 4941 3110 
L 3450 3110 
L 3450 1562 
L 4941 1562 
z
" transform="scale(0.015625)"/>
       </defs>
       <use xlink:href="#STZhongsong-4e2d"/>
       <use xlink:href="#STZhongsong-5242" x="99.999985"/>
       <use xlink:href="#STZhongsong-91cf" x="199.999969"/>
       <use xlink:href="#STZhongsong-7ec4" x="299.999954"/>
      </g>
     </g>
    </g>
    <g id="xtick_4">
     <g id="line2d_4">
      <g>
       <use xlink:href="#m42a35dd610" x="296.398396" y="384.48" style="stroke: #000000; stroke-width: 0.8"/>
      </g>
     </g>
     <g id="text_4">
      <!-- 高剂量组 -->
      <g transform="translate(276.398396 398.969063) scale(0.1 -0.1)">
       <defs>
        <path id="STZhongsong-9ad8" d="M 3002 4083 
Q 2938 4557 2573 4838 
L 2611 4954 
Q 3629 4845 3629 4474 
Q 3629 4378 3568 4256 
Q 3507 4134 3443 4083 
L 4992 4083 
L 5235 4454 
Q 5306 4563 5405 4563 
Q 5504 4563 5808 4300 
Q 6112 4038 6112 3964 
Q 6112 3891 5984 3891 
L 659 3891 
Q 486 3891 390 3846 
L 275 4115 
Q 410 4083 595 4083 
L 3002 4083 
z
M 4109 2387 
L 2221 2387 
Q 2221 2304 2195 2262 
Q 2170 2221 2003 2166 
Q 1837 2112 1696 2112 
Q 1658 2112 1664 2163 
Q 1696 2477 1696 2739 
L 1696 3226 
Q 1696 3494 1677 3770 
Q 2099 3610 2285 3494 
L 4058 3494 
L 4218 3744 
Q 4243 3789 4304 3789 
Q 4365 3789 4633 3632 
Q 4902 3475 4902 3408 
Q 4902 3341 4653 3251 
L 4653 2861 
Q 4653 2650 4659 2573 
L 4672 2419 
Q 4672 2336 4445 2269 
Q 4218 2202 4147 2202 
Q 4109 2202 4109 2259 
L 4109 2387 
z
M 2221 2573 
L 4109 2573 
L 4109 3296 
L 2221 3296 
L 2221 2573 
z
M 1677 1875 
L 4870 1875 
L 5024 2112 
Q 5056 2157 5097 2157 
Q 5139 2157 5376 2016 
Q 5613 1875 5686 1824 
Q 5760 1773 5760 1725 
Q 5760 1677 5517 1574 
L 5517 -435 
Q 5517 -582 5485 -681 
Q 5453 -781 5353 -861 
Q 5254 -941 5046 -1017 
Q 4838 -1094 4764 -1094 
Q 4691 -1094 4691 -998 
Q 4691 -787 4531 -665 
Q 4371 -544 3878 -435 
L 3910 -288 
Q 4442 -384 4627 -384 
Q 4813 -384 4883 -352 
Q 4954 -320 4954 -218 
L 4954 1696 
L 1485 1696 
L 1485 -813 
Q 1485 -864 1472 -886 
Q 1459 -909 1337 -963 
Q 1216 -1018 1097 -1046 
Q 979 -1075 950 -1075 
Q 922 -1075 922 -1043 
L 941 -698 
Q 954 -480 954 -147 
L 954 1581 
Q 954 1901 941 2150 
Q 1363 2042 1677 1875 
z
M 3744 173 
L 2656 173 
L 2656 32 
Q 2656 -26 2643 -42 
Q 2630 -58 2531 -109 
Q 2432 -160 2317 -192 
Q 2202 -224 2166 -224 
Q 2131 -224 2138 -166 
Q 2170 147 2170 493 
L 2170 883 
Q 2170 1075 2144 1427 
Q 2515 1331 2739 1210 
L 3674 1210 
L 3834 1414 
Q 3878 1472 3926 1472 
Q 3974 1472 4220 1302 
Q 4467 1133 4467 1065 
Q 4467 998 4256 915 
L 4256 531 
Q 4256 365 4262 262 
L 4275 90 
Q 4275 6 4076 -61 
Q 3878 -128 3782 -128 
Q 3744 -128 3744 -70 
L 3744 173 
z
M 2656 358 
L 3744 358 
L 3744 1024 
L 2656 1024 
L 2656 358 
z
" transform="scale(0.015625)"/>
       </defs>
       <use xlink:href="#STZhongsong-9ad8"/>
       <use xlink:href="#STZhongsong-5242" x="99.999985"/>
       <use xlink:href="#STZhongsong-91cf" x="199.999969"/>
       <use xlink:href="#STZhongsong-7ec4" x="299.999954"/>
      </g>
     </g>
    </g>
   </g>
   <g id="matplotlib.axis_2">
    <g id="ytick_1">
     <g id="line2d_5">
      <defs>
       <path id="m9dafd9de29" d="M 0 0 
L -3.5 0 
" style="stroke: #000000; stroke-width: 0.8"/>
      </defs>
      <g>
       <use xlink:href="#m9dafd9de29" x="45" y="384.48" style="stroke: #000000; stroke-width: 0.8"/>
      </g>
     </g>
     <g id="text_5">
      <!-- 0 -->
      <g transform="translate(31.8 388.059687) scale(0.1 -0.1)">
       <defs>
        <path id="STZhongsong-30" d="M 326 2182 
Q 326 3251 774 3843 
Q 1222 4435 1997 4435 
Q 2752 4435 3197 3827 
Q 3642 3219 3642 2144 
Q 3642 1139 3178 531 
Q 2714 -77 1952 -77 
Q 1229 -77 777 524 
Q 326 1126 326 2182 
z
M 3040 2182 
Q 3040 3104 2758 3616 
Q 2477 4128 1978 4128 
Q 1478 4128 1200 3590 
Q 922 3053 922 2118 
Q 922 1229 1210 733 
Q 1498 237 1971 237 
Q 2470 237 2755 752 
Q 3040 1267 3040 2182 
z
" transform="scale(0.015625)"/>
       </defs>
       <use xlink:href="#STZhongsong-30"/>
      </g>
     </g>
    </g>
    <g id="ytick_2">
     <g id="line2d_6">
      <g>
       <use xlink:href="#m9dafd9de29" x="45" y="330.785085" style="stroke: #000000; stroke-width: 0.8"/>
      </g>
     </g>
     <g id="text_6">
      <!-- 10 -->
      <g transform="translate(25.6 334.364772) scale(0.1 -0.1)">
       <defs>
        <path id="STZhongsong-31" d="M 2150 4358 
L 2387 4358 
L 2387 742 
Q 2387 422 2464 342 
Q 2541 262 2822 262 
L 3130 262 
L 3130 0 
L 1069 0 
L 1069 262 
L 1408 262 
Q 1670 262 1766 348 
Q 1862 435 1862 742 
L 1862 3718 
L 1069 3718 
L 1069 3987 
Q 1709 4070 2150 4358 
z
" transform="scale(0.015625)"/>
       </defs>
       <use xlink:href="#STZhongsong-31"/>
       <use xlink:href="#STZhongsong-30" x="61.999985"/>
      </g>
     </g>
    </g>
    <g id="ytick_3">
     <g id="line2d_7">
      <g>
       <use xlink:href="#m9dafd9de29" x="45" y="277.090169" style="stroke: #000000; stroke-width: 0.8"/>
      </g>
     </g>
     <g id="text_7">
      <!-- 20 -->
      <g transform="translate(25.6 280.669857) scale(0.1 -0.1)">
       <defs>
        <path id="STZhongsong-32" d="M 723 2714 
L 422 2675 
Q 397 2835 397 2989 
Q 397 3616 832 4025 
Q 1267 4435 1978 4435 
Q 2630 4435 3043 4064 
Q 3456 3693 3456 3098 
Q 3456 2669 3286 2349 
Q 3117 2029 2611 1603 
Q 2106 1178 1037 467 
L 2662 467 
Q 2963 467 3062 544 
Q 3162 621 3200 838 
L 3232 1018 
L 3494 1018 
L 3283 -154 
L 3085 -154 
L 3053 0 
L 320 0 
L 320 262 
L 819 640 
Q 1901 1453 2377 1977 
Q 2854 2502 2854 3066 
Q 2854 3507 2569 3788 
Q 2285 4070 1837 4070 
Q 1325 4070 1017 3753 
Q 710 3437 710 2918 
Q 710 2822 723 2714 
z
" transform="scale(0.015625)"/>
       </defs>
       <use xlink:href="#STZhongsong-32"/>
       <use xlink:href="#STZhongsong-30" x="61.999985"/>
      </g>
     </g>
    </g>
    <g id="ytick_4">
     <g id="line2d_8">
      <g>
       <use xlink:href="#m9dafd9de29" x="45" y="223.395254" style="stroke: #000000; stroke-width: 0.8"/>
      </g>
     </g>
     <g id="text_8">
      <!-- 30 -->
      <g transform="translate(25.6 226.974942) scale(0.1 -0.1)">
       <defs>
        <path id="STZhongsong-33" d="M 934 3194 
L 634 3238 
Q 717 3827 1097 4131 
Q 1478 4435 2061 4435 
Q 2662 4435 3046 4124 
Q 3430 3814 3430 3360 
Q 3430 3021 3190 2761 
Q 2950 2502 2502 2374 
Q 3046 2298 3334 1974 
Q 3622 1651 3622 1222 
Q 3622 698 3155 310 
Q 2688 -77 1997 -77 
Q 1299 -77 844 275 
Q 390 627 390 960 
Q 390 1114 505 1184 
Q 621 1254 710 1254 
Q 922 1254 1043 858 
Q 1133 544 1369 377 
Q 1606 211 1952 211 
Q 2419 211 2720 512 
Q 3021 813 3021 1267 
Q 3021 1702 2717 1952 
Q 2413 2202 1862 2202 
L 1568 2202 
L 1568 2502 
L 1754 2502 
Q 2829 2502 2829 3283 
Q 2829 3629 2592 3843 
Q 2355 4058 1952 4058 
Q 1107 4058 934 3194 
z
" transform="scale(0.015625)"/>
       </defs>
       <use xlink:href="#STZhongsong-33"/>
       <use xlink:href="#STZhongsong-30" x="61.999985"/>
      </g>
     </g>
    </g>
    <g id="ytick_5">
     <g id="line2d_9">
      <g>
       <use xlink:href="#m9dafd9de29" x="45" y="169.700339" style="stroke: #000000; stroke-width: 0.8"/>
      </g>
     </g>
     <g id="text_9">
      <!-- 40 -->
      <g transform="translate(25.6 173.280026) scale(0.1 -0.1)">
       <defs>
        <path id="STZhongsong-34" d="M 3494 1242 
L 2906 1242 
L 2906 518 
Q 2906 275 3213 250 
L 3213 45 
L 1882 45 
L 1882 250 
Q 2054 262 2156 336 
Q 2259 410 2259 518 
L 2259 1242 
L 550 1242 
L 550 1658 
L 2483 4365 
L 2906 4365 
L 2906 1581 
L 3494 1581 
L 3494 1242 
z
M 2259 1581 
L 2259 3462 
L 902 1581 
L 2259 1581 
z
" transform="scale(0.015625)"/>
       </defs>
       <use xlink:href="#STZhongsong-34"/>
       <use xlink:href="#STZhongsong-30" x="61.999985"/>
      </g>
     </g>
    </g>
    <g id="ytick_6">
     <g id="line2d_10">
      <g>
       <use xlink:href="#m9dafd9de29" x="45" y="116.005424" style="stroke: #000000; stroke-width: 0.8"/>
      </g>
     </g>
     <g id="text_10">
      <!-- 50 -->
      <g transform="translate(25.6 119.585111) scale(0.1 -0.1)">
       <defs>
        <path id="STZhongsong-35" d="M 934 4358 
L 2880 4358 
Q 3046 4358 3097 4387 
Q 3149 4416 3155 4512 
L 3386 4512 
L 3386 3853 
L 1229 3853 
L 1171 2752 
Q 1530 2848 1990 2848 
Q 2771 2848 3228 2451 
Q 3686 2054 3686 1414 
Q 3686 787 3212 355 
Q 2739 -77 2029 -77 
Q 1414 -77 982 236 
Q 550 550 550 890 
Q 550 1037 640 1123 
Q 730 1210 838 1210 
Q 1062 1210 1203 813 
Q 1421 218 2042 218 
Q 2515 218 2819 528 
Q 3123 838 3123 1312 
Q 3123 1824 2777 2128 
Q 2432 2432 1843 2432 
Q 1280 2432 832 2246 
L 934 4358 
z
" transform="scale(0.015625)"/>
       </defs>
       <use xlink:href="#STZhongsong-35"/>
       <use xlink:href="#STZhongsong-30" x="61.999985"/>
      </g>
     </g>
    </g>
    <g id="ytick_7">
     <g id="line2d_11">
      <g>
       <use xlink:href="#m9dafd9de29" x="45" y="62.310508" style="stroke: #000000; stroke-width: 0.8"/>
      </g>
     </g>
     <g id="text_11">
      <!-- 60 -->
      <g transform="translate(25.6 65.890196) scale(0.1 -0.1)">
       <defs>
        <path id="STZhongsong-36" d="M 3238 4442 
L 3238 4154 
Q 2131 4141 1603 3686 
Q 1075 3232 1037 2227 
Q 1446 2893 2240 2893 
Q 2880 2893 3289 2486 
Q 3699 2080 3699 1440 
Q 3699 742 3257 332 
Q 2816 -77 2093 -77 
Q 1286 -77 848 444 
Q 410 966 410 1926 
Q 410 3046 1056 3744 
Q 1702 4442 2995 4442 
L 3238 4442 
z
M 3072 1414 
Q 3072 1933 2800 2246 
Q 2528 2560 2099 2560 
Q 1658 2560 1363 2224 
Q 1069 1888 1069 1402 
Q 1069 890 1350 550 
Q 1632 211 2074 211 
Q 2509 211 2790 544 
Q 3072 877 3072 1414 
z
" transform="scale(0.015625)"/>
       </defs>
       <use xlink:href="#STZhongsong-36"/>
       <use xlink:href="#STZhongsong-30" x="61.999985"/>
      </g>
     </g>
    </g>
    <g id="text_12">
     <!-- 扭体次数（次/15min） -->
     <g transform="translate(19.6 271.86) rotate(-90) scale(0.1 -0.1)">
      <defs>
       <path id="STZhongsong-626d" d="M 1350 3162 
L 634 3162 
Q 474 3162 358 3130 
L 250 3398 
Q 384 3366 570 3366 
L 1350 3366 
L 1350 4141 
Q 1350 4512 1338 4832 
Q 1632 4768 1891 4688 
Q 2150 4608 2150 4544 
Q 2150 4480 1888 4365 
L 1888 3366 
L 2125 3366 
L 2336 3622 
Q 2400 3706 2454 3706 
Q 2509 3706 2729 3491 
Q 2950 3277 2950 3206 
Q 2950 3162 2816 3162 
L 1888 3162 
L 1888 2291 
L 2790 2720 
L 2842 2605 
L 1888 1958 
L 1888 -282 
Q 1888 -461 1821 -582 
Q 1754 -704 1558 -835 
Q 1363 -966 1312 -966 
Q 1261 -966 1229 -870 
Q 1158 -678 1001 -547 
Q 845 -416 467 -275 
L 499 -154 
Q 1043 -256 1171 -256 
Q 1299 -256 1324 -227 
Q 1350 -198 1350 -122 
L 1350 1587 
Q 813 1203 589 979 
Q 538 928 490 928 
Q 442 928 390 1046 
Q 339 1165 134 1549 
Q 774 1779 1350 2042 
L 1350 3162 
z
M 3411 4064 
L 2758 4064 
Q 2586 4064 2490 4019 
L 2374 4294 
Q 2509 4262 2694 4262 
L 4845 4262 
L 4941 4435 
Q 4979 4506 5020 4506 
Q 5062 4506 5178 4442 
L 5427 4294 
Q 5562 4211 5613 4166 
Q 5664 4122 5664 4083 
Q 5664 4006 5363 3840 
L 5139 -410 
L 5331 -410 
L 5510 -154 
Q 5606 -26 5683 -26 
Q 5760 -26 5968 -259 
Q 6176 -493 6176 -550 
Q 6176 -608 6029 -608 
L 2406 -608 
Q 2234 -608 2138 -653 
L 2022 -378 
Q 2157 -410 2342 -410 
L 3066 -410 
L 3245 1920 
L 2662 1920 
Q 2490 1920 2394 1875 
L 2278 2138 
Q 2413 2106 2598 2106 
L 3258 2106 
L 3411 4064 
z
M 4717 2106 
L 4826 4064 
L 3949 4064 
L 3795 2106 
L 4717 2106 
z
M 4576 -410 
L 4704 1920 
L 3776 1920 
L 3590 -410 
L 4576 -410 
z
" transform="scale(0.015625)"/>
       <path id="STZhongsong-4f53" d="M 3296 3386 
L 2368 3386 
Q 2202 3386 2093 3354 
L 1984 3616 
Q 2118 3584 2304 3584 
L 3514 3584 
Q 3507 4723 3494 4819 
Q 4237 4659 4237 4557 
Q 4237 4506 4026 4346 
L 4026 3584 
L 4973 3584 
L 5229 3955 
Q 5280 4026 5341 4026 
Q 5402 4026 5674 3776 
Q 5946 3526 5946 3456 
Q 5946 3386 5830 3386 
L 4192 3386 
Q 4544 2368 5094 1696 
Q 5645 1024 6266 845 
L 6266 730 
Q 5747 749 5530 422 
Q 5498 365 5440 365 
Q 5408 365 5366 400 
Q 5325 435 5059 806 
Q 4794 1178 4605 1571 
Q 4416 1965 4285 2400 
Q 4154 2835 4058 3386 
L 4026 3386 
L 4026 710 
L 4307 710 
L 4486 986 
Q 4525 1043 4579 1043 
Q 4634 1043 4864 851 
Q 5094 659 5094 592 
Q 5094 525 4954 525 
L 4026 525 
Q 4026 83 4038 -397 
L 4051 -781 
Q 4051 -826 4000 -864 
Q 3949 -902 3757 -982 
Q 3565 -1062 3494 -1062 
Q 3450 -1062 3456 -986 
Q 3514 -384 3514 525 
L 2803 525 
Q 2637 525 2528 493 
L 2419 742 
Q 2554 710 2739 710 
L 3514 710 
L 3514 2656 
Q 3187 1818 2768 1232 
Q 2349 646 1658 77 
L 1658 -685 
Q 1658 -723 1645 -745 
Q 1632 -768 1517 -835 
Q 1402 -902 1290 -944 
Q 1178 -986 1146 -986 
Q 1114 -986 1114 -922 
L 1133 -538 
Q 1146 -102 1146 218 
L 1146 2496 
Q 704 1754 256 1229 
L 173 1312 
Q 1146 2899 1517 4851 
Q 2304 4589 2304 4486 
Q 2304 4442 2192 4413 
Q 2080 4384 2035 4326 
Q 1990 4269 1946 4147 
Q 1741 3603 1421 2995 
Q 1856 2867 1856 2784 
Q 1856 2739 1658 2598 
L 1658 243 
Q 2317 1069 2681 1792 
Q 3046 2515 3296 3386 
z
" transform="scale(0.015625)"/>
       <path id="STZhongsong-6b21" d="M 3366 3213 
Q 2912 2298 2272 1523 
L 2150 1587 
Q 3021 3046 3322 4966 
Q 3526 4902 3798 4784 
Q 4070 4666 4108 4627 
Q 4147 4589 4147 4544 
Q 4147 4499 4048 4486 
Q 3949 4474 3904 4422 
Q 3859 4371 3760 4099 
Q 3661 3827 3469 3424 
L 5024 3424 
L 5267 3725 
Q 5338 3808 5376 3808 
Q 5440 3808 5737 3488 
Q 6035 3168 6035 3066 
Q 6035 3021 5996 3011 
Q 5958 3002 5772 3002 
Q 5587 3002 5392 2880 
Q 5197 2758 4742 2317 
L 4614 2394 
Q 4909 2854 5056 3213 
L 3366 3213 
z
M 787 4531 
Q 1517 4141 1725 3917 
Q 1933 3693 1933 3497 
Q 1933 3302 1789 3129 
Q 1645 2957 1498 2957 
Q 1421 2957 1379 3005 
Q 1338 3053 1312 3181 
Q 1210 3661 1078 3907 
Q 947 4154 704 4429 
L 787 4531 
z
M 2483 3469 
L 1786 1766 
Q 1658 1453 1613 1238 
Q 1568 1024 1568 768 
Q 1568 512 1600 198 
Q 1632 -115 1632 -224 
Q 1632 -672 1427 -672 
Q 1222 -672 1030 -531 
Q 838 -390 838 -205 
Q 838 -166 851 -128 
Q 1030 499 1030 748 
Q 1030 998 867 1107 
Q 704 1216 384 1306 
L 397 1427 
Q 666 1382 838 1382 
Q 1011 1382 1132 1446 
Q 1254 1510 1402 1773 
L 2381 3520 
L 2483 3469 
z
M 4115 2534 
Q 4083 2438 4083 2310 
Q 4013 768 3401 22 
Q 2790 -723 1581 -1101 
L 1523 -1005 
Q 2566 -512 3056 285 
Q 3546 1082 3603 3110 
Q 3917 3040 4131 2960 
Q 4346 2880 4384 2845 
Q 4422 2810 4422 2771 
Q 4422 2720 4342 2707 
Q 4262 2694 4218 2669 
Q 4422 1293 4864 553 
Q 5306 -186 6208 -672 
L 6182 -787 
Q 6016 -768 5888 -768 
Q 5613 -768 5370 -915 
Q 5325 -941 5293 -941 
Q 5158 -941 4672 -89 
Q 4186 762 4115 2534 
z
" transform="scale(0.015625)"/>
       <path id="STZhongsong-6570" d="M 2394 3334 
L 2938 3334 
L 3136 3616 
Q 3181 3680 3245 3680 
Q 3309 3680 3520 3462 
Q 3731 3245 3731 3193 
Q 3731 3142 3610 3142 
L 2394 3142 
L 2394 3027 
Q 2784 2938 3069 2819 
Q 3354 2701 3354 2515 
Q 3354 2381 3296 2227 
Q 3238 2074 3171 2074 
Q 3104 2074 3069 2109 
Q 3034 2144 2963 2259 
Q 2893 2374 2720 2556 
Q 2547 2739 2394 2854 
Q 2406 2381 2406 2259 
Q 2406 2138 2393 2099 
Q 2381 2061 2217 2006 
Q 2054 1952 1971 1933 
Q 2291 1811 2291 1722 
Q 2291 1670 2227 1660 
Q 2163 1651 2118 1609 
Q 2074 1568 1990 1434 
L 2637 1434 
L 2803 1619 
Q 2854 1677 2892 1677 
Q 2931 1677 3190 1481 
Q 3450 1286 3450 1228 
Q 3450 1171 3338 1148 
Q 3226 1126 3168 1088 
Q 3110 1050 3053 941 
Q 2848 563 2637 307 
Q 3040 205 3133 38 
Q 3226 -128 3226 -262 
Q 3226 -397 3187 -467 
Q 3149 -538 3101 -538 
Q 3053 -538 2816 -378 
Q 2579 -218 2278 -51 
Q 1664 -589 384 -992 
L 333 -877 
Q 1338 -371 1875 141 
Q 1440 326 845 474 
Q 1184 954 1331 1222 
L 691 1222 
Q 518 1222 422 1190 
L 307 1453 
Q 410 1434 627 1434 
L 1440 1434 
Q 1626 1824 1690 2035 
Q 1818 1997 1869 1978 
Q 1888 2515 1888 2874 
Q 1421 2125 282 1613 
L 243 1715 
Q 1075 2330 1549 3142 
L 589 3142 
Q 467 3142 390 3110 
L 301 3366 
Q 416 3334 550 3334 
L 1888 3334 
L 1888 4147 
Q 1888 4698 1875 4877 
Q 2592 4723 2592 4653 
Q 2592 4608 2394 4499 
L 2394 3334 
z
M 1856 1222 
L 1427 570 
Q 1914 480 2138 429 
Q 2413 762 2630 1222 
L 1856 1222 
z
M 4326 3270 
L 5222 3270 
L 5485 3590 
Q 5549 3661 5609 3661 
Q 5670 3661 5939 3421 
Q 6208 3181 6208 3117 
Q 6208 3072 6054 3072 
L 5050 3072 
Q 5638 2925 5638 2810 
Q 5638 2771 5542 2742 
Q 5446 2714 5404 2643 
Q 5363 2573 5338 2438 
Q 5088 1069 4749 518 
Q 5261 -186 6304 -646 
L 6246 -774 
Q 6080 -730 5933 -730 
Q 5658 -730 5446 -902 
Q 5389 -947 5363 -947 
Q 5299 -947 4934 -534 
Q 4570 -122 4448 102 
Q 4115 -301 3657 -579 
Q 3200 -858 2470 -1139 
L 2413 -1005 
Q 3642 -307 4211 544 
Q 3942 1152 3878 2342 
Q 3654 1946 3322 1491 
L 3213 1555 
Q 3949 2963 4109 4877 
Q 4333 4832 4563 4761 
Q 4794 4691 4858 4649 
Q 4922 4608 4922 4563 
Q 4922 4518 4813 4492 
Q 4704 4467 4653 4384 
Q 4602 4301 4538 3974 
Q 4474 3648 4326 3270 
z
M 4870 3072 
L 4250 3072 
L 4064 2682 
Q 4141 1594 4454 979 
Q 4723 1619 4870 3072 
z
M 3104 4602 
Q 3264 4525 3453 4422 
Q 3642 4320 3670 4288 
Q 3699 4256 3699 4221 
Q 3699 4186 3673 4170 
Q 3648 4154 3539 4154 
Q 3430 4154 3315 4038 
Q 2957 3680 2528 3392 
L 2464 3488 
Q 2906 4102 3104 4602 
z
M 653 4512 
Q 1171 4326 1353 4201 
Q 1536 4077 1536 3901 
Q 1536 3725 1453 3590 
Q 1370 3456 1286 3456 
Q 1203 3456 1164 3494 
Q 1126 3533 1084 3673 
Q 1043 3814 899 4038 
Q 755 4262 589 4429 
L 653 4512 
z
" transform="scale(0.015625)"/>
       <path id="STZhongsong-ff08" d="M 5747 4563 
Q 4781 3258 4781 1997 
Q 4781 1075 5011 480 
Q 5242 -115 5741 -826 
L 5587 -966 
Q 4864 -320 4515 368 
Q 4166 1056 4166 1990 
Q 4166 2688 4537 3395 
Q 4909 4102 5619 4698 
L 5747 4563 
z
" transform="scale(0.015625)"/>
       <path id="STZhongsong-2f" d="M 3194 4909 
L 928 -1069 
L 467 -1069 
L 2720 4909 
L 3194 4909 
z
" transform="scale(0.015625)"/>
       <path id="STZhongsong-6d" d="M 224 2566 
L 224 2829 
Q 646 2874 1037 3091 
L 1267 3091 
L 1267 2566 
Q 1683 2893 1916 2992 
Q 2150 3091 2406 3091 
Q 2662 3091 2902 2969 
Q 3142 2848 3264 2566 
Q 3853 3091 4435 3091 
Q 4858 3091 5091 2854 
Q 5325 2618 5325 2189 
L 5325 736 
Q 5325 448 5398 355 
Q 5472 262 5760 262 
L 5862 262 
L 5862 0 
L 4288 0 
L 4288 262 
Q 4608 262 4704 342 
Q 4800 422 4800 736 
L 4800 2118 
Q 4800 2438 4678 2576 
Q 4557 2714 4282 2714 
Q 4051 2714 3776 2576 
Q 3501 2438 3309 2227 
L 3309 736 
Q 3309 416 3395 339 
Q 3482 262 3821 262 
L 3821 0 
L 2278 0 
L 2278 262 
L 2368 262 
Q 2624 262 2701 361 
Q 2778 461 2778 736 
L 2778 2067 
Q 2778 2406 2656 2560 
Q 2534 2714 2259 2714 
Q 1824 2714 1286 2227 
L 1286 621 
Q 1286 422 1372 342 
Q 1459 262 1683 262 
L 1798 262 
L 1798 0 
L 224 0 
L 224 262 
L 307 262 
Q 608 262 685 348 
Q 762 435 762 736 
L 762 2566 
L 224 2566 
z
" transform="scale(0.015625)"/>
       <path id="STZhongsong-69" d="M 640 4077 
Q 640 4230 745 4332 
Q 851 4435 1005 4435 
Q 1152 4435 1257 4329 
Q 1363 4224 1363 4077 
Q 1363 3923 1257 3817 
Q 1152 3712 1005 3712 
Q 851 3712 745 3817 
Q 640 3923 640 4077 
z
M 205 2566 
L 205 2822 
Q 691 2886 1043 3091 
L 1274 3091 
L 1274 582 
Q 1274 371 1376 316 
Q 1478 262 1658 262 
L 1805 262 
L 1805 0 
L 205 0 
L 205 262 
L 333 262 
Q 602 262 675 348 
Q 749 435 749 730 
L 749 2566 
L 205 2566 
z
" transform="scale(0.015625)"/>
       <path id="STZhongsong-6e" d="M 237 2566 
L 237 2829 
Q 518 2854 662 2905 
Q 806 2957 1050 3091 
L 1274 3091 
L 1274 2496 
Q 1626 2797 1926 2944 
Q 2227 3091 2566 3091 
Q 2797 3091 2979 3020 
Q 3162 2950 3286 2828 
Q 3411 2707 3472 2553 
Q 3533 2400 3533 2086 
L 3533 710 
Q 3533 493 3561 406 
Q 3590 320 3696 291 
Q 3802 262 4064 262 
L 4064 0 
L 2458 0 
L 2458 262 
L 2541 262 
Q 2829 262 2915 345 
Q 3002 429 3002 742 
L 3002 1888 
Q 3002 2259 2941 2396 
Q 2880 2534 2742 2614 
Q 2605 2694 2400 2694 
Q 1856 2694 1299 2182 
L 1299 742 
Q 1299 512 1340 413 
Q 1382 314 1468 288 
Q 1555 262 1754 262 
L 1843 262 
L 1843 0 
L 237 0 
L 237 262 
L 314 262 
Q 525 262 611 291 
Q 698 320 733 425 
Q 768 531 768 787 
L 768 2566 
L 237 2566 
z
" transform="scale(0.015625)"/>
       <path id="STZhongsong-ff09" d="M 819 4787 
Q 1536 4166 1904 3433 
Q 2272 2701 2272 1904 
Q 2272 1107 1881 323 
Q 1491 -461 800 -973 
L 646 -832 
Q 1158 -179 1398 486 
Q 1638 1152 1638 1933 
Q 1638 2714 1382 3421 
Q 1126 4128 646 4653 
L 819 4787 
z
" transform="scale(0.015625)"/>
      </defs>
      <use xlink:href="#STZhongsong-626d"/>
      <use xlink:href="#STZhongsong-4f53" x="99.999985"/>
      <use xlink:href="#STZhongsong-6b21" x="199.999969"/>
      <use xlink:href="#STZhongsong-6570" x="299.999954"/>
      <use xlink:href="#STZhongsong-ff08" x="399.999939"/>
      <use xlink:href="#STZhongsong-6b21" x="499.999924"/>
      <use xlink:href="#STZhongsong-2f" x="599.999908"/>
      <use xlink:href="#STZhongsong-31" x="659.999893"/>
      <use xlink:href="#STZhongsong-35" x="721.999878"/>
      <use xlink:href="#STZhongsong-6d" x="783.999863"/>
      <use xlink:href="#STZhongsong-69" x="877.999847"/>
      <use xlink:href="#STZhongsong-6e" x="907.999832"/>
      <use xlink:href="#STZhongsong-ff09" x="973.999817"/>
     </g>
    </g>
   </g>
   <g id="LineCollection_1">
    <path d="M 72.601604 227.82382 
L 72.601604 192.715841 
" clip-path="url(#pffb9ccf810)" style="fill: none; stroke: #89c9c8; stroke-width: 2"/>
    <path d="M 147.200535 286.039322 
L 147.200535 253.822373 
" clip-path="url(#pffb9ccf810)" style="fill: none; stroke: #89c9c8; stroke-width: 2"/>
    <path d="M 221.799465 261.893519 
L 221.799465 236.802074 
" clip-path="url(#pffb9ccf810)" style="fill: none; stroke: #89c9c8; stroke-width: 2"/>
    <path d="M 296.398396 304.902444 
L 296.398396 269.56264 
" clip-path="url(#pffb9ccf810)" style="fill: none; stroke: #89c9c8; stroke-width: 2"/>
   </g>
   <g id="line2d_12">
    <defs>
     <path id="m31e877d07e" d="M 5 0 
L -5 -0 
" style="stroke: #89c9c8"/>
    </defs>
    <g clip-path="url(#pffb9ccf810)">
     <use xlink:href="#m31e877d07e" x="72.601604" y="227.82382" style="fill: #89c9c8; stroke: #89c9c8"/>
     <use xlink:href="#m31e877d07e" x="147.200535" y="286.039322" style="fill: #89c9c8; stroke: #89c9c8"/>
     <use xlink:href="#m31e877d07e" x="221.799465" y="261.893519" style="fill: #89c9c8; stroke: #89c9c8"/>
     <use xlink:href="#m31e877d07e" x="296.398396" y="304.902444" style="fill: #89c9c8; stroke: #89c9c8"/>
    </g>
   </g>
   <g id="line2d_13">
    <g clip-path="url(#pffb9ccf810)">
     <use xlink:href="#m31e877d07e" x="72.601604" y="192.715841" style="fill: #89c9c8; stroke: #89c9c8"/>
     <use xlink:href="#m31e877d07e" x="147.200535" y="253.822373" style="fill: #89c9c8; stroke: #89c9c8"/>
     <use xlink:href="#m31e877d07e" x="221.799465" y="236.802074" style="fill: #89c9c8; stroke: #89c9c8"/>
     <use xlink:href="#m31e877d07e" x="296.398396" y="269.56264" style="fill: #89c9c8; stroke: #89c9c8"/>
    </g>
   </g>
   <g id="patch_7">
    <path d="M 45 384.48 
L 45 51.84 
" style="fill: none; stroke: #000000; stroke-width: 0.8; stroke-linejoin: miter; stroke-linecap: square"/>
   </g>
   <g id="patch_8">
    <path d="M 324 384.48 
L 324 51.84 
" style="fill: none; stroke: #000000; stroke-width: 0.8; stroke-linejoin: miter; stroke-linecap: square"/>
   </g>
   <g id="patch_9">
    <path d="M 45 384.48 
L 324 384.48 
" style="fill: none; stroke: #000000; stroke-width: 0.8; stroke-linejoin: miter; stroke-linecap: square"/>
   </g>
   <g id="patch_10">
    <path d="M 45 51.84 
L 324 51.84 
" style="fill: none; stroke: #000000; stroke-width: 0.8; stroke-linejoin: miter; stroke-linecap: square"/>
   </g>
   <g id="text_13">
    <!-- p=0.017 -->
    <g style="fill: #89c9c8" transform="translate(131.120535 249.000678) scale(0.08 -0.08)">
     <defs>
      <path id="STZhongsong-70" d="M 198 2566 
L 198 2822 
Q 634 2822 1011 3091 
L 1261 3091 
L 1261 2566 
Q 1562 2816 1834 2953 
Q 2106 3091 2426 3091 
Q 2963 3091 3340 2643 
Q 3718 2195 3718 1530 
Q 3718 813 3318 368 
Q 2918 -77 2278 -77 
Q 1958 -77 1728 28 
Q 1498 134 1261 333 
L 1261 -582 
Q 1261 -800 1289 -883 
Q 1318 -966 1424 -992 
Q 1530 -1018 1811 -1018 
L 1811 -1280 
L 198 -1280 
L 198 -1018 
L 339 -1018 
Q 608 -1018 672 -934 
Q 736 -851 736 -557 
L 736 2566 
L 198 2566 
z
M 1261 2246 
L 1261 1171 
Q 1261 742 1488 502 
Q 1715 262 2112 262 
Q 2573 262 2845 569 
Q 3117 877 3117 1440 
Q 3117 2003 2877 2355 
Q 2637 2707 2285 2707 
Q 1837 2707 1261 2246 
z
" transform="scale(0.015625)"/>
      <path id="STZhongsong-3d" d="M 3443 2861 
L 3443 2477 
L 397 2477 
L 397 2861 
L 3443 2861 
z
M 3443 1882 
L 3443 1498 
L 397 1498 
L 397 1882 
L 3443 1882 
z
" transform="scale(0.015625)"/>
      <path id="STZhongsong-2e" d="M 634 339 
Q 634 506 749 618 
Q 864 730 1024 730 
Q 1184 730 1299 614 
Q 1414 499 1414 339 
Q 1414 173 1299 61 
Q 1184 -51 1024 -51 
Q 864 -51 749 61 
Q 634 173 634 339 
z
" transform="scale(0.015625)"/>
      <path id="STZhongsong-37" d="M 691 4518 
L 902 4518 
L 934 4358 
L 3667 4358 
L 3667 4096 
Q 2163 2317 1901 0 
L 1261 0 
Q 1421 1190 1949 2150 
Q 2477 3110 3174 3891 
L 1222 3891 
Q 1005 3891 899 3862 
Q 794 3834 736 3635 
L 614 3206 
L 352 3264 
L 691 4518 
z
" transform="scale(0.015625)"/>
     </defs>
     <use xlink:href="#STZhongsong-70"/>
     <use xlink:href="#STZhongsong-3d" x="61.999985"/>
     <use xlink:href="#STZhongsong-30" x="121.999969"/>
     <use xlink:href="#STZhongsong-2e" x="183.999954"/>
     <use xlink:href="#STZhongsong-30" x="215.999939"/>
     <use xlink:href="#STZhongsong-31" x="277.999924"/>
     <use xlink:href="#STZhongsong-37" x="339.999908"/>
    </g>
   </g>
   <g id="text_14">
    <!-- p=0.079 -->
    <g style="fill: #89c9c8" transform="translate(205.719465 232.692929) scale(0.08 -0.08)">
     <defs>
      <path id="STZhongsong-39" d="M 736 -77 
L 736 218 
Q 1856 224 2374 688 
Q 2893 1152 2938 2138 
Q 2707 1798 2425 1638 
Q 2144 1478 1734 1478 
Q 1088 1478 681 1884 
Q 275 2291 275 2925 
Q 275 3616 720 4025 
Q 1165 4435 1882 4435 
Q 2688 4435 3126 3916 
Q 3565 3398 3565 2438 
Q 3565 1574 3181 963 
Q 2797 352 2201 137 
Q 1606 -77 979 -77 
L 736 -77 
z
M 896 2950 
Q 896 2445 1174 2128 
Q 1453 1811 1875 1811 
Q 2317 1811 2611 2147 
Q 2906 2483 2906 2970 
Q 2906 3475 2618 3814 
Q 2330 4154 1901 4154 
Q 1459 4154 1177 3824 
Q 896 3494 896 2950 
z
" transform="scale(0.015625)"/>
     </defs>
     <use xlink:href="#STZhongsong-70"/>
     <use xlink:href="#STZhongsong-3d" x="61.999985"/>
     <use xlink:href="#STZhongsong-30" x="121.999969"/>
     <use xlink:href="#STZhongsong-2e" x="183.999954"/>
     <use xlink:href="#STZhongsong-30" x="215.999939"/>
     <use xlink:href="#STZhongsong-37" x="277.999924"/>
     <use xlink:href="#STZhongsong-39" x="339.999908"/>
    </g>
   </g>
   <g id="text_15">
    <!-- p=0.004 -->
    <g style="fill: #89c9c8" transform="translate(280.318396 264.42866) scale(0.08 -0.08)">
     <use xlink:href="#STZhongsong-70"/>
     <use xlink:href="#STZhongsong-3d" x="61.999985"/>
     <use xlink:href="#STZhongsong-30" x="121.999969"/>
     <use xlink:href="#STZhongsong-2e" x="183.999954"/>
     <use xlink:href="#STZhongsong-30" x="215.999939"/>
     <use xlink:href="#STZhongsong-30" x="277.999924"/>
     <use xlink:href="#STZhongsong-34" x="339.999908"/>
    </g>
   </g>
   <g id="text_16">
    <!-- 对乙酰氨基酚的镇痛作用 -->
    <g transform="translate(118.5 45.84) scale(0.12 -0.12)">
     <defs>
      <path id="STZhongsong-4e59" d="M 4013 4224 
L 4365 4589 
Q 4435 4659 4489 4659 
Q 4544 4659 4861 4377 
Q 5178 4096 5178 4038 
Q 5178 3981 5008 3955 
Q 4838 3930 4691 3830 
Q 4544 3731 3881 3097 
Q 3219 2464 2771 1977 
Q 2323 1491 2028 1120 
Q 1734 749 1635 566 
Q 1536 384 1536 250 
Q 1536 6 1875 -80 
Q 2214 -166 3661 -166 
Q 4909 -166 5091 -64 
Q 5274 38 5363 396 
Q 5453 755 5530 1434 
L 5702 1434 
Q 5683 1114 5683 864 
Q 5683 614 5731 444 
Q 5779 275 5952 128 
Q 6042 51 6042 -25 
Q 6042 -102 5894 -336 
Q 5747 -570 5372 -653 
Q 4998 -736 3878 -736 
Q 3379 -736 2489 -701 
Q 1600 -666 1257 -448 
Q 915 -230 915 147 
Q 915 525 1270 1081 
Q 1626 1638 3923 3994 
L 1370 3994 
Q 1197 3994 1101 3949 
L 947 4256 
Q 1082 4224 1267 4224 
L 4013 4224 
z
" transform="scale(0.015625)"/>
      <path id="STZhongsong-9170" d="M 5011 1926 
L 5011 -96 
Q 5011 -218 5059 -250 
Q 5107 -282 5312 -282 
Q 5517 -282 5603 -221 
Q 5690 -160 5738 54 
Q 5786 269 5830 800 
L 5946 787 
Q 5926 -64 6157 -211 
Q 6221 -250 6221 -304 
Q 6221 -358 6096 -537 
Q 5971 -717 5651 -742 
Q 5331 -768 5171 -768 
Q 5011 -768 4844 -733 
Q 4678 -698 4604 -627 
Q 4531 -557 4531 -403 
L 4531 1926 
L 4154 1926 
Q 4109 589 3808 -48 
Q 3507 -685 2618 -1146 
L 2560 -1050 
Q 3238 -557 3440 108 
Q 3642 774 3667 1926 
L 3379 1926 
Q 3206 1926 3110 1882 
L 3021 2138 
Q 3155 2106 3315 2106 
L 4262 2106 
L 4262 3162 
L 3693 3162 
Q 3456 2547 3213 2227 
L 3117 2291 
Q 3430 3187 3501 4301 
Q 3770 4218 3946 4134 
Q 4122 4051 4122 4009 
Q 4122 3968 4042 3942 
Q 3962 3917 3936 3881 
Q 3910 3846 3878 3712 
Q 3846 3578 3770 3366 
L 4262 3366 
L 4262 4224 
Q 4262 4627 4237 4934 
Q 4486 4896 4681 4841 
Q 4877 4787 4921 4761 
Q 4966 4736 4966 4704 
Q 4966 4634 4736 4544 
L 4736 3366 
L 5050 3366 
L 5274 3667 
Q 5312 3725 5350 3725 
Q 5414 3725 5638 3510 
Q 5862 3296 5862 3229 
Q 5862 3162 5715 3162 
L 4736 3162 
L 4736 2106 
L 5338 2106 
L 5555 2438 
Q 5600 2509 5664 2509 
Q 5728 2509 5939 2272 
Q 6150 2035 6150 1971 
Q 6150 1926 6003 1926 
L 5011 1926 
z
M 1280 4128 
L 685 4128 
Q 512 4128 416 4090 
L 301 4358 
Q 435 4326 621 4326 
L 2534 4326 
L 2746 4614 
Q 2797 4685 2838 4685 
Q 2880 4685 3088 4457 
Q 3296 4230 3296 4179 
Q 3296 4128 3194 4128 
L 2246 4128 
L 2246 3360 
L 2515 3360 
L 2630 3571 
Q 2656 3616 2694 3616 
Q 2733 3616 2957 3478 
Q 3181 3341 3181 3296 
Q 3181 3251 3002 3149 
L 3002 307 
Q 3002 26 3008 -90 
L 3014 -294 
Q 3014 -352 2960 -397 
Q 2906 -442 2771 -499 
Q 2637 -557 2592 -557 
Q 2547 -557 2547 -480 
L 2547 -134 
L 979 -134 
L 979 -602 
Q 979 -672 912 -726 
Q 845 -781 726 -832 
Q 608 -883 538 -883 
Q 506 -883 512 -800 
Q 538 -499 538 -198 
L 538 3059 
Q 538 3328 518 3603 
Q 845 3501 1088 3360 
L 1280 3360 
L 1280 4128 
z
M 1862 4128 
L 1645 4128 
L 1645 3360 
L 1862 3360 
L 1862 4128 
z
M 979 1453 
Q 1139 1773 1206 2144 
Q 1274 2515 1280 3181 
L 979 3181 
L 979 1453 
z
M 2246 3181 
L 2246 2010 
Q 2246 1920 2275 1891 
Q 2304 1862 2377 1862 
Q 2451 1862 2547 1869 
L 2547 3181 
L 2246 3181 
z
M 2547 1478 
Q 2374 1472 2224 1472 
Q 2074 1472 1990 1507 
Q 1907 1542 1884 1632 
Q 1862 1722 1862 1939 
L 1862 3181 
L 1645 3181 
Q 1638 2451 1481 1993 
Q 1325 1536 979 1203 
L 979 922 
L 2547 922 
L 2547 1478 
z
M 2547 58 
L 2547 736 
L 979 736 
L 979 58 
L 2547 58 
z
" transform="scale(0.015625)"/>
      <path id="STZhongsong-6c28" d="M 2080 4115 
Q 1792 3558 1293 3053 
L 4576 3053 
L 4723 3251 
Q 4781 3328 4819 3328 
Q 4858 3328 5034 3209 
Q 5210 3091 5312 3027 
Q 5414 2963 5414 2899 
Q 5414 2797 5184 2739 
Q 5165 2381 5165 2067 
Q 5165 1011 5376 422 
Q 5587 -166 5696 -166 
Q 5734 -166 5760 -121 
Q 5786 -77 5866 243 
Q 5946 563 6016 902 
L 6182 864 
Q 6054 -51 6054 -300 
Q 6054 -550 6099 -691 
Q 6144 -832 6144 -902 
Q 6144 -973 6035 -973 
Q 5926 -973 5622 -806 
Q 5318 -640 5088 -240 
Q 4858 160 4739 822 
Q 4621 1485 4621 2413 
Q 4621 2637 4627 2874 
L 1472 2874 
Q 1299 2874 1203 2829 
L 1158 2918 
Q 838 2611 422 2291 
L 333 2374 
Q 1485 3558 1811 4966 
Q 2227 4826 2374 4762 
Q 2522 4698 2522 4646 
Q 2522 4595 2419 4579 
Q 2317 4563 2176 4301 
L 4954 4301 
L 5248 4685 
Q 5306 4762 5350 4762 
Q 5395 4762 5606 4595 
Q 5818 4429 5926 4339 
Q 6035 4250 6035 4182 
Q 6035 4115 5926 4115 
L 2080 4115 
z
M 4538 3648 
L 4774 3962 
Q 4832 4032 4880 4032 
Q 4928 4032 5190 3808 
Q 5453 3584 5453 3526 
Q 5453 3469 5331 3469 
L 2253 3469 
Q 2080 3469 1984 3424 
L 1869 3680 
Q 2003 3648 2189 3648 
L 4538 3648 
z
M 2490 2099 
Q 2458 2176 2438 2246 
Q 2330 2592 2112 2739 
L 2144 2822 
Q 2541 2746 2745 2643 
Q 2950 2541 2950 2403 
Q 2950 2266 2822 2099 
L 3686 2099 
L 3834 2310 
Q 3872 2374 3917 2374 
Q 3962 2374 4125 2249 
Q 4288 2125 4377 2054 
Q 4467 1984 4467 1920 
Q 4467 1856 4422 1833 
Q 4378 1811 4250 1811 
Q 4122 1811 3965 1737 
Q 3808 1664 3443 1408 
L 3360 1466 
L 3648 1933 
L 1478 1933 
Q 1498 1606 1331 1456 
Q 1165 1306 1021 1306 
Q 877 1306 809 1366 
Q 742 1427 742 1507 
Q 742 1587 864 1677 
Q 1210 1946 1280 2432 
L 1427 2458 
Q 1453 2253 1466 2099 
L 2490 2099 
z
M 3174 83 
Q 3885 -83 4147 -256 
Q 4410 -429 4410 -691 
Q 4410 -806 4362 -883 
Q 4314 -960 4253 -960 
Q 4192 -960 4083 -870 
Q 3725 -576 3475 -435 
Q 3226 -294 2886 -173 
Q 2074 -806 531 -922 
L 512 -826 
Q 1235 -659 1676 -483 
Q 2118 -307 2470 -32 
Q 1952 115 1165 237 
Q 1523 678 1677 915 
L 998 915 
Q 826 915 730 870 
L 614 1126 
Q 749 1094 934 1094 
L 1792 1094 
Q 2016 1459 2195 1907 
Q 2822 1658 2822 1574 
Q 2822 1536 2726 1517 
Q 2630 1498 2553 1437 
Q 2477 1376 2406 1257 
Q 2336 1139 2304 1094 
L 3808 1094 
L 4045 1421 
Q 4083 1472 4115 1472 
Q 4186 1472 4406 1254 
Q 4627 1037 4627 976 
Q 4627 915 4525 915 
L 3712 915 
Q 3494 422 3174 83 
z
M 2182 915 
Q 2016 678 1766 384 
Q 2278 294 2714 192 
Q 2989 493 3136 915 
L 2182 915 
z
" transform="scale(0.015625)"/>
      <path id="STZhongsong-57fa" d="M 4608 3898 
L 4973 3898 
L 5293 4237 
Q 5344 4288 5379 4288 
Q 5414 4288 5612 4144 
Q 5811 4000 5920 3901 
Q 6029 3802 6029 3763 
Q 6029 3699 5933 3699 
L 4608 3699 
L 4608 1792 
L 5139 1792 
L 5446 2144 
Q 5498 2202 5539 2202 
Q 5581 2202 5737 2086 
Q 5894 1971 6012 1878 
Q 6131 1786 6172 1738 
Q 6214 1690 6214 1648 
Q 6214 1606 6099 1606 
L 4224 1606 
Q 5037 742 6336 627 
L 6336 486 
Q 5914 486 5651 154 
Q 5606 96 5568 96 
Q 5459 96 4848 525 
Q 4237 954 4000 1606 
L 2630 1606 
Q 1798 416 205 -250 
L 154 -141 
Q 730 211 1222 707 
Q 1715 1203 1914 1606 
L 640 1606 
Q 467 1606 371 1562 
L 256 1824 
Q 390 1792 576 1792 
L 1837 1792 
L 1837 3699 
L 947 3699 
Q 774 3699 678 3654 
L 563 3930 
Q 698 3898 883 3898 
L 1837 3898 
L 1837 4282 
Q 1837 4602 1824 4851 
Q 2592 4666 2592 4563 
Q 2592 4499 2394 4403 
L 2394 3898 
L 4045 3898 
L 4045 4320 
Q 4045 4640 4032 4890 
Q 4307 4826 4521 4749 
Q 4736 4672 4793 4637 
Q 4851 4602 4851 4563 
Q 4851 4493 4608 4390 
L 4608 3898 
z
M 4045 3699 
L 2394 3699 
L 2394 3187 
L 4045 3187 
L 4045 3699 
z
M 4045 2490 
L 4045 3002 
L 2394 3002 
L 2394 2490 
L 4045 2490 
z
M 4045 1792 
L 4045 2291 
L 2394 2291 
L 2394 1792 
L 4045 1792 
z
M 2893 256 
L 1958 256 
Q 1786 256 1690 211 
L 1574 486 
Q 1709 454 1894 454 
L 2893 454 
L 2893 922 
Q 2893 1242 2880 1491 
Q 3699 1312 3699 1210 
Q 3699 1146 3462 1043 
L 3462 454 
L 3955 454 
L 4186 704 
Q 4230 755 4268 755 
Q 4307 755 4553 560 
Q 4800 365 4800 310 
Q 4800 256 4704 256 
L 3462 256 
L 3462 -621 
L 4698 -621 
L 4966 -262 
Q 5018 -198 5066 -198 
Q 5114 -198 5258 -307 
Q 5402 -416 5571 -569 
Q 5741 -723 5741 -762 
Q 5741 -813 5632 -813 
L 1126 -813 
Q 954 -813 858 -858 
L 742 -589 
Q 877 -621 1062 -621 
L 2893 -621 
L 2893 256 
z
" transform="scale(0.015625)"/>
      <path id="STZhongsong-915a" d="M 6317 2413 
L 6291 2304 
Q 6157 2330 6054 2330 
Q 5818 2330 5683 2138 
Q 5651 2093 5600 2093 
Q 5446 2093 5094 2739 
Q 4742 3386 4666 4826 
Q 4774 4813 5001 4736 
Q 5229 4659 5229 4611 
Q 5229 4563 5152 4544 
Q 4973 4493 4973 4320 
Q 4973 4147 5101 3753 
Q 5229 3360 5513 3017 
Q 5798 2675 6317 2413 
z
M 1248 4122 
L 678 4122 
Q 506 4122 410 4083 
L 282 4333 
Q 416 4301 602 4301 
L 2419 4301 
L 2650 4621 
Q 2707 4698 2761 4698 
Q 2816 4698 3062 4470 
Q 3309 4243 3309 4182 
Q 3309 4122 3187 4122 
L 2234 4122 
L 2234 3341 
L 2445 3341 
L 2586 3558 
Q 2624 3622 2675 3622 
Q 2726 3622 2940 3468 
Q 3155 3315 3155 3244 
Q 3155 3174 2931 3091 
L 2931 307 
L 2944 -250 
Q 2944 -320 2921 -355 
Q 2899 -390 2745 -470 
Q 2592 -550 2547 -550 
Q 2502 -550 2502 -454 
L 2502 -186 
L 966 -186 
L 966 -659 
Q 966 -736 896 -797 
Q 826 -858 694 -925 
Q 563 -992 528 -992 
Q 493 -992 499 -902 
Q 525 -602 525 -294 
L 525 3117 
Q 525 3386 506 3661 
Q 806 3539 1088 3341 
L 1248 3341 
L 1248 4122 
z
M 1850 4122 
L 1626 4122 
L 1626 3341 
L 1850 3341 
L 1850 4122 
z
M 966 1344 
Q 1114 1549 1178 1961 
Q 1242 2374 1248 3162 
L 966 3162 
L 966 1344 
z
M 2234 3162 
L 2234 1888 
Q 2234 1786 2275 1760 
Q 2317 1734 2502 1747 
L 2502 3162 
L 2234 3162 
z
M 2502 1382 
Q 2099 1370 1974 1450 
Q 1850 1530 1850 1728 
L 1850 3162 
L 1626 3162 
Q 1626 2432 1581 2089 
Q 1536 1747 1405 1548 
Q 1274 1350 966 1126 
L 966 896 
L 2502 896 
L 2502 1382 
z
M 2502 -13 
L 2502 710 
L 966 710 
L 966 -13 
L 2502 -13 
z
M 3315 2054 
Q 3232 1926 3110 1786 
L 3008 1843 
Q 3546 2861 3776 4474 
Q 4403 4186 4403 4109 
Q 4403 4077 4329 4038 
Q 4256 4000 4230 3961 
Q 4205 3923 4160 3789 
Q 3846 2803 3360 2118 
Q 3494 2106 3590 2106 
L 4858 2106 
L 5005 2291 
Q 5050 2349 5082 2349 
Q 5114 2349 5270 2233 
Q 5427 2118 5526 2038 
Q 5626 1958 5626 1914 
Q 5626 1843 5414 1818 
Q 5389 1094 5350 448 
Q 5312 -198 5277 -364 
Q 5242 -531 5136 -652 
Q 5030 -774 4800 -867 
Q 4570 -960 4499 -960 
Q 4429 -960 4410 -877 
Q 4358 -678 4262 -579 
Q 4166 -480 3840 -339 
L 3866 -211 
Q 4422 -346 4563 -346 
Q 4704 -346 4745 -250 
Q 4787 -154 4841 342 
Q 4896 838 4934 1914 
L 4288 1914 
Q 4218 781 3898 169 
Q 3578 -442 2726 -973 
L 2656 -877 
Q 3264 -339 3533 288 
Q 3802 915 3834 1914 
L 3693 1914 
Q 3526 1914 3424 1869 
L 3315 2054 
z
" transform="scale(0.015625)"/>
      <path id="STZhongsong-7684" d="M 4102 3194 
Q 3827 2637 3130 1715 
L 3021 1786 
Q 3418 2650 3613 3254 
Q 3808 3859 3994 4819 
Q 4288 4717 4512 4621 
Q 4736 4525 4784 4489 
Q 4832 4454 4832 4409 
Q 4832 4365 4726 4339 
Q 4621 4314 4585 4262 
Q 4550 4211 4435 3932 
Q 4320 3654 4205 3411 
L 5075 3411 
L 5248 3674 
Q 5306 3757 5366 3757 
Q 5427 3757 5712 3555 
Q 5997 3354 5997 3270 
Q 5997 3187 5728 3072 
Q 5683 1261 5657 633 
Q 5632 6 5590 -221 
Q 5549 -448 5421 -627 
Q 5293 -806 5030 -931 
Q 4768 -1056 4659 -1056 
Q 4608 -1056 4582 -960 
Q 4531 -781 4454 -678 
Q 4378 -576 4192 -486 
Q 4006 -397 3629 -294 
L 3661 -160 
Q 4422 -269 4620 -269 
Q 4819 -269 4892 -227 
Q 4966 -186 4992 -90 
Q 5018 6 5043 355 
Q 5069 704 5094 1488 
Q 5120 2272 5126 3194 
L 4102 3194 
z
M 1696 3315 
L 2317 3315 
L 2490 3571 
Q 2534 3642 2585 3642 
Q 2637 3642 2912 3469 
Q 3187 3296 3187 3209 
Q 3187 3123 2944 3027 
L 2944 384 
Q 2944 102 2950 -13 
L 2957 -230 
Q 2957 -262 2941 -284 
Q 2925 -307 2825 -355 
Q 2726 -403 2582 -451 
Q 2438 -499 2403 -499 
Q 2368 -499 2368 -429 
L 2368 -26 
L 1325 -26 
L 1325 -403 
Q 1325 -474 1267 -512 
Q 1210 -550 1014 -624 
Q 819 -698 764 -698 
Q 710 -698 717 -621 
Q 749 -326 749 13 
L 749 3085 
Q 749 3354 730 3629 
Q 1082 3507 1376 3334 
Q 1568 4205 1574 4749 
Q 1856 4691 2105 4595 
Q 2355 4499 2393 4467 
Q 2432 4435 2432 4397 
Q 2432 4333 2330 4307 
Q 2253 4288 2160 4144 
Q 2067 4000 1696 3315 
z
M 2368 1798 
L 2368 3110 
L 1325 3110 
L 1325 1798 
L 2368 1798 
z
M 2368 179 
L 2368 1587 
L 1325 1587 
L 1325 179 
L 2368 179 
z
M 3661 2227 
Q 4122 1894 4301 1728 
Q 4480 1562 4537 1485 
Q 4595 1408 4595 1280 
Q 4595 1050 4448 870 
Q 4301 691 4208 691 
Q 4115 691 4076 956 
Q 4038 1222 3907 1552 
Q 3776 1882 3590 2138 
L 3661 2227 
z
" transform="scale(0.015625)"/>
      <path id="STZhongsong-9547" d="M 1446 3699 
L 1805 3699 
L 2003 3962 
Q 2067 4045 2124 4045 
Q 2182 4045 2396 3846 
Q 2611 3648 2611 3584 
Q 2611 3520 2477 3520 
L 1363 3520 
Q 1152 3066 934 2714 
L 1830 2714 
L 2029 3002 
Q 2067 3059 2128 3059 
Q 2189 3059 2432 2854 
Q 2675 2650 2675 2586 
Q 2675 2522 2560 2522 
L 1626 2522 
L 1626 1581 
L 1875 1581 
L 2080 1837 
Q 2138 1914 2192 1914 
Q 2246 1914 2476 1706 
Q 2707 1498 2707 1434 
Q 2707 1389 2554 1389 
L 1626 1389 
L 1626 237 
L 2464 979 
L 2547 909 
Q 2387 717 2317 627 
Q 2438 602 2573 602 
L 2931 602 
L 2931 2931 
Q 2931 3200 2912 3482 
Q 3347 3366 3507 3245 
L 3853 3245 
L 3872 3866 
L 2950 3866 
Q 2803 3866 2682 3814 
L 2547 4077 
Q 2682 4045 2874 4045 
L 3878 4045 
L 3885 4224 
Q 3891 4602 3872 4870 
Q 4659 4742 4659 4627 
Q 4659 4550 4435 4493 
L 4422 4045 
L 5011 4045 
L 5261 4378 
Q 5312 4454 5376 4454 
Q 5440 4454 5702 4224 
Q 5965 3994 5965 3930 
Q 5965 3866 5773 3866 
L 4416 3866 
L 4390 3245 
L 4806 3245 
L 4998 3494 
Q 5018 3520 5043 3520 
Q 5069 3520 5283 3398 
Q 5498 3277 5594 3206 
Q 5690 3136 5690 3117 
Q 5690 3066 5395 2925 
L 5395 602 
L 5434 602 
L 5638 928 
Q 5670 986 5722 986 
Q 5798 986 6006 774 
Q 6214 563 6214 492 
Q 6214 422 6086 422 
L 2624 422 
Q 2477 422 2406 384 
L 2304 614 
Q 1811 13 1641 -227 
Q 1472 -467 1344 -717 
Q 1306 -800 1264 -800 
Q 1222 -800 1084 -697 
Q 947 -595 787 -416 
Q 979 -243 1036 -134 
Q 1094 -26 1094 134 
L 1094 1389 
L 614 1389 
Q 448 1389 333 1357 
L 224 1619 
Q 390 1581 550 1581 
L 1094 1581 
L 1094 2522 
L 819 2522 
Q 544 2106 237 1818 
L 154 1888 
Q 774 2918 1216 4870 
Q 1670 4717 1827 4637 
Q 1984 4557 1984 4509 
Q 1984 4461 1875 4438 
Q 1766 4416 1722 4314 
L 1446 3699 
z
M 4851 2579 
L 4851 3085 
L 3437 3085 
L 3437 2579 
L 4851 2579 
z
M 4851 1914 
L 4851 2387 
L 3437 2387 
L 3437 1914 
L 4851 1914 
z
M 4851 1235 
L 4851 1734 
L 3437 1734 
L 3437 1235 
L 4851 1235 
z
M 4851 602 
L 4851 1069 
L 3437 1069 
L 3437 602 
L 4851 602 
z
M 3469 307 
Q 3987 -26 3987 -154 
Q 3987 -218 3898 -218 
L 3814 -211 
Q 3738 -211 3654 -252 
Q 3571 -294 3366 -429 
Q 2701 -858 1862 -1107 
L 1805 -1011 
Q 2835 -435 3469 307 
z
M 4282 250 
Q 5165 90 5558 -131 
Q 5952 -352 5952 -659 
Q 5952 -806 5872 -940 
Q 5792 -1075 5728 -1075 
Q 5664 -1075 5625 -1046 
Q 5587 -1018 5504 -890 
Q 5018 -198 4250 160 
L 4282 250 
z
" transform="scale(0.015625)"/>
      <path id="STZhongsong-75db" d="M 3571 4006 
Q 3386 4659 3066 4870 
L 3110 4979 
Q 3546 4858 3827 4717 
Q 4109 4576 4109 4384 
Q 4109 4134 3782 4006 
L 5178 4006 
L 5453 4378 
Q 5498 4442 5536 4442 
Q 5606 4442 5888 4170 
Q 6170 3898 6170 3834 
Q 6170 3795 6035 3795 
L 2061 3795 
Q 2061 3162 2019 2326 
Q 1978 1491 1933 1219 
Q 1888 947 1785 659 
Q 1683 371 1507 89 
Q 1331 -192 1062 -477 
Q 794 -762 429 -1037 
L 326 -934 
Q 896 -384 1165 278 
Q 1434 941 1466 1914 
Q 1107 1549 963 1376 
Q 819 1203 732 1075 
Q 646 947 620 947 
Q 595 947 576 966 
Q 557 986 451 1149 
Q 346 1312 243 1510 
Q 941 1766 1472 2112 
Q 1491 2950 1491 3449 
Q 1491 3949 1472 4346 
Q 1805 4237 2202 4006 
L 3571 4006 
z
M 595 3750 
Q 934 3443 1116 3219 
Q 1299 2995 1299 2825 
Q 1299 2656 1168 2525 
Q 1037 2394 889 2394 
Q 742 2394 742 2618 
L 755 2810 
Q 755 3251 493 3674 
L 595 3750 
z
M 4218 2797 
Q 4467 2982 4742 3245 
L 2650 3245 
Q 2528 3245 2419 3200 
L 2253 3450 
Q 2406 3437 2573 3437 
L 4858 3437 
L 5088 3622 
Q 5126 3654 5152 3654 
Q 5216 3654 5453 3411 
Q 5690 3168 5690 3126 
Q 5690 3085 5648 3078 
Q 5606 3072 5549 3072 
Q 5331 3072 5222 3037 
Q 5114 3002 4269 2650 
Q 4275 2618 4275 2586 
Q 4275 2438 4166 2374 
L 5050 2374 
L 5242 2624 
Q 5274 2675 5302 2675 
Q 5331 2675 5507 2553 
Q 5683 2432 5779 2358 
Q 5875 2285 5875 2230 
Q 5875 2176 5658 2067 
L 5658 -288 
Q 5658 -589 5613 -697 
Q 5568 -806 5331 -928 
Q 5094 -1050 5033 -1050 
Q 4973 -1050 4960 -966 
Q 4941 -774 4829 -675 
Q 4717 -576 4301 -403 
L 4339 -256 
Q 4851 -358 4972 -358 
Q 5094 -358 5120 -320 
Q 5146 -282 5146 -179 
L 5146 582 
L 4250 582 
L 4250 115 
Q 4250 -211 4256 -333 
L 4262 -563 
Q 4262 -608 4195 -653 
Q 4128 -698 3968 -755 
Q 3808 -813 3760 -813 
Q 3712 -813 3712 -736 
L 3725 109 
L 3725 582 
L 2848 582 
L 2848 -659 
Q 2848 -730 2793 -774 
Q 2739 -819 2563 -892 
Q 2387 -966 2339 -966 
Q 2291 -966 2298 -877 
Q 2349 -269 2349 621 
L 2349 2099 
Q 2349 2419 2336 2669 
Q 2611 2579 2995 2374 
L 3853 2374 
Q 3635 2720 3174 2957 
L 3200 3059 
Q 4045 3014 4218 2797 
z
M 4250 1562 
L 5146 1562 
L 5146 2170 
L 4250 2170 
L 4250 1562 
z
M 2848 1562 
L 3725 1562 
L 3725 2170 
L 2848 2170 
L 2848 1562 
z
M 5146 1357 
L 4250 1357 
L 4250 800 
L 5146 800 
L 5146 1357 
z
M 3725 1357 
L 2848 1357 
L 2848 800 
L 3725 800 
L 3725 1357 
z
" transform="scale(0.015625)"/>
      <path id="STZhongsong-4f5c" d="M 3469 3738 
L 4941 3738 
L 5216 4160 
Q 5261 4237 5305 4237 
Q 5350 4237 5468 4147 
Q 5587 4058 5779 3894 
Q 5971 3731 6025 3676 
Q 6080 3622 6080 3584 
Q 6080 3520 5946 3520 
L 4032 3520 
L 4032 2272 
L 4813 2272 
L 5056 2637 
Q 5101 2701 5152 2701 
Q 5203 2701 5331 2605 
L 5651 2355 
Q 5850 2208 5850 2141 
Q 5850 2074 5734 2074 
L 4032 2074 
L 4032 902 
L 4896 902 
L 5171 1299 
Q 5216 1363 5277 1363 
Q 5338 1363 5658 1088 
Q 5978 813 5978 758 
Q 5978 704 5850 704 
L 4032 704 
L 4032 -768 
Q 4032 -806 4009 -828 
Q 3987 -851 3875 -921 
Q 3763 -992 3635 -1040 
Q 3507 -1088 3472 -1088 
Q 3437 -1088 3437 -1030 
L 3462 -435 
Q 3469 -166 3469 96 
L 3469 3520 
L 3360 3520 
Q 2944 2714 1965 1722 
L 1869 1818 
Q 2432 2566 2752 3273 
Q 3072 3981 3290 4909 
Q 3693 4787 3846 4700 
Q 4000 4614 4000 4582 
Q 4000 4538 3897 4515 
Q 3795 4493 3744 4358 
Q 3693 4224 3469 3738 
z
M 1261 2426 
Q 851 1830 250 1242 
L 154 1325 
Q 1357 2944 1747 4896 
Q 2509 4659 2509 4570 
Q 2509 4531 2413 4505 
Q 2317 4480 2259 4400 
Q 2202 4320 2038 3901 
Q 1875 3482 1632 3027 
Q 1843 2950 1888 2924 
Q 1933 2899 1933 2867 
Q 1933 2835 1792 2758 
L 1792 -717 
Q 1792 -768 1779 -787 
Q 1766 -806 1648 -873 
Q 1530 -941 1408 -985 
Q 1286 -1030 1257 -1030 
Q 1229 -1030 1229 -960 
L 1248 -621 
Q 1261 -275 1261 173 
L 1261 2426 
z
" transform="scale(0.015625)"/>
      <path id="STZhongsong-7528" d="M 1818 4358 
L 4941 4358 
L 5069 4563 
Q 5126 4653 5177 4653 
Q 5229 4653 5469 4521 
Q 5709 4390 5785 4326 
Q 5862 4262 5862 4204 
Q 5862 4147 5574 3981 
L 5574 -282 
Q 5574 -589 5523 -704 
Q 5472 -819 5245 -956 
Q 5018 -1094 4941 -1094 
Q 4864 -1094 4838 -973 
Q 4742 -557 3987 -346 
L 4000 -186 
Q 4570 -275 4742 -275 
Q 4915 -275 4956 -240 
Q 4998 -205 4998 -115 
L 4998 1466 
L 3597 1466 
L 3597 26 
Q 3597 -301 3603 -422 
L 3610 -653 
Q 3610 -742 3379 -822 
Q 3149 -902 3059 -902 
Q 3008 -902 3008 -838 
L 3021 -576 
Q 3027 -307 3027 13 
L 3027 1466 
L 1754 1466 
Q 1715 627 1478 80 
Q 1242 -467 589 -1133 
L 480 -1043 
Q 1030 -326 1120 749 
Q 1210 1824 1210 2970 
Q 1210 3603 1146 4646 
Q 1440 4557 1818 4358 
z
M 1792 2970 
L 3027 2970 
L 3027 4141 
L 1805 4141 
Q 1805 3712 1792 2970 
z
M 3597 2970 
L 4998 2970 
L 4998 4141 
L 3597 4141 
L 3597 2970 
z
M 3027 2765 
L 1786 2765 
Q 1798 2118 1760 1670 
L 3027 1670 
L 3027 2765 
z
M 4998 2765 
L 3597 2765 
L 3597 1670 
L 4998 1670 
L 4998 2765 
z
" transform="scale(0.015625)"/>
     </defs>
     <use xlink:href="#STZhongsong-5bf9"/>
     <use xlink:href="#STZhongsong-4e59" x="99.999985"/>
     <use xlink:href="#STZhongsong-9170" x="199.999969"/>
     <use xlink:href="#STZhongsong-6c28" x="299.999954"/>
     <use xlink:href="#STZhongsong-57fa" x="399.999939"/>
     <use xlink:href="#STZhongsong-915a" x="499.999924"/>
     <use xlink:href="#STZhongsong-7684" x="599.999908"/>
     <use xlink:href="#STZhongsong-9547" x="699.999893"/>
     <use xlink:href="#STZhongsong-75db" x="799.999878"/>
     <use xlink:href="#STZhongsong-4f5c" x="899.999863"/>
     <use xlink:href="#STZhongsong-7528" x="999.999847"/>
    </g>
   </g>
  </g>
 </g>
 <defs>
  <clipPath id="pffb9ccf810">
   <rect x="45" y="51.84" width="279" height="332.64"/>
  </clipPath>
 </defs>
</svg>
