<?xml version="1.0" encoding="utf-8" standalone="no"?>
<!DOCTYPE svg PUBLIC "-//W3C//DTD SVG 1.1//EN"
  "http://www.w3.org/Graphics/SVG/1.1/DTD/svg11.dtd">
<svg xmlns:xlink="http://www.w3.org/1999/xlink" width="432pt" height="288pt" viewBox="0 0 432 288" xmlns="http://www.w3.org/2000/svg" version="1.1">
 <metadata>
  <rdf:RDF xmlns:dc="http://purl.org/dc/elements/1.1/" xmlns:cc="http://creativecommons.org/ns#" xmlns:rdf="http://www.w3.org/1999/02/22-rdf-syntax-ns#">
   <cc:Work>
    <dc:type rdf:resource="http://purl.org/dc/dcmitype/StillImage"/>
    <dc:date>2024-09-29T12:32:20.432404</dc:date>
    <dc:format>image/svg+xml</dc:format>
    <dc:creator>
     <cc:Agent>
      <dc:title>Matplotlib v3.9.2, https://matplotlib.org/</dc:title>
     </cc:Agent>
    </dc:creator>
   </cc:Work>
  </rdf:RDF>
 </metadata>
 <defs>
  <style type="text/css">*{stroke-linejoin: round; stroke-linecap: butt}</style>
 </defs>
 <g id="figure_1">
  <g id="patch_1">
   <path d="M 0 288 
L 432 288 
L 432 0 
L 0 0 
z
" style="fill: #ffffff"/>
  </g>
  <g id="axes_1">
   <g id="patch_2">
    <path d="M 35.80024 255.28101 
L 211.389604 255.28101 
L 211.389604 33.924157 
L 35.80024 33.924157 
z
" style="fill: #ffffff"/>
   </g>
   <g id="patch_3">
    <path d="M 50.432687 275.40436 
L 79.697581 275.40436 
L 79.697581 154.664259 
L 50.432687 154.664259 
z
" clip-path="url(#p010b8bdcbf)" style="fill: #89b4fa; stroke: #ffffff; stroke-linejoin: miter"/>
   </g>
   <g id="patch_4">
    <path d="M 79.697581 275.40436 
L 108.962475 275.40436 
L 108.962475 174.787609 
L 79.697581 174.787609 
z
" clip-path="url(#p010b8bdcbf)" style="fill: #89b4fa; stroke: #ffffff; stroke-linejoin: miter"/>
   </g>
   <g id="patch_5">
    <path d="M 108.962475 275.40436 
L 138.227369 275.40436 
L 138.227369 33.924157 
L 108.962475 33.924157 
z
" clip-path="url(#p010b8bdcbf)" style="fill: #89b4fa; stroke: #ffffff; stroke-linejoin: miter"/>
   </g>
   <g id="patch_6">
    <path d="M 138.227369 275.40436 
L 167.492263 275.40436 
L 167.492263 33.924157 
L 138.227369 33.924157 
z
" clip-path="url(#p010b8bdcbf)" style="fill: #89b4fa; stroke: #ffffff; stroke-linejoin: miter"/>
   </g>
   <g id="patch_7">
    <path d="M 167.492263 275.40436 
L 196.757157 275.40436 
L 196.757157 54.047508 
L 167.492263 54.047508 
z
" clip-path="url(#p010b8bdcbf)" style="fill: #89b4fa; stroke: #ffffff; stroke-linejoin: miter"/>
   </g>
   <g id="matplotlib.axis_1">
    <g id="xtick_1">
     <g id="line2d_1">
      <defs>
       <path id="m03fe5a3aa7" d="M 0 0 
L 0 3.5 
" style="stroke: #000000; stroke-width: 0.8"/>
      </defs>
      <g>
       <use xlink:href="#m03fe5a3aa7" x="65.065134" y="255.28101" style="stroke: #000000; stroke-width: 0.8"/>
      </g>
     </g>
     <g id="text_1">
      <!-- 1 -->
      <g transform="translate(61.965134 269.440385) scale(0.1 -0.1)">
       <defs>
        <path id="STZhongsong-31" d="M 2150 4358 
L 2387 4358 
L 2387 742 
Q 2387 422 2464 342 
Q 2541 262 2822 262 
L 3130 262 
L 3130 0 
L 1069 0 
L 1069 262 
L 1408 262 
Q 1670 262 1766 348 
Q 1862 435 1862 742 
L 1862 3718 
L 1069 3718 
L 1069 3987 
Q 1709 4070 2150 4358 
z
" transform="scale(0.015625)"/>
       </defs>
       <use xlink:href="#STZhongsong-31"/>
      </g>
     </g>
    </g>
    <g id="xtick_2">
     <g id="line2d_2">
      <g>
       <use xlink:href="#m03fe5a3aa7" x="94.330028" y="255.28101" style="stroke: #000000; stroke-width: 0.8"/>
      </g>
     </g>
     <g id="text_2">
      <!-- 2 -->
      <g transform="translate(91.230028 269.440385) scale(0.1 -0.1)">
       <defs>
        <path id="STZhongsong-32" d="M 723 2714 
L 422 2675 
Q 397 2835 397 2989 
Q 397 3616 832 4025 
Q 1267 4435 1978 4435 
Q 2630 4435 3043 4064 
Q 3456 3693 3456 3098 
Q 3456 2669 3286 2349 
Q 3117 2029 2611 1603 
Q 2106 1178 1037 467 
L 2662 467 
Q 2963 467 3062 544 
Q 3162 621 3200 838 
L 3232 1018 
L 3494 1018 
L 3283 -154 
L 3085 -154 
L 3053 0 
L 320 0 
L 320 262 
L 819 640 
Q 1901 1453 2377 1977 
Q 2854 2502 2854 3066 
Q 2854 3507 2569 3788 
Q 2285 4070 1837 4070 
Q 1325 4070 1017 3753 
Q 710 3437 710 2918 
Q 710 2822 723 2714 
z
" transform="scale(0.015625)"/>
       </defs>
       <use xlink:href="#STZhongsong-32"/>
      </g>
     </g>
    </g>
    <g id="xtick_3">
     <g id="line2d_3">
      <g>
       <use xlink:href="#m03fe5a3aa7" x="123.594922" y="255.28101" style="stroke: #000000; stroke-width: 0.8"/>
      </g>
     </g>
     <g id="text_3">
      <!-- 3 -->
      <g transform="translate(120.494922 269.440385) scale(0.1 -0.1)">
       <defs>
        <path id="STZhongsong-33" d="M 934 3194 
L 634 3238 
Q 717 3827 1097 4131 
Q 1478 4435 2061 4435 
Q 2662 4435 3046 4124 
Q 3430 3814 3430 3360 
Q 3430 3021 3190 2761 
Q 2950 2502 2502 2374 
Q 3046 2298 3334 1974 
Q 3622 1651 3622 1222 
Q 3622 698 3155 310 
Q 2688 -77 1997 -77 
Q 1299 -77 844 275 
Q 390 627 390 960 
Q 390 1114 505 1184 
Q 621 1254 710 1254 
Q 922 1254 1043 858 
Q 1133 544 1369 377 
Q 1606 211 1952 211 
Q 2419 211 2720 512 
Q 3021 813 3021 1267 
Q 3021 1702 2717 1952 
Q 2413 2202 1862 2202 
L 1568 2202 
L 1568 2502 
L 1754 2502 
Q 2829 2502 2829 3283 
Q 2829 3629 2592 3843 
Q 2355 4058 1952 4058 
Q 1107 4058 934 3194 
z
" transform="scale(0.015625)"/>
       </defs>
       <use xlink:href="#STZhongsong-33"/>
      </g>
     </g>
    </g>
    <g id="xtick_4">
     <g id="line2d_4">
      <g>
       <use xlink:href="#m03fe5a3aa7" x="152.859816" y="255.28101" style="stroke: #000000; stroke-width: 0.8"/>
      </g>
     </g>
     <g id="text_4">
      <!-- 4 -->
      <g transform="translate(149.759816 269.440385) scale(0.1 -0.1)">
       <defs>
        <path id="STZhongsong-34" d="M 3494 1242 
L 2906 1242 
L 2906 518 
Q 2906 275 3213 250 
L 3213 45 
L 1882 45 
L 1882 250 
Q 2054 262 2156 336 
Q 2259 410 2259 518 
L 2259 1242 
L 550 1242 
L 550 1658 
L 2483 4365 
L 2906 4365 
L 2906 1581 
L 3494 1581 
L 3494 1242 
z
M 2259 1581 
L 2259 3462 
L 902 1581 
L 2259 1581 
z
" transform="scale(0.015625)"/>
       </defs>
       <use xlink:href="#STZhongsong-34"/>
      </g>
     </g>
    </g>
    <g id="xtick_5">
     <g id="line2d_5">
      <g>
       <use xlink:href="#m03fe5a3aa7" x="182.12471" y="255.28101" style="stroke: #000000; stroke-width: 0.8"/>
      </g>
     </g>
     <g id="text_5">
      <!-- 5 -->
      <g transform="translate(179.02471 269.440385) scale(0.1 -0.1)">
       <defs>
        <path id="STZhongsong-35" d="M 934 4358 
L 2880 4358 
Q 3046 4358 3097 4387 
Q 3149 4416 3155 4512 
L 3386 4512 
L 3386 3853 
L 1229 3853 
L 1171 2752 
Q 1530 2848 1990 2848 
Q 2771 2848 3228 2451 
Q 3686 2054 3686 1414 
Q 3686 787 3212 355 
Q 2739 -77 2029 -77 
Q 1414 -77 982 236 
Q 550 550 550 890 
Q 550 1037 640 1123 
Q 730 1210 838 1210 
Q 1062 1210 1203 813 
Q 1421 218 2042 218 
Q 2515 218 2819 528 
Q 3123 838 3123 1312 
Q 3123 1824 2777 2128 
Q 2432 2432 1843 2432 
Q 1280 2432 832 2246 
L 934 4358 
z
" transform="scale(0.015625)"/>
       </defs>
       <use xlink:href="#STZhongsong-35"/>
      </g>
     </g>
    </g>
    <g id="text_6">
     <!-- 组号 -->
     <g transform="translate(113.594922 282.63101) scale(0.1 -0.1)">
      <defs>
       <path id="STZhongsong-7ec4" d="M 1632 2394 
Q 858 2202 531 2029 
Q 493 2010 461 2010 
Q 429 2010 358 2144 
Q 288 2278 179 2528 
Q 365 2605 461 2665 
Q 557 2726 633 2835 
Q 710 2944 892 3318 
Q 1075 3693 1209 4051 
Q 1344 4410 1446 4806 
Q 1798 4653 2000 4534 
Q 2202 4416 2202 4371 
Q 2202 4326 2080 4314 
Q 1978 4294 1856 4102 
Q 1318 3213 800 2573 
L 1754 2611 
Q 1990 3059 2182 3590 
Q 2790 3174 2790 3078 
Q 2790 3027 2707 3014 
Q 2624 3002 2573 2957 
Q 2522 2912 2413 2758 
Q 1958 2131 1274 1338 
L 2758 1357 
L 2752 1197 
Q 2016 1062 1536 944 
Q 1056 826 909 710 
Q 858 666 813 666 
Q 768 666 736 762 
L 531 1235 
Q 730 1254 829 1302 
Q 928 1350 1005 1443 
Q 1082 1536 1283 1833 
Q 1485 2131 1632 2394 
z
M 3590 4237 
L 4723 4237 
L 4845 4467 
Q 4890 4538 4954 4538 
Q 5018 4538 5312 4365 
Q 5606 4192 5606 4131 
Q 5606 4070 5350 3930 
L 5350 -320 
L 5382 -320 
L 5594 19 
Q 5638 90 5699 90 
Q 5760 90 5987 -137 
Q 6214 -365 6214 -435 
Q 6214 -486 6035 -486 
L 2189 -486 
Q 2016 -486 1920 -531 
L 1805 -288 
Q 1939 -320 2125 -320 
L 2950 -320 
L 2950 3750 
Q 2950 4243 2931 4538 
Q 3283 4422 3590 4237 
z
M 4787 2816 
L 4787 4038 
L 3494 4038 
L 3494 2816 
L 4787 2816 
z
M 4787 1382 
L 4787 2618 
L 3494 2618 
L 3494 1382 
L 4787 1382 
z
M 4787 -320 
L 4787 1171 
L 3494 1171 
L 3494 -320 
L 4787 -320 
z
M 2803 365 
L 1613 -128 
Q 1018 -365 819 -512 
Q 755 -557 723 -557 
Q 646 -557 307 102 
Q 1472 218 2778 480 
L 2803 365 
z
" transform="scale(0.015625)"/>
       <path id="STZhongsong-53f7" d="M 4192 2912 
L 2061 2912 
L 2061 2733 
Q 2061 2662 2009 2627 
Q 1958 2592 1763 2518 
Q 1568 2445 1517 2445 
Q 1466 2445 1466 2483 
L 1485 2842 
Q 1504 3098 1504 3354 
L 1504 4224 
Q 1504 4493 1485 4768 
Q 1926 4646 2131 4518 
L 4064 4518 
L 4307 4832 
Q 4346 4877 4394 4877 
Q 4442 4877 4608 4768 
L 4896 4582 
Q 5011 4506 5011 4454 
Q 5011 4403 4794 4314 
L 4794 3533 
Q 4794 3309 4803 3097 
Q 4813 2886 4813 2854 
Q 4813 2822 4749 2784 
Q 4685 2746 4493 2685 
Q 4301 2624 4246 2624 
Q 4192 2624 4192 2720 
L 4192 2912 
z
M 2061 3110 
L 4192 3110 
L 4192 4333 
L 2061 4333 
L 2061 3110 
z
M 2880 2048 
L 2522 1267 
L 4326 1267 
L 4538 1555 
Q 4582 1613 4624 1613 
Q 4666 1613 4944 1430 
Q 5222 1248 5222 1178 
Q 5222 1101 4986 1037 
Q 4915 691 4755 195 
Q 4595 -301 4499 -454 
Q 4403 -608 4236 -729 
Q 4070 -851 3808 -928 
Q 3546 -1005 3392 -1005 
Q 3238 -1005 3200 -976 
Q 3162 -947 3158 -886 
Q 3155 -826 3155 -768 
Q 3155 -621 2902 -480 
Q 2650 -339 2221 -179 
L 2266 -70 
Q 3098 -275 3501 -275 
Q 3686 -275 3804 -230 
Q 3923 -186 3984 -96 
Q 4045 -6 4163 339 
Q 4282 685 4378 1069 
L 2522 1069 
L 2298 800 
Q 2214 698 2144 698 
Q 2086 698 1932 819 
Q 1779 941 1536 1152 
Q 1946 1286 2016 1466 
L 2253 2048 
L 627 2048 
Q 454 2048 358 2003 
L 243 2266 
Q 378 2234 563 2234 
L 5069 2234 
L 5370 2611 
Q 5427 2688 5497 2688 
Q 5568 2688 5670 2598 
L 5971 2336 
Q 6182 2163 6182 2105 
Q 6182 2048 6042 2048 
L 2880 2048 
z
" transform="scale(0.015625)"/>
      </defs>
      <use xlink:href="#STZhongsong-7ec4"/>
      <use xlink:href="#STZhongsong-53f7" x="99.999985"/>
     </g>
    </g>
   </g>
   <g id="matplotlib.axis_2">
    <g id="ytick_1">
     <g id="line2d_6">
      <defs>
       <path id="mafa02a110f" d="M 0 0 
L -3.5 0 
" style="stroke: #000000; stroke-width: 0.8"/>
      </defs>
      <g>
       <use xlink:href="#mafa02a110f" x="35.80024" y="235.15766" style="stroke: #000000; stroke-width: 0.8"/>
      </g>
     </g>
     <g id="text_7">
      <!-- 2 -->
      <g transform="translate(22.60024 238.737347) scale(0.1 -0.1)">
       <use xlink:href="#STZhongsong-32"/>
      </g>
     </g>
    </g>
    <g id="ytick_2">
     <g id="line2d_7">
      <g>
       <use xlink:href="#mafa02a110f" x="35.80024" y="194.910959" style="stroke: #000000; stroke-width: 0.8"/>
      </g>
     </g>
     <g id="text_8">
      <!-- 4 -->
      <g transform="translate(22.60024 198.490647) scale(0.1 -0.1)">
       <use xlink:href="#STZhongsong-34"/>
      </g>
     </g>
    </g>
    <g id="ytick_3">
     <g id="line2d_8">
      <g>
       <use xlink:href="#mafa02a110f" x="35.80024" y="154.664259" style="stroke: #000000; stroke-width: 0.8"/>
      </g>
     </g>
     <g id="text_9">
      <!-- 6 -->
      <g transform="translate(22.60024 158.243946) scale(0.1 -0.1)">
       <defs>
        <path id="STZhongsong-36" d="M 3238 4442 
L 3238 4154 
Q 2131 4141 1603 3686 
Q 1075 3232 1037 2227 
Q 1446 2893 2240 2893 
Q 2880 2893 3289 2486 
Q 3699 2080 3699 1440 
Q 3699 742 3257 332 
Q 2816 -77 2093 -77 
Q 1286 -77 848 444 
Q 410 966 410 1926 
Q 410 3046 1056 3744 
Q 1702 4442 2995 4442 
L 3238 4442 
z
M 3072 1414 
Q 3072 1933 2800 2246 
Q 2528 2560 2099 2560 
Q 1658 2560 1363 2224 
Q 1069 1888 1069 1402 
Q 1069 890 1350 550 
Q 1632 211 2074 211 
Q 2509 211 2790 544 
Q 3072 877 3072 1414 
z
" transform="scale(0.015625)"/>
       </defs>
       <use xlink:href="#STZhongsong-36"/>
      </g>
     </g>
    </g>
    <g id="ytick_4">
     <g id="line2d_9">
      <g>
       <use xlink:href="#mafa02a110f" x="35.80024" y="114.417558" style="stroke: #000000; stroke-width: 0.8"/>
      </g>
     </g>
     <g id="text_10">
      <!-- 8 -->
      <g transform="translate(22.60024 117.997246) scale(0.1 -0.1)">
       <defs>
        <path id="STZhongsong-38" d="M 2477 2419 
Q 3021 2208 3315 1923 
Q 3610 1638 3610 1197 
Q 3610 659 3152 291 
Q 2694 -77 1971 -77 
Q 1274 -77 816 272 
Q 358 621 358 1120 
Q 358 1485 633 1779 
Q 909 2074 1440 2259 
Q 1011 2451 800 2691 
Q 589 2931 589 3315 
Q 589 3814 998 4124 
Q 1408 4435 2035 4435 
Q 2618 4435 2998 4134 
Q 3379 3834 3379 3424 
Q 3379 2790 2477 2419 
z
M 2189 2534 
Q 2451 2707 2662 2918 
Q 2874 3130 2874 3418 
Q 2874 3706 2621 3923 
Q 2368 4141 1971 4141 
Q 1594 4141 1331 3926 
Q 1069 3712 1069 3430 
Q 1069 3168 1270 2989 
Q 1472 2810 1824 2675 
L 2189 2534 
z
M 1747 2131 
Q 1325 1939 1088 1670 
Q 851 1402 851 1126 
Q 851 762 1177 490 
Q 1504 218 1984 218 
Q 2438 218 2774 483 
Q 3110 749 3110 1082 
Q 3110 1594 2253 1933 
L 1747 2131 
z
" transform="scale(0.015625)"/>
       </defs>
       <use xlink:href="#STZhongsong-38"/>
      </g>
     </g>
    </g>
    <g id="ytick_5">
     <g id="line2d_10">
      <g>
       <use xlink:href="#mafa02a110f" x="35.80024" y="74.170858" style="stroke: #000000; stroke-width: 0.8"/>
      </g>
     </g>
     <g id="text_11">
      <!-- 10 -->
      <g transform="translate(16.40024 77.750545) scale(0.1 -0.1)">
       <defs>
        <path id="STZhongsong-30" d="M 326 2182 
Q 326 3251 774 3843 
Q 1222 4435 1997 4435 
Q 2752 4435 3197 3827 
Q 3642 3219 3642 2144 
Q 3642 1139 3178 531 
Q 2714 -77 1952 -77 
Q 1229 -77 777 524 
Q 326 1126 326 2182 
z
M 3040 2182 
Q 3040 3104 2758 3616 
Q 2477 4128 1978 4128 
Q 1478 4128 1200 3590 
Q 922 3053 922 2118 
Q 922 1229 1210 733 
Q 1498 237 1971 237 
Q 2470 237 2755 752 
Q 3040 1267 3040 2182 
z
" transform="scale(0.015625)"/>
       </defs>
       <use xlink:href="#STZhongsong-31"/>
       <use xlink:href="#STZhongsong-30" x="61.999985"/>
      </g>
     </g>
    </g>
    <g id="ytick_6">
     <g id="line2d_11">
      <g>
       <use xlink:href="#mafa02a110f" x="35.80024" y="33.924157" style="stroke: #000000; stroke-width: 0.8"/>
      </g>
     </g>
     <g id="text_12">
      <!-- 12 -->
      <g transform="translate(16.40024 37.503845) scale(0.1 -0.1)">
       <use xlink:href="#STZhongsong-31"/>
       <use xlink:href="#STZhongsong-32" x="61.999985"/>
      </g>
     </g>
    </g>
    <g id="text_13">
     <!-- 阳性小鼠数量 -->
     <g transform="translate(10.40024 174.602584) rotate(-90) scale(0.1 -0.1)">
      <defs>
       <path id="STZhongsong-9633" d="M 1261 4070 
L 1261 -736 
Q 1261 -800 1241 -822 
Q 1222 -845 1129 -902 
Q 1037 -960 905 -1017 
Q 774 -1075 752 -1075 
Q 730 -1075 730 -1046 
Q 730 -1018 739 -806 
Q 749 -595 749 -102 
L 749 3942 
Q 749 4410 723 4640 
Q 1114 4486 1440 4294 
L 2118 4294 
L 2234 4506 
Q 2272 4582 2333 4582 
Q 2394 4582 2675 4403 
Q 2957 4224 2957 4173 
Q 2957 4122 2857 4090 
Q 2758 4058 2710 4010 
Q 2662 3962 2579 3802 
Q 2330 3328 1856 2586 
Q 2272 2304 2496 2000 
Q 2720 1696 2720 1337 
Q 2720 979 2595 780 
Q 2470 582 2259 473 
Q 2048 365 1978 365 
Q 1920 365 1885 502 
Q 1850 640 1744 739 
Q 1638 838 1350 941 
L 1357 1062 
Q 1562 1037 1766 1037 
Q 1971 1037 2089 1133 
Q 2208 1229 2208 1478 
Q 2208 2016 1594 2554 
Q 2029 3616 2150 4070 
L 1261 4070 
z
M 3603 -70 
L 3603 -666 
Q 3603 -749 3552 -790 
Q 3501 -832 3293 -905 
Q 3085 -979 3027 -979 
Q 3002 -979 3008 -928 
Q 3040 -602 3040 -256 
L 3040 3885 
Q 3040 4179 3021 4461 
Q 3450 4288 3718 4134 
L 5114 4134 
L 5248 4339 
Q 5286 4397 5340 4397 
Q 5395 4397 5718 4233 
Q 6042 4070 6042 3984 
Q 6042 3898 5741 3770 
L 5741 -32 
L 5754 -640 
Q 5754 -723 5738 -742 
Q 5722 -762 5613 -813 
Q 5504 -864 5353 -912 
Q 5203 -960 5178 -960 
Q 5139 -960 5139 -883 
L 5139 -70 
L 3603 -70 
z
M 3603 3917 
L 3603 2163 
L 5139 2163 
L 5139 3917 
L 3603 3917 
z
M 3603 1958 
L 3603 134 
L 5139 134 
L 5139 1958 
L 3603 1958 
z
" transform="scale(0.015625)"/>
       <path id="STZhongsong-6027" d="M 1741 3366 
Q 2246 3251 2406 3164 
Q 2566 3078 2566 2921 
Q 2566 2765 2496 2621 
Q 2426 2477 2314 2477 
Q 2202 2477 2125 2662 
Q 1971 3046 1741 3194 
L 1741 -742 
Q 1741 -806 1683 -844 
Q 1626 -883 1437 -950 
Q 1248 -1018 1209 -1018 
Q 1171 -1018 1171 -979 
Q 1171 -941 1180 -752 
Q 1190 -563 1190 -96 
L 1190 4269 
Q 1190 4589 1178 4838 
Q 1446 4774 1673 4704 
Q 1901 4634 1936 4614 
Q 1971 4595 1971 4576 
Q 1971 4525 1741 4403 
L 1741 3366 
z
M 3930 1190 
L 2874 1190 
Q 2701 1190 2605 1146 
L 2483 1408 
Q 2618 1376 2803 1376 
L 3930 1376 
L 3930 2778 
L 3078 2778 
Q 2746 1869 2221 1101 
L 2093 1165 
Q 2682 2496 2848 4237 
Q 3226 4109 3405 4016 
Q 3584 3923 3584 3891 
Q 3584 3859 3510 3840 
Q 3437 3821 3398 3779 
Q 3360 3738 3286 3456 
Q 3213 3174 3142 2957 
L 3930 2957 
L 3930 4230 
Q 3930 4723 3917 4832 
Q 4192 4794 4397 4736 
Q 4602 4678 4646 4652 
Q 4691 4627 4691 4602 
Q 4691 4550 4499 4454 
L 4499 2957 
L 5024 2957 
L 5267 3334 
Q 5338 3450 5392 3450 
Q 5446 3450 5613 3296 
L 5914 3008 
Q 6048 2880 6048 2829 
Q 6048 2778 5939 2778 
L 4499 2778 
L 4499 1376 
L 4979 1376 
L 5242 1747 
Q 5312 1843 5369 1843 
Q 5427 1843 5683 1587 
Q 5939 1331 5939 1260 
Q 5939 1190 5818 1190 
L 4499 1190 
L 4499 -390 
L 5267 -390 
L 5562 -26 
Q 5638 70 5683 70 
Q 5728 70 5798 6 
Q 5869 -58 6029 -214 
Q 6189 -371 6243 -438 
Q 6298 -506 6298 -547 
Q 6298 -589 6176 -589 
L 2483 -589 
Q 2310 -589 2214 -634 
L 2106 -358 
Q 2240 -390 2426 -390 
L 3930 -390 
L 3930 1190 
z
M 787 3392 
Q 915 2829 915 2422 
Q 915 2016 755 1853 
Q 595 1690 416 1690 
Q 314 1690 240 1763 
Q 166 1837 166 1904 
Q 166 1971 332 2182 
Q 499 2394 563 2682 
Q 627 2970 608 3386 
L 787 3392 
z
" transform="scale(0.015625)"/>
       <path id="STZhongsong-5c0f" d="M 2899 4838 
Q 3386 4768 3619 4691 
Q 3853 4614 3853 4570 
Q 3853 4506 3533 4358 
L 3533 -96 
Q 3533 -442 3446 -586 
Q 3360 -730 3097 -858 
Q 2835 -986 2742 -986 
Q 2650 -986 2637 -858 
Q 2605 -582 2384 -422 
Q 2163 -262 1702 -134 
L 1722 -6 
Q 2477 -122 2659 -122 
Q 2842 -122 2883 -70 
Q 2925 -19 2925 115 
L 2925 4134 
Q 2925 4557 2899 4838 
z
M 1658 3136 
Q 1792 3104 2109 2973 
Q 2426 2842 2426 2787 
Q 2426 2733 2346 2704 
Q 2266 2675 2205 2595 
Q 2144 2515 2003 2234 
Q 1587 1408 1190 877 
Q 794 346 262 -154 
L 179 -51 
Q 1075 1165 1658 3136 
z
M 4026 2880 
Q 4928 2291 5421 1814 
Q 5914 1338 5914 928 
Q 5914 717 5811 515 
Q 5709 314 5587 314 
Q 5466 314 5392 419 
Q 5318 525 5200 864 
Q 5082 1203 4778 1667 
Q 4474 2131 3930 2778 
L 4026 2880 
z
" transform="scale(0.015625)"/>
       <path id="STZhongsong-9f20" d="M 1523 4243 
Q 2048 4538 2477 4864 
Q 2618 4749 2790 4573 
Q 2963 4397 2963 4361 
Q 2963 4326 2906 4326 
L 2771 4333 
Q 2502 4333 1491 4058 
L 1491 3520 
L 2150 3520 
L 2349 3840 
Q 2387 3904 2444 3904 
Q 2502 3904 2736 3689 
Q 2970 3475 2970 3411 
Q 2970 3366 2842 3366 
L 1491 3366 
L 1491 2835 
L 4627 2835 
L 4627 3379 
L 3693 3379 
Q 3520 3379 3424 3334 
L 3309 3603 
Q 3443 3571 3629 3571 
L 4627 3571 
L 4627 4186 
L 3610 4186 
Q 3437 4186 3341 4141 
L 3226 4416 
Q 3360 4384 3546 4384 
L 4576 4384 
L 4691 4570 
Q 4730 4634 4774 4634 
Q 4819 4634 5110 4464 
Q 5402 4294 5402 4233 
Q 5402 4173 5184 4045 
L 5184 3264 
Q 5184 3059 5190 2925 
L 5203 2694 
Q 5203 2618 5145 2582 
Q 5088 2547 4912 2486 
Q 4736 2426 4681 2426 
Q 4627 2426 4627 2534 
L 4627 2643 
L 1491 2643 
Q 1491 2534 1456 2492 
Q 1421 2451 1264 2403 
Q 1107 2355 1011 2355 
Q 941 2355 947 2451 
Q 973 2739 973 3046 
L 973 3898 
Q 973 4166 954 4442 
Q 1222 4365 1523 4243 
z
M 4410 134 
Q 3949 -134 3584 -390 
Q 3219 -646 3059 -870 
Q 3014 -928 2976 -928 
Q 2899 -928 2502 -486 
Q 2611 -410 2646 -349 
Q 2682 -288 2682 -205 
L 2682 1830 
Q 2682 2157 2662 2426 
Q 3034 2349 3174 2304 
Q 3315 2259 3315 2201 
Q 3315 2144 3181 2054 
L 3181 -218 
L 4365 243 
L 4410 134 
z
M 6054 736 
Q 5907 141 5907 -153 
Q 5907 -448 6086 -730 
Q 6163 -851 6163 -953 
Q 6163 -1056 5968 -1056 
Q 5773 -1056 5446 -896 
Q 5120 -736 4905 -499 
Q 4691 -262 4547 141 
Q 4403 544 4339 1126 
L 4237 2419 
Q 4992 2310 4992 2214 
Q 4992 2157 4781 2054 
Q 4800 1178 4902 694 
Q 5005 211 5200 -35 
Q 5395 -282 5491 -282 
Q 5542 -282 5590 -211 
Q 5638 -141 5744 160 
Q 5850 461 5946 762 
L 6054 736 
z
M 2515 58 
Q 1997 -218 1670 -458 
Q 1344 -698 1229 -858 
Q 1184 -922 1149 -922 
Q 1114 -922 1005 -800 
Q 896 -678 749 -435 
Q 864 -358 899 -294 
Q 934 -230 934 -115 
L 934 1702 
Q 934 2029 915 2304 
Q 1069 2285 1318 2214 
Q 1568 2144 1568 2093 
Q 1568 2042 1434 1958 
L 1434 -224 
L 2477 147 
L 2515 58 
z
M 1702 2086 
Q 2163 1939 2326 1833 
Q 2490 1728 2490 1574 
Q 2490 1421 2400 1305 
Q 2310 1190 2234 1190 
Q 2189 1190 2166 1216 
Q 2144 1242 2099 1344 
Q 1907 1779 1670 2016 
L 1702 2086 
z
M 3328 2022 
Q 3706 1958 3914 1843 
Q 4122 1728 4122 1545 
Q 4122 1363 4032 1286 
Q 3942 1210 3888 1210 
Q 3834 1210 3805 1245 
Q 3776 1280 3750 1363 
Q 3629 1696 3328 1946 
L 3328 2022 
z
M 1587 1107 
Q 2042 966 2205 860 
Q 2368 755 2368 624 
Q 2368 493 2291 374 
Q 2214 256 2131 256 
Q 2086 256 2064 281 
Q 2042 307 2010 390 
Q 1837 819 1555 1050 
L 1587 1107 
z
M 3328 1062 
Q 3699 986 3907 877 
Q 4115 768 4115 614 
Q 4115 461 4035 345 
Q 3955 230 3904 230 
Q 3853 230 3827 256 
Q 3802 282 3757 384 
Q 3571 794 3302 986 
L 3328 1062 
z
" transform="scale(0.015625)"/>
       <path id="STZhongsong-6570" d="M 2394 3334 
L 2938 3334 
L 3136 3616 
Q 3181 3680 3245 3680 
Q 3309 3680 3520 3462 
Q 3731 3245 3731 3193 
Q 3731 3142 3610 3142 
L 2394 3142 
L 2394 3027 
Q 2784 2938 3069 2819 
Q 3354 2701 3354 2515 
Q 3354 2381 3296 2227 
Q 3238 2074 3171 2074 
Q 3104 2074 3069 2109 
Q 3034 2144 2963 2259 
Q 2893 2374 2720 2556 
Q 2547 2739 2394 2854 
Q 2406 2381 2406 2259 
Q 2406 2138 2393 2099 
Q 2381 2061 2217 2006 
Q 2054 1952 1971 1933 
Q 2291 1811 2291 1722 
Q 2291 1670 2227 1660 
Q 2163 1651 2118 1609 
Q 2074 1568 1990 1434 
L 2637 1434 
L 2803 1619 
Q 2854 1677 2892 1677 
Q 2931 1677 3190 1481 
Q 3450 1286 3450 1228 
Q 3450 1171 3338 1148 
Q 3226 1126 3168 1088 
Q 3110 1050 3053 941 
Q 2848 563 2637 307 
Q 3040 205 3133 38 
Q 3226 -128 3226 -262 
Q 3226 -397 3187 -467 
Q 3149 -538 3101 -538 
Q 3053 -538 2816 -378 
Q 2579 -218 2278 -51 
Q 1664 -589 384 -992 
L 333 -877 
Q 1338 -371 1875 141 
Q 1440 326 845 474 
Q 1184 954 1331 1222 
L 691 1222 
Q 518 1222 422 1190 
L 307 1453 
Q 410 1434 627 1434 
L 1440 1434 
Q 1626 1824 1690 2035 
Q 1818 1997 1869 1978 
Q 1888 2515 1888 2874 
Q 1421 2125 282 1613 
L 243 1715 
Q 1075 2330 1549 3142 
L 589 3142 
Q 467 3142 390 3110 
L 301 3366 
Q 416 3334 550 3334 
L 1888 3334 
L 1888 4147 
Q 1888 4698 1875 4877 
Q 2592 4723 2592 4653 
Q 2592 4608 2394 4499 
L 2394 3334 
z
M 1856 1222 
L 1427 570 
Q 1914 480 2138 429 
Q 2413 762 2630 1222 
L 1856 1222 
z
M 4326 3270 
L 5222 3270 
L 5485 3590 
Q 5549 3661 5609 3661 
Q 5670 3661 5939 3421 
Q 6208 3181 6208 3117 
Q 6208 3072 6054 3072 
L 5050 3072 
Q 5638 2925 5638 2810 
Q 5638 2771 5542 2742 
Q 5446 2714 5404 2643 
Q 5363 2573 5338 2438 
Q 5088 1069 4749 518 
Q 5261 -186 6304 -646 
L 6246 -774 
Q 6080 -730 5933 -730 
Q 5658 -730 5446 -902 
Q 5389 -947 5363 -947 
Q 5299 -947 4934 -534 
Q 4570 -122 4448 102 
Q 4115 -301 3657 -579 
Q 3200 -858 2470 -1139 
L 2413 -1005 
Q 3642 -307 4211 544 
Q 3942 1152 3878 2342 
Q 3654 1946 3322 1491 
L 3213 1555 
Q 3949 2963 4109 4877 
Q 4333 4832 4563 4761 
Q 4794 4691 4858 4649 
Q 4922 4608 4922 4563 
Q 4922 4518 4813 4492 
Q 4704 4467 4653 4384 
Q 4602 4301 4538 3974 
Q 4474 3648 4326 3270 
z
M 4870 3072 
L 4250 3072 
L 4064 2682 
Q 4141 1594 4454 979 
Q 4723 1619 4870 3072 
z
M 3104 4602 
Q 3264 4525 3453 4422 
Q 3642 4320 3670 4288 
Q 3699 4256 3699 4221 
Q 3699 4186 3673 4170 
Q 3648 4154 3539 4154 
Q 3430 4154 3315 4038 
Q 2957 3680 2528 3392 
L 2464 3488 
Q 2906 4102 3104 4602 
z
M 653 4512 
Q 1171 4326 1353 4201 
Q 1536 4077 1536 3901 
Q 1536 3725 1453 3590 
Q 1370 3456 1286 3456 
Q 1203 3456 1164 3494 
Q 1126 3533 1084 3673 
Q 1043 3814 899 4038 
Q 755 4262 589 4429 
L 653 4512 
z
" transform="scale(0.015625)"/>
       <path id="STZhongsong-91cf" d="M 2054 4480 
L 4410 4480 
L 4576 4691 
Q 4608 4730 4640 4730 
Q 4691 4730 4969 4582 
Q 5248 4435 5248 4368 
Q 5248 4301 5024 4198 
L 5024 3738 
Q 5024 3552 5037 3341 
L 5043 3142 
Q 5043 3098 5030 3075 
Q 5018 3053 4922 2992 
Q 4826 2931 4685 2876 
Q 4544 2822 4509 2822 
Q 4474 2822 4474 2880 
L 4474 3046 
L 2016 3046 
Q 2029 2989 2006 2960 
Q 1984 2931 1897 2886 
Q 1811 2842 1660 2797 
Q 1510 2752 1475 2752 
Q 1440 2752 1446 2822 
Q 1478 3130 1478 3456 
L 1478 4198 
Q 1478 4467 1459 4742 
Q 1830 4608 2054 4480 
z
M 4474 3853 
L 4474 4294 
L 2016 4294 
L 2016 3853 
L 4474 3853 
z
M 4474 3213 
L 4474 3674 
L 2016 3674 
L 2016 3213 
L 4474 3213 
z
M 5171 2675 
L 5395 3040 
Q 5434 3110 5491 3110 
Q 5549 3110 5690 2989 
L 5984 2746 
Q 6138 2618 6138 2560 
Q 6138 2502 5990 2502 
L 640 2502 
Q 467 2502 371 2458 
L 256 2707 
Q 390 2675 576 2675 
L 5171 2675 
z
M 3482 672 
L 3482 166 
L 4666 166 
L 4864 416 
Q 4902 474 4950 474 
Q 4998 474 5251 285 
Q 5504 96 5504 38 
Q 5504 -19 5286 -19 
L 3482 -19 
L 3482 -550 
L 5203 -550 
L 5434 -230 
Q 5485 -160 5542 -160 
Q 5600 -160 5865 -390 
Q 6131 -621 6131 -691 
Q 6131 -736 5965 -736 
L 582 -736 
Q 410 -736 314 -781 
L 198 -518 
Q 333 -550 518 -550 
L 2931 -550 
L 2931 -19 
L 1274 -19 
Q 1101 -19 1005 -64 
L 877 198 
Q 1011 166 1197 166 
L 2931 166 
L 2931 672 
L 1843 672 
Q 1843 589 1824 569 
Q 1805 550 1725 505 
Q 1645 461 1481 413 
Q 1318 365 1296 365 
Q 1274 365 1280 422 
Q 1312 717 1312 1050 
L 1312 1747 
Q 1312 2074 1293 2355 
Q 1715 2253 1926 2150 
L 4544 2150 
L 4685 2362 
Q 4717 2413 4765 2413 
Q 4813 2413 4944 2333 
Q 5075 2253 5209 2157 
Q 5344 2061 5344 2029 
Q 5344 1971 5126 1850 
L 5126 1363 
Q 5126 1056 5133 954 
L 5139 762 
Q 5139 704 5091 669 
Q 5043 634 4880 592 
Q 4717 550 4627 550 
Q 4576 550 4576 627 
L 4576 672 
L 3482 672 
z
M 2931 1510 
L 2931 1978 
L 1843 1978 
L 1843 1510 
L 2931 1510 
z
M 3482 1978 
L 3482 1510 
L 4576 1510 
L 4576 1978 
L 3482 1978 
z
M 3482 1312 
L 3482 858 
L 4576 858 
L 4576 1312 
L 3482 1312 
z
M 2931 858 
L 2931 1312 
L 1843 1312 
L 1843 858 
L 2931 858 
z
" transform="scale(0.015625)"/>
      </defs>
      <use xlink:href="#STZhongsong-9633"/>
      <use xlink:href="#STZhongsong-6027" x="99.999985"/>
      <use xlink:href="#STZhongsong-5c0f" x="199.999969"/>
      <use xlink:href="#STZhongsong-9f20" x="299.999954"/>
      <use xlink:href="#STZhongsong-6570" x="399.999939"/>
      <use xlink:href="#STZhongsong-91cf" x="499.999924"/>
     </g>
    </g>
   </g>
   <g id="patch_8">
    <path d="M 35.80024 255.28101 
L 35.80024 33.924157 
" style="fill: none; stroke: #000000; stroke-width: 0.8; stroke-linejoin: miter; stroke-linecap: square"/>
   </g>
   <g id="patch_9">
    <path d="M 211.389604 255.28101 
L 211.389604 33.924157 
" style="fill: none; stroke: #000000; stroke-width: 0.8; stroke-linejoin: miter; stroke-linecap: square"/>
   </g>
   <g id="patch_10">
    <path d="M 35.80024 255.28101 
L 211.389604 255.28101 
" style="fill: none; stroke: #000000; stroke-width: 0.8; stroke-linejoin: miter; stroke-linecap: square"/>
   </g>
   <g id="patch_11">
    <path d="M 35.80024 33.924157 
L 211.389604 33.924157 
" style="fill: none; stroke: #000000; stroke-width: 0.8; stroke-linejoin: miter; stroke-linecap: square"/>
   </g>
   <g id="text_14">
    <!-- 阳性频数图 -->
    <g transform="translate(98.594922 27.924157) scale(0.1 -0.1)">
     <defs>
      <path id="STZhongsong-9891" d="M 2246 3642 
L 2419 3642 
L 2656 3936 
Q 2682 3974 2707 3974 
Q 2746 3974 2960 3798 
Q 3174 3622 3174 3536 
Q 3174 3450 3053 3450 
L 2246 3450 
L 2246 2541 
L 2496 2541 
L 2694 2784 
Q 2739 2842 2784 2842 
Q 2829 2842 2941 2733 
Q 3053 2624 3142 2541 
Q 3232 2458 3232 2400 
Q 3232 2342 3123 2342 
L 2138 2342 
L 2138 723 
Q 2413 1197 2586 1856 
Q 3168 1555 3168 1472 
Q 3168 1440 3097 1414 
Q 3027 1389 2976 1312 
Q 2925 1235 2752 922 
Q 2298 70 1725 -330 
Q 1152 -730 186 -1114 
L 154 -1018 
Q 1395 -301 1939 422 
Q 1696 339 1657 339 
Q 1619 339 1619 416 
L 1626 678 
Q 1638 947 1638 1261 
L 1638 2342 
L 563 2342 
Q 416 2342 294 2298 
L 179 2573 
Q 314 2541 499 2541 
L 819 2541 
L 819 3706 
Q 819 4026 806 4275 
Q 941 4243 1142 4179 
Q 1344 4115 1414 4083 
Q 1485 4051 1485 4006 
Q 1485 3962 1306 3846 
L 1306 2541 
L 1779 2541 
L 1779 4333 
Q 1779 4653 1766 4902 
Q 2502 4717 2502 4614 
Q 2502 4557 2246 4416 
L 2246 3642 
z
M 4166 4064 
L 3360 4064 
Q 3200 4064 3085 4032 
L 2976 4307 
Q 3110 4275 3296 4275 
L 5254 4275 
L 5523 4634 
Q 5574 4698 5619 4698 
Q 5696 4698 5961 4448 
Q 6227 4198 6227 4131 
Q 6227 4064 6080 4064 
L 4794 4064 
Q 4595 3750 4410 3232 
L 5139 3232 
L 5299 3488 
Q 5350 3565 5398 3565 
Q 5446 3565 5708 3363 
Q 5971 3162 5971 3094 
Q 5971 3027 5747 2893 
L 5747 1069 
Q 5747 851 5754 762 
L 5760 589 
Q 5760 544 5741 518 
Q 5722 493 5642 448 
Q 5562 403 5434 361 
Q 5306 320 5254 320 
Q 5203 320 5203 384 
L 5203 3034 
L 3763 3034 
L 3763 557 
Q 3763 499 3747 470 
Q 3731 442 3644 390 
Q 3558 339 3440 300 
Q 3322 262 3277 262 
Q 3232 262 3232 326 
L 3245 672 
Q 3258 883 3258 1184 
L 3258 2950 
Q 3258 3232 3238 3501 
Q 3514 3418 3859 3232 
L 4096 3232 
Q 4147 3654 4166 4064 
z
M 4493 294 
Q 4064 -570 2381 -1126 
L 2330 -1024 
Q 2938 -749 3338 -435 
Q 3738 -122 3904 153 
Q 4070 429 4140 797 
Q 4211 1165 4211 1670 
Q 4211 2176 4205 2733 
Q 4589 2624 4742 2566 
Q 4896 2509 4896 2477 
Q 4896 2445 4832 2409 
Q 4768 2374 4752 2323 
Q 4736 2272 4730 2099 
Q 4704 922 4544 422 
Q 5120 173 5411 -6 
Q 5702 -186 5804 -342 
Q 5907 -499 5907 -675 
Q 5907 -851 5849 -960 
Q 5792 -1069 5709 -1069 
Q 5555 -1069 5453 -870 
Q 5094 -141 4493 294 
z
M 966 1888 
Q 1190 1818 1363 1738 
Q 1536 1658 1536 1610 
Q 1536 1562 1449 1539 
Q 1363 1517 1216 1200 
Q 1069 883 787 467 
Q 506 51 294 -141 
L 186 -83 
Q 685 704 966 1888 
z
" transform="scale(0.015625)"/>
      <path id="STZhongsong-56fe" d="M 5069 -378 
L 1286 -378 
L 1286 -723 
Q 1286 -794 1270 -813 
Q 1254 -832 1161 -883 
Q 1069 -934 928 -979 
Q 787 -1024 758 -1024 
Q 730 -1024 736 -973 
Q 768 -653 768 -320 
L 768 4211 
Q 768 4480 749 4755 
Q 1171 4589 1446 4422 
L 5018 4422 
L 5210 4685 
Q 5248 4742 5283 4742 
Q 5318 4742 5484 4624 
Q 5651 4506 5763 4416 
Q 5875 4326 5875 4282 
Q 5875 4211 5600 4064 
L 5600 -45 
Q 5600 -384 5606 -480 
L 5613 -653 
Q 5613 -704 5593 -726 
Q 5574 -749 5356 -841 
Q 5139 -934 5104 -934 
Q 5069 -934 5069 -870 
L 5069 -378 
z
M 1286 -205 
L 5069 -205 
L 5069 4230 
L 1286 4230 
L 1286 -205 
z
M 2458 3078 
Q 2035 2624 1504 2221 
L 1414 2304 
Q 1843 2733 2115 3145 
Q 2387 3558 2605 4186 
Q 3232 4038 3232 3974 
Q 3232 3942 3158 3916 
Q 3085 3891 3037 3830 
Q 2989 3770 2906 3635 
L 3859 3635 
L 4051 3840 
Q 4090 3878 4128 3878 
Q 4166 3878 4218 3834 
L 4410 3667 
Q 4550 3552 4595 3501 
Q 4640 3450 4640 3408 
Q 4640 3366 4499 3344 
Q 4358 3322 4294 3232 
Q 3898 2707 3482 2336 
Q 4083 2003 4973 1875 
L 4973 1760 
Q 4755 1734 4611 1673 
Q 4467 1613 4410 1453 
Q 4390 1395 4352 1395 
Q 4282 1395 3885 1600 
Q 3488 1805 3168 2080 
Q 2464 1549 1446 1248 
L 1395 1344 
Q 2406 1843 2931 2317 
Q 2643 2650 2458 3078 
z
M 2771 3450 
Q 2688 3334 2586 3226 
Q 2816 2842 3168 2541 
Q 3590 2963 3802 3450 
L 2771 3450 
z
M 2605 1651 
Q 3149 1562 3421 1440 
Q 3693 1318 3693 1126 
Q 3693 1018 3638 934 
Q 3584 851 3513 851 
Q 3443 851 3366 947 
Q 2963 1331 2586 1530 
L 2605 1651 
z
M 2003 800 
Q 2950 742 3356 659 
Q 3763 576 3907 454 
Q 4051 333 4051 141 
Q 4051 38 4009 -58 
Q 3968 -154 3878 -154 
Q 3827 -154 3718 -83 
Q 3341 173 2950 339 
Q 2560 506 1990 646 
L 2003 800 
z
" transform="scale(0.015625)"/>
     </defs>
     <use xlink:href="#STZhongsong-9633"/>
     <use xlink:href="#STZhongsong-6027" x="99.999985"/>
     <use xlink:href="#STZhongsong-9891" x="199.999969"/>
     <use xlink:href="#STZhongsong-6570" x="299.999954"/>
     <use xlink:href="#STZhongsong-56fe" x="399.999939"/>
    </g>
   </g>
  </g>
  <g id="axes_2">
   <g id="patch_12">
    <path d="M 253.410396 255.28101 
L 428.99976 255.28101 
L 428.99976 33.924157 
L 253.410396 33.924157 
z
" style="fill: #ffffff"/>
   </g>
   <g id="PathCollection_1">
    <defs>
     <path id="m0ff912b81c" d="M -3 0 
L 3 0 
M 0 3 
L 0 -3 
" style="stroke: #fab387; stroke-width: 1.5"/>
    </defs>
    <g clip-path="url(#p771484940f)">
     <use xlink:href="#m0ff912b81c" x="277.23131" y="208.928092" style="fill: #fab387; stroke: #fab387; stroke-width: 1.5"/>
     <use xlink:href="#m0ff912b81c" x="312.170807" y="236.407472" style="fill: #fab387; stroke: #fab387; stroke-width: 1.5"/>
     <use xlink:href="#m0ff912b81c" x="346.290925" y="43.985833" style="fill: #fab387; stroke: #fab387; stroke-width: 1.5"/>
     <use xlink:href="#m0ff912b81c" x="380.370895" y="43.985833" style="fill: #fab387; stroke: #fab387; stroke-width: 1.5"/>
     <use xlink:href="#m0ff912b81c" x="414.707212" y="71.465213" style="fill: #fab387; stroke: #fab387; stroke-width: 1.5"/>
    </g>
   </g>
   <g id="matplotlib.axis_3">
    <g id="xtick_6">
     <g id="line2d_12">
      <g>
       <use xlink:href="#m03fe5a3aa7" x="264.684424" y="255.28101" style="stroke: #000000; stroke-width: 0.8"/>
      </g>
     </g>
     <g id="text_15">
      <!-- 2.3 -->
      <g transform="translate(256.884424 269.440385) scale(0.1 -0.1)">
       <defs>
        <path id="STZhongsong-2e" d="M 634 339 
Q 634 506 749 618 
Q 864 730 1024 730 
Q 1184 730 1299 614 
Q 1414 499 1414 339 
Q 1414 173 1299 61 
Q 1184 -51 1024 -51 
Q 864 -51 749 61 
Q 634 173 634 339 
z
" transform="scale(0.015625)"/>
       </defs>
       <use xlink:href="#STZhongsong-32"/>
       <use xlink:href="#STZhongsong-2e" x="61.999985"/>
       <use xlink:href="#STZhongsong-33" x="93.999969"/>
      </g>
     </g>
    </g>
    <g id="xtick_7">
     <g id="line2d_13">
      <g>
       <use xlink:href="#m03fe5a3aa7" x="312.326252" y="255.28101" style="stroke: #000000; stroke-width: 0.8"/>
      </g>
     </g>
     <g id="text_16">
      <!-- 2.4 -->
      <g transform="translate(304.526252 269.440385) scale(0.1 -0.1)">
       <use xlink:href="#STZhongsong-32"/>
       <use xlink:href="#STZhongsong-2e" x="61.999985"/>
       <use xlink:href="#STZhongsong-34" x="93.999969"/>
      </g>
     </g>
    </g>
    <g id="xtick_8">
     <g id="line2d_14">
      <g>
       <use xlink:href="#m03fe5a3aa7" x="359.968079" y="255.28101" style="stroke: #000000; stroke-width: 0.8"/>
      </g>
     </g>
     <g id="text_17">
      <!-- 2.5 -->
      <g transform="translate(352.168079 269.440385) scale(0.1 -0.1)">
       <use xlink:href="#STZhongsong-32"/>
       <use xlink:href="#STZhongsong-2e" x="61.999985"/>
       <use xlink:href="#STZhongsong-35" x="93.999969"/>
      </g>
     </g>
    </g>
    <g id="xtick_9">
     <g id="line2d_15">
      <g>
       <use xlink:href="#m03fe5a3aa7" x="407.609906" y="255.28101" style="stroke: #000000; stroke-width: 0.8"/>
      </g>
     </g>
     <g id="text_18">
      <!-- 2.6 -->
      <g transform="translate(399.809906 269.440385) scale(0.1 -0.1)">
       <use xlink:href="#STZhongsong-32"/>
       <use xlink:href="#STZhongsong-2e" x="61.999985"/>
       <use xlink:href="#STZhongsong-36" x="93.999969"/>
      </g>
     </g>
    </g>
    <g id="text_19">
     <!-- 剂量对数 -->
     <g transform="translate(321.205078 282.99976) scale(0.1 -0.1)">
      <defs>
       <path id="STZhongsong-5242" d="M 1517 4979 
Q 2061 4806 2240 4678 
Q 2419 4550 2419 4403 
Q 2419 4122 2300 4026 
Q 2182 3930 2064 3930 
Q 1946 3930 1898 4144 
Q 1850 4358 1744 4512 
Q 1638 4666 1453 4870 
L 1517 4979 
z
M 5203 4826 
Q 5350 4781 5619 4685 
Q 5888 4589 5933 4557 
Q 5978 4525 5978 4486 
Q 5978 4403 5760 4301 
L 5760 -371 
Q 5760 -595 5648 -726 
Q 5536 -858 5309 -960 
Q 5082 -1062 5021 -1062 
Q 4960 -1062 4947 -979 
Q 4896 -698 4701 -560 
Q 4506 -422 4173 -320 
L 4211 -205 
Q 4858 -314 5008 -314 
Q 5158 -314 5187 -288 
Q 5216 -262 5216 -205 
L 5216 4256 
Q 5216 4576 5203 4826 
z
M 2413 3693 
L 710 3693 
Q 538 3693 442 3648 
L 326 3936 
Q 461 3904 646 3904 
L 2982 3904 
L 3187 4186 
Q 3232 4250 3283 4250 
Q 3334 4250 3609 4026 
Q 3885 3802 3885 3747 
Q 3885 3693 3782 3693 
L 3002 3693 
Q 2778 3200 2522 2867 
Q 3206 2618 3411 2442 
Q 3616 2266 3616 2010 
Q 3616 1696 3437 1696 
Q 3360 1696 3270 1798 
Q 2957 2138 2246 2541 
Q 1901 2195 1478 1939 
Q 1843 1869 1936 1833 
Q 2029 1798 2029 1753 
Q 2029 1709 1949 1673 
Q 1869 1638 1869 1523 
Q 1843 755 1731 329 
Q 1619 -96 1331 -393 
Q 1043 -691 448 -973 
L 397 -890 
Q 826 -557 1018 -262 
Q 1210 32 1270 486 
Q 1331 941 1338 1856 
Q 877 1606 230 1389 
L 179 1498 
Q 1280 2099 1837 2765 
Q 1325 3034 736 3258 
L 781 3373 
Q 1395 3226 2042 3027 
Q 2259 3341 2413 3693 
z
M 4026 3930 
Q 4493 3808 4589 3766 
Q 4685 3725 4685 3686 
Q 4685 3648 4550 3578 
L 4550 1139 
L 4563 570 
Q 4563 506 4524 474 
Q 4486 442 4313 374 
Q 4141 307 4083 307 
Q 4026 307 4026 378 
L 4032 627 
Q 4038 768 4038 1139 
L 4038 3418 
Q 4038 3706 4026 3930 
z
M 2528 1939 
Q 2650 1914 2883 1853 
Q 3117 1792 3152 1766 
Q 3187 1741 3187 1696 
Q 3187 1651 3046 1568 
L 3046 -570 
Q 3046 -634 2998 -669 
Q 2950 -704 2796 -761 
Q 2643 -819 2579 -819 
Q 2515 -819 2515 -742 
L 2528 -474 
Q 2534 -173 2534 90 
L 2534 1370 
Q 2534 1843 2528 1939 
z
" transform="scale(0.015625)"/>
       <path id="STZhongsong-5bf9" d="M 5082 3290 
L 5357 3290 
L 5638 3642 
Q 5690 3706 5741 3706 
Q 5792 3706 5923 3578 
Q 6054 3450 6166 3325 
Q 6278 3200 6278 3126 
Q 6278 3053 6093 3053 
L 5082 3053 
L 5082 -141 
Q 5082 -461 4963 -617 
Q 4845 -774 4617 -889 
Q 4390 -1005 4307 -1005 
Q 4224 -1005 4211 -902 
Q 4173 -602 4019 -467 
Q 3866 -333 3373 -160 
L 3405 13 
Q 4058 -128 4230 -128 
Q 4403 -128 4457 -99 
Q 4512 -70 4512 6 
L 4512 3053 
L 3149 3053 
Q 2989 3053 2874 3021 
L 2765 3322 
Q 2899 3290 3085 3290 
L 4512 3290 
L 4512 4230 
Q 4512 4595 4499 4909 
Q 4666 4864 4957 4771 
Q 5248 4678 5328 4633 
Q 5408 4589 5408 4544 
Q 5408 4454 5082 4358 
L 5082 3290 
z
M 1747 2234 
Q 2061 2976 2214 3802 
L 742 3802 
Q 570 3802 474 3757 
L 358 4032 
Q 493 4000 678 4000 
L 2189 4000 
L 2362 4230 
Q 2413 4294 2441 4294 
Q 2470 4294 2668 4166 
Q 2867 4038 2985 3955 
Q 3104 3872 3104 3821 
Q 3104 3770 2989 3750 
Q 2778 3718 2701 3482 
Q 2374 2464 2054 1862 
Q 2547 1261 2713 963 
Q 2880 666 2880 464 
Q 2880 262 2768 80 
Q 2656 -102 2557 -102 
Q 2458 -102 2416 -32 
Q 2374 38 2336 186 
Q 2195 768 1818 1440 
Q 1325 627 205 -435 
L 109 -346 
Q 1075 826 1581 1862 
Q 1293 2362 698 3270 
L 787 3341 
Q 1466 2573 1747 2234 
z
M 3021 2387 
Q 3597 1997 3795 1763 
Q 3994 1530 3994 1334 
Q 3994 1139 3885 1011 
Q 3776 883 3648 883 
Q 3578 883 3539 1018 
Q 3418 1440 3290 1712 
Q 3162 1984 2950 2317 
L 3021 2387 
z
" transform="scale(0.015625)"/>
      </defs>
      <use xlink:href="#STZhongsong-5242"/>
      <use xlink:href="#STZhongsong-91cf" x="99.999985"/>
      <use xlink:href="#STZhongsong-5bf9" x="199.999969"/>
      <use xlink:href="#STZhongsong-6570" x="299.999954"/>
     </g>
    </g>
   </g>
   <g id="matplotlib.axis_4">
    <g id="ytick_7">
     <g id="line2d_16">
      <g>
       <use xlink:href="#mafa02a110f" x="253.410396" y="241.916544" style="stroke: #000000; stroke-width: 0.8"/>
      </g>
     </g>
     <g id="text_20">
      <!-- 0.4 -->
      <g transform="translate(230.810396 245.496231) scale(0.1 -0.1)">
       <use xlink:href="#STZhongsong-30"/>
       <use xlink:href="#STZhongsong-2e" x="61.999985"/>
       <use xlink:href="#STZhongsong-34" x="93.999969"/>
      </g>
     </g>
    </g>
    <g id="ytick_8">
     <g id="line2d_17">
      <g>
       <use xlink:href="#mafa02a110f" x="253.410396" y="208.928092" style="stroke: #000000; stroke-width: 0.8"/>
      </g>
     </g>
     <g id="text_21">
      <!-- 0.5 -->
      <g transform="translate(230.810396 212.507779) scale(0.1 -0.1)">
       <use xlink:href="#STZhongsong-30"/>
       <use xlink:href="#STZhongsong-2e" x="61.999985"/>
       <use xlink:href="#STZhongsong-35" x="93.999969"/>
      </g>
     </g>
    </g>
    <g id="ytick_9">
     <g id="line2d_18">
      <g>
       <use xlink:href="#mafa02a110f" x="253.410396" y="175.93964" style="stroke: #000000; stroke-width: 0.8"/>
      </g>
     </g>
     <g id="text_22">
      <!-- 0.6 -->
      <g transform="translate(230.810396 179.519327) scale(0.1 -0.1)">
       <use xlink:href="#STZhongsong-30"/>
       <use xlink:href="#STZhongsong-2e" x="61.999985"/>
       <use xlink:href="#STZhongsong-36" x="93.999969"/>
      </g>
     </g>
    </g>
    <g id="ytick_10">
     <g id="line2d_19">
      <g>
       <use xlink:href="#mafa02a110f" x="253.410396" y="142.951188" style="stroke: #000000; stroke-width: 0.8"/>
      </g>
     </g>
     <g id="text_23">
      <!-- 0.7 -->
      <g transform="translate(230.810396 146.530876) scale(0.1 -0.1)">
       <defs>
        <path id="STZhongsong-37" d="M 691 4518 
L 902 4518 
L 934 4358 
L 3667 4358 
L 3667 4096 
Q 2163 2317 1901 0 
L 1261 0 
Q 1421 1190 1949 2150 
Q 2477 3110 3174 3891 
L 1222 3891 
Q 1005 3891 899 3862 
Q 794 3834 736 3635 
L 614 3206 
L 352 3264 
L 691 4518 
z
" transform="scale(0.015625)"/>
       </defs>
       <use xlink:href="#STZhongsong-30"/>
       <use xlink:href="#STZhongsong-2e" x="61.999985"/>
       <use xlink:href="#STZhongsong-37" x="93.999969"/>
      </g>
     </g>
    </g>
    <g id="ytick_11">
     <g id="line2d_20">
      <g>
       <use xlink:href="#mafa02a110f" x="253.410396" y="109.962736" style="stroke: #000000; stroke-width: 0.8"/>
      </g>
     </g>
     <g id="text_24">
      <!-- 0.8 -->
      <g transform="translate(230.810396 113.542424) scale(0.1 -0.1)">
       <use xlink:href="#STZhongsong-30"/>
       <use xlink:href="#STZhongsong-2e" x="61.999985"/>
       <use xlink:href="#STZhongsong-38" x="93.999969"/>
      </g>
     </g>
    </g>
    <g id="ytick_12">
     <g id="line2d_21">
      <g>
       <use xlink:href="#mafa02a110f" x="253.410396" y="76.974284" style="stroke: #000000; stroke-width: 0.8"/>
      </g>
     </g>
     <g id="text_25">
      <!-- 0.9 -->
      <g transform="translate(230.810396 80.553972) scale(0.1 -0.1)">
       <defs>
        <path id="STZhongsong-39" d="M 736 -77 
L 736 218 
Q 1856 224 2374 688 
Q 2893 1152 2938 2138 
Q 2707 1798 2425 1638 
Q 2144 1478 1734 1478 
Q 1088 1478 681 1884 
Q 275 2291 275 2925 
Q 275 3616 720 4025 
Q 1165 4435 1882 4435 
Q 2688 4435 3126 3916 
Q 3565 3398 3565 2438 
Q 3565 1574 3181 963 
Q 2797 352 2201 137 
Q 1606 -77 979 -77 
L 736 -77 
z
M 896 2950 
Q 896 2445 1174 2128 
Q 1453 1811 1875 1811 
Q 2317 1811 2611 2147 
Q 2906 2483 2906 2970 
Q 2906 3475 2618 3814 
Q 2330 4154 1901 4154 
Q 1459 4154 1177 3824 
Q 896 3494 896 2950 
z
" transform="scale(0.015625)"/>
       </defs>
       <use xlink:href="#STZhongsong-30"/>
       <use xlink:href="#STZhongsong-2e" x="61.999985"/>
       <use xlink:href="#STZhongsong-39" x="93.999969"/>
      </g>
     </g>
    </g>
    <g id="ytick_13">
     <g id="line2d_22">
      <g>
       <use xlink:href="#mafa02a110f" x="253.410396" y="43.985833" style="stroke: #000000; stroke-width: 0.8"/>
      </g>
     </g>
     <g id="text_26">
      <!-- 1.0 -->
      <g transform="translate(230.810396 47.56552) scale(0.1 -0.1)">
       <use xlink:href="#STZhongsong-31"/>
       <use xlink:href="#STZhongsong-2e" x="61.999985"/>
       <use xlink:href="#STZhongsong-30" x="93.999969"/>
      </g>
     </g>
    </g>
    <g id="text_27">
     <!-- 效应百分率 -->
     <g transform="translate(224.810396 169.602584) rotate(-90) scale(0.1 -0.1)">
      <defs>
       <path id="STZhongsong-6548" d="M 1274 4915 
Q 1741 4749 1961 4640 
Q 2182 4531 2249 4444 
Q 2317 4358 2317 4217 
Q 2317 4077 2198 3907 
Q 2080 3738 1958 3738 
Q 1888 3738 1859 3766 
Q 1830 3795 1792 3898 
Q 1664 4224 1529 4425 
Q 1395 4627 1216 4819 
L 1274 4915 
z
M 4186 3315 
L 5190 3315 
L 5453 3738 
Q 5498 3808 5549 3808 
Q 5600 3808 5670 3744 
Q 5741 3680 5904 3513 
Q 6067 3347 6131 3270 
Q 6195 3194 6195 3162 
Q 6195 3130 6067 3130 
L 5146 3130 
Q 5325 3078 5488 3008 
Q 5651 2938 5651 2906 
Q 5651 2874 5587 2838 
Q 5523 2803 5497 2752 
Q 5472 2701 5427 2522 
Q 5133 1254 4698 621 
Q 5235 -96 6291 -576 
L 6272 -678 
Q 6182 -672 6044 -672 
Q 5907 -672 5779 -723 
Q 5651 -774 5536 -928 
Q 5498 -979 5466 -979 
Q 5389 -979 4969 -531 
Q 4550 -83 4371 205 
Q 3770 -480 2234 -1056 
L 2170 -973 
Q 3552 -173 4141 634 
Q 3853 1254 3757 2349 
Q 3462 1811 3046 1338 
L 2950 1395 
Q 3360 2093 3568 2787 
Q 3776 3482 4026 4870 
Q 4224 4819 4521 4707 
Q 4819 4595 4819 4550 
Q 4819 4506 4726 4493 
Q 4634 4480 4592 4422 
Q 4550 4365 4451 4057 
Q 4352 3750 4186 3315 
z
M 4922 3130 
L 4115 3130 
Q 3994 2829 3904 2643 
Q 4064 1696 4416 1056 
Q 4768 1862 4922 3130 
z
M 2688 3680 
L 2931 4000 
Q 2989 4077 3037 4077 
Q 3085 4077 3347 3843 
Q 3610 3610 3610 3555 
Q 3610 3501 3507 3501 
L 570 3501 
Q 435 3501 365 3469 
L 275 3706 
Q 390 3680 525 3680 
L 2688 3680 
z
M 2150 3392 
Q 2726 3181 3027 2995 
Q 3328 2810 3328 2611 
Q 3328 2470 3222 2307 
Q 3117 2144 3056 2144 
Q 2995 2144 2963 2176 
Q 2931 2208 2867 2317 
Q 2547 2880 2086 3296 
L 2150 3392 
z
M 1293 3386 
Q 1914 3117 1914 3040 
Q 1914 3014 1798 2989 
Q 1709 2970 1549 2771 
Q 672 1715 250 1344 
L 166 1408 
Q 838 2362 1293 3386 
z
M 2195 1037 
Q 2534 723 2700 508 
Q 2867 294 2867 83 
Q 2867 -128 2764 -285 
Q 2662 -442 2592 -442 
Q 2522 -442 2486 -400 
Q 2451 -358 2374 -186 
Q 2144 346 1933 659 
Q 1350 -109 237 -755 
L 179 -685 
Q 1171 154 1670 1011 
Q 1395 1350 896 1869 
L 979 1965 
Q 1574 1581 1856 1338 
Q 2074 1741 2323 2394 
Q 2509 2310 2710 2179 
Q 2912 2048 2912 2013 
Q 2912 1978 2813 1965 
Q 2714 1952 2605 1747 
Q 2374 1318 2195 1037 
z
" transform="scale(0.015625)"/>
       <path id="STZhongsong-5e94" d="M 2816 4922 
Q 3270 4787 3507 4627 
Q 3744 4467 3744 4278 
Q 3744 4090 3616 3946 
Q 3488 3802 3360 3802 
Q 3283 3802 3254 3843 
Q 3226 3885 3187 4045 
Q 3072 4538 2771 4832 
L 2816 4922 
z
M 1728 3782 
L 4992 3782 
L 5254 4147 
Q 5338 4256 5405 4256 
Q 5472 4256 5763 3977 
Q 6054 3699 6054 3644 
Q 6054 3590 5901 3590 
L 1574 3590 
Q 1549 2349 1517 1776 
Q 1485 1203 1379 716 
Q 1274 230 1021 -186 
Q 768 -602 282 -1056 
L 179 -986 
Q 570 -461 749 89 
Q 928 640 979 1491 
Q 1030 2342 1030 2857 
Q 1030 3373 992 4077 
Q 1402 3936 1728 3782 
z
M 2880 3277 
Q 3424 2650 3702 2186 
Q 3981 1722 3981 1440 
Q 3981 1158 3849 950 
Q 3718 742 3571 742 
Q 3488 742 3459 825 
Q 3430 909 3420 1264 
Q 3411 1619 3244 2176 
Q 3078 2733 2797 3213 
L 2880 3277 
z
M 3648 -339 
Q 4538 1389 4928 3149 
Q 5690 2778 5690 2701 
Q 5690 2662 5571 2617 
Q 5453 2573 5389 2432 
Q 4934 1434 4611 867 
Q 4288 301 3859 -339 
L 4966 -339 
L 5203 70 
Q 5261 166 5321 166 
Q 5382 166 5481 89 
Q 5581 13 5760 -147 
Q 5939 -307 5996 -364 
Q 6054 -422 6054 -467 
Q 6054 -538 5875 -538 
L 1581 -538 
Q 1408 -538 1312 -582 
L 1197 -307 
Q 1331 -339 1517 -339 
L 3648 -339 
z
M 1805 2765 
Q 2464 2022 2691 1622 
Q 2918 1222 2918 877 
Q 2918 640 2774 470 
Q 2630 301 2477 301 
Q 2413 301 2384 390 
Q 2355 480 2345 864 
Q 2336 1248 2173 1744 
Q 2010 2240 1728 2682 
L 1805 2765 
z
" transform="scale(0.015625)"/>
       <path id="STZhongsong-767e" d="M 2803 4141 
L 723 4141 
Q 550 4141 454 4096 
L 320 4371 
Q 454 4339 640 4339 
L 4941 4339 
L 5261 4730 
Q 5318 4819 5379 4819 
Q 5440 4819 5728 4560 
Q 6016 4301 6016 4230 
Q 6016 4141 5830 4141 
L 3514 4141 
Q 3302 3955 2880 3091 
L 4269 3091 
L 4493 3437 
Q 4531 3507 4585 3507 
Q 4640 3507 4941 3305 
Q 5242 3104 5242 3037 
Q 5242 2970 5018 2835 
L 5018 115 
Q 5018 -154 5024 -294 
L 5030 -557 
Q 5030 -634 4966 -685 
Q 4902 -736 4752 -781 
Q 4602 -826 4474 -826 
Q 4416 -826 4416 -749 
L 4416 -230 
L 1850 -230 
L 1850 -717 
Q 1850 -794 1814 -826 
Q 1779 -858 1612 -922 
Q 1446 -986 1356 -986 
Q 1267 -986 1254 -970 
Q 1242 -954 1242 -902 
L 1261 -672 
Q 1280 -435 1280 -218 
L 1280 2752 
Q 1280 3104 1254 3392 
Q 1690 3264 2035 3091 
L 2554 3091 
Q 2752 3789 2803 4141 
z
M 4416 1581 
L 4416 2880 
L 1850 2880 
L 1850 1581 
L 4416 1581 
z
M 4416 32 
L 4416 1350 
L 1850 1350 
L 1850 32 
L 4416 32 
z
" transform="scale(0.015625)"/>
       <path id="STZhongsong-5206" d="M 6170 2214 
L 6144 2067 
Q 5805 2086 5670 2019 
Q 5536 1952 5414 1754 
Q 5382 1696 5325 1696 
Q 5146 1696 4518 2473 
Q 3891 3251 3603 4851 
Q 3808 4826 4013 4784 
Q 4218 4742 4256 4713 
Q 4294 4685 4294 4643 
Q 4294 4602 4188 4563 
Q 4083 4525 4083 4384 
Q 4083 4179 4297 3683 
Q 4512 3187 4976 2784 
Q 5440 2381 6170 2214 
z
M 2298 4736 
Q 2982 4326 2982 4224 
Q 2982 4173 2876 4153 
Q 2771 4134 2720 4083 
Q 2669 4032 2579 3853 
Q 2163 3008 1648 2435 
Q 1133 1862 314 1306 
L 237 1395 
Q 1651 2694 2298 4736 
z
M 2272 1965 
L 1875 1965 
Q 1709 1965 1606 1920 
L 1491 2202 
Q 1626 2170 1811 2170 
L 4013 2170 
L 4134 2374 
Q 4173 2438 4211 2438 
Q 4250 2438 4534 2256 
Q 4819 2074 4819 2029 
Q 4819 1984 4640 1920 
Q 4608 1037 4563 512 
Q 4518 -13 4454 -243 
Q 4390 -474 4252 -656 
Q 4115 -838 3888 -956 
Q 3661 -1075 3545 -1075 
Q 3430 -1075 3424 -941 
Q 3405 -672 3216 -509 
Q 3027 -346 2650 -205 
L 2694 -83 
Q 3398 -250 3590 -250 
Q 3757 -250 3827 -131 
Q 3898 -13 3968 435 
Q 4038 883 4070 1965 
L 2880 1965 
Q 2714 634 2218 19 
Q 1722 -595 512 -1107 
L 474 -998 
Q 1440 -435 1817 169 
Q 2195 774 2272 1965 
z
" transform="scale(0.015625)"/>
       <path id="STZhongsong-7387" d="M 3008 3930 
Q 2867 4262 2771 4409 
Q 2675 4557 2426 4717 
L 2483 4832 
Q 3002 4749 3270 4621 
Q 3539 4493 3539 4291 
Q 3539 4090 3347 3930 
L 4947 3930 
L 5210 4333 
Q 5274 4422 5334 4422 
Q 5395 4422 5683 4137 
Q 5971 3853 5971 3798 
Q 5971 3744 5830 3744 
L 3110 3744 
Q 3219 3706 3382 3610 
Q 3546 3514 3546 3462 
Q 3546 3411 3478 3398 
Q 3411 3386 3257 3270 
Q 3104 3155 2419 2707 
L 3245 2675 
Q 3584 3053 3834 3424 
Q 3968 3354 4185 3190 
Q 4403 3027 4403 2976 
Q 4403 2938 4269 2938 
Q 4205 2938 4019 2778 
Q 3411 2246 2432 1638 
L 3776 1728 
Q 3680 1933 3475 2163 
L 3533 2246 
Q 3987 2003 4230 1801 
Q 4474 1600 4474 1443 
Q 4474 1286 4365 1123 
Q 4256 960 4141 960 
Q 4064 960 4032 1021 
Q 4000 1082 3952 1261 
Q 3904 1440 3859 1555 
Q 3482 1485 2925 1344 
Q 3136 1350 3353 1308 
Q 3571 1267 3571 1187 
Q 3571 1107 3437 1018 
L 3437 602 
L 5184 602 
L 5434 986 
Q 5491 1082 5571 1082 
Q 5651 1082 5747 986 
L 6022 704 
Q 6202 525 6202 464 
Q 6202 403 6035 403 
L 3437 403 
L 3437 -179 
Q 3437 -390 3450 -627 
L 3456 -845 
Q 3456 -896 3398 -934 
Q 3341 -973 3165 -1037 
Q 2989 -1101 2893 -1101 
Q 2867 -1101 2857 -1085 
Q 2848 -1069 2848 -1005 
L 2861 -755 
Q 2867 -499 2867 -179 
L 2867 403 
L 525 403 
Q 352 403 256 358 
L 141 634 
Q 275 602 461 602 
L 2867 602 
L 2867 787 
Q 2867 1101 2854 1325 
Q 2458 1235 2307 1171 
Q 2157 1107 2128 1107 
Q 2099 1107 2080 1136 
Q 2061 1165 2013 1283 
Q 1965 1402 1894 1651 
Q 2067 1677 2201 1734 
Q 2336 1792 2608 2045 
Q 2880 2298 3040 2458 
Q 2451 2355 2234 2272 
Q 2182 2253 2156 2253 
Q 2131 2253 2118 2269 
Q 2106 2285 2045 2438 
Q 1984 2592 1952 2707 
Q 2093 2733 2160 2771 
Q 2227 2810 2406 2995 
Q 2586 3181 2742 3389 
Q 2899 3597 2970 3744 
L 794 3744 
Q 621 3744 525 3699 
L 410 3962 
Q 544 3930 730 3930 
L 3008 3930 
z
M 934 3648 
Q 1395 3405 1625 3190 
Q 1856 2976 1856 2771 
Q 1856 2566 1747 2428 
Q 1638 2291 1498 2291 
Q 1446 2291 1404 2348 
Q 1363 2406 1357 2483 
Q 1338 2752 1203 3046 
Q 1069 3341 864 3552 
L 934 3648 
z
M 4506 2291 
Q 4928 2144 5136 2029 
Q 5344 1914 5411 1798 
Q 5478 1683 5478 1523 
Q 5478 1363 5376 1219 
Q 5274 1075 5190 1075 
Q 5139 1075 5091 1120 
Q 5043 1165 5018 1229 
Q 4864 1574 4640 1827 
Q 4416 2080 4058 2336 
L 4109 2426 
L 4346 2349 
Q 4845 3194 4947 3603 
Q 5120 3526 5344 3379 
Q 5568 3232 5568 3187 
Q 5568 3142 5459 3129 
Q 5350 3117 5177 2973 
Q 5005 2829 4506 2291 
z
M 2093 2150 
L 1248 1325 
Q 941 1030 889 944 
Q 838 858 806 858 
Q 768 858 694 966 
Q 621 1075 422 1459 
Q 1094 1683 1997 2240 
L 2093 2150 
z
" transform="scale(0.015625)"/>
      </defs>
      <use xlink:href="#STZhongsong-6548"/>
      <use xlink:href="#STZhongsong-5e94" x="99.999985"/>
      <use xlink:href="#STZhongsong-767e" x="199.999969"/>
      <use xlink:href="#STZhongsong-5206" x="299.999954"/>
      <use xlink:href="#STZhongsong-7387" x="399.999939"/>
     </g>
    </g>
   </g>
   <g id="line2d_23">
    <path d="M 277.23131 245.219335 
L 284.83048 227.167319 
L 309.700493 167.501378 
L 315.917996 153.439012 
L 321.444665 141.509166 
L 326.280501 131.589159 
L 331.116337 122.20833 
L 335.261339 114.628221 
L 339.406341 107.493791 
L 343.551343 100.818037 
L 347.696345 94.607933 
L 351.150513 89.789612 
L 354.604682 85.293483 
L 358.05885 81.115027 
L 361.513019 77.247558 
L 364.967187 73.682457 
L 368.421355 70.409419 
L 371.875524 67.416712 
L 375.329692 64.691431 
L 378.783861 62.21975 
L 382.238029 59.987167 
L 385.692197 57.978737 
L 389.837199 55.843134 
L 393.982201 53.98222 
L 398.127204 52.370129 
L 402.272206 50.981744 
L 407.108041 49.612669 
L 411.943877 48.479428 
L 414.707212 47.924856 
L 414.707212 47.924856 
" clip-path="url(#p771484940f)" style="fill: none; stroke: #eba0ac; stroke-width: 1.5; stroke-linecap: square"/>
   </g>
   <g id="patch_13">
    <path d="M 253.410396 255.28101 
L 253.410396 33.924157 
" style="fill: none; stroke: #000000; stroke-width: 0.8; stroke-linejoin: miter; stroke-linecap: square"/>
   </g>
   <g id="patch_14">
    <path d="M 428.99976 255.28101 
L 428.99976 33.924157 
" style="fill: none; stroke: #000000; stroke-width: 0.8; stroke-linejoin: miter; stroke-linecap: square"/>
   </g>
   <g id="patch_15">
    <path d="M 253.410396 255.28101 
L 428.99976 255.28101 
" style="fill: none; stroke: #000000; stroke-width: 0.8; stroke-linejoin: miter; stroke-linecap: square"/>
   </g>
   <g id="patch_16">
    <path d="M 253.410396 33.924157 
L 428.99976 33.924157 
" style="fill: none; stroke: #000000; stroke-width: 0.8; stroke-linejoin: miter; stroke-linecap: square"/>
   </g>
   <g id="patch_17">
    <path d="M 290.587046 203.125241 
Q 284.827058 205.627862 279.579785 207.907717 
" style="fill: none; stroke: #fab387; stroke-width: 0.5; stroke-linecap: round"/>
    <path d="M 282.705756 208.075968 
L 279.579785 207.907717 
L 281.589968 205.507891 
" style="fill: none; stroke: #fab387; stroke-width: 0.5; stroke-linecap: round"/>
   </g>
   <g id="text_28">
    <!-- (2.33, 0.5) -->
    <g style="fill: #fab387" transform="translate(287.23131 198.928092) scale(0.07 -0.07)">
     <defs>
      <path id="STZhongsong-28" d="M 1542 4934 
L 1734 4742 
Q 1402 4333 1274 3721 
Q 1146 3110 1146 1901 
Q 1146 646 1280 48 
Q 1414 -550 1734 -915 
L 1542 -1094 
Q 1030 -653 796 76 
Q 563 806 563 1965 
Q 563 3066 790 3760 
Q 1018 4454 1542 4934 
z
" transform="scale(0.015625)"/>
      <path id="STZhongsong-2c" d="M 691 -1133 
L 525 -928 
Q 883 -634 1036 -403 
Q 1190 -173 1158 45 
Q 1037 0 941 0 
Q 800 0 713 99 
Q 627 198 627 339 
Q 627 499 739 604 
Q 851 710 1024 710 
Q 1210 710 1363 540 
Q 1517 371 1517 128 
Q 1517 -211 1331 -486 
Q 1146 -762 691 -1133 
z
" transform="scale(0.015625)"/>
      <path id="STZhongsong-20" transform="scale(0.015625)"/>
      <path id="STZhongsong-29" d="M 378 4934 
Q 902 4454 1129 3760 
Q 1357 3066 1357 1965 
Q 1357 806 1123 76 
Q 890 -653 378 -1094 
L 186 -915 
Q 506 -550 640 48 
Q 774 646 774 1901 
Q 774 3110 646 3721 
Q 518 4333 186 4742 
L 378 4934 
z
" transform="scale(0.015625)"/>
     </defs>
     <use xlink:href="#STZhongsong-28"/>
     <use xlink:href="#STZhongsong-32" x="29.999985"/>
     <use xlink:href="#STZhongsong-2e" x="91.999969"/>
     <use xlink:href="#STZhongsong-33" x="123.999954"/>
     <use xlink:href="#STZhongsong-33" x="185.999939"/>
     <use xlink:href="#STZhongsong-2c" x="247.999924"/>
     <use xlink:href="#STZhongsong-20" x="279.999908"/>
     <use xlink:href="#STZhongsong-30" x="311.999893"/>
     <use xlink:href="#STZhongsong-2e" x="373.999878"/>
     <use xlink:href="#STZhongsong-35" x="405.999863"/>
     <use xlink:href="#STZhongsong-29" x="467.999847"/>
    </g>
   </g>
   <g id="patch_18">
    <path d="M 327.897442 230.507934 
Q 320.969045 233.106986 314.56405 235.509694 
" style="fill: none; stroke: #fab387; stroke-width: 0.5; stroke-linecap: round"/>
    <path d="M 317.677382 235.837054 
L 314.56405 235.509694 
L 316.693937 233.215444 
" style="fill: none; stroke: #fab387; stroke-width: 0.5; stroke-linecap: round"/>
   </g>
   <g id="text_29">
    <!-- (2.4, 0.4167) -->
    <g style="fill: #fab387" transform="translate(322.170807 226.407472) scale(0.07 -0.07)">
     <use xlink:href="#STZhongsong-28"/>
     <use xlink:href="#STZhongsong-32" x="29.999985"/>
     <use xlink:href="#STZhongsong-2e" x="91.999969"/>
     <use xlink:href="#STZhongsong-34" x="123.999954"/>
     <use xlink:href="#STZhongsong-2c" x="185.999939"/>
     <use xlink:href="#STZhongsong-20" x="217.999924"/>
     <use xlink:href="#STZhongsong-30" x="249.999908"/>
     <use xlink:href="#STZhongsong-2e" x="311.999893"/>
     <use xlink:href="#STZhongsong-34" x="343.999878"/>
     <use xlink:href="#STZhongsong-31" x="405.999863"/>
     <use xlink:href="#STZhongsong-36" x="467.999847"/>
     <use xlink:href="#STZhongsong-37" x="529.999832"/>
     <use xlink:href="#STZhongsong-29" x="591.999817"/>
    </g>
   </g>
   <g id="patch_19">
    <path d="M 331.917863 55.500909 
Q 338.323631 50.368885 344.293126 45.586383 
" style="fill: none; stroke: #fab387; stroke-width: 0.5; stroke-linecap: round"/>
    <path d="M 341.232584 46.244471 
L 344.293126 45.586383 
L 342.983271 48.42967 
" style="fill: none; stroke: #fab387; stroke-width: 0.5; stroke-linecap: round"/>
   </g>
   <g id="text_30">
    <!-- (2.47, 1.0) -->
    <g style="fill: #fab387" transform="translate(306.290925 63.985833) scale(0.07 -0.07)">
     <use xlink:href="#STZhongsong-28"/>
     <use xlink:href="#STZhongsong-32" x="29.999985"/>
     <use xlink:href="#STZhongsong-2e" x="91.999969"/>
     <use xlink:href="#STZhongsong-34" x="123.999954"/>
     <use xlink:href="#STZhongsong-37" x="185.999939"/>
     <use xlink:href="#STZhongsong-2c" x="247.999924"/>
     <use xlink:href="#STZhongsong-20" x="279.999908"/>
     <use xlink:href="#STZhongsong-31" x="311.999893"/>
     <use xlink:href="#STZhongsong-2e" x="373.999878"/>
     <use xlink:href="#STZhongsong-30" x="405.999863"/>
     <use xlink:href="#STZhongsong-29" x="467.999847"/>
    </g>
   </g>
   <g id="patch_20">
    <path d="M 365.997833 55.500909 
Q 372.4036 50.368885 378.373096 45.586383 
" style="fill: none; stroke: #fab387; stroke-width: 0.5; stroke-linecap: round"/>
    <path d="M 375.312553 46.244471 
L 378.373096 45.586383 
L 377.06324 48.42967 
" style="fill: none; stroke: #fab387; stroke-width: 0.5; stroke-linecap: round"/>
   </g>
   <g id="text_31">
    <!-- (2.54, 1.0) -->
    <g style="fill: #fab387" transform="translate(340.370895 63.985833) scale(0.07 -0.07)">
     <use xlink:href="#STZhongsong-28"/>
     <use xlink:href="#STZhongsong-32" x="29.999985"/>
     <use xlink:href="#STZhongsong-2e" x="91.999969"/>
     <use xlink:href="#STZhongsong-35" x="123.999954"/>
     <use xlink:href="#STZhongsong-34" x="185.999939"/>
     <use xlink:href="#STZhongsong-2c" x="247.999924"/>
     <use xlink:href="#STZhongsong-20" x="279.999908"/>
     <use xlink:href="#STZhongsong-31" x="311.999893"/>
     <use xlink:href="#STZhongsong-2e" x="373.999878"/>
     <use xlink:href="#STZhongsong-30" x="405.999863"/>
     <use xlink:href="#STZhongsong-29" x="467.999847"/>
    </g>
   </g>
   <g id="patch_21">
    <path d="M 404.695753 82.737211 
Q 409.037881 77.848367 413.008786 73.377487 
" style="fill: none; stroke: #fab387; stroke-width: 0.5; stroke-linecap: round"/>
    <path d="M 410.102661 74.54129 
L 413.008786 73.377487 
L 412.196154 76.400669 
" style="fill: none; stroke: #fab387; stroke-width: 0.5; stroke-linecap: round"/>
   </g>
   <g id="text_32">
    <!-- (2.61, 0.9167) -->
    <g style="fill: #fab387" transform="translate(374.707212 91.465213) scale(0.07 -0.07)">
     <use xlink:href="#STZhongsong-28"/>
     <use xlink:href="#STZhongsong-32" x="29.999985"/>
     <use xlink:href="#STZhongsong-2e" x="91.999969"/>
     <use xlink:href="#STZhongsong-36" x="123.999954"/>
     <use xlink:href="#STZhongsong-31" x="185.999939"/>
     <use xlink:href="#STZhongsong-2c" x="247.999924"/>
     <use xlink:href="#STZhongsong-20" x="279.999908"/>
     <use xlink:href="#STZhongsong-30" x="311.999893"/>
     <use xlink:href="#STZhongsong-2e" x="373.999878"/>
     <use xlink:href="#STZhongsong-39" x="405.999863"/>
     <use xlink:href="#STZhongsong-31" x="467.999847"/>
     <use xlink:href="#STZhongsong-36" x="529.999832"/>
     <use xlink:href="#STZhongsong-37" x="591.999817"/>
     <use xlink:href="#STZhongsong-29" x="653.999802"/>
    </g>
   </g>
   <g id="text_33">
    <!-- 累加剂量曲线 -->
    <g transform="translate(311.205078 27.924157) scale(0.1 -0.1)">
     <defs>
      <path id="STZhongsong-7d2f" d="M 2880 2874 
L 1715 2874 
L 1715 2797 
Q 1715 2707 1670 2668 
Q 1626 2630 1466 2585 
Q 1306 2541 1229 2541 
Q 1178 2541 1184 2624 
Q 1210 2886 1210 3174 
L 1210 4275 
Q 1210 4563 1190 4819 
Q 1459 4736 1773 4550 
L 4666 4550 
L 4845 4819 
Q 4864 4858 4912 4858 
Q 4960 4858 5155 4720 
Q 5350 4582 5436 4518 
Q 5523 4454 5523 4400 
Q 5523 4346 5267 4250 
L 5267 3360 
Q 5267 3117 5274 3021 
L 5280 2842 
Q 5280 2778 5225 2742 
Q 5171 2707 5024 2659 
Q 4877 2611 4787 2611 
Q 4723 2611 4723 2726 
L 4723 2874 
L 3219 2874 
Q 3507 2688 3539 2665 
Q 3571 2643 3571 2604 
Q 3571 2566 3501 2566 
L 3392 2573 
Q 3309 2573 3123 2493 
Q 2938 2413 2176 2022 
L 3597 2003 
Q 4230 2336 4493 2554 
Q 5082 2208 5082 2106 
Q 5082 2054 4973 2074 
Q 4915 2086 4848 2086 
Q 4781 2086 4621 2022 
L 3770 1696 
Q 3066 1434 2362 1184 
L 4742 1158 
Q 4506 1363 4077 1568 
L 4109 1670 
Q 4870 1523 5260 1328 
Q 5651 1133 5651 838 
Q 5651 704 5584 569 
Q 5517 435 5414 435 
Q 5376 435 5334 476 
Q 5293 518 5149 713 
Q 5005 909 4890 1018 
L 3520 934 
L 3520 -205 
Q 3520 -602 3424 -723 
Q 3328 -845 3113 -944 
Q 2899 -1043 2844 -1043 
Q 2790 -1043 2765 -909 
Q 2720 -710 2579 -611 
Q 2438 -512 2035 -410 
L 2035 -294 
Q 2496 -333 2688 -333 
Q 2880 -333 2928 -281 
Q 2976 -230 2976 -77 
L 2976 896 
Q 1946 826 1642 794 
Q 1338 762 1232 723 
Q 1126 685 1094 685 
Q 1062 685 1046 720 
Q 1030 755 928 1178 
Q 1446 1165 1865 1273 
Q 2285 1382 3238 1824 
Q 2170 1747 1843 1715 
Q 1517 1683 1433 1660 
Q 1350 1638 1315 1638 
Q 1280 1638 1251 1686 
Q 1222 1734 1158 2035 
Q 1651 2042 2070 2272 
Q 2490 2502 2880 2874 
z
M 2925 3827 
L 2925 4365 
L 1715 4365 
L 1715 3827 
L 2925 3827 
z
M 3424 4365 
L 3424 3827 
L 4723 3827 
L 4723 4365 
L 3424 4365 
z
M 3424 3642 
L 3424 3059 
L 4723 3059 
L 4723 3642 
L 3424 3642 
z
M 2925 3059 
L 2925 3642 
L 1715 3642 
L 1715 3059 
L 2925 3059 
z
M 1914 742 
Q 2118 646 2281 553 
Q 2445 461 2480 425 
Q 2515 390 2515 364 
Q 2515 339 2492 329 
Q 2470 320 2396 320 
Q 2323 320 2112 173 
Q 1818 -38 1277 -329 
Q 736 -621 256 -819 
L 198 -723 
Q 1254 -83 1914 742 
z
M 3898 634 
Q 4666 442 5043 304 
Q 5421 166 5552 38 
Q 5683 -90 5683 -282 
Q 5683 -474 5616 -624 
Q 5549 -774 5472 -774 
Q 5440 -774 5398 -736 
Q 5357 -698 5168 -493 
Q 4979 -288 4608 13 
Q 4237 314 3859 531 
L 3898 634 
z
" transform="scale(0.015625)"/>
      <path id="STZhongsong-52a0" d="M 2022 3245 
Q 1958 1370 1584 496 
Q 1210 -378 384 -1018 
L 294 -922 
Q 934 -205 1180 720 
Q 1427 1645 1504 3245 
L 768 3245 
Q 602 3245 525 3194 
L 422 3482 
Q 557 3437 710 3437 
L 1517 3437 
Q 1530 3802 1530 4182 
Q 1530 4563 1510 4864 
Q 2336 4646 2336 4570 
Q 2336 4531 2208 4461 
Q 2144 4422 2115 4246 
Q 2086 4070 2035 3437 
L 2714 3437 
L 2829 3642 
Q 2880 3731 2921 3731 
Q 2963 3731 3132 3625 
Q 3302 3520 3408 3446 
Q 3514 3373 3514 3331 
Q 3514 3290 3283 3194 
Q 3270 2330 3232 1414 
Q 3181 192 3142 -89 
Q 3104 -371 2973 -528 
Q 2842 -685 2522 -890 
Q 2438 -941 2400 -941 
Q 2342 -941 2323 -813 
Q 2278 -595 2156 -483 
Q 2035 -371 1677 -237 
L 1696 -115 
Q 2131 -211 2291 -211 
Q 2451 -211 2521 -144 
Q 2592 -77 2617 102 
Q 2643 282 2688 1293 
Q 2733 2304 2746 3245 
L 2022 3245 
z
M 4403 3686 
L 5235 3686 
L 5382 3917 
Q 5421 3981 5456 3981 
Q 5491 3981 5779 3798 
Q 6067 3616 6067 3558 
Q 6067 3501 5824 3405 
L 5824 -26 
L 5837 -595 
Q 5837 -672 5789 -707 
Q 5741 -742 5552 -806 
Q 5363 -870 5321 -870 
Q 5280 -870 5280 -787 
L 5280 -115 
L 4307 -115 
L 4307 -659 
Q 4307 -736 4259 -768 
Q 4211 -800 4025 -861 
Q 3840 -922 3795 -922 
Q 3750 -922 3757 -819 
Q 3782 -538 3782 -218 
L 3782 3469 
Q 3782 3738 3763 4013 
Q 4154 3846 4403 3686 
z
M 5280 90 
L 5280 3482 
L 4307 3482 
L 4307 90 
L 5280 90 
z
" transform="scale(0.015625)"/>
      <path id="STZhongsong-66f2" d="M 1530 3302 
L 2208 3302 
L 2208 4275 
Q 2208 4595 2195 4845 
Q 2547 4755 2729 4675 
Q 2912 4595 2912 4563 
Q 2912 4525 2733 4416 
L 2733 3302 
L 3501 3302 
L 3501 4269 
Q 3501 4589 3488 4838 
Q 4224 4678 4224 4582 
Q 4224 4531 4026 4429 
L 4026 3302 
L 4832 3302 
L 4992 3584 
Q 5037 3654 5075 3654 
Q 5146 3654 5453 3481 
Q 5760 3309 5760 3232 
Q 5760 3155 5498 3014 
L 5498 -26 
Q 5498 -307 5504 -422 
L 5510 -634 
Q 5510 -678 5491 -700 
Q 5472 -723 5379 -784 
Q 5286 -845 5180 -873 
Q 5075 -902 4992 -902 
Q 4928 -902 4928 -819 
L 4928 -422 
L 1434 -422 
L 1434 -627 
Q 1434 -685 1414 -713 
Q 1395 -742 1286 -806 
Q 1178 -870 1027 -928 
Q 877 -986 851 -986 
Q 826 -986 832 -922 
Q 864 -602 864 -275 
L 864 3072 
Q 864 3341 845 3616 
Q 1235 3469 1530 3302 
z
M 2208 3117 
L 1434 3117 
L 1434 1619 
L 2208 1619 
L 2208 3117 
z
M 3501 3117 
L 2733 3117 
L 2733 1619 
L 3501 1619 
L 3501 3117 
z
M 4928 1619 
L 4928 3117 
L 4026 3117 
L 4026 1619 
L 4928 1619 
z
M 3501 1434 
L 2733 1434 
L 2733 -237 
L 3501 -237 
L 3501 1434 
z
M 1434 1434 
L 1434 -237 
L 2208 -237 
L 2208 1434 
L 1434 1434 
z
M 4928 -237 
L 4928 1434 
L 4026 1434 
L 4026 -237 
L 4928 -237 
z
" transform="scale(0.015625)"/>
      <path id="STZhongsong-7ebf" d="M 1574 2643 
Q 902 2509 550 2298 
Q 512 2272 493 2272 
Q 397 2272 186 2758 
Q 346 2803 413 2864 
Q 480 2925 685 3277 
Q 890 3629 1040 4006 
Q 1190 4384 1286 4813 
Q 1504 4717 1696 4605 
Q 1888 4493 1949 4448 
Q 2010 4403 2010 4364 
Q 2010 4326 1914 4316 
Q 1818 4307 1773 4259 
Q 1728 4211 1658 4102 
Q 1254 3469 742 2848 
L 1702 2867 
Q 1971 3341 2163 3776 
Q 2778 3411 2778 3341 
Q 2778 3302 2678 3286 
Q 2579 3270 2528 3219 
Q 2477 3168 2355 2995 
Q 1894 2310 1107 1402 
L 2502 1517 
L 2349 1734 
Q 2528 1734 2771 1779 
L 3328 1882 
Q 3290 2208 3245 2778 
L 2957 2733 
Q 2778 2707 2611 2630 
L 2458 2880 
Q 2643 2867 2854 2906 
L 3232 2970 
L 3194 3962 
Q 3168 4506 3117 4845 
Q 3981 4685 3981 4589 
Q 3981 4538 3744 4442 
Q 3731 3584 3750 3053 
L 4704 3206 
L 4851 3578 
Q 4890 3680 4941 3680 
Q 4979 3680 5187 3549 
Q 5395 3418 5500 3334 
Q 5606 3251 5606 3209 
Q 5606 3168 5466 3142 
L 3757 2861 
Q 3776 2406 3827 1971 
L 4864 2163 
L 5037 2547 
Q 5075 2637 5136 2637 
Q 5197 2637 5469 2432 
Q 5741 2227 5741 2176 
Q 5741 2144 5645 2125 
L 3853 1792 
Q 3949 1190 4122 794 
Q 4666 1318 4941 1875 
Q 5568 1523 5568 1427 
Q 5568 1389 5475 1389 
Q 5382 1389 5324 1344 
Q 5267 1299 5126 1139 
Q 4749 704 4358 390 
Q 4544 134 4848 -93 
Q 5152 -320 5251 -320 
Q 5350 -320 5385 -256 
Q 5421 -192 5513 192 
Q 5606 576 5690 1024 
L 5837 992 
Q 5779 454 5779 115 
Q 5779 -422 5939 -691 
Q 6022 -826 6022 -896 
Q 6022 -1011 5805 -1011 
Q 5357 -1011 4832 -723 
Q 4307 -435 3930 83 
Q 3296 -333 2125 -730 
L 2061 -582 
Q 2982 -160 3718 435 
Q 3469 915 3354 1702 
L 2886 1613 
Q 2726 1581 2547 1491 
L 2560 1389 
Q 1171 966 858 806 
Q 800 781 768 781 
Q 736 781 672 861 
Q 608 941 384 1331 
Q 800 1408 925 1587 
Q 1050 1766 1574 2643 
z
M 4077 4518 
Q 4486 4365 4684 4227 
Q 4883 4090 4883 3952 
Q 4883 3814 4803 3680 
Q 4723 3546 4566 3546 
Q 4410 3546 4390 3718 
Q 4371 3891 4275 4089 
Q 4179 4288 4032 4422 
L 4077 4518 
z
M 2752 666 
L 1530 -51 
Q 992 -358 877 -474 
Q 826 -525 800 -525 
Q 774 -525 717 -448 
L 365 6 
Q 1325 282 2701 774 
L 2752 666 
z
" transform="scale(0.015625)"/>
     </defs>
     <use xlink:href="#STZhongsong-7d2f"/>
     <use xlink:href="#STZhongsong-52a0" x="99.999985"/>
     <use xlink:href="#STZhongsong-5242" x="199.999969"/>
     <use xlink:href="#STZhongsong-91cf" x="299.999954"/>
     <use xlink:href="#STZhongsong-66f2" x="399.999939"/>
     <use xlink:href="#STZhongsong-7ebf" x="499.999924"/>
    </g>
   </g>
  </g>
  <g id="text_34">
   <!-- 水合氯醛 ED50 测定数据 -->
   <g transform="translate(147.6 12.084615) scale(0.12 -0.12)">
    <defs>
     <path id="STZhongsong-6c34" d="M 3418 3123 
L 3418 -230 
Q 3418 -582 3296 -713 
Q 3174 -845 2915 -944 
Q 2656 -1043 2582 -1043 
Q 2509 -1043 2490 -960 
Q 2426 -698 2278 -582 
Q 2131 -467 1658 -307 
L 1683 -173 
Q 2246 -282 2470 -282 
Q 2694 -282 2748 -214 
Q 2803 -147 2803 6 
L 2803 4307 
Q 2803 4858 2790 4986 
Q 3654 4755 3654 4653 
Q 3654 4602 3418 4467 
L 3418 4038 
Q 3603 3155 3910 2502 
Q 4730 3334 5094 3853 
Q 5254 3731 5440 3542 
Q 5626 3354 5667 3299 
Q 5709 3245 5709 3206 
Q 5709 3136 5581 3162 
Q 5530 3168 5491 3168 
Q 5363 3168 5158 3021 
Q 4723 2701 4000 2310 
Q 4717 883 6266 288 
L 6240 134 
Q 6086 154 5952 154 
Q 5818 154 5709 83 
Q 5600 13 5491 -166 
Q 5459 -218 5414 -218 
Q 5267 -218 4540 588 
Q 3814 1395 3418 3123 
z
M 1754 3027 
L 1990 3302 
Q 2029 3347 2073 3347 
Q 2118 3347 2297 3222 
Q 2477 3098 2569 3024 
Q 2662 2950 2662 2886 
Q 2662 2822 2522 2771 
Q 2426 2739 2330 2426 
Q 2061 1549 1846 1113 
Q 1632 678 1309 384 
Q 986 90 307 -320 
L 250 -198 
Q 934 326 1283 992 
Q 1632 1658 1818 2835 
L 582 2835 
Q 422 2835 339 2797 
L 230 3059 
Q 371 3027 570 3027 
L 1754 3027 
z
" transform="scale(0.015625)"/>
     <path id="STZhongsong-5408" d="M 3283 4218 
Q 2234 2688 198 1760 
L 141 1888 
Q 1011 2400 1756 3203 
Q 2502 4006 2912 4877 
Q 3354 4723 3536 4636 
Q 3718 4550 3718 4492 
Q 3718 4435 3593 4416 
Q 3469 4397 3418 4358 
Q 3949 3642 4717 3146 
Q 5485 2650 6291 2528 
L 6291 2406 
Q 5958 2387 5820 2326 
Q 5683 2266 5568 2080 
Q 5549 2042 5510 2042 
Q 5414 2042 4953 2355 
Q 4493 2669 4038 3161 
Q 3584 3654 3283 4218 
z
M 3750 2470 
L 3968 2790 
Q 4026 2880 4074 2880 
Q 4122 2880 4397 2617 
Q 4672 2355 4672 2310 
Q 4672 2266 4550 2266 
L 2003 2266 
Q 1830 2266 1734 2227 
L 1619 2502 
Q 1754 2470 1939 2470 
L 3750 2470 
z
M 4218 -435 
L 2080 -435 
L 2080 -768 
Q 2080 -826 2051 -854 
Q 2022 -883 1808 -963 
Q 1594 -1043 1555 -1043 
Q 1517 -1043 1517 -992 
L 1530 -550 
L 1530 1274 
Q 1530 1542 1510 1818 
Q 1926 1645 2112 1530 
L 4147 1530 
L 4256 1779 
Q 4288 1850 4323 1850 
Q 4358 1850 4585 1738 
Q 4813 1626 4909 1565 
Q 5005 1504 5005 1459 
Q 5005 1414 4800 1293 
L 4800 -371 
Q 4800 -506 4806 -602 
L 4819 -762 
Q 4819 -806 4758 -844 
Q 4698 -883 4509 -944 
Q 4320 -1005 4256 -1005 
Q 4218 -1005 4218 -941 
L 4218 -435 
z
M 2080 -205 
L 4218 -205 
L 4218 1312 
L 2080 1312 
L 2080 -205 
z
" transform="scale(0.015625)"/>
     <path id="STZhongsong-6c2f" d="M 1286 3187 
L 4416 3187 
L 4563 3366 
Q 4614 3424 4659 3424 
Q 4704 3424 4889 3318 
Q 5075 3213 5152 3161 
Q 5229 3110 5229 3043 
Q 5229 2976 4992 2867 
Q 4966 2445 4966 1926 
Q 4966 1408 5062 937 
Q 5158 467 5353 150 
Q 5549 -166 5625 -166 
Q 5702 -166 5772 45 
Q 5843 256 5958 826 
L 6093 819 
Q 6016 96 6016 -221 
Q 6016 -538 6080 -675 
Q 6144 -813 6144 -883 
Q 6144 -1005 6016 -1005 
Q 5818 -1005 5382 -697 
Q 4947 -390 4707 416 
Q 4467 1222 4461 2995 
L 1446 2995 
Q 1280 2995 1203 2970 
L 1158 3053 
Q 730 2598 358 2342 
L 269 2419 
Q 1376 3667 1824 4973 
Q 2419 4794 2508 4752 
Q 2598 4710 2598 4646 
Q 2598 4582 2448 4563 
Q 2298 4544 2125 4275 
L 4934 4275 
L 5190 4634 
Q 5254 4723 5321 4723 
Q 5389 4723 5680 4473 
Q 5971 4224 5971 4160 
Q 5971 4096 5830 4096 
L 2010 4096 
Q 1862 3878 1747 3731 
Q 1901 3693 2042 3693 
L 4589 3693 
L 4800 3955 
Q 4845 4006 4883 4006 
Q 4954 4006 5222 3830 
Q 5491 3654 5491 3590 
Q 5491 3526 5331 3526 
L 2106 3526 
Q 1933 3526 1843 3482 
L 1734 3712 
Q 1536 3456 1286 3187 
z
M 3021 1850 
L 1434 1850 
Q 1325 1850 1248 1818 
L 1165 2061 
Q 1267 2035 1389 2035 
L 3027 2035 
L 3053 2406 
L 1229 2406 
Q 1082 2406 1043 2381 
L 934 2630 
Q 1043 2611 1158 2611 
L 3066 2611 
L 3219 2829 
Q 3251 2867 3290 2867 
Q 3366 2867 3612 2739 
Q 3859 2611 3859 2528 
Q 3859 2445 3597 2342 
L 3539 1466 
L 3725 1466 
L 3942 1760 
Q 3994 1830 4045 1830 
Q 4096 1830 4275 1600 
Q 4454 1370 4454 1325 
Q 4454 1280 4294 1280 
L 2784 1280 
L 2784 595 
L 2822 582 
Q 3482 928 3750 1165 
Q 4109 858 4109 749 
Q 4109 704 4064 704 
Q 4019 704 3984 713 
Q 3949 723 3917 723 
Q 3853 723 3625 656 
Q 3398 589 3059 518 
Q 3686 352 3948 246 
Q 4211 141 4288 32 
Q 4365 -77 4365 -249 
Q 4365 -422 4307 -512 
Q 4250 -602 4166 -602 
Q 4096 -602 3987 -461 
Q 3590 0 2784 442 
L 2784 -358 
Q 2784 -570 2717 -685 
Q 2650 -800 2410 -915 
Q 2170 -1030 2112 -1030 
Q 2080 -1030 2061 -966 
Q 1990 -736 1862 -621 
Q 1734 -506 1382 -416 
L 1402 -288 
Q 1843 -365 2006 -365 
Q 2170 -365 2214 -301 
Q 2259 -237 2259 -58 
L 2259 1280 
L 704 1280 
Q 589 1280 518 1261 
L 371 1478 
Q 448 1466 589 1466 
L 2995 1466 
L 3021 1850 
z
M 1082 1222 
Q 1510 1062 1638 963 
Q 1766 864 1766 742 
Q 1766 621 1670 493 
Q 1574 365 1491 365 
Q 1408 365 1376 512 
Q 1306 832 1024 1133 
L 1082 1222 
z
M 2240 422 
Q 1075 -358 956 -457 
Q 838 -557 819 -557 
Q 774 -557 493 -115 
Q 1402 218 2176 518 
L 2240 422 
z
" transform="scale(0.015625)"/>
     <path id="STZhongsong-919b" d="M 3910 3731 
L 3910 3251 
Q 3910 3187 3865 3155 
Q 3821 3123 3677 3078 
Q 3533 3034 3462 3034 
Q 3424 3034 3430 3110 
Q 3450 3315 3450 3731 
L 3014 3731 
Q 2842 3731 2746 3693 
L 2618 3949 
Q 2752 3917 2938 3917 
L 3450 3917 
L 3450 4429 
Q 3450 4640 3430 4896 
Q 4090 4774 4090 4678 
Q 4090 4621 3910 4544 
L 3910 3917 
L 4608 3917 
L 4608 4454 
Q 4608 4666 4589 4922 
Q 4966 4845 5104 4800 
Q 5242 4755 5242 4710 
Q 5242 4666 5075 4570 
L 5075 3917 
L 5299 3917 
L 5498 4218 
Q 5549 4294 5622 4294 
Q 5696 4294 5910 4060 
Q 6125 3827 6125 3779 
Q 6125 3731 5997 3731 
L 5075 3731 
Q 5075 3546 5084 3411 
Q 5094 3277 5094 3264 
Q 5094 3187 4918 3126 
Q 4742 3066 4653 3066 
Q 4608 3066 4608 3168 
L 4608 3731 
L 3910 3731 
z
M 4397 2803 
Q 4013 2106 3328 1574 
Q 3469 1562 3565 1562 
L 4576 1562 
L 4698 1760 
Q 4730 1811 4778 1811 
Q 4826 1811 5050 1641 
Q 5274 1472 5274 1427 
Q 5274 1382 5146 1382 
L 4518 1382 
L 4518 640 
L 4813 640 
L 4960 890 
Q 5011 979 5072 979 
Q 5133 979 5347 764 
Q 5562 550 5562 502 
Q 5562 454 5434 454 
L 4518 454 
L 4518 -486 
L 5203 -486 
L 5402 -198 
Q 5459 -109 5523 -109 
Q 5587 -109 5811 -342 
Q 6035 -576 6035 -621 
Q 6035 -666 5901 -666 
L 3437 -666 
Q 3264 -666 3168 -704 
L 3008 -454 
Q 3142 -486 3328 -486 
L 4038 -486 
L 4038 454 
L 3565 454 
Q 3418 454 3296 410 
L 3181 672 
Q 3315 640 3501 640 
L 4038 640 
L 4038 1382 
L 3648 1382 
Q 3475 1382 3379 1344 
L 3277 1536 
Q 3059 1382 2854 1274 
L 2854 -134 
Q 2854 -422 2861 -531 
L 2867 -742 
Q 2867 -800 2819 -835 
Q 2771 -870 2652 -912 
Q 2534 -954 2470 -954 
Q 2426 -954 2426 -877 
L 2426 -397 
L 922 -397 
L 922 -845 
Q 922 -922 883 -954 
Q 845 -986 701 -1030 
Q 557 -1075 486 -1075 
Q 448 -1075 454 -998 
Q 480 -698 480 -384 
L 480 2880 
Q 480 3149 461 3424 
Q 762 3296 979 3162 
L 1197 3162 
L 1197 4096 
L 672 4096 
Q 499 4096 403 4058 
L 288 4326 
Q 422 4294 608 4294 
L 2285 4294 
L 2483 4570 
Q 2534 4640 2582 4640 
Q 2630 4640 2857 4422 
Q 3085 4205 3085 4150 
Q 3085 4096 2950 4096 
L 2125 4096 
L 2125 3162 
L 2413 3162 
L 2490 3315 
Q 2515 3360 2569 3360 
Q 2624 3360 2841 3232 
Q 3059 3104 3059 3049 
Q 3059 2995 2854 2880 
L 2854 1427 
Q 3232 1741 3561 2246 
Q 3891 2752 4051 3245 
Q 4634 3053 4634 2976 
Q 4634 2931 4493 2880 
Q 4813 2451 5299 2192 
Q 5786 1933 6298 1894 
L 6298 1779 
Q 6029 1760 5917 1696 
Q 5805 1632 5734 1472 
Q 5709 1414 5645 1414 
Q 5581 1414 5302 1609 
Q 5024 1805 4784 2109 
Q 4544 2413 4397 2803 
z
M 1798 4096 
L 1542 4096 
L 1542 3162 
L 1798 3162 
L 1798 4096 
z
M 2125 2982 
L 2125 1766 
Q 2125 1664 2176 1638 
Q 2227 1613 2426 1606 
L 2426 2982 
L 2125 2982 
z
M 2426 1299 
Q 2125 1306 1993 1344 
Q 1862 1382 1830 1452 
Q 1798 1523 1798 1690 
L 1798 2982 
L 1542 2982 
Q 1536 1715 1050 1171 
L 928 1210 
Q 1094 1549 1142 1888 
Q 1190 2227 1197 2982 
L 922 2982 
L 922 794 
L 2426 794 
L 2426 1299 
z
M 2426 -211 
L 2426 608 
L 922 608 
L 922 -211 
L 2426 -211 
z
" transform="scale(0.015625)"/>
     <path id="STZhongsong-45" d="M 307 4358 
L 3853 4358 
L 4262 3213 
L 3987 3110 
Q 3808 3603 3507 3808 
Q 3206 4013 2496 4013 
L 1440 4013 
L 1440 2413 
L 1965 2413 
Q 2330 2413 2493 2582 
Q 2656 2752 2656 3142 
L 2656 3213 
L 2957 3213 
L 2957 1299 
L 2656 1299 
L 2656 1466 
Q 2656 1805 2512 1958 
Q 2368 2112 1965 2112 
L 1440 2112 
L 1440 691 
Q 1440 442 1494 387 
Q 1549 333 1786 333 
L 2438 333 
Q 3130 333 3530 592 
Q 3930 851 4186 1466 
L 4474 1363 
L 3987 0 
L 307 0 
L 307 262 
L 429 262 
Q 704 262 781 355 
Q 858 448 858 691 
L 858 3693 
Q 858 3872 826 3949 
Q 794 4026 682 4061 
Q 570 4096 307 4096 
L 307 4358 
z
" transform="scale(0.015625)"/>
     <path id="STZhongsong-44" d="M 301 4096 
L 301 4358 
L 1862 4358 
Q 2854 4358 3296 4240 
Q 3738 4122 4077 3811 
Q 4416 3501 4601 3062 
Q 4787 2624 4787 2125 
Q 4787 1261 4230 630 
Q 3674 0 2534 0 
L 301 0 
L 301 262 
L 544 262 
Q 717 243 787 352 
Q 858 461 858 704 
L 858 3622 
Q 858 3955 762 4025 
Q 666 4096 301 4096 
z
M 1440 339 
L 2387 339 
Q 2650 339 3098 435 
Q 3546 531 3834 1004 
Q 4122 1478 4122 2170 
Q 4122 2592 3997 2934 
Q 3872 3277 3648 3513 
Q 3424 3750 3152 3868 
Q 2880 3987 2675 4000 
Q 2470 4013 2080 4013 
L 1440 4013 
L 1440 339 
z
" transform="scale(0.015625)"/>
     <path id="STZhongsong-6d4b" d="M 5146 4851 
Q 5363 4800 5619 4707 
Q 5875 4614 5875 4563 
Q 5875 4512 5677 4390 
L 5677 -403 
Q 5677 -602 5603 -720 
Q 5530 -838 5290 -976 
Q 5050 -1114 4982 -1114 
Q 4915 -1114 4909 -1018 
Q 4896 -768 4765 -646 
Q 4634 -525 4218 -390 
L 4250 -275 
Q 4794 -371 4941 -371 
Q 5088 -371 5123 -332 
Q 5158 -294 5158 -192 
L 5158 4282 
Q 5158 4602 5146 4851 
z
M 704 4749 
Q 1088 4576 1389 4390 
Q 1690 4205 1690 4035 
Q 1690 3866 1594 3722 
Q 1498 3578 1389 3578 
Q 1357 3578 1328 3613 
Q 1299 3648 1209 3849 
Q 1120 4051 995 4227 
Q 870 4403 627 4666 
L 704 4749 
z
M 2490 4243 
L 3379 4243 
L 3520 4461 
Q 3552 4512 3600 4512 
Q 3648 4512 3881 4349 
Q 4115 4186 4115 4131 
Q 4115 4077 3898 3981 
L 3898 1370 
L 3904 883 
Q 3904 800 3705 707 
Q 3507 614 3475 614 
Q 3443 614 3443 704 
L 3443 4038 
L 2438 4038 
L 2438 838 
Q 2438 755 2396 713 
Q 2355 672 2208 608 
Q 2061 544 2019 544 
Q 1978 544 1978 602 
L 1990 870 
Q 1997 1139 1997 1453 
L 1997 3974 
Q 1997 4179 1984 4525 
Q 2259 4410 2490 4243 
z
M 4294 3853 
Q 4909 3680 4909 3584 
Q 4909 3546 4755 3469 
L 4755 1344 
L 4768 768 
Q 4768 717 4755 694 
Q 4742 672 4646 614 
Q 4550 557 4448 518 
Q 4346 480 4317 480 
Q 4288 480 4288 538 
L 4294 896 
Q 4301 1056 4301 1312 
L 4301 3341 
Q 4301 3763 4294 3853 
z
M 2982 544 
Q 2816 32 2441 -345 
Q 2067 -723 1376 -1120 
L 1286 -1018 
Q 2016 -422 2281 -22 
Q 2547 378 2646 989 
Q 2746 1600 2746 2810 
Q 2746 3213 2733 3616 
Q 3168 3469 3248 3424 
Q 3328 3379 3328 3344 
Q 3328 3309 3273 3270 
Q 3219 3232 3203 3177 
Q 3187 3123 3187 2957 
Q 3187 1222 3021 678 
Q 3514 410 3744 266 
Q 3974 122 4048 22 
Q 4122 -77 4122 -237 
Q 4122 -397 4045 -553 
Q 3968 -710 3885 -710 
Q 3846 -710 3814 -675 
Q 3782 -640 3628 -342 
Q 3475 -45 3324 160 
Q 3174 365 2982 544 
z
M 1894 3501 
L 1408 1715 
Q 1293 1299 1254 1046 
Q 1216 794 1216 522 
Q 1216 250 1251 -96 
Q 1286 -442 1286 -576 
Q 1286 -979 1107 -979 
Q 928 -979 768 -819 
Q 608 -659 608 -486 
Q 608 -442 621 -403 
Q 755 90 755 422 
Q 755 659 592 752 
Q 429 845 192 896 
L 192 1024 
Q 448 992 592 992 
Q 736 992 819 1091 
Q 902 1190 1024 1530 
L 1779 3578 
L 1894 3501 
z
M 307 3251 
Q 774 3098 1004 2938 
Q 1235 2778 1235 2602 
Q 1235 2426 1126 2269 
Q 1018 2112 890 2112 
Q 864 2112 845 2147 
Q 826 2182 768 2336 
Q 589 2810 237 3130 
L 307 3251 
z
" transform="scale(0.015625)"/>
     <path id="STZhongsong-5b9a" d="M 2586 4928 
Q 3674 4774 3674 4346 
Q 3674 4205 3546 4029 
Q 3418 3853 3187 3853 
Q 3098 3853 3059 3913 
Q 3021 3974 2982 4179 
Q 2906 4608 2560 4858 
L 2586 4928 
z
M 1517 3827 
L 5133 3827 
L 5299 4064 
Q 5331 4122 5363 4122 
Q 5440 4122 5747 3878 
Q 6054 3635 6054 3532 
Q 6054 3430 5856 3430 
Q 5658 3430 5530 3356 
Q 5402 3283 5158 3021 
Q 5638 2637 5638 2541 
Q 5638 2490 5536 2490 
L 3469 2490 
L 3469 1402 
L 4346 1402 
L 4653 1798 
Q 4704 1869 4749 1869 
Q 4832 1869 5104 1609 
Q 5376 1350 5376 1254 
Q 5376 1190 5235 1190 
L 3469 1190 
L 3469 -134 
Q 3987 -230 5338 -230 
Q 5754 -230 6266 -224 
L 6266 -365 
Q 6010 -390 5834 -470 
Q 5658 -550 5574 -768 
Q 5536 -858 5472 -858 
Q 5286 -858 4489 -784 
Q 3693 -710 3369 -659 
Q 3046 -608 2768 -445 
Q 2490 -282 2237 -6 
Q 1984 269 1805 621 
Q 1574 154 1267 -211 
Q 960 -576 384 -1056 
L 294 -973 
Q 934 -256 1264 477 
Q 1594 1210 1696 2138 
Q 2125 1933 2275 1840 
Q 2426 1747 2426 1692 
Q 2426 1638 2323 1616 
Q 2221 1594 2150 1427 
L 1920 870 
Q 2374 230 2912 6 
L 2912 2490 
L 1382 2490 
Q 1210 2490 1114 2445 
L 998 2720 
Q 1133 2688 1318 2688 
L 4614 2688 
L 4896 3059 
Q 4954 3136 5011 3117 
Q 5082 3373 5126 3642 
L 1530 3642 
Q 1542 3309 1334 3059 
Q 1126 2810 890 2810 
Q 755 2810 659 2883 
Q 563 2957 563 3059 
Q 563 3226 816 3418 
Q 1069 3610 1174 3789 
Q 1280 3968 1325 4262 
L 1466 4262 
L 1517 3827 
z
" transform="scale(0.015625)"/>
     <path id="STZhongsong-636e" d="M 1261 3085 
L 582 3085 
Q 422 3085 307 3053 
L 198 3302 
Q 333 3270 518 3270 
L 1261 3270 
L 1261 4109 
Q 1261 4480 1248 4800 
Q 1619 4698 1811 4618 
Q 2003 4538 2003 4502 
Q 2003 4467 1779 4378 
L 1779 3270 
L 1882 3270 
L 2080 3558 
Q 2125 3622 2173 3622 
Q 2221 3622 2256 3590 
Q 2291 3558 2441 3408 
Q 2592 3258 2624 3219 
Q 2656 3181 2656 3149 
Q 2656 3085 2547 3085 
L 1779 3085 
L 1779 2234 
L 2554 2605 
L 2605 2483 
L 1779 1901 
L 1779 -282 
Q 1779 -422 1708 -521 
Q 1638 -621 1404 -761 
Q 1171 -902 1114 -902 
Q 1069 -902 1043 -813 
Q 992 -627 861 -531 
Q 730 -435 358 -333 
L 397 -218 
Q 806 -262 985 -262 
Q 1165 -262 1213 -217 
Q 1261 -173 1261 -45 
L 1261 1530 
Q 851 1235 771 1136 
Q 691 1037 643 1037 
Q 595 1037 576 1062 
L 416 1274 
Q 282 1446 192 1581 
Q 800 1773 1261 1990 
L 1261 3085 
z
M 3302 4378 
L 4902 4378 
L 5069 4621 
Q 5120 4704 5171 4704 
Q 5210 4704 5482 4515 
Q 5754 4326 5754 4282 
Q 5754 4224 5517 4109 
L 5517 3373 
Q 5517 3219 5526 3158 
Q 5536 3098 5536 3062 
Q 5536 3027 5475 2985 
Q 5414 2944 5248 2877 
Q 5082 2810 5027 2810 
Q 4973 2810 4973 2906 
L 4973 3136 
L 3226 3136 
Q 3187 2291 3174 2099 
L 4096 2099 
L 4096 2598 
Q 4096 2810 4077 3066 
Q 4755 2963 4755 2880 
Q 4755 2835 4595 2746 
L 4595 2099 
L 5286 2099 
L 5530 2426 
Q 5581 2496 5606 2496 
Q 5651 2496 5923 2243 
Q 6195 1990 6195 1948 
Q 6195 1907 6048 1907 
L 4595 1907 
L 4595 947 
L 4947 947 
L 5062 1165 
Q 5107 1254 5155 1254 
Q 5203 1254 5459 1084 
Q 5715 915 5715 870 
Q 5715 826 5549 749 
L 5549 -346 
L 5562 -640 
Q 5562 -691 5504 -736 
Q 5446 -781 5283 -848 
Q 5120 -915 5065 -915 
Q 5011 -915 5011 -826 
L 5011 -435 
L 3712 -435 
L 3712 -755 
Q 3712 -851 3673 -880 
Q 3635 -909 3475 -963 
Q 3315 -1018 3245 -1018 
Q 3206 -1018 3213 -934 
Q 3238 -723 3238 -480 
L 3238 634 
Q 3238 902 3219 1178 
Q 3494 1094 3763 947 
L 4096 947 
L 4096 1907 
L 3162 1907 
Q 3098 864 2794 288 
Q 2490 -288 1715 -998 
L 1626 -922 
Q 2426 -19 2570 925 
Q 2714 1869 2714 3232 
Q 2714 3827 2682 4646 
Q 3066 4518 3302 4378 
z
M 4973 3315 
L 4973 4186 
L 3258 4186 
Q 3258 3981 3232 3315 
L 4973 3315 
z
M 5011 -262 
L 5011 762 
L 3712 762 
L 3712 -262 
L 5011 -262 
z
" transform="scale(0.015625)"/>
    </defs>
    <use xlink:href="#STZhongsong-6c34"/>
    <use xlink:href="#STZhongsong-5408" x="99.999985"/>
    <use xlink:href="#STZhongsong-6c2f" x="199.999969"/>
    <use xlink:href="#STZhongsong-919b" x="299.999954"/>
    <use xlink:href="#STZhongsong-20" x="399.999939"/>
    <use xlink:href="#STZhongsong-45" x="431.999924"/>
    <use xlink:href="#STZhongsong-44" x="503.999908"/>
    <use xlink:href="#STZhongsong-35" x="583.999893"/>
    <use xlink:href="#STZhongsong-30" x="645.999878"/>
    <use xlink:href="#STZhongsong-20" x="707.999863"/>
    <use xlink:href="#STZhongsong-6d4b" x="739.999847"/>
    <use xlink:href="#STZhongsong-5b9a" x="839.999832"/>
    <use xlink:href="#STZhongsong-6570" x="939.999817"/>
    <use xlink:href="#STZhongsong-636e" x="1039.999802"/>
   </g>
  </g>
 </g>
 <defs>
  <clipPath id="p010b8bdcbf">
   <rect x="35.80024" y="33.924157" width="175.589364" height="221.356853"/>
  </clipPath>
  <clipPath id="p771484940f">
   <rect x="253.410396" y="33.924157" width="175.589364" height="221.356853"/>
  </clipPath>
 </defs>
</svg>
