<?xml version="1.0" encoding="utf-8" standalone="no"?>
<!DOCTYPE svg PUBLIC "-//W3C//DTD SVG 1.1//EN"
  "http://www.w3.org/Graphics/SVG/1.1/DTD/svg11.dtd">
<svg xmlns:xlink="http://www.w3.org/1999/xlink" width="720pt" height="432pt" viewBox="0 0 720 432" xmlns="http://www.w3.org/2000/svg" version="1.1">
 <metadata>
  <rdf:RDF xmlns:dc="http://purl.org/dc/elements/1.1/" xmlns:cc="http://creativecommons.org/ns#" xmlns:rdf="http://www.w3.org/1999/02/22-rdf-syntax-ns#">
   <cc:Work>
    <dc:type rdf:resource="http://purl.org/dc/dcmitype/StillImage"/>
    <dc:date>2024-11-01T16:24:47.652180</dc:date>
    <dc:format>image/svg+xml</dc:format>
    <dc:creator>
     <cc:Agent>
      <dc:title>Matplotlib v3.8.0, https://matplotlib.org/</dc:title>
     </cc:Agent>
    </dc:creator>
   </cc:Work>
  </rdf:RDF>
 </metadata>
 <defs>
  <style type="text/css">*{stroke-linejoin: round; stroke-linecap: butt}</style>
 </defs>
 <g id="figure_1">
  <g id="patch_1">
   <path d="M 0 432 
L 720 432 
L 720 0 
L 0 0 
z
" style="fill: #ffffff"/>
  </g>
  <g id="axes_1">
   <g id="patch_2">
    <path d="M 39.289303 399.270072 
L 356.4 399.270072 
L 356.4 35.605095 
L 39.289303 35.605095 
z
" style="fill: #ffffff"/>
   </g>
   <g id="PathCollection_1">
    <defs>
     <path id="mbefc424402" d="M -2.738613 0 
L 2.738613 0 
M 0 2.738613 
L 0 -2.738613 
" style="stroke: #fab387; stroke-width: 1.5"/>
    </defs>
    <g clip-path="url(#p5550f93018)">
     <use xlink:href="#mbefc424402" x="64.456818" y="357.64934" style="fill: #fab387; stroke: #fab387; stroke-width: 1.5"/>
     <use xlink:href="#mbefc424402" x="88.472731" y="354.117081" style="fill: #fab387; stroke: #fab387; stroke-width: 1.5"/>
     <use xlink:href="#mbefc424402" x="114.79185" y="345.576583" style="fill: #fab387; stroke: #fab387; stroke-width: 1.5"/>
     <use xlink:href="#mbefc424402" x="138.807763" y="309.244777" style="fill: #fab387; stroke: #fab387; stroke-width: 1.5"/>
     <use xlink:href="#mbefc424402" x="165.126881" y="255.907668" style="fill: #fab387; stroke: #fab387; stroke-width: 1.5"/>
     <use xlink:href="#mbefc424402" x="189.142794" y="191.885475" style="fill: #fab387; stroke: #fab387; stroke-width: 1.5"/>
     <use xlink:href="#mbefc424402" x="215.461912" y="148.791916" style="fill: #fab387; stroke: #fab387; stroke-width: 1.5"/>
     <use xlink:href="#mbefc424402" x="239.477826" y="115.500376" style="fill: #fab387; stroke: #fab387; stroke-width: 1.5"/>
     <use xlink:href="#mbefc424402" x="265.796944" y="110.441677" style="fill: #fab387; stroke: #fab387; stroke-width: 1.5"/>
     <use xlink:href="#mbefc424402" x="289.812857" y="100.828887" style="fill: #fab387; stroke: #fab387; stroke-width: 1.5"/>
     <use xlink:href="#mbefc424402" x="316.131975" y="77.566439" style="fill: #fab387; stroke: #fab387; stroke-width: 1.5"/>
     <use xlink:href="#mbefc424402" x="340.147888" y="78.335966" style="fill: #fab387; stroke: #fab387; stroke-width: 1.5"/>
    </g>
   </g>
   <g id="PathCollection_2">
    <defs>
     <path id="mb456fcbc31" d="M 0 3.535534 
C 0.937635 3.535534 1.836992 3.163008 2.5 2.5 
C 3.163008 1.836992 3.535534 0.937635 3.535534 0 
C 3.535534 -0.937635 3.163008 -1.836992 2.5 -2.5 
C 1.836992 -3.163008 0.937635 -3.535534 0 -3.535534 
C -0.937635 -3.535534 -1.836992 -3.163008 -2.5 -2.5 
C -3.163008 -1.836992 -3.535534 -0.937635 -3.535534 0 
C -3.535534 0.937635 -3.163008 1.836992 -2.5 2.5 
C -1.836992 3.163008 -0.937635 3.535534 0 3.535534 
z
" style="stroke: #fab387"/>
    </defs>
    <g clip-path="url(#p5550f93018)">
     <use xlink:href="#mb456fcbc31" x="182.504876" y="217.437584" style="fill: #fab387; stroke: #fab387"/>
    </g>
   </g>
   <g id="matplotlib.axis_1">
    <g id="xtick_1">
     <g id="line2d_1">
      <defs>
       <path id="m3259ab3b0e" d="M 0 0 
L 0 3.5 
" style="stroke: #000000; stroke-width: 0.8"/>
      </defs>
      <g>
       <use xlink:href="#m3259ab3b0e" x="64.456818" y="399.270072" style="stroke: #000000; stroke-width: 0.8"/>
      </g>
     </g>
     <g id="text_1">
      <!-- −9 -->
      <g transform="translate(58.356818 413.429447) scale(0.1 -0.1)">
       <defs>
        <path id="STZhongsong-2212" d="M 3443 2374 
L 3443 1990 
L 397 1990 
L 397 2374 
L 3443 2374 
z
" transform="scale(0.015625)"/>
        <path id="STZhongsong-39" d="M 736 -77 
L 736 218 
Q 1856 224 2374 688 
Q 2893 1152 2938 2138 
Q 2707 1798 2425 1638 
Q 2144 1478 1734 1478 
Q 1088 1478 681 1884 
Q 275 2291 275 2925 
Q 275 3616 720 4025 
Q 1165 4435 1882 4435 
Q 2688 4435 3126 3916 
Q 3565 3398 3565 2438 
Q 3565 1574 3181 963 
Q 2797 352 2201 137 
Q 1606 -77 979 -77 
L 736 -77 
z
M 896 2950 
Q 896 2445 1174 2128 
Q 1453 1811 1875 1811 
Q 2317 1811 2611 2147 
Q 2906 2483 2906 2970 
Q 2906 3475 2618 3814 
Q 2330 4154 1901 4154 
Q 1459 4154 1177 3824 
Q 896 3494 896 2950 
z
" transform="scale(0.015625)"/>
       </defs>
       <use xlink:href="#STZhongsong-2212"/>
       <use xlink:href="#STZhongsong-39" x="59.999985"/>
      </g>
     </g>
    </g>
    <g id="xtick_2">
     <g id="line2d_2">
      <g>
       <use xlink:href="#m3259ab3b0e" x="114.79185" y="399.270072" style="stroke: #000000; stroke-width: 0.8"/>
      </g>
     </g>
     <g id="text_2">
      <!-- −8 -->
      <g transform="translate(108.69185 413.429447) scale(0.1 -0.1)">
       <defs>
        <path id="STZhongsong-38" d="M 2477 2419 
Q 3021 2208 3315 1923 
Q 3610 1638 3610 1197 
Q 3610 659 3152 291 
Q 2694 -77 1971 -77 
Q 1274 -77 816 272 
Q 358 621 358 1120 
Q 358 1485 633 1779 
Q 909 2074 1440 2259 
Q 1011 2451 800 2691 
Q 589 2931 589 3315 
Q 589 3814 998 4124 
Q 1408 4435 2035 4435 
Q 2618 4435 2998 4134 
Q 3379 3834 3379 3424 
Q 3379 2790 2477 2419 
z
M 2189 2534 
Q 2451 2707 2662 2918 
Q 2874 3130 2874 3418 
Q 2874 3706 2621 3923 
Q 2368 4141 1971 4141 
Q 1594 4141 1331 3926 
Q 1069 3712 1069 3430 
Q 1069 3168 1270 2989 
Q 1472 2810 1824 2675 
L 2189 2534 
z
M 1747 2131 
Q 1325 1939 1088 1670 
Q 851 1402 851 1126 
Q 851 762 1177 490 
Q 1504 218 1984 218 
Q 2438 218 2774 483 
Q 3110 749 3110 1082 
Q 3110 1594 2253 1933 
L 1747 2131 
z
" transform="scale(0.015625)"/>
       </defs>
       <use xlink:href="#STZhongsong-2212"/>
       <use xlink:href="#STZhongsong-38" x="59.999985"/>
      </g>
     </g>
    </g>
    <g id="xtick_3">
     <g id="line2d_3">
      <g>
       <use xlink:href="#m3259ab3b0e" x="165.126881" y="399.270072" style="stroke: #000000; stroke-width: 0.8"/>
      </g>
     </g>
     <g id="text_3">
      <!-- −7 -->
      <g transform="translate(159.026881 413.429447) scale(0.1 -0.1)">
       <defs>
        <path id="STZhongsong-37" d="M 691 4518 
L 902 4518 
L 934 4358 
L 3667 4358 
L 3667 4096 
Q 2163 2317 1901 0 
L 1261 0 
Q 1421 1190 1949 2150 
Q 2477 3110 3174 3891 
L 1222 3891 
Q 1005 3891 899 3862 
Q 794 3834 736 3635 
L 614 3206 
L 352 3264 
L 691 4518 
z
" transform="scale(0.015625)"/>
       </defs>
       <use xlink:href="#STZhongsong-2212"/>
       <use xlink:href="#STZhongsong-37" x="59.999985"/>
      </g>
     </g>
    </g>
    <g id="xtick_4">
     <g id="line2d_4">
      <g>
       <use xlink:href="#m3259ab3b0e" x="215.461912" y="399.270072" style="stroke: #000000; stroke-width: 0.8"/>
      </g>
     </g>
     <g id="text_4">
      <!-- −6 -->
      <g transform="translate(209.361912 413.429447) scale(0.1 -0.1)">
       <defs>
        <path id="STZhongsong-36" d="M 3238 4442 
L 3238 4154 
Q 2131 4141 1603 3686 
Q 1075 3232 1037 2227 
Q 1446 2893 2240 2893 
Q 2880 2893 3289 2486 
Q 3699 2080 3699 1440 
Q 3699 742 3257 332 
Q 2816 -77 2093 -77 
Q 1286 -77 848 444 
Q 410 966 410 1926 
Q 410 3046 1056 3744 
Q 1702 4442 2995 4442 
L 3238 4442 
z
M 3072 1414 
Q 3072 1933 2800 2246 
Q 2528 2560 2099 2560 
Q 1658 2560 1363 2224 
Q 1069 1888 1069 1402 
Q 1069 890 1350 550 
Q 1632 211 2074 211 
Q 2509 211 2790 544 
Q 3072 877 3072 1414 
z
" transform="scale(0.015625)"/>
       </defs>
       <use xlink:href="#STZhongsong-2212"/>
       <use xlink:href="#STZhongsong-36" x="59.999985"/>
      </g>
     </g>
    </g>
    <g id="xtick_5">
     <g id="line2d_5">
      <g>
       <use xlink:href="#m3259ab3b0e" x="265.796944" y="399.270072" style="stroke: #000000; stroke-width: 0.8"/>
      </g>
     </g>
     <g id="text_5">
      <!-- −5 -->
      <g transform="translate(259.696944 413.429447) scale(0.1 -0.1)">
       <defs>
        <path id="STZhongsong-35" d="M 934 4358 
L 2880 4358 
Q 3046 4358 3097 4387 
Q 3149 4416 3155 4512 
L 3386 4512 
L 3386 3853 
L 1229 3853 
L 1171 2752 
Q 1530 2848 1990 2848 
Q 2771 2848 3228 2451 
Q 3686 2054 3686 1414 
Q 3686 787 3212 355 
Q 2739 -77 2029 -77 
Q 1414 -77 982 236 
Q 550 550 550 890 
Q 550 1037 640 1123 
Q 730 1210 838 1210 
Q 1062 1210 1203 813 
Q 1421 218 2042 218 
Q 2515 218 2819 528 
Q 3123 838 3123 1312 
Q 3123 1824 2777 2128 
Q 2432 2432 1843 2432 
Q 1280 2432 832 2246 
L 934 4358 
z
" transform="scale(0.015625)"/>
       </defs>
       <use xlink:href="#STZhongsong-2212"/>
       <use xlink:href="#STZhongsong-35" x="59.999985"/>
      </g>
     </g>
    </g>
    <g id="xtick_6">
     <g id="line2d_6">
      <g>
       <use xlink:href="#m3259ab3b0e" x="316.131975" y="399.270072" style="stroke: #000000; stroke-width: 0.8"/>
      </g>
     </g>
     <g id="text_6">
      <!-- −4 -->
      <g transform="translate(310.031975 413.429447) scale(0.1 -0.1)">
       <defs>
        <path id="STZhongsong-34" d="M 3494 1242 
L 2906 1242 
L 2906 518 
Q 2906 275 3213 250 
L 3213 45 
L 1882 45 
L 1882 250 
Q 2054 262 2156 336 
Q 2259 410 2259 518 
L 2259 1242 
L 550 1242 
L 550 1658 
L 2483 4365 
L 2906 4365 
L 2906 1581 
L 3494 1581 
L 3494 1242 
z
M 2259 1581 
L 2259 3462 
L 902 1581 
L 2259 1581 
z
" transform="scale(0.015625)"/>
       </defs>
       <use xlink:href="#STZhongsong-2212"/>
       <use xlink:href="#STZhongsong-34" x="59.999985"/>
      </g>
     </g>
    </g>
    <g id="text_7">
     <!-- 溶液中乙酰胆碱的浓度对数 -->
     <g transform="translate(137.844651 426.99976) scale(0.1 -0.1)">
      <defs>
       <path id="STZhongsong-6eb6" d="M 3699 4000 
Q 3546 4589 3226 4864 
L 3251 4954 
Q 3712 4832 3965 4694 
Q 4218 4557 4218 4378 
Q 4218 4294 4166 4182 
Q 4115 4070 3974 4000 
L 5248 4000 
L 5382 4237 
Q 5421 4294 5472 4294 
Q 5523 4294 5660 4192 
Q 5798 4090 5961 3958 
Q 6125 3827 6163 3788 
Q 6202 3750 6202 3706 
Q 6202 3616 5981 3597 
Q 5760 3578 5616 3498 
Q 5472 3418 5210 3117 
L 5062 3187 
Q 5254 3635 5299 3808 
L 2534 3808 
Q 2541 3699 2541 3610 
Q 2541 3251 2374 3084 
Q 2208 2918 2038 2918 
Q 1869 2918 1782 2979 
Q 1696 3040 1696 3158 
Q 1696 3277 1888 3411 
Q 2246 3654 2323 4333 
L 2458 4333 
Q 2483 4211 2515 4000 
L 3699 4000 
z
M 832 4710 
Q 1402 4422 1606 4249 
Q 1811 4077 1811 3913 
Q 1811 3750 1724 3587 
Q 1638 3424 1545 3424 
Q 1453 3424 1411 3475 
Q 1370 3526 1338 3642 
Q 1203 4109 762 4595 
L 832 4710 
z
M 3149 3546 
Q 3341 3456 3526 3357 
Q 3712 3258 3734 3238 
Q 3757 3219 3757 3184 
Q 3757 3149 3654 3126 
Q 3552 3104 3411 2976 
Q 3014 2598 2729 2396 
Q 2445 2195 2029 1939 
L 1946 2067 
Q 2765 2746 3149 3546 
z
M 4032 3520 
Q 4646 3258 4947 3085 
Q 5248 2912 5344 2784 
Q 5440 2656 5440 2486 
Q 5440 2317 5373 2195 
Q 5306 2074 5229 2074 
Q 5152 2074 5113 2115 
Q 5075 2157 5005 2278 
Q 4634 2899 3955 3386 
L 4032 3520 
z
M 282 3405 
Q 755 3155 1030 2944 
Q 1306 2733 1306 2541 
Q 1306 2419 1206 2259 
Q 1107 2099 992 2099 
Q 934 2099 896 2144 
Q 858 2189 806 2323 
Q 621 2810 211 3270 
L 282 3405 
z
M 2592 1011 
Q 2125 704 1498 422 
L 1453 544 
Q 2150 960 2768 1606 
Q 3386 2253 3680 2874 
Q 4038 2720 4176 2624 
Q 4314 2528 4314 2496 
Q 4314 2458 4234 2429 
Q 4154 2400 4083 2355 
Q 4877 1363 6227 1190 
L 6227 1037 
Q 5747 1056 5530 717 
Q 5510 685 5472 685 
Q 5408 685 5088 896 
L 4954 787 
L 4954 -506 
Q 4954 -589 4960 -659 
L 4973 -781 
Q 4973 -819 4918 -854 
Q 4864 -890 4707 -944 
Q 4550 -998 4467 -998 
Q 4429 -998 4429 -941 
L 4429 -499 
L 3130 -499 
L 3130 -794 
Q 3130 -870 3082 -902 
Q 3034 -934 2858 -992 
Q 2682 -1050 2598 -1050 
Q 2554 -1050 2560 -992 
Q 2592 -710 2592 -435 
L 2592 1011 
z
M 3962 2240 
Q 3501 1683 2912 1235 
Q 3142 1178 3277 1088 
L 4352 1088 
L 4538 1357 
Q 4205 1728 3962 2240 
z
M 4429 -294 
L 4429 877 
L 3130 877 
L 3130 -294 
L 4429 -294 
z
M 2054 2816 
L 1472 1190 
Q 1325 787 1325 467 
Q 1325 147 1363 -137 
Q 1402 -422 1402 -499 
Q 1402 -717 1318 -841 
Q 1235 -966 1120 -966 
Q 947 -966 806 -803 
Q 666 -640 666 -448 
Q 666 -397 678 -346 
Q 858 256 858 454 
Q 858 653 826 733 
Q 794 813 675 893 
Q 557 973 307 1082 
L 314 1197 
Q 627 1133 771 1133 
Q 915 1133 1004 1184 
Q 1094 1235 1190 1427 
L 1926 2867 
L 2054 2816 
z
" transform="scale(0.015625)"/>
       <path id="STZhongsong-6db2" d="M 3808 3910 
Q 3770 3981 3722 4173 
Q 3674 4365 3574 4512 
Q 3475 4659 3296 4832 
L 3360 4922 
Q 3834 4832 4096 4672 
Q 4358 4512 4358 4352 
Q 4358 4256 4278 4121 
Q 4198 3987 4070 3910 
L 5043 3910 
L 5338 4326 
Q 5382 4378 5414 4378 
Q 5446 4378 5648 4230 
Q 5850 4083 5971 3971 
Q 6093 3859 6093 3795 
Q 6093 3731 5984 3731 
L 2317 3731 
Q 2157 3731 2093 3693 
L 1990 3942 
Q 2112 3910 2266 3910 
L 3808 3910 
z
M 838 4704 
Q 1363 4576 1628 4441 
Q 1894 4307 1894 4115 
Q 1894 3923 1779 3747 
Q 1664 3571 1562 3571 
Q 1504 3571 1475 3603 
Q 1446 3635 1402 3763 
Q 1216 4275 794 4608 
L 838 4704 
z
M 2355 1530 
Q 2016 1094 1517 634 
L 1427 723 
Q 2342 1888 2835 3635 
Q 3142 3514 3283 3424 
Q 3424 3334 3424 3308 
Q 3424 3283 3325 3228 
Q 3226 3174 3162 2989 
Q 3021 2592 2842 2272 
L 2842 -858 
Q 2842 -915 2800 -950 
Q 2758 -986 2585 -1050 
Q 2413 -1114 2371 -1114 
Q 2330 -1114 2330 -1050 
L 2349 -538 
Q 2355 -301 2355 -90 
L 2355 1530 
z
M 3642 1568 
Q 3398 1171 3027 730 
L 2918 806 
Q 3629 1965 3923 3565 
Q 4570 3341 4570 3277 
Q 4570 3258 4496 3226 
Q 4422 3194 4397 3123 
L 4224 2701 
L 4928 2701 
L 5088 2893 
Q 5139 2950 5184 2950 
Q 5229 2950 5405 2822 
Q 5581 2694 5670 2633 
Q 5760 2573 5760 2534 
Q 5760 2496 5616 2435 
Q 5472 2374 5427 2170 
Q 5254 1459 5072 1040 
Q 4890 621 4653 314 
Q 5274 -173 6221 -454 
L 6182 -563 
Q 5888 -557 5715 -617 
Q 5542 -678 5382 -870 
Q 5363 -896 5338 -896 
Q 5267 -896 4918 -598 
Q 4570 -301 4346 -45 
Q 3840 -550 2912 -1082 
L 2842 -973 
Q 3654 -346 4102 269 
Q 3795 787 3642 1568 
z
M 4147 2522 
Q 4077 2381 4045 2304 
Q 4602 2003 4602 1747 
Q 4602 1606 4496 1475 
Q 4390 1344 4269 1344 
Q 4186 1344 4160 1536 
Q 4102 1920 3994 2195 
Q 3891 1984 3763 1773 
Q 3974 1082 4326 602 
Q 4774 1357 4973 2522 
L 4147 2522 
z
M 2067 3488 
L 1472 1510 
Q 1395 1242 1376 1062 
Q 1357 883 1357 636 
Q 1357 390 1379 -109 
Q 1402 -608 1402 -640 
Q 1402 -1030 1203 -1030 
Q 986 -1030 845 -889 
Q 704 -749 704 -538 
Q 704 -474 717 -403 
Q 864 256 864 464 
Q 864 672 832 745 
Q 800 819 681 867 
Q 563 915 262 979 
L 275 1107 
Q 461 1088 617 1088 
Q 774 1088 883 1161 
Q 992 1235 1120 1549 
L 1926 3539 
L 2067 3488 
z
M 326 3411 
Q 813 3245 1059 3081 
Q 1306 2918 1306 2739 
Q 1306 2560 1190 2387 
Q 1075 2214 969 2214 
Q 864 2214 813 2406 
Q 685 2861 269 3302 
L 326 3411 
z
" transform="scale(0.015625)"/>
       <path id="STZhongsong-4e2d" d="M 1510 3296 
L 2854 3296 
L 2854 4352 
Q 2854 4685 2842 4922 
Q 3322 4762 3517 4688 
Q 3712 4614 3712 4553 
Q 3712 4493 3450 4390 
L 3450 3296 
L 4883 3296 
L 5050 3610 
Q 5088 3680 5133 3680 
Q 5197 3680 5523 3491 
Q 5850 3302 5850 3232 
Q 5850 3162 5530 3014 
L 5530 1504 
Q 5530 1408 5536 1325 
L 5549 1190 
Q 5549 1146 5485 1107 
Q 5421 1069 5241 1021 
Q 5062 973 4979 973 
Q 4941 973 4941 1037 
L 4941 1376 
L 3450 1376 
L 3450 -64 
Q 3450 -275 3462 -512 
L 3469 -730 
Q 3469 -781 3424 -813 
Q 3379 -845 3145 -918 
Q 2912 -992 2873 -992 
Q 2835 -992 2835 -890 
L 2848 -640 
Q 2854 -384 2854 -64 
L 2854 1376 
L 1382 1376 
L 1382 1101 
Q 1382 1056 1331 1017 
Q 1280 979 1065 908 
Q 851 838 803 838 
Q 755 838 762 902 
Q 794 1120 794 1382 
L 794 3123 
Q 794 3392 774 3667 
Q 1235 3488 1510 3296 
z
M 2854 3110 
L 1382 3110 
L 1382 1562 
L 2854 1562 
L 2854 3110 
z
M 4941 1562 
L 4941 3110 
L 3450 3110 
L 3450 1562 
L 4941 1562 
z
" transform="scale(0.015625)"/>
       <path id="STZhongsong-4e59" d="M 4013 4224 
L 4365 4589 
Q 4435 4659 4489 4659 
Q 4544 4659 4861 4377 
Q 5178 4096 5178 4038 
Q 5178 3981 5008 3955 
Q 4838 3930 4691 3830 
Q 4544 3731 3881 3097 
Q 3219 2464 2771 1977 
Q 2323 1491 2028 1120 
Q 1734 749 1635 566 
Q 1536 384 1536 250 
Q 1536 6 1875 -80 
Q 2214 -166 3661 -166 
Q 4909 -166 5091 -64 
Q 5274 38 5363 396 
Q 5453 755 5530 1434 
L 5702 1434 
Q 5683 1114 5683 864 
Q 5683 614 5731 444 
Q 5779 275 5952 128 
Q 6042 51 6042 -25 
Q 6042 -102 5894 -336 
Q 5747 -570 5372 -653 
Q 4998 -736 3878 -736 
Q 3379 -736 2489 -701 
Q 1600 -666 1257 -448 
Q 915 -230 915 147 
Q 915 525 1270 1081 
Q 1626 1638 3923 3994 
L 1370 3994 
Q 1197 3994 1101 3949 
L 947 4256 
Q 1082 4224 1267 4224 
L 4013 4224 
z
" transform="scale(0.015625)"/>
       <path id="STZhongsong-9170" d="M 5011 1926 
L 5011 -96 
Q 5011 -218 5059 -250 
Q 5107 -282 5312 -282 
Q 5517 -282 5603 -221 
Q 5690 -160 5738 54 
Q 5786 269 5830 800 
L 5946 787 
Q 5926 -64 6157 -211 
Q 6221 -250 6221 -304 
Q 6221 -358 6096 -537 
Q 5971 -717 5651 -742 
Q 5331 -768 5171 -768 
Q 5011 -768 4844 -733 
Q 4678 -698 4604 -627 
Q 4531 -557 4531 -403 
L 4531 1926 
L 4154 1926 
Q 4109 589 3808 -48 
Q 3507 -685 2618 -1146 
L 2560 -1050 
Q 3238 -557 3440 108 
Q 3642 774 3667 1926 
L 3379 1926 
Q 3206 1926 3110 1882 
L 3021 2138 
Q 3155 2106 3315 2106 
L 4262 2106 
L 4262 3162 
L 3693 3162 
Q 3456 2547 3213 2227 
L 3117 2291 
Q 3430 3187 3501 4301 
Q 3770 4218 3946 4134 
Q 4122 4051 4122 4009 
Q 4122 3968 4042 3942 
Q 3962 3917 3936 3881 
Q 3910 3846 3878 3712 
Q 3846 3578 3770 3366 
L 4262 3366 
L 4262 4224 
Q 4262 4627 4237 4934 
Q 4486 4896 4681 4841 
Q 4877 4787 4921 4761 
Q 4966 4736 4966 4704 
Q 4966 4634 4736 4544 
L 4736 3366 
L 5050 3366 
L 5274 3667 
Q 5312 3725 5350 3725 
Q 5414 3725 5638 3510 
Q 5862 3296 5862 3229 
Q 5862 3162 5715 3162 
L 4736 3162 
L 4736 2106 
L 5338 2106 
L 5555 2438 
Q 5600 2509 5664 2509 
Q 5728 2509 5939 2272 
Q 6150 2035 6150 1971 
Q 6150 1926 6003 1926 
L 5011 1926 
z
M 1280 4128 
L 685 4128 
Q 512 4128 416 4090 
L 301 4358 
Q 435 4326 621 4326 
L 2534 4326 
L 2746 4614 
Q 2797 4685 2838 4685 
Q 2880 4685 3088 4457 
Q 3296 4230 3296 4179 
Q 3296 4128 3194 4128 
L 2246 4128 
L 2246 3360 
L 2515 3360 
L 2630 3571 
Q 2656 3616 2694 3616 
Q 2733 3616 2957 3478 
Q 3181 3341 3181 3296 
Q 3181 3251 3002 3149 
L 3002 307 
Q 3002 26 3008 -90 
L 3014 -294 
Q 3014 -352 2960 -397 
Q 2906 -442 2771 -499 
Q 2637 -557 2592 -557 
Q 2547 -557 2547 -480 
L 2547 -134 
L 979 -134 
L 979 -602 
Q 979 -672 912 -726 
Q 845 -781 726 -832 
Q 608 -883 538 -883 
Q 506 -883 512 -800 
Q 538 -499 538 -198 
L 538 3059 
Q 538 3328 518 3603 
Q 845 3501 1088 3360 
L 1280 3360 
L 1280 4128 
z
M 1862 4128 
L 1645 4128 
L 1645 3360 
L 1862 3360 
L 1862 4128 
z
M 979 1453 
Q 1139 1773 1206 2144 
Q 1274 2515 1280 3181 
L 979 3181 
L 979 1453 
z
M 2246 3181 
L 2246 2010 
Q 2246 1920 2275 1891 
Q 2304 1862 2377 1862 
Q 2451 1862 2547 1869 
L 2547 3181 
L 2246 3181 
z
M 2547 1478 
Q 2374 1472 2224 1472 
Q 2074 1472 1990 1507 
Q 1907 1542 1884 1632 
Q 1862 1722 1862 1939 
L 1862 3181 
L 1645 3181 
Q 1638 2451 1481 1993 
Q 1325 1536 979 1203 
L 979 922 
L 2547 922 
L 2547 1478 
z
M 2547 58 
L 2547 736 
L 979 736 
L 979 58 
L 2547 58 
z
" transform="scale(0.015625)"/>
       <path id="STZhongsong-80c6" d="M 1203 1414 
Q 1158 608 947 73 
Q 736 -461 250 -1005 
L 160 -928 
Q 486 -371 624 227 
Q 762 826 762 1914 
Q 762 3488 704 4755 
Q 864 4698 1261 4499 
L 1862 4499 
L 1965 4678 
Q 2010 4762 2054 4762 
Q 2080 4762 2387 4605 
Q 2694 4448 2694 4390 
Q 2694 4333 2464 4179 
L 2464 -64 
Q 2464 -416 2365 -579 
Q 2266 -742 2058 -844 
Q 1850 -947 1798 -947 
Q 1747 -947 1708 -819 
Q 1670 -691 1625 -617 
Q 1581 -544 1472 -470 
Q 1363 -397 1120 -301 
L 1146 -179 
Q 1594 -256 1741 -256 
Q 1888 -256 1923 -211 
Q 1958 -166 1958 -51 
L 1958 1414 
L 1203 1414 
z
M 1216 4294 
Q 1235 3686 1235 3123 
L 1958 3123 
L 1958 4294 
L 1216 4294 
z
M 1235 2931 
Q 1235 2189 1210 1619 
L 1958 1619 
L 1958 2931 
L 1235 2931 
z
M 3686 941 
L 3686 550 
Q 3686 480 3622 441 
Q 3558 403 3385 339 
Q 3213 275 3174 275 
Q 3136 275 3142 339 
Q 3174 621 3174 1229 
L 3174 3795 
Q 3174 4173 3155 4352 
Q 3462 4243 3706 4115 
L 4826 4115 
L 4960 4346 
Q 4992 4403 5037 4403 
Q 5082 4403 5302 4275 
Q 5523 4147 5600 4099 
Q 5677 4051 5677 3993 
Q 5677 3936 5453 3802 
L 5453 1370 
Q 5453 1050 5459 922 
L 5472 685 
Q 5472 634 5408 586 
Q 5344 538 5184 480 
Q 5024 422 4969 422 
Q 4915 422 4915 518 
L 4915 941 
L 3686 941 
z
M 3686 3917 
L 3686 2650 
L 4915 2650 
L 4915 3917 
L 3686 3917 
z
M 3686 2445 
L 3686 1133 
L 4915 1133 
L 4915 2445 
L 3686 2445 
z
M 5197 -275 
L 5459 128 
Q 5498 192 5555 192 
Q 5613 192 5686 137 
Q 5760 83 5949 -89 
Q 6138 -262 6179 -313 
Q 6221 -365 6221 -403 
Q 6221 -480 6086 -480 
L 3008 -480 
Q 2822 -480 2733 -531 
L 2618 -243 
Q 2752 -275 2944 -275 
L 5197 -275 
z
" transform="scale(0.015625)"/>
       <path id="STZhongsong-78b1" d="M 5158 685 
Q 5248 454 5395 214 
Q 5542 -26 5590 -26 
Q 5638 -26 5673 35 
Q 5709 96 5814 381 
Q 5920 666 5990 922 
L 6112 890 
Q 6016 461 6016 77 
Q 6016 -307 6163 -691 
Q 6189 -762 6189 -813 
Q 6189 -947 6032 -947 
Q 5875 -947 5484 -643 
Q 5094 -339 4826 211 
Q 4307 -397 3104 -896 
L 3053 -800 
Q 4237 -45 4659 614 
Q 4486 1222 4397 2528 
L 3430 2528 
Q 3258 2528 3162 2490 
L 3046 2746 
Q 3181 2714 3366 2714 
L 3750 2714 
L 3974 2976 
Q 4026 3034 4058 3034 
Q 4090 3034 4179 2931 
L 4384 2694 
Q 4358 3187 4352 3462 
L 3059 3462 
Q 3034 2253 2973 1497 
Q 2912 742 2816 377 
Q 2720 13 2473 -310 
Q 2227 -634 1715 -1056 
L 1645 -973 
Q 2074 -486 2246 -48 
Q 2419 390 2489 1225 
Q 2560 2061 2547 3808 
Q 2880 3725 3053 3654 
L 4352 3654 
Q 4326 4634 4282 4979 
Q 4986 4800 4986 4717 
Q 4986 4666 4813 4557 
Q 4813 3910 4819 3654 
L 5440 3654 
L 5651 3994 
Q 5702 4064 5734 4064 
Q 5766 4064 5856 3981 
L 6074 3789 
Q 6202 3674 6253 3613 
Q 6304 3552 6304 3507 
Q 6304 3462 6150 3462 
L 4819 3462 
Q 4845 2067 4998 1286 
Q 5203 1856 5357 2950 
Q 5760 2797 5872 2736 
Q 5984 2675 5984 2643 
Q 5984 2611 5869 2560 
Q 5837 2541 5814 2473 
Q 5792 2406 5728 2170 
Q 5478 1210 5158 685 
z
M 5030 4717 
Q 5645 4422 5645 4230 
Q 5645 4109 5574 3977 
Q 5504 3846 5421 3846 
Q 5338 3846 5274 3897 
Q 5210 3949 5203 4038 
Q 5171 4410 4979 4595 
L 5030 4717 
z
M 1114 3853 
L 608 3853 
Q 435 3853 339 3808 
L 224 4083 
Q 358 4051 544 4051 
L 1946 4051 
L 2144 4371 
Q 2195 4461 2256 4461 
Q 2317 4461 2569 4217 
Q 2822 3974 2822 3913 
Q 2822 3853 2682 3853 
L 1702 3853 
Q 1504 3046 1299 2573 
L 1683 2573 
L 1798 2778 
Q 1830 2829 1862 2829 
Q 1894 2829 2115 2681 
Q 2336 2534 2336 2486 
Q 2336 2438 2176 2317 
L 2176 877 
Q 2176 589 2182 474 
L 2189 256 
Q 2189 218 2176 198 
Q 2163 179 2070 108 
Q 1978 38 1888 0 
Q 1798 -38 1769 -38 
Q 1741 -38 1741 19 
L 1741 326 
L 1261 326 
L 1261 -230 
Q 1261 -307 1209 -348 
Q 1158 -390 1020 -454 
Q 883 -518 848 -518 
Q 813 -518 819 -454 
Q 851 -141 851 186 
L 851 1754 
Q 602 1389 307 1043 
L 211 1107 
Q 973 2483 1114 3853 
z
M 1741 518 
L 1741 2368 
L 1261 2368 
L 1261 518 
L 1741 518 
z
M 3546 1958 
L 3866 1958 
L 3949 2099 
Q 3981 2163 4016 2163 
Q 4051 2163 4224 2051 
Q 4397 1939 4397 1888 
Q 4397 1824 4269 1766 
L 4269 768 
Q 4269 640 4275 538 
L 4288 365 
Q 4288 294 4115 227 
Q 3942 160 3913 160 
Q 3885 160 3885 218 
L 3885 589 
L 3546 589 
L 3546 96 
Q 3546 45 3523 16 
Q 3501 -13 3389 -54 
Q 3277 -96 3194 -96 
Q 3155 -96 3155 -45 
L 3162 179 
Q 3168 282 3168 397 
L 3168 1626 
Q 3168 1894 3149 2170 
Q 3398 2061 3546 1958 
z
M 3885 774 
L 3885 1786 
L 3546 1786 
L 3546 774 
L 3885 774 
z
" transform="scale(0.015625)"/>
       <path id="STZhongsong-7684" d="M 4102 3194 
Q 3827 2637 3130 1715 
L 3021 1786 
Q 3418 2650 3613 3254 
Q 3808 3859 3994 4819 
Q 4288 4717 4512 4621 
Q 4736 4525 4784 4489 
Q 4832 4454 4832 4409 
Q 4832 4365 4726 4339 
Q 4621 4314 4585 4262 
Q 4550 4211 4435 3932 
Q 4320 3654 4205 3411 
L 5075 3411 
L 5248 3674 
Q 5306 3757 5366 3757 
Q 5427 3757 5712 3555 
Q 5997 3354 5997 3270 
Q 5997 3187 5728 3072 
Q 5683 1261 5657 633 
Q 5632 6 5590 -221 
Q 5549 -448 5421 -627 
Q 5293 -806 5030 -931 
Q 4768 -1056 4659 -1056 
Q 4608 -1056 4582 -960 
Q 4531 -781 4454 -678 
Q 4378 -576 4192 -486 
Q 4006 -397 3629 -294 
L 3661 -160 
Q 4422 -269 4620 -269 
Q 4819 -269 4892 -227 
Q 4966 -186 4992 -90 
Q 5018 6 5043 355 
Q 5069 704 5094 1488 
Q 5120 2272 5126 3194 
L 4102 3194 
z
M 1696 3315 
L 2317 3315 
L 2490 3571 
Q 2534 3642 2585 3642 
Q 2637 3642 2912 3469 
Q 3187 3296 3187 3209 
Q 3187 3123 2944 3027 
L 2944 384 
Q 2944 102 2950 -13 
L 2957 -230 
Q 2957 -262 2941 -284 
Q 2925 -307 2825 -355 
Q 2726 -403 2582 -451 
Q 2438 -499 2403 -499 
Q 2368 -499 2368 -429 
L 2368 -26 
L 1325 -26 
L 1325 -403 
Q 1325 -474 1267 -512 
Q 1210 -550 1014 -624 
Q 819 -698 764 -698 
Q 710 -698 717 -621 
Q 749 -326 749 13 
L 749 3085 
Q 749 3354 730 3629 
Q 1082 3507 1376 3334 
Q 1568 4205 1574 4749 
Q 1856 4691 2105 4595 
Q 2355 4499 2393 4467 
Q 2432 4435 2432 4397 
Q 2432 4333 2330 4307 
Q 2253 4288 2160 4144 
Q 2067 4000 1696 3315 
z
M 2368 1798 
L 2368 3110 
L 1325 3110 
L 1325 1798 
L 2368 1798 
z
M 2368 179 
L 2368 1587 
L 1325 1587 
L 1325 179 
L 2368 179 
z
M 3661 2227 
Q 4122 1894 4301 1728 
Q 4480 1562 4537 1485 
Q 4595 1408 4595 1280 
Q 4595 1050 4448 870 
Q 4301 691 4208 691 
Q 4115 691 4076 956 
Q 4038 1222 3907 1552 
Q 3776 1882 3590 2138 
L 3661 2227 
z
" transform="scale(0.015625)"/>
       <path id="STZhongsong-6d53" d="M 4378 1530 
Q 4813 1920 5171 2464 
Q 5523 2214 5619 2131 
Q 5715 2048 5715 2009 
Q 5715 1971 5676 1958 
Q 5638 1946 5590 1949 
Q 5542 1952 5536 1952 
Q 5491 1952 5408 1913 
Q 5325 1875 5056 1728 
L 4461 1389 
Q 5126 282 6266 -160 
L 6253 -301 
Q 5971 -288 5811 -358 
Q 5651 -429 5568 -614 
Q 5555 -646 5504 -646 
Q 5325 -646 4877 -124 
Q 4429 397 4150 1059 
Q 3872 1722 3757 2477 
Q 3661 2253 3482 1939 
Q 3520 1888 3520 1837 
Q 3520 1741 3386 1658 
L 3386 -38 
Q 3885 237 4339 544 
L 4397 454 
Q 3328 -518 3162 -858 
Q 3130 -928 3082 -928 
Q 3034 -928 2886 -752 
Q 2739 -576 2656 -403 
Q 2867 -173 2867 128 
L 2867 1094 
Q 2317 486 1574 -83 
L 1491 26 
Q 2042 570 2474 1110 
Q 2906 1651 3162 2294 
Q 3418 2938 3520 3398 
L 2765 3398 
Q 2720 2330 2221 2330 
Q 2080 2330 2000 2419 
Q 1920 2509 1920 2592 
Q 1920 2720 2157 2921 
Q 2394 3123 2490 3350 
Q 2586 3578 2630 3904 
L 2758 3904 
Q 2771 3680 2771 3571 
L 3558 3571 
Q 3667 4070 3731 4851 
Q 3987 4774 4204 4691 
Q 4422 4608 4480 4576 
Q 4538 4544 4538 4512 
Q 4538 4480 4416 4445 
Q 4294 4410 4252 4208 
Q 4211 4006 4115 3571 
L 5146 3571 
L 5338 3802 
Q 5389 3859 5414 3859 
Q 5472 3859 5779 3584 
Q 6086 3309 6086 3245 
Q 6086 3181 6035 3171 
Q 5984 3162 5763 3162 
Q 5542 3162 5372 3050 
Q 5203 2938 4768 2490 
L 4672 2547 
Q 4966 3091 5101 3398 
L 4070 3398 
Q 3987 3091 3910 2874 
Q 4115 1990 4378 1530 
z
M 768 4621 
Q 1286 4480 1587 4320 
Q 1888 4160 1888 3904 
Q 1888 3738 1808 3590 
Q 1728 3443 1606 3443 
Q 1562 3443 1533 3484 
Q 1504 3526 1437 3689 
Q 1370 3853 1181 4077 
Q 992 4301 717 4518 
L 768 4621 
z
M 2074 3494 
L 1574 1638 
Q 1395 973 1395 403 
Q 1395 262 1424 -45 
Q 1453 -352 1453 -573 
Q 1453 -794 1414 -890 
Q 1376 -986 1261 -986 
Q 1088 -986 893 -842 
Q 698 -698 698 -518 
Q 698 -461 717 -410 
Q 922 134 922 454 
Q 922 653 790 745 
Q 659 838 346 928 
L 358 1050 
Q 646 1037 777 1069 
Q 909 1101 985 1200 
Q 1062 1299 1158 1536 
L 1965 3539 
L 2074 3494 
z
M 301 3245 
Q 819 3078 1094 2915 
Q 1370 2752 1370 2554 
Q 1370 2426 1270 2266 
Q 1171 2106 1062 2106 
Q 1011 2106 979 2144 
Q 947 2182 864 2396 
Q 781 2611 627 2793 
Q 474 2976 250 3149 
L 301 3245 
z
" transform="scale(0.015625)"/>
       <path id="STZhongsong-5ea6" d="M 3296 3987 
Q 3219 4301 3120 4473 
Q 3021 4646 2810 4832 
L 2854 4915 
Q 3878 4736 3878 4365 
Q 3878 4269 3814 4166 
Q 3750 4064 3610 3987 
L 5075 3987 
L 5376 4346 
Q 5427 4410 5466 4410 
Q 5536 4410 5808 4163 
Q 6080 3917 6080 3859 
Q 6080 3802 5965 3802 
L 1754 3802 
Q 1754 3488 1741 2931 
L 2656 2931 
L 2656 3277 
Q 2656 3488 2637 3744 
Q 3059 3648 3200 3600 
Q 3341 3552 3341 3507 
Q 3341 3456 3174 3360 
L 3174 2931 
L 4179 2931 
L 4179 3270 
Q 4179 3482 4160 3738 
Q 4653 3629 4765 3581 
Q 4877 3533 4877 3501 
Q 4877 3450 4710 3354 
L 4710 2931 
L 5094 2931 
L 5363 3309 
Q 5402 3360 5434 3360 
Q 5498 3360 5750 3107 
Q 6003 2854 6003 2803 
Q 6003 2752 5888 2752 
L 4710 2752 
L 4710 2355 
Q 4710 2067 4717 1946 
L 4730 1747 
Q 4730 1702 4678 1673 
Q 4627 1645 4457 1590 
Q 4288 1536 4218 1536 
Q 4179 1536 4179 1600 
L 4179 1888 
L 3174 1888 
L 3174 1722 
Q 3174 1677 3164 1648 
Q 3155 1619 2934 1552 
Q 2714 1485 2672 1485 
Q 2630 1485 2630 1530 
L 2643 1754 
Q 2656 1920 2656 2150 
L 2656 2752 
L 1734 2752 
Q 1696 1491 1606 963 
Q 1517 435 1238 -51 
Q 960 -538 358 -1082 
L 275 -1005 
Q 832 -262 1011 477 
Q 1190 1216 1190 2477 
Q 1190 3738 1158 4320 
Q 1510 4198 1843 3987 
L 3296 3987 
z
M 4179 2752 
L 3174 2752 
L 3174 2074 
L 4179 2074 
L 4179 2752 
z
M 3674 -250 
Q 2842 -806 1139 -1069 
L 1139 -941 
Q 2432 -627 3354 19 
Q 2944 422 2669 1133 
L 2387 1133 
Q 2214 1133 2118 1088 
L 2003 1350 
Q 2138 1318 2323 1318 
L 4467 1318 
L 4602 1472 
Q 4653 1530 4697 1530 
Q 4742 1530 5024 1331 
Q 5306 1133 5306 1078 
Q 5306 1024 5206 1017 
Q 5107 1011 5062 995 
Q 5018 979 4954 902 
Q 4506 403 4090 51 
Q 4858 -294 6227 -416 
L 6182 -557 
Q 5894 -557 5721 -643 
Q 5549 -730 5459 -922 
Q 5427 -992 5376 -992 
Q 5280 -992 4681 -768 
Q 4083 -544 3674 -250 
z
M 3686 269 
Q 4166 685 4403 1133 
L 2848 1133 
Q 3187 602 3686 269 
z
" transform="scale(0.015625)"/>
       <path id="STZhongsong-5bf9" d="M 5082 3290 
L 5357 3290 
L 5638 3642 
Q 5690 3706 5741 3706 
Q 5792 3706 5923 3578 
Q 6054 3450 6166 3325 
Q 6278 3200 6278 3126 
Q 6278 3053 6093 3053 
L 5082 3053 
L 5082 -141 
Q 5082 -461 4963 -617 
Q 4845 -774 4617 -889 
Q 4390 -1005 4307 -1005 
Q 4224 -1005 4211 -902 
Q 4173 -602 4019 -467 
Q 3866 -333 3373 -160 
L 3405 13 
Q 4058 -128 4230 -128 
Q 4403 -128 4457 -99 
Q 4512 -70 4512 6 
L 4512 3053 
L 3149 3053 
Q 2989 3053 2874 3021 
L 2765 3322 
Q 2899 3290 3085 3290 
L 4512 3290 
L 4512 4230 
Q 4512 4595 4499 4909 
Q 4666 4864 4957 4771 
Q 5248 4678 5328 4633 
Q 5408 4589 5408 4544 
Q 5408 4454 5082 4358 
L 5082 3290 
z
M 1747 2234 
Q 2061 2976 2214 3802 
L 742 3802 
Q 570 3802 474 3757 
L 358 4032 
Q 493 4000 678 4000 
L 2189 4000 
L 2362 4230 
Q 2413 4294 2441 4294 
Q 2470 4294 2668 4166 
Q 2867 4038 2985 3955 
Q 3104 3872 3104 3821 
Q 3104 3770 2989 3750 
Q 2778 3718 2701 3482 
Q 2374 2464 2054 1862 
Q 2547 1261 2713 963 
Q 2880 666 2880 464 
Q 2880 262 2768 80 
Q 2656 -102 2557 -102 
Q 2458 -102 2416 -32 
Q 2374 38 2336 186 
Q 2195 768 1818 1440 
Q 1325 627 205 -435 
L 109 -346 
Q 1075 826 1581 1862 
Q 1293 2362 698 3270 
L 787 3341 
Q 1466 2573 1747 2234 
z
M 3021 2387 
Q 3597 1997 3795 1763 
Q 3994 1530 3994 1334 
Q 3994 1139 3885 1011 
Q 3776 883 3648 883 
Q 3578 883 3539 1018 
Q 3418 1440 3290 1712 
Q 3162 1984 2950 2317 
L 3021 2387 
z
" transform="scale(0.015625)"/>
       <path id="STZhongsong-6570" d="M 2394 3334 
L 2938 3334 
L 3136 3616 
Q 3181 3680 3245 3680 
Q 3309 3680 3520 3462 
Q 3731 3245 3731 3193 
Q 3731 3142 3610 3142 
L 2394 3142 
L 2394 3027 
Q 2784 2938 3069 2819 
Q 3354 2701 3354 2515 
Q 3354 2381 3296 2227 
Q 3238 2074 3171 2074 
Q 3104 2074 3069 2109 
Q 3034 2144 2963 2259 
Q 2893 2374 2720 2556 
Q 2547 2739 2394 2854 
Q 2406 2381 2406 2259 
Q 2406 2138 2393 2099 
Q 2381 2061 2217 2006 
Q 2054 1952 1971 1933 
Q 2291 1811 2291 1722 
Q 2291 1670 2227 1660 
Q 2163 1651 2118 1609 
Q 2074 1568 1990 1434 
L 2637 1434 
L 2803 1619 
Q 2854 1677 2892 1677 
Q 2931 1677 3190 1481 
Q 3450 1286 3450 1228 
Q 3450 1171 3338 1148 
Q 3226 1126 3168 1088 
Q 3110 1050 3053 941 
Q 2848 563 2637 307 
Q 3040 205 3133 38 
Q 3226 -128 3226 -262 
Q 3226 -397 3187 -467 
Q 3149 -538 3101 -538 
Q 3053 -538 2816 -378 
Q 2579 -218 2278 -51 
Q 1664 -589 384 -992 
L 333 -877 
Q 1338 -371 1875 141 
Q 1440 326 845 474 
Q 1184 954 1331 1222 
L 691 1222 
Q 518 1222 422 1190 
L 307 1453 
Q 410 1434 627 1434 
L 1440 1434 
Q 1626 1824 1690 2035 
Q 1818 1997 1869 1978 
Q 1888 2515 1888 2874 
Q 1421 2125 282 1613 
L 243 1715 
Q 1075 2330 1549 3142 
L 589 3142 
Q 467 3142 390 3110 
L 301 3366 
Q 416 3334 550 3334 
L 1888 3334 
L 1888 4147 
Q 1888 4698 1875 4877 
Q 2592 4723 2592 4653 
Q 2592 4608 2394 4499 
L 2394 3334 
z
M 1856 1222 
L 1427 570 
Q 1914 480 2138 429 
Q 2413 762 2630 1222 
L 1856 1222 
z
M 4326 3270 
L 5222 3270 
L 5485 3590 
Q 5549 3661 5609 3661 
Q 5670 3661 5939 3421 
Q 6208 3181 6208 3117 
Q 6208 3072 6054 3072 
L 5050 3072 
Q 5638 2925 5638 2810 
Q 5638 2771 5542 2742 
Q 5446 2714 5404 2643 
Q 5363 2573 5338 2438 
Q 5088 1069 4749 518 
Q 5261 -186 6304 -646 
L 6246 -774 
Q 6080 -730 5933 -730 
Q 5658 -730 5446 -902 
Q 5389 -947 5363 -947 
Q 5299 -947 4934 -534 
Q 4570 -122 4448 102 
Q 4115 -301 3657 -579 
Q 3200 -858 2470 -1139 
L 2413 -1005 
Q 3642 -307 4211 544 
Q 3942 1152 3878 2342 
Q 3654 1946 3322 1491 
L 3213 1555 
Q 3949 2963 4109 4877 
Q 4333 4832 4563 4761 
Q 4794 4691 4858 4649 
Q 4922 4608 4922 4563 
Q 4922 4518 4813 4492 
Q 4704 4467 4653 4384 
Q 4602 4301 4538 3974 
Q 4474 3648 4326 3270 
z
M 4870 3072 
L 4250 3072 
L 4064 2682 
Q 4141 1594 4454 979 
Q 4723 1619 4870 3072 
z
M 3104 4602 
Q 3264 4525 3453 4422 
Q 3642 4320 3670 4288 
Q 3699 4256 3699 4221 
Q 3699 4186 3673 4170 
Q 3648 4154 3539 4154 
Q 3430 4154 3315 4038 
Q 2957 3680 2528 3392 
L 2464 3488 
Q 2906 4102 3104 4602 
z
M 653 4512 
Q 1171 4326 1353 4201 
Q 1536 4077 1536 3901 
Q 1536 3725 1453 3590 
Q 1370 3456 1286 3456 
Q 1203 3456 1164 3494 
Q 1126 3533 1084 3673 
Q 1043 3814 899 4038 
Q 755 4262 589 4429 
L 653 4512 
z
" transform="scale(0.015625)"/>
      </defs>
      <use xlink:href="#STZhongsong-6eb6"/>
      <use xlink:href="#STZhongsong-6db2" x="99.999985"/>
      <use xlink:href="#STZhongsong-4e2d" x="199.999969"/>
      <use xlink:href="#STZhongsong-4e59" x="299.999954"/>
      <use xlink:href="#STZhongsong-9170" x="399.999939"/>
      <use xlink:href="#STZhongsong-80c6" x="499.999924"/>
      <use xlink:href="#STZhongsong-78b1" x="599.999908"/>
      <use xlink:href="#STZhongsong-7684" x="699.999893"/>
      <use xlink:href="#STZhongsong-6d53" x="799.999878"/>
      <use xlink:href="#STZhongsong-5ea6" x="899.999863"/>
      <use xlink:href="#STZhongsong-5bf9" x="999.999847"/>
      <use xlink:href="#STZhongsong-6570" x="1099.999832"/>
     </g>
    </g>
   </g>
   <g id="matplotlib.axis_2">
    <g id="ytick_1">
     <g id="line2d_7">
      <defs>
       <path id="m770e89f4a5" d="M 0 0 
L -3.5 0 
" style="stroke: #000000; stroke-width: 0.8"/>
      </defs>
      <g>
       <use xlink:href="#m770e89f4a5" x="39.289303" y="357.308729" style="stroke: #000000; stroke-width: 0.8"/>
      </g>
     </g>
     <g id="text_8">
      <!-- 0.0 -->
      <g transform="translate(16.689303 360.888416) scale(0.1 -0.1)">
       <defs>
        <path id="STZhongsong-30" d="M 326 2182 
Q 326 3251 774 3843 
Q 1222 4435 1997 4435 
Q 2752 4435 3197 3827 
Q 3642 3219 3642 2144 
Q 3642 1139 3178 531 
Q 2714 -77 1952 -77 
Q 1229 -77 777 524 
Q 326 1126 326 2182 
z
M 3040 2182 
Q 3040 3104 2758 3616 
Q 2477 4128 1978 4128 
Q 1478 4128 1200 3590 
Q 922 3053 922 2118 
Q 922 1229 1210 733 
Q 1498 237 1971 237 
Q 2470 237 2755 752 
Q 3040 1267 3040 2182 
z
" transform="scale(0.015625)"/>
        <path id="STZhongsong-2e" d="M 634 339 
Q 634 506 749 618 
Q 864 730 1024 730 
Q 1184 730 1299 614 
Q 1414 499 1414 339 
Q 1414 173 1299 61 
Q 1184 -51 1024 -51 
Q 864 -51 749 61 
Q 634 173 634 339 
z
" transform="scale(0.015625)"/>
       </defs>
       <use xlink:href="#STZhongsong-30"/>
       <use xlink:href="#STZhongsong-2e" x="61.999985"/>
       <use xlink:href="#STZhongsong-30" x="93.999969"/>
      </g>
     </g>
    </g>
    <g id="ytick_2">
     <g id="line2d_8">
      <g>
       <use xlink:href="#m770e89f4a5" x="39.289303" y="301.360271" style="stroke: #000000; stroke-width: 0.8"/>
      </g>
     </g>
     <g id="text_9">
      <!-- 0.2 -->
      <g transform="translate(16.689303 304.939958) scale(0.1 -0.1)">
       <defs>
        <path id="STZhongsong-32" d="M 723 2714 
L 422 2675 
Q 397 2835 397 2989 
Q 397 3616 832 4025 
Q 1267 4435 1978 4435 
Q 2630 4435 3043 4064 
Q 3456 3693 3456 3098 
Q 3456 2669 3286 2349 
Q 3117 2029 2611 1603 
Q 2106 1178 1037 467 
L 2662 467 
Q 2963 467 3062 544 
Q 3162 621 3200 838 
L 3232 1018 
L 3494 1018 
L 3283 -154 
L 3085 -154 
L 3053 0 
L 320 0 
L 320 262 
L 819 640 
Q 1901 1453 2377 1977 
Q 2854 2502 2854 3066 
Q 2854 3507 2569 3788 
Q 2285 4070 1837 4070 
Q 1325 4070 1017 3753 
Q 710 3437 710 2918 
Q 710 2822 723 2714 
z
" transform="scale(0.015625)"/>
       </defs>
       <use xlink:href="#STZhongsong-30"/>
       <use xlink:href="#STZhongsong-2e" x="61.999985"/>
       <use xlink:href="#STZhongsong-32" x="93.999969"/>
      </g>
     </g>
    </g>
    <g id="ytick_3">
     <g id="line2d_9">
      <g>
       <use xlink:href="#m770e89f4a5" x="39.289303" y="245.411813" style="stroke: #000000; stroke-width: 0.8"/>
      </g>
     </g>
     <g id="text_10">
      <!-- 0.4 -->
      <g transform="translate(16.689303 248.9915) scale(0.1 -0.1)">
       <use xlink:href="#STZhongsong-30"/>
       <use xlink:href="#STZhongsong-2e" x="61.999985"/>
       <use xlink:href="#STZhongsong-34" x="93.999969"/>
      </g>
     </g>
    </g>
    <g id="ytick_4">
     <g id="line2d_10">
      <g>
       <use xlink:href="#m770e89f4a5" x="39.289303" y="189.463355" style="stroke: #000000; stroke-width: 0.8"/>
      </g>
     </g>
     <g id="text_11">
      <!-- 0.6 -->
      <g transform="translate(16.689303 193.043042) scale(0.1 -0.1)">
       <use xlink:href="#STZhongsong-30"/>
       <use xlink:href="#STZhongsong-2e" x="61.999985"/>
       <use xlink:href="#STZhongsong-36" x="93.999969"/>
      </g>
     </g>
    </g>
    <g id="ytick_5">
     <g id="line2d_11">
      <g>
       <use xlink:href="#m770e89f4a5" x="39.289303" y="133.514897" style="stroke: #000000; stroke-width: 0.8"/>
      </g>
     </g>
     <g id="text_12">
      <!-- 0.8 -->
      <g transform="translate(16.689303 137.094584) scale(0.1 -0.1)">
       <use xlink:href="#STZhongsong-30"/>
       <use xlink:href="#STZhongsong-2e" x="61.999985"/>
       <use xlink:href="#STZhongsong-38" x="93.999969"/>
      </g>
     </g>
    </g>
    <g id="ytick_6">
     <g id="line2d_12">
      <g>
       <use xlink:href="#m770e89f4a5" x="39.289303" y="77.566439" style="stroke: #000000; stroke-width: 0.8"/>
      </g>
     </g>
     <g id="text_13">
      <!-- 1.0 -->
      <g transform="translate(16.689303 81.146126) scale(0.1 -0.1)">
       <defs>
        <path id="STZhongsong-31" d="M 2150 4358 
L 2387 4358 
L 2387 742 
Q 2387 422 2464 342 
Q 2541 262 2822 262 
L 3130 262 
L 3130 0 
L 1069 0 
L 1069 262 
L 1408 262 
Q 1670 262 1766 348 
Q 1862 435 1862 742 
L 1862 3718 
L 1069 3718 
L 1069 3987 
Q 1709 4070 2150 4358 
z
" transform="scale(0.015625)"/>
       </defs>
       <use xlink:href="#STZhongsong-31"/>
       <use xlink:href="#STZhongsong-2e" x="61.999985"/>
       <use xlink:href="#STZhongsong-30" x="93.999969"/>
      </g>
     </g>
    </g>
    <g id="text_14">
     <!-- 肠张力平均值/g -->
     <g transform="translate(10.689303 253.137584) rotate(-90) scale(0.1 -0.1)">
      <defs>
       <path id="STZhongsong-80a0" d="M 3731 2342 
L 3334 2342 
L 3162 2208 
Q 3104 2163 3072 2163 
Q 2995 2163 2726 2554 
Q 2976 2643 3075 2694 
Q 3174 2746 3245 2816 
L 4621 4211 
L 3149 4211 
Q 3027 4211 2912 4166 
L 2752 4467 
Q 2906 4454 3078 4454 
L 4672 4454 
L 4928 4691 
Q 4986 4749 5053 4749 
Q 5120 4749 5414 4512 
Q 5709 4275 5709 4201 
Q 5709 4128 5561 4128 
Q 5414 4128 5318 4086 
Q 5222 4045 5082 3917 
L 3578 2554 
L 5344 2554 
L 5498 2771 
Q 5555 2861 5609 2861 
Q 5664 2861 5939 2672 
Q 6214 2483 6214 2438 
Q 6214 2381 5926 2240 
Q 5869 1242 5789 454 
Q 5709 -333 5574 -550 
Q 5440 -768 5149 -873 
Q 4858 -979 4768 -979 
Q 4717 -979 4691 -883 
Q 4646 -691 4592 -598 
Q 4538 -506 4400 -432 
Q 4262 -358 3949 -237 
L 3987 -102 
Q 4659 -243 4825 -243 
Q 4992 -243 5046 -179 
Q 5101 -115 5158 144 
Q 5216 403 5289 1036 
Q 5363 1670 5389 2342 
L 5133 2342 
Q 4902 1114 4412 477 
Q 3923 -160 2656 -800 
L 2605 -666 
Q 3501 -90 3955 598 
Q 4410 1286 4570 2342 
L 4262 2342 
Q 4032 1632 3680 1190 
Q 3328 749 2669 307 
L 2592 410 
Q 3034 851 3296 1292 
Q 3558 1734 3731 2342 
z
M 1952 1472 
L 1274 1472 
Q 1274 576 1018 9 
Q 762 -557 320 -1043 
L 186 -960 
Q 614 -262 694 464 
Q 774 1190 774 2073 
Q 774 2957 685 4653 
Q 966 4544 1280 4378 
L 1882 4378 
L 2029 4634 
Q 2067 4698 2128 4698 
Q 2189 4698 2355 4576 
L 2605 4390 
Q 2688 4326 2688 4268 
Q 2688 4211 2490 4128 
L 2490 -147 
Q 2490 -403 2435 -537 
Q 2381 -672 2147 -816 
Q 1914 -960 1843 -960 
Q 1773 -960 1766 -858 
Q 1754 -640 1645 -547 
Q 1536 -454 1114 -307 
L 1139 -179 
Q 1613 -243 1750 -243 
Q 1888 -243 1920 -208 
Q 1952 -173 1952 -83 
L 1952 1472 
z
M 1267 3027 
L 1952 3027 
L 1952 4141 
L 1254 4141 
L 1267 3027 
z
M 1952 2810 
L 1267 2810 
Q 1274 2470 1274 1690 
L 1952 1690 
L 1952 2810 
z
" transform="scale(0.015625)"/>
       <path id="STZhongsong-5f20" d="M 3693 2784 
Q 4493 3424 5114 4390 
Q 5434 4192 5616 4041 
Q 5798 3891 5798 3852 
Q 5798 3814 5692 3808 
Q 5587 3802 5510 3763 
Q 5434 3725 5312 3629 
Q 4678 3123 3693 2624 
L 3693 2272 
L 5024 2272 
L 5293 2592 
Q 5363 2682 5414 2682 
Q 5466 2682 5738 2442 
Q 6010 2202 6010 2138 
Q 6010 2074 5818 2074 
L 4307 2074 
Q 4563 1165 5008 630 
Q 5453 96 6221 -262 
L 6214 -365 
Q 5958 -358 5804 -400 
Q 5651 -442 5453 -621 
Q 5408 -659 5382 -659 
Q 5293 -659 4931 -214 
Q 4570 230 4387 768 
Q 4205 1306 4166 2074 
L 3693 2074 
L 3693 -160 
L 4550 224 
L 4602 115 
Q 3622 -646 3462 -954 
Q 3418 -1037 3373 -1037 
Q 3277 -1037 2938 -538 
Q 3162 -262 3162 13 
L 3162 2074 
L 2643 2074 
Q 2470 2074 2374 2029 
L 2259 2304 
Q 2394 2272 2579 2272 
L 3162 2272 
L 3162 4218 
Q 3162 4544 3142 4819 
Q 3942 4653 3942 4538 
Q 3942 4474 3693 4365 
L 3693 2784 
z
M 1312 3072 
L 1933 3072 
L 1933 4192 
L 659 4192 
Q 538 4192 429 4147 
L 262 4403 
Q 416 4390 582 4390 
L 1843 4390 
L 2010 4640 
Q 2067 4723 2128 4723 
Q 2189 4723 2438 4508 
Q 2688 4294 2688 4237 
Q 2688 4179 2470 4109 
L 2470 3475 
Q 2470 3136 2477 3040 
L 2483 2854 
Q 2483 2816 2409 2765 
Q 2336 2714 2179 2650 
Q 2022 2586 1977 2586 
Q 1933 2586 1933 2675 
L 1933 2867 
L 1254 2867 
L 1082 1702 
L 1805 1702 
L 1952 1907 
Q 1997 1971 2035 1971 
Q 2093 1971 2358 1776 
Q 2624 1581 2624 1520 
Q 2624 1459 2400 1350 
Q 2387 1005 2323 419 
Q 2259 -166 2204 -336 
Q 2150 -506 1996 -656 
Q 1843 -806 1606 -908 
Q 1370 -1011 1315 -1011 
Q 1261 -1011 1235 -902 
Q 1190 -704 1036 -579 
Q 883 -454 403 -256 
L 467 -122 
Q 1101 -294 1321 -294 
Q 1542 -294 1622 -185 
Q 1702 -77 1760 323 
Q 1818 723 1869 1517 
L 1120 1517 
L 960 1286 
Q 928 1242 886 1242 
Q 845 1242 691 1322 
Q 538 1402 314 1555 
Q 576 1715 608 1952 
L 730 2886 
Q 768 3123 768 3309 
Q 1075 3200 1312 3072 
z
" transform="scale(0.015625)"/>
       <path id="STZhongsong-529b" d="M 3181 3341 
L 4563 3341 
L 4755 3629 
Q 4800 3693 4838 3693 
Q 4877 3693 5190 3520 
Q 5504 3347 5504 3273 
Q 5504 3200 5248 3072 
Q 5229 2336 5152 1337 
Q 5075 339 5014 48 
Q 4954 -243 4771 -470 
Q 4589 -698 4288 -861 
Q 3987 -1024 3910 -1024 
Q 3834 -1024 3802 -883 
Q 3725 -563 3577 -432 
Q 3430 -301 2989 -160 
L 3034 -38 
Q 3706 -198 3939 -198 
Q 4173 -198 4265 -96 
Q 4358 6 4416 217 
Q 4474 429 4531 1235 
Q 4589 2042 4627 3155 
L 3162 3155 
Q 3014 1914 2873 1395 
Q 2733 877 2438 457 
Q 2144 38 1645 -333 
Q 1146 -704 320 -1139 
L 256 -1024 
Q 1184 -371 1632 176 
Q 2080 723 2256 1344 
Q 2432 1965 2547 3155 
L 915 3155 
Q 742 3155 646 3110 
L 531 3373 
Q 666 3341 851 3341 
L 2560 3341 
Q 2630 4077 2630 4890 
Q 3565 4659 3565 4563 
Q 3565 4525 3459 4480 
Q 3354 4435 3322 4374 
Q 3290 4314 3258 4032 
L 3181 3341 
z
" transform="scale(0.015625)"/>
       <path id="STZhongsong-5e73" d="M 3002 4006 
L 1197 4006 
Q 1024 4006 928 3962 
L 813 4205 
Q 947 4173 1133 4173 
L 4691 4173 
L 4979 4595 
Q 5037 4685 5104 4685 
Q 5171 4685 5510 4413 
Q 5850 4141 5850 4073 
Q 5850 4006 5715 4006 
L 3578 4006 
L 3578 1594 
L 4960 1594 
L 5286 2048 
Q 5350 2131 5401 2131 
Q 5453 2131 5673 1964 
Q 5894 1798 6038 1680 
Q 6182 1562 6182 1491 
Q 6182 1421 6067 1421 
L 3578 1421 
L 3578 -141 
Q 3578 -352 3590 -589 
L 3597 -806 
Q 3597 -858 3549 -893 
Q 3501 -928 3293 -998 
Q 3085 -1069 3021 -1069 
Q 2982 -1069 2982 -966 
L 3002 -141 
L 3002 1421 
L 646 1421 
Q 474 1421 378 1376 
L 262 1626 
Q 397 1594 582 1594 
L 3002 1594 
L 3002 4006 
z
M 4800 3654 
Q 5043 3494 5209 3356 
Q 5376 3219 5405 3184 
Q 5434 3149 5434 3117 
Q 5434 3053 5325 3046 
Q 5216 3040 5168 3014 
Q 5120 2989 5050 2918 
Q 4320 2227 3808 1850 
L 3718 1933 
Q 4339 2669 4800 3654 
z
M 1453 3603 
Q 1926 3334 2201 3107 
Q 2477 2880 2477 2646 
Q 2477 2413 2329 2217 
Q 2182 2022 2054 2022 
Q 1971 2022 1939 2086 
Q 1907 2150 1888 2298 
Q 1824 2918 1363 3520 
L 1453 3603 
z
" transform="scale(0.015625)"/>
       <path id="STZhongsong-5747" d="M 3725 3462 
Q 3251 2541 2534 1869 
L 2432 1958 
Q 2829 2547 3059 3132 
Q 3290 3718 3648 4947 
Q 3968 4845 4224 4710 
Q 4480 4576 4480 4537 
Q 4480 4499 4342 4464 
Q 4205 4429 4150 4307 
Q 4096 4186 3834 3667 
L 5178 3667 
L 5338 3898 
Q 5370 3936 5408 3936 
Q 5466 3936 5782 3741 
Q 6099 3546 6099 3472 
Q 6099 3398 5811 3264 
Q 5779 1792 5737 982 
Q 5696 173 5654 -51 
Q 5613 -275 5475 -428 
Q 5338 -582 5021 -729 
Q 4704 -877 4627 -877 
Q 4570 -877 4538 -762 
Q 4486 -550 4329 -435 
Q 4173 -320 3661 -147 
L 3699 -13 
Q 4333 -102 4566 -102 
Q 4800 -102 4899 -60 
Q 4998 -19 5036 57 
Q 5075 134 5107 361 
Q 5139 589 5164 960 
Q 5190 1331 5203 2016 
L 5235 3462 
L 3725 3462 
z
M 1395 2739 
L 685 2739 
Q 512 2739 416 2694 
L 301 2982 
Q 435 2950 621 2950 
L 1395 2950 
L 1395 4307 
Q 1395 4627 1382 4877 
Q 2189 4749 2189 4646 
Q 2189 4595 1926 4493 
L 1926 2950 
L 2035 2950 
L 2240 3251 
Q 2278 3302 2310 3302 
Q 2374 3302 2611 3059 
Q 2848 2816 2848 2777 
Q 2848 2739 2752 2739 
L 1926 2739 
L 1926 1050 
L 2938 1325 
L 2976 1210 
L 1395 410 
Q 896 160 765 64 
Q 634 -32 602 -32 
Q 538 -32 198 646 
Q 813 749 1395 902 
L 1395 2739 
z
M 3558 2778 
Q 4122 2592 4317 2445 
Q 4512 2298 4512 2125 
Q 4512 1952 4422 1821 
Q 4333 1690 4230 1690 
Q 4192 1690 4157 1728 
Q 4122 1766 4026 1971 
Q 3930 2176 3837 2304 
Q 3744 2432 3494 2662 
L 3558 2778 
z
M 5037 1261 
L 3853 653 
Q 3078 256 3001 211 
Q 2925 166 2893 166 
Q 2861 166 2842 205 
L 2733 416 
Q 2637 589 2560 762 
Q 3059 838 3610 992 
L 4998 1376 
L 5037 1261 
z
" transform="scale(0.015625)"/>
       <path id="STZhongsong-503c" d="M 1037 2362 
Q 608 1741 160 1293 
L 70 1376 
Q 1088 2848 1600 4845 
Q 2323 4557 2323 4480 
Q 2323 4448 2202 4397 
Q 2125 4365 2057 4253 
Q 1990 4141 1785 3689 
Q 1581 3238 1414 2963 
Q 1702 2906 1702 2845 
Q 1702 2784 1581 2694 
L 1581 -787 
Q 1581 -851 1533 -889 
Q 1485 -928 1296 -992 
Q 1107 -1056 1043 -1056 
Q 1011 -1056 1011 -986 
L 1030 -384 
Q 1037 -102 1037 147 
L 1037 2362 
z
M 3059 3040 
L 3373 3040 
L 3456 3782 
L 2413 3782 
Q 2266 3782 2195 3744 
L 2093 4013 
Q 2214 3981 2362 3981 
L 3475 3981 
L 3507 4256 
Q 3533 4634 3520 4838 
Q 4000 4717 4150 4662 
Q 4301 4608 4301 4560 
Q 4301 4512 4090 4397 
L 4026 3981 
L 4992 3981 
L 5286 4397 
Q 5325 4454 5357 4454 
Q 5434 4454 5728 4185 
Q 6022 3917 6022 3849 
Q 6022 3782 5888 3782 
L 3994 3782 
L 3878 3040 
L 4506 3040 
L 4659 3290 
Q 4691 3341 4736 3341 
Q 4781 3341 4989 3209 
Q 5197 3078 5270 3030 
Q 5344 2982 5344 2924 
Q 5344 2867 5107 2746 
L 5107 -454 
L 5248 -454 
L 5523 -77 
Q 5587 13 5657 13 
Q 5728 13 5955 -252 
Q 6182 -518 6182 -585 
Q 6182 -653 6054 -653 
L 2061 -653 
Q 1914 -653 1843 -691 
L 1741 -422 
Q 1862 -454 2010 -454 
L 2426 -454 
L 2426 2733 
Q 2426 2995 2406 3277 
Q 2835 3142 3059 3040 
z
M 4538 2208 
L 4538 2848 
L 2963 2848 
L 2963 2208 
L 4538 2208 
z
M 4538 1363 
L 4538 1978 
L 2963 1978 
L 2963 1363 
L 4538 1363 
z
M 4538 525 
L 4538 1165 
L 2963 1165 
L 2963 525 
L 4538 525 
z
M 4538 -454 
L 4538 326 
L 2963 326 
L 2963 -454 
L 4538 -454 
z
" transform="scale(0.015625)"/>
       <path id="STZhongsong-2f" d="M 3194 4909 
L 928 -1069 
L 467 -1069 
L 2720 4909 
L 3194 4909 
z
" transform="scale(0.015625)"/>
       <path id="STZhongsong-67" d="M 2714 2790 
Q 2995 3098 3264 3098 
Q 3373 3098 3453 3030 
Q 3533 2963 3533 2874 
Q 3533 2778 3462 2714 
Q 3392 2650 3283 2650 
Q 3226 2650 3149 2662 
L 3008 2682 
Q 2944 2682 2861 2611 
Q 3053 2387 3053 2080 
Q 3053 1664 2685 1366 
Q 2317 1069 1773 1069 
Q 1466 1069 1158 1184 
Q 973 1075 925 1020 
Q 877 966 877 902 
Q 877 813 985 752 
Q 1094 691 1440 640 
L 2342 512 
Q 2950 416 3238 217 
Q 3526 19 3526 -333 
Q 3526 -781 3014 -1017 
Q 2502 -1254 1760 -1254 
Q 1062 -1254 675 -1052 
Q 288 -851 288 -557 
Q 288 -186 998 282 
Q 710 352 560 454 
Q 410 557 410 730 
Q 410 902 502 988 
Q 595 1075 941 1306 
Q 480 1619 480 2080 
Q 480 2509 854 2803 
Q 1229 3098 1792 3098 
Q 2061 3098 2269 3027 
Q 2477 2957 2714 2790 
z
M 2502 2074 
Q 2502 2406 2294 2614 
Q 2086 2822 1760 2822 
Q 1453 2822 1241 2604 
Q 1030 2387 1030 2074 
Q 1030 1766 1248 1548 
Q 1466 1331 1766 1331 
Q 2086 1331 2294 1545 
Q 2502 1760 2502 2074 
z
M 1261 218 
Q 762 -198 762 -474 
Q 762 -691 1027 -828 
Q 1293 -966 1779 -966 
Q 2310 -966 2684 -816 
Q 3059 -666 3059 -390 
Q 3059 -173 2790 -73 
Q 2522 26 2272 64 
L 1261 218 
z
" transform="scale(0.015625)"/>
      </defs>
      <use xlink:href="#STZhongsong-80a0"/>
      <use xlink:href="#STZhongsong-5f20" x="99.999985"/>
      <use xlink:href="#STZhongsong-529b" x="199.999969"/>
      <use xlink:href="#STZhongsong-5e73" x="299.999954"/>
      <use xlink:href="#STZhongsong-5747" x="399.999939"/>
      <use xlink:href="#STZhongsong-503c" x="499.999924"/>
      <use xlink:href="#STZhongsong-2f" x="599.999908"/>
      <use xlink:href="#STZhongsong-67" x="659.999893"/>
     </g>
    </g>
   </g>
   <g id="line2d_13">
    <path d="M 104.724843 367.785404 
L 249.544832 87.850195 
L 249.544832 87.850195 
" clip-path="url(#p5550f93018)" style="fill: none; stroke: #eab0ac; stroke-width: 1.5; stroke-linecap: square"/>
   </g>
   <g id="LineCollection_1">
    <path d="M 182.504876 399.270072 
L 182.504876 217.437584 
" clip-path="url(#p5550f93018)" style="fill: none; stroke-dasharray: 5.55,2.4; stroke-dashoffset: 0; stroke: #eab0ac; stroke-width: 1.5"/>
   </g>
   <g id="LineCollection_2">
    <path d="M 39.289303 217.437584 
L 182.504876 217.437584 
" clip-path="url(#p5550f93018)" style="fill: none; stroke-dasharray: 5.55,2.4; stroke-dashoffset: 0; stroke: #eab0ac; stroke-width: 1.5"/>
   </g>
   <g id="patch_3">
    <path d="M 39.289303 399.270072 
L 39.289303 35.605095 
" style="fill: none; stroke: #000000; stroke-width: 0.8; stroke-linejoin: miter; stroke-linecap: square"/>
   </g>
   <g id="patch_4">
    <path d="M 356.4 399.270072 
L 356.4 35.605095 
" style="fill: none; stroke: #000000; stroke-width: 0.8; stroke-linejoin: miter; stroke-linecap: square"/>
   </g>
   <g id="patch_5">
    <path d="M 39.289303 399.270072 
L 356.4 399.270072 
" style="fill: none; stroke: #000000; stroke-width: 0.8; stroke-linejoin: miter; stroke-linecap: square"/>
   </g>
   <g id="patch_6">
    <path d="M 39.289303 35.605095 
L 356.4 35.605095 
" style="fill: none; stroke: #000000; stroke-width: 0.8; stroke-linejoin: miter; stroke-linecap: square"/>
   </g>
   <g id="text_15">
    <!-- -6.65 -->
    <g style="fill: #eab0ac" transform="translate(172.437869 411.858476) scale(0.1 -0.1)">
     <defs>
      <path id="STZhongsong-2d" d="M 352 1786 
L 2208 1786 
L 2208 1395 
L 352 1395 
L 352 1786 
z
" transform="scale(0.015625)"/>
     </defs>
     <use xlink:href="#STZhongsong-2d"/>
     <use xlink:href="#STZhongsong-36" x="39.999985"/>
     <use xlink:href="#STZhongsong-2e" x="101.999969"/>
     <use xlink:href="#STZhongsong-36" x="133.999954"/>
     <use xlink:href="#STZhongsong-35" x="195.999939"/>
    </g>
   </g>
   <g id="text_16">
    <!-- 0.5 -->
    <g style="fill: #eab0ac" transform="translate(19.15529 217.437584) scale(0.1 -0.1)">
     <use xlink:href="#STZhongsong-30"/>
     <use xlink:href="#STZhongsong-2e" x="61.999985"/>
     <use xlink:href="#STZhongsong-35" x="93.999969"/>
    </g>
   </g>
   <g id="text_17">
    <!-- 对照组实验数据 -->
    <g transform="translate(155.844651 29.605095) scale(0.12 -0.12)">
     <defs>
      <path id="STZhongsong-7167" d="M 3776 4250 
L 3315 4250 
Q 3142 4250 3046 4205 
L 2931 4480 
Q 3066 4448 3251 4448 
L 5069 4448 
L 5267 4698 
Q 5318 4762 5369 4762 
Q 5421 4762 5680 4602 
Q 5939 4442 5939 4378 
Q 5939 4314 5715 4192 
Q 5651 3462 5584 3180 
Q 5517 2899 5190 2720 
Q 4864 2541 4787 2541 
Q 4730 2541 4672 2688 
Q 4589 2925 4096 3091 
L 4122 3206 
Q 4557 3130 4761 3130 
Q 4966 3130 5030 3245 
Q 5094 3360 5145 3715 
Q 5197 4070 5197 4250 
L 4320 4250 
Q 4198 3430 3878 3049 
Q 3558 2669 2816 2374 
L 2726 2490 
Q 3251 2816 3491 3190 
Q 3731 3565 3776 4250 
z
M 1331 4333 
L 2093 4333 
L 2272 4563 
Q 2304 4614 2345 4614 
Q 2387 4614 2627 4460 
Q 2867 4307 2867 4256 
Q 2867 4205 2682 4122 
L 2682 1638 
L 2694 1062 
Q 2694 986 2681 970 
Q 2669 954 2566 890 
Q 2464 826 2345 778 
Q 2227 730 2198 730 
Q 2170 730 2170 806 
L 2170 1114 
L 1286 1114 
L 1286 979 
Q 1286 909 1222 854 
Q 1158 800 1020 745 
Q 883 691 800 691 
Q 768 691 774 749 
Q 806 1062 806 1389 
L 806 4013 
Q 806 4282 787 4557 
Q 1050 4480 1331 4333 
z
M 2170 2810 
L 2170 4134 
L 1286 4134 
L 1286 2810 
L 2170 2810 
z
M 2170 1312 
L 2170 2611 
L 1286 2611 
L 1286 1312 
L 2170 1312 
z
M 3936 2355 
L 4992 2355 
L 5165 2554 
Q 5216 2611 5270 2611 
Q 5325 2611 5539 2454 
Q 5754 2298 5754 2253 
Q 5754 2208 5594 2099 
L 5594 1254 
Q 5594 1158 5600 1082 
L 5613 947 
Q 5613 864 5379 765 
Q 5146 666 5110 666 
Q 5075 666 5075 736 
L 5075 1037 
L 3878 1037 
L 3878 845 
Q 3878 794 3820 762 
Q 3763 730 3593 688 
Q 3424 646 3347 646 
Q 3315 646 3322 710 
Q 3354 928 3354 1190 
L 3354 2067 
Q 3354 2330 3334 2605 
Q 3571 2541 3936 2355 
z
M 5075 1242 
L 5075 2170 
L 3878 2170 
L 3878 1242 
L 5075 1242 
z
M 4742 672 
Q 5517 262 5789 38 
Q 6061 -186 6061 -362 
Q 6061 -538 5981 -717 
Q 5901 -896 5734 -896 
Q 5632 -896 5530 -666 
Q 5254 -26 4678 557 
L 4742 672 
z
M 2118 627 
Q 2509 333 2697 102 
Q 2886 -128 2886 -317 
Q 2886 -506 2771 -694 
Q 2656 -883 2464 -883 
Q 2355 -883 2323 -528 
Q 2291 -173 2217 57 
Q 2144 288 1997 557 
L 2118 627 
z
M 1318 608 
Q 1331 410 1331 250 
Q 1331 -422 1065 -697 
Q 800 -973 563 -973 
Q 422 -973 345 -889 
Q 269 -806 269 -707 
Q 269 -608 506 -435 
Q 819 -211 960 25 
Q 1101 262 1184 621 
L 1318 608 
z
M 3558 557 
Q 4026 282 4266 45 
Q 4506 -192 4506 -387 
Q 4506 -582 4397 -732 
Q 4288 -883 4154 -883 
Q 4051 -883 3981 -614 
Q 3827 -58 3450 467 
L 3558 557 
z
" transform="scale(0.015625)"/>
      <path id="STZhongsong-7ec4" d="M 1632 2394 
Q 858 2202 531 2029 
Q 493 2010 461 2010 
Q 429 2010 358 2144 
Q 288 2278 179 2528 
Q 365 2605 461 2665 
Q 557 2726 633 2835 
Q 710 2944 892 3318 
Q 1075 3693 1209 4051 
Q 1344 4410 1446 4806 
Q 1798 4653 2000 4534 
Q 2202 4416 2202 4371 
Q 2202 4326 2080 4314 
Q 1978 4294 1856 4102 
Q 1318 3213 800 2573 
L 1754 2611 
Q 1990 3059 2182 3590 
Q 2790 3174 2790 3078 
Q 2790 3027 2707 3014 
Q 2624 3002 2573 2957 
Q 2522 2912 2413 2758 
Q 1958 2131 1274 1338 
L 2758 1357 
L 2752 1197 
Q 2016 1062 1536 944 
Q 1056 826 909 710 
Q 858 666 813 666 
Q 768 666 736 762 
L 531 1235 
Q 730 1254 829 1302 
Q 928 1350 1005 1443 
Q 1082 1536 1283 1833 
Q 1485 2131 1632 2394 
z
M 3590 4237 
L 4723 4237 
L 4845 4467 
Q 4890 4538 4954 4538 
Q 5018 4538 5312 4365 
Q 5606 4192 5606 4131 
Q 5606 4070 5350 3930 
L 5350 -320 
L 5382 -320 
L 5594 19 
Q 5638 90 5699 90 
Q 5760 90 5987 -137 
Q 6214 -365 6214 -435 
Q 6214 -486 6035 -486 
L 2189 -486 
Q 2016 -486 1920 -531 
L 1805 -288 
Q 1939 -320 2125 -320 
L 2950 -320 
L 2950 3750 
Q 2950 4243 2931 4538 
Q 3283 4422 3590 4237 
z
M 4787 2816 
L 4787 4038 
L 3494 4038 
L 3494 2816 
L 4787 2816 
z
M 4787 1382 
L 4787 2618 
L 3494 2618 
L 3494 1382 
L 4787 1382 
z
M 4787 -320 
L 4787 1171 
L 3494 1171 
L 3494 -320 
L 4787 -320 
z
M 2803 365 
L 1613 -128 
Q 1018 -365 819 -512 
Q 755 -557 723 -557 
Q 646 -557 307 102 
Q 1472 218 2778 480 
L 2803 365 
z
" transform="scale(0.015625)"/>
      <path id="STZhongsong-5b9e" d="M 3066 3910 
Q 2976 4301 2873 4496 
Q 2771 4691 2554 4883 
L 2598 4998 
Q 3136 4883 3398 4742 
Q 3661 4602 3661 4410 
Q 3661 4294 3574 4150 
Q 3488 4006 3302 3910 
L 5075 3910 
L 5267 4173 
Q 5331 4262 5398 4262 
Q 5466 4262 5792 4032 
Q 6118 3802 6118 3718 
Q 6118 3635 5939 3628 
Q 5760 3622 5622 3532 
Q 5485 3443 4966 2893 
L 4864 2950 
Q 5056 3379 5146 3731 
L 1363 3731 
Q 1389 3258 1197 2992 
Q 1005 2726 730 2726 
Q 595 2726 508 2790 
Q 422 2854 422 2969 
Q 422 3085 614 3219 
Q 1075 3539 1178 4250 
L 1299 4250 
Q 1338 4013 1350 3910 
L 3066 3910 
z
M 3661 934 
Q 3622 762 3539 608 
Q 4416 339 4848 147 
Q 5280 -45 5427 -227 
Q 5574 -410 5574 -614 
Q 5574 -819 5504 -934 
Q 5434 -1050 5350 -1050 
Q 5197 -1050 5062 -851 
Q 4691 -346 4374 -64 
Q 4058 218 3482 506 
Q 2880 -499 448 -1088 
L 403 -966 
Q 2630 -141 3059 934 
L 736 934 
Q 608 934 474 883 
L 307 1152 
Q 480 1133 691 1133 
L 3123 1133 
Q 3264 1715 3290 3635 
Q 3578 3565 3805 3485 
Q 4032 3405 4089 3369 
Q 4147 3334 4147 3289 
Q 4147 3245 4051 3209 
Q 3955 3174 3920 3123 
Q 3885 3072 3872 2912 
Q 3795 1600 3706 1133 
L 4998 1133 
L 5293 1555 
Q 5357 1651 5433 1651 
Q 5510 1651 5824 1353 
Q 6138 1056 6138 986 
Q 6138 934 5997 934 
L 3661 934 
z
M 1901 3450 
Q 2330 3290 2560 3130 
Q 2790 2970 2790 2787 
Q 2790 2605 2684 2461 
Q 2579 2317 2489 2317 
Q 2400 2317 2371 2352 
Q 2342 2387 2281 2608 
Q 2221 2829 2118 3005 
Q 2016 3181 1843 3341 
L 1901 3450 
z
M 1453 2381 
Q 1933 2240 2179 2086 
Q 2426 1933 2426 1747 
Q 2426 1562 2320 1408 
Q 2214 1254 2118 1254 
Q 2022 1254 1980 1296 
Q 1939 1338 1907 1459 
Q 1786 1946 1402 2266 
L 1453 2381 
z
" transform="scale(0.015625)"/>
      <path id="STZhongsong-9a8c" d="M 4275 4557 
Q 4723 3334 6266 2797 
L 6253 2694 
Q 5958 2694 5795 2652 
Q 5632 2611 5565 2528 
Q 5498 2445 5466 2445 
Q 5376 2445 5053 2761 
Q 4730 3078 4493 3520 
Q 4256 3962 4173 4467 
Q 3590 3053 2349 2272 
L 2278 2355 
Q 2829 2925 3184 3539 
Q 3539 4154 3770 5005 
Q 4275 4826 4374 4768 
Q 4474 4710 4474 4672 
Q 4474 4608 4275 4557 
z
M 1632 1926 
L 1888 4256 
L 710 4256 
Q 589 4256 480 4211 
L 314 4454 
Q 454 4442 634 4442 
L 1882 4442 
L 2042 4621 
Q 2080 4659 2112 4659 
Q 2144 4659 2288 4547 
Q 2432 4435 2547 4342 
Q 2662 4250 2662 4218 
Q 2662 4160 2381 4026 
L 2106 1926 
L 2150 1926 
L 2272 2054 
Q 2304 2093 2336 2093 
Q 2368 2093 2582 1949 
Q 2797 1805 2797 1760 
Q 2797 1702 2579 1606 
Q 2470 307 2355 -150 
Q 2240 -608 1910 -781 
Q 1581 -954 1478 -954 
Q 1427 -954 1414 -877 
Q 1389 -685 1331 -592 
Q 1274 -499 1110 -409 
Q 947 -320 550 -173 
L 570 -64 
Q 1197 -218 1449 -218 
Q 1702 -218 1785 -77 
Q 1869 64 1958 656 
Q 2048 1248 2080 1741 
L 1133 1741 
L 1030 1581 
Q 986 1510 941 1510 
Q 838 1510 410 1766 
Q 557 1850 605 1933 
Q 653 2016 666 2163 
L 794 3418 
Q 813 3597 813 3910 
Q 1491 3750 1491 3667 
Q 1491 3610 1286 3520 
L 1120 1926 
L 1632 1926 
z
M 4493 2458 
L 4704 2739 
Q 4749 2797 4793 2797 
Q 4838 2797 5049 2589 
Q 5261 2381 5261 2329 
Q 5261 2278 5165 2278 
L 3219 2278 
Q 3046 2278 2950 2234 
L 2835 2490 
Q 2970 2458 3155 2458 
L 4493 2458 
z
M 3686 2131 
Q 4064 1690 4246 1357 
Q 4429 1024 4429 825 
Q 4429 627 4307 451 
Q 4186 275 4045 275 
Q 3987 275 3971 307 
Q 3955 339 3955 416 
Q 3955 979 3852 1360 
Q 3750 1741 3590 2086 
L 3686 2131 
z
M 4288 -454 
Q 4627 371 4998 2131 
Q 5754 1888 5754 1786 
Q 5754 1728 5587 1696 
Q 5478 1670 5414 1491 
Q 5082 602 4518 -454 
L 5094 -454 
L 5357 -90 
Q 5414 -6 5494 -6 
Q 5574 -6 5833 -256 
Q 6093 -506 6093 -573 
Q 6093 -640 5971 -640 
L 2854 -640 
Q 2682 -640 2586 -685 
L 2470 -422 
Q 2605 -454 2790 -454 
L 4288 -454 
z
M 3014 1946 
Q 3424 1286 3533 1027 
Q 3642 768 3642 541 
Q 3642 314 3504 134 
Q 3366 -45 3238 -45 
Q 3142 -45 3142 115 
Q 3142 794 3104 1085 
Q 3066 1376 2918 1914 
L 3014 1946 
z
M 1952 992 
L 986 499 
Q 723 371 624 288 
Q 525 205 502 205 
Q 480 205 464 224 
Q 448 243 368 387 
Q 288 531 205 723 
Q 608 755 1920 1094 
L 1952 992 
z
" transform="scale(0.015625)"/>
      <path id="STZhongsong-636e" d="M 1261 3085 
L 582 3085 
Q 422 3085 307 3053 
L 198 3302 
Q 333 3270 518 3270 
L 1261 3270 
L 1261 4109 
Q 1261 4480 1248 4800 
Q 1619 4698 1811 4618 
Q 2003 4538 2003 4502 
Q 2003 4467 1779 4378 
L 1779 3270 
L 1882 3270 
L 2080 3558 
Q 2125 3622 2173 3622 
Q 2221 3622 2256 3590 
Q 2291 3558 2441 3408 
Q 2592 3258 2624 3219 
Q 2656 3181 2656 3149 
Q 2656 3085 2547 3085 
L 1779 3085 
L 1779 2234 
L 2554 2605 
L 2605 2483 
L 1779 1901 
L 1779 -282 
Q 1779 -422 1708 -521 
Q 1638 -621 1404 -761 
Q 1171 -902 1114 -902 
Q 1069 -902 1043 -813 
Q 992 -627 861 -531 
Q 730 -435 358 -333 
L 397 -218 
Q 806 -262 985 -262 
Q 1165 -262 1213 -217 
Q 1261 -173 1261 -45 
L 1261 1530 
Q 851 1235 771 1136 
Q 691 1037 643 1037 
Q 595 1037 576 1062 
L 416 1274 
Q 282 1446 192 1581 
Q 800 1773 1261 1990 
L 1261 3085 
z
M 3302 4378 
L 4902 4378 
L 5069 4621 
Q 5120 4704 5171 4704 
Q 5210 4704 5482 4515 
Q 5754 4326 5754 4282 
Q 5754 4224 5517 4109 
L 5517 3373 
Q 5517 3219 5526 3158 
Q 5536 3098 5536 3062 
Q 5536 3027 5475 2985 
Q 5414 2944 5248 2877 
Q 5082 2810 5027 2810 
Q 4973 2810 4973 2906 
L 4973 3136 
L 3226 3136 
Q 3187 2291 3174 2099 
L 4096 2099 
L 4096 2598 
Q 4096 2810 4077 3066 
Q 4755 2963 4755 2880 
Q 4755 2835 4595 2746 
L 4595 2099 
L 5286 2099 
L 5530 2426 
Q 5581 2496 5606 2496 
Q 5651 2496 5923 2243 
Q 6195 1990 6195 1948 
Q 6195 1907 6048 1907 
L 4595 1907 
L 4595 947 
L 4947 947 
L 5062 1165 
Q 5107 1254 5155 1254 
Q 5203 1254 5459 1084 
Q 5715 915 5715 870 
Q 5715 826 5549 749 
L 5549 -346 
L 5562 -640 
Q 5562 -691 5504 -736 
Q 5446 -781 5283 -848 
Q 5120 -915 5065 -915 
Q 5011 -915 5011 -826 
L 5011 -435 
L 3712 -435 
L 3712 -755 
Q 3712 -851 3673 -880 
Q 3635 -909 3475 -963 
Q 3315 -1018 3245 -1018 
Q 3206 -1018 3213 -934 
Q 3238 -723 3238 -480 
L 3238 634 
Q 3238 902 3219 1178 
Q 3494 1094 3763 947 
L 4096 947 
L 4096 1907 
L 3162 1907 
Q 3098 864 2794 288 
Q 2490 -288 1715 -998 
L 1626 -922 
Q 2426 -19 2570 925 
Q 2714 1869 2714 3232 
Q 2714 3827 2682 4646 
Q 3066 4518 3302 4378 
z
M 4973 3315 
L 4973 4186 
L 3258 4186 
Q 3258 3981 3232 3315 
L 4973 3315 
z
M 5011 -262 
L 5011 762 
L 3712 762 
L 3712 -262 
L 5011 -262 
z
" transform="scale(0.015625)"/>
     </defs>
     <use xlink:href="#STZhongsong-5bf9"/>
     <use xlink:href="#STZhongsong-7167" x="99.999985"/>
     <use xlink:href="#STZhongsong-7ec4" x="199.999969"/>
     <use xlink:href="#STZhongsong-5b9e" x="299.999954"/>
     <use xlink:href="#STZhongsong-9a8c" x="399.999939"/>
     <use xlink:href="#STZhongsong-6570" x="499.999924"/>
     <use xlink:href="#STZhongsong-636e" x="599.999908"/>
    </g>
   </g>
  </g>
  <g id="axes_2">
   <g id="patch_7">
    <path d="M 399.889062 399.270072 
L 716.99976 399.270072 
L 716.99976 35.605095 
L 399.889062 35.605095 
z
" style="fill: #ffffff"/>
   </g>
   <g id="PathCollection_3">
    <defs>
     <path id="m7cfe5d4b75" d="M -2.738613 0 
L 2.738613 0 
M 0 2.738613 
L 0 -2.738613 
" style="stroke: #89c9c8; stroke-width: 1.5"/>
    </defs>
    <g clip-path="url(#p6330f11b52)">
     <use xlink:href="#m7cfe5d4b75" x="425.056578" y="369.705616" style="fill: #89c9c8; stroke: #89c9c8; stroke-width: 1.5"/>
     <use xlink:href="#m7cfe5d4b75" x="449.072491" y="370.44731" style="fill: #89c9c8; stroke: #89c9c8; stroke-width: 1.5"/>
     <use xlink:href="#m7cfe5d4b75" x="475.39161" y="371.913039" style="fill: #89c9c8; stroke: #89c9c8; stroke-width: 1.5"/>
     <use xlink:href="#m7cfe5d4b75" x="499.407523" y="370.871135" style="fill: #89c9c8; stroke: #89c9c8; stroke-width: 1.5"/>
     <use xlink:href="#m7cfe5d4b75" x="525.726641" y="350.774757" style="fill: #89c9c8; stroke: #89c9c8; stroke-width: 1.5"/>
     <use xlink:href="#m7cfe5d4b75" x="549.742554" y="303.942073" style="fill: #89c9c8; stroke: #89c9c8; stroke-width: 1.5"/>
     <use xlink:href="#m7cfe5d4b75" x="576.061672" y="217.517051" style="fill: #89c9c8; stroke: #89c9c8; stroke-width: 1.5"/>
     <use xlink:href="#m7cfe5d4b75" x="600.077586" y="134.694543" style="fill: #89c9c8; stroke: #89c9c8; stroke-width: 1.5"/>
     <use xlink:href="#m7cfe5d4b75" x="626.396704" y="107.958237" style="fill: #89c9c8; stroke: #89c9c8; stroke-width: 1.5"/>
     <use xlink:href="#m7cfe5d4b75" x="650.412617" y="126.447611" style="fill: #89c9c8; stroke: #89c9c8; stroke-width: 1.5"/>
     <use xlink:href="#m7cfe5d4b75" x="676.731735" y="121.185115" style="fill: #89c9c8; stroke: #89c9c8; stroke-width: 1.5"/>
     <use xlink:href="#m7cfe5d4b75" x="700.747648" y="77.566439" style="fill: #89c9c8; stroke: #89c9c8; stroke-width: 1.5"/>
    </g>
   </g>
   <g id="PathCollection_4">
    <defs>
     <path id="mbafe276ee5" d="M 0 3.535534 
C 0.937635 3.535534 1.836992 3.163008 2.5 2.5 
C 3.163008 1.836992 3.535534 0.937635 3.535534 0 
C 3.535534 -0.937635 3.163008 -1.836992 2.5 -2.5 
C 1.836992 -3.163008 0.937635 -3.535534 0 -3.535534 
C -0.937635 -3.535534 -1.836992 -3.163008 -2.5 -2.5 
C -3.163008 -1.836992 -3.535534 -0.937635 -3.535534 0 
C -3.535534 0.937635 -3.163008 1.836992 -2.5 2.5 
C -1.836992 3.163008 -0.937635 3.535534 0 3.535534 
z
" style="stroke: #89c9c8"/>
    </defs>
    <g clip-path="url(#p6330f11b52)">
     <use xlink:href="#mbafe276ee5" x="574.534246" y="217.437584" style="fill: #89c9c8; stroke: #89c9c8"/>
    </g>
   </g>
   <g id="matplotlib.axis_3">
    <g id="xtick_7">
     <g id="line2d_14">
      <g>
       <use xlink:href="#m3259ab3b0e" x="425.056578" y="399.270072" style="stroke: #000000; stroke-width: 0.8"/>
      </g>
     </g>
     <g id="text_18">
      <!-- −9 -->
      <g transform="translate(418.956578 413.429447) scale(0.1 -0.1)">
       <use xlink:href="#STZhongsong-2212"/>
       <use xlink:href="#STZhongsong-39" x="59.999985"/>
      </g>
     </g>
    </g>
    <g id="xtick_8">
     <g id="line2d_15">
      <g>
       <use xlink:href="#m3259ab3b0e" x="475.39161" y="399.270072" style="stroke: #000000; stroke-width: 0.8"/>
      </g>
     </g>
     <g id="text_19">
      <!-- −8 -->
      <g transform="translate(469.29161 413.429447) scale(0.1 -0.1)">
       <use xlink:href="#STZhongsong-2212"/>
       <use xlink:href="#STZhongsong-38" x="59.999985"/>
      </g>
     </g>
    </g>
    <g id="xtick_9">
     <g id="line2d_16">
      <g>
       <use xlink:href="#m3259ab3b0e" x="525.726641" y="399.270072" style="stroke: #000000; stroke-width: 0.8"/>
      </g>
     </g>
     <g id="text_20">
      <!-- −7 -->
      <g transform="translate(519.626641 413.429447) scale(0.1 -0.1)">
       <use xlink:href="#STZhongsong-2212"/>
       <use xlink:href="#STZhongsong-37" x="59.999985"/>
      </g>
     </g>
    </g>
    <g id="xtick_10">
     <g id="line2d_17">
      <g>
       <use xlink:href="#m3259ab3b0e" x="576.061672" y="399.270072" style="stroke: #000000; stroke-width: 0.8"/>
      </g>
     </g>
     <g id="text_21">
      <!-- −6 -->
      <g transform="translate(569.961672 413.429447) scale(0.1 -0.1)">
       <use xlink:href="#STZhongsong-2212"/>
       <use xlink:href="#STZhongsong-36" x="59.999985"/>
      </g>
     </g>
    </g>
    <g id="xtick_11">
     <g id="line2d_18">
      <g>
       <use xlink:href="#m3259ab3b0e" x="626.396704" y="399.270072" style="stroke: #000000; stroke-width: 0.8"/>
      </g>
     </g>
     <g id="text_22">
      <!-- −5 -->
      <g transform="translate(620.296704 413.429447) scale(0.1 -0.1)">
       <use xlink:href="#STZhongsong-2212"/>
       <use xlink:href="#STZhongsong-35" x="59.999985"/>
      </g>
     </g>
    </g>
    <g id="xtick_12">
     <g id="line2d_19">
      <g>
       <use xlink:href="#m3259ab3b0e" x="676.731735" y="399.270072" style="stroke: #000000; stroke-width: 0.8"/>
      </g>
     </g>
     <g id="text_23">
      <!-- −4 -->
      <g transform="translate(670.631735 413.429447) scale(0.1 -0.1)">
       <use xlink:href="#STZhongsong-2212"/>
       <use xlink:href="#STZhongsong-34" x="59.999985"/>
      </g>
     </g>
    </g>
    <g id="text_24">
     <!-- 溶液中乙酰胆碱的浓度对数 -->
     <g transform="translate(498.444411 426.99976) scale(0.1 -0.1)">
      <use xlink:href="#STZhongsong-6eb6"/>
      <use xlink:href="#STZhongsong-6db2" x="99.999985"/>
      <use xlink:href="#STZhongsong-4e2d" x="199.999969"/>
      <use xlink:href="#STZhongsong-4e59" x="299.999954"/>
      <use xlink:href="#STZhongsong-9170" x="399.999939"/>
      <use xlink:href="#STZhongsong-80c6" x="499.999924"/>
      <use xlink:href="#STZhongsong-78b1" x="599.999908"/>
      <use xlink:href="#STZhongsong-7684" x="699.999893"/>
      <use xlink:href="#STZhongsong-6d53" x="799.999878"/>
      <use xlink:href="#STZhongsong-5ea6" x="899.999863"/>
      <use xlink:href="#STZhongsong-5bf9" x="999.999847"/>
      <use xlink:href="#STZhongsong-6570" x="1099.999832"/>
     </g>
    </g>
   </g>
   <g id="matplotlib.axis_4">
    <g id="ytick_7">
     <g id="line2d_20">
      <g>
       <use xlink:href="#m770e89f4a5" x="399.889062" y="357.308729" style="stroke: #000000; stroke-width: 0.8"/>
      </g>
     </g>
     <g id="text_25">
      <!-- 0.0 -->
      <g transform="translate(377.289062 360.888416) scale(0.1 -0.1)">
       <use xlink:href="#STZhongsong-30"/>
       <use xlink:href="#STZhongsong-2e" x="61.999985"/>
       <use xlink:href="#STZhongsong-30" x="93.999969"/>
      </g>
     </g>
    </g>
    <g id="ytick_8">
     <g id="line2d_21">
      <g>
       <use xlink:href="#m770e89f4a5" x="399.889062" y="301.360271" style="stroke: #000000; stroke-width: 0.8"/>
      </g>
     </g>
     <g id="text_26">
      <!-- 0.2 -->
      <g transform="translate(377.289062 304.939958) scale(0.1 -0.1)">
       <use xlink:href="#STZhongsong-30"/>
       <use xlink:href="#STZhongsong-2e" x="61.999985"/>
       <use xlink:href="#STZhongsong-32" x="93.999969"/>
      </g>
     </g>
    </g>
    <g id="ytick_9">
     <g id="line2d_22">
      <g>
       <use xlink:href="#m770e89f4a5" x="399.889062" y="245.411813" style="stroke: #000000; stroke-width: 0.8"/>
      </g>
     </g>
     <g id="text_27">
      <!-- 0.4 -->
      <g transform="translate(377.289062 248.9915) scale(0.1 -0.1)">
       <use xlink:href="#STZhongsong-30"/>
       <use xlink:href="#STZhongsong-2e" x="61.999985"/>
       <use xlink:href="#STZhongsong-34" x="93.999969"/>
      </g>
     </g>
    </g>
    <g id="ytick_10">
     <g id="line2d_23">
      <g>
       <use xlink:href="#m770e89f4a5" x="399.889062" y="189.463355" style="stroke: #000000; stroke-width: 0.8"/>
      </g>
     </g>
     <g id="text_28">
      <!-- 0.6 -->
      <g transform="translate(377.289062 193.043042) scale(0.1 -0.1)">
       <use xlink:href="#STZhongsong-30"/>
       <use xlink:href="#STZhongsong-2e" x="61.999985"/>
       <use xlink:href="#STZhongsong-36" x="93.999969"/>
      </g>
     </g>
    </g>
    <g id="ytick_11">
     <g id="line2d_24">
      <g>
       <use xlink:href="#m770e89f4a5" x="399.889062" y="133.514897" style="stroke: #000000; stroke-width: 0.8"/>
      </g>
     </g>
     <g id="text_29">
      <!-- 0.8 -->
      <g transform="translate(377.289062 137.094584) scale(0.1 -0.1)">
       <use xlink:href="#STZhongsong-30"/>
       <use xlink:href="#STZhongsong-2e" x="61.999985"/>
       <use xlink:href="#STZhongsong-38" x="93.999969"/>
      </g>
     </g>
    </g>
    <g id="ytick_12">
     <g id="line2d_25">
      <g>
       <use xlink:href="#m770e89f4a5" x="399.889062" y="77.566439" style="stroke: #000000; stroke-width: 0.8"/>
      </g>
     </g>
     <g id="text_30">
      <!-- 1.0 -->
      <g transform="translate(377.289062 81.146126) scale(0.1 -0.1)">
       <use xlink:href="#STZhongsong-31"/>
       <use xlink:href="#STZhongsong-2e" x="61.999985"/>
       <use xlink:href="#STZhongsong-30" x="93.999969"/>
      </g>
     </g>
    </g>
    <g id="text_31">
     <!-- 肠张力平均值/g -->
     <g transform="translate(371.289062 253.137584) rotate(-90) scale(0.1 -0.1)">
      <use xlink:href="#STZhongsong-80a0"/>
      <use xlink:href="#STZhongsong-5f20" x="99.999985"/>
      <use xlink:href="#STZhongsong-529b" x="199.999969"/>
      <use xlink:href="#STZhongsong-5e73" x="299.999954"/>
      <use xlink:href="#STZhongsong-5747" x="399.999939"/>
      <use xlink:href="#STZhongsong-503c" x="499.999924"/>
      <use xlink:href="#STZhongsong-2f" x="599.999908"/>
      <use xlink:href="#STZhongsong-67" x="659.999893"/>
     </g>
    </g>
   </g>
   <g id="line2d_26">
    <path d="M 515.659635 391.015091 
L 610.144592 112.449121 
L 610.144592 112.449121 
" clip-path="url(#p6330f11b52)" style="fill: none; stroke: #89b4fa; stroke-width: 1.5; stroke-linecap: square"/>
   </g>
   <g id="LineCollection_3">
    <path d="M 574.534246 399.270072 
L 574.534246 217.437584 
" clip-path="url(#p6330f11b52)" style="fill: none; stroke-dasharray: 5.55,2.4; stroke-dashoffset: 0; stroke: #89b4fa; stroke-width: 1.5"/>
   </g>
   <g id="LineCollection_4">
    <path d="M 399.889063 217.437584 
L 574.534246 217.437584 
" clip-path="url(#p6330f11b52)" style="fill: none; stroke-dasharray: 5.55,2.4; stroke-dashoffset: 0; stroke: #89b4fa; stroke-width: 1.5"/>
   </g>
   <g id="patch_8">
    <path d="M 399.889062 399.270072 
L 399.889062 35.605095 
" style="fill: none; stroke: #000000; stroke-width: 0.8; stroke-linejoin: miter; stroke-linecap: square"/>
   </g>
   <g id="patch_9">
    <path d="M 716.99976 399.270072 
L 716.99976 35.605095 
" style="fill: none; stroke: #000000; stroke-width: 0.8; stroke-linejoin: miter; stroke-linecap: square"/>
   </g>
   <g id="patch_10">
    <path d="M 399.889063 399.270072 
L 716.99976 399.270072 
" style="fill: none; stroke: #000000; stroke-width: 0.8; stroke-linejoin: miter; stroke-linecap: square"/>
   </g>
   <g id="patch_11">
    <path d="M 399.889063 35.605095 
L 716.99976 35.605095 
" style="fill: none; stroke: #000000; stroke-width: 0.8; stroke-linejoin: miter; stroke-linecap: square"/>
   </g>
   <g id="text_32">
    <!-- -6.03 -->
    <g style="fill: #89b4fa" transform="translate(544.333228 411.858476) scale(0.1 -0.1)">
     <defs>
      <path id="STZhongsong-33" d="M 934 3194 
L 634 3238 
Q 717 3827 1097 4131 
Q 1478 4435 2061 4435 
Q 2662 4435 3046 4124 
Q 3430 3814 3430 3360 
Q 3430 3021 3190 2761 
Q 2950 2502 2502 2374 
Q 3046 2298 3334 1974 
Q 3622 1651 3622 1222 
Q 3622 698 3155 310 
Q 2688 -77 1997 -77 
Q 1299 -77 844 275 
Q 390 627 390 960 
Q 390 1114 505 1184 
Q 621 1254 710 1254 
Q 922 1254 1043 858 
Q 1133 544 1369 377 
Q 1606 211 1952 211 
Q 2419 211 2720 512 
Q 3021 813 3021 1267 
Q 3021 1702 2717 1952 
Q 2413 2202 1862 2202 
L 1568 2202 
L 1568 2502 
L 1754 2502 
Q 2829 2502 2829 3283 
Q 2829 3629 2592 3843 
Q 2355 4058 1952 4058 
Q 1107 4058 934 3194 
z
" transform="scale(0.015625)"/>
     </defs>
     <use xlink:href="#STZhongsong-2d"/>
     <use xlink:href="#STZhongsong-36" x="39.999985"/>
     <use xlink:href="#STZhongsong-2e" x="101.999969"/>
     <use xlink:href="#STZhongsong-30" x="133.999954"/>
     <use xlink:href="#STZhongsong-33" x="195.999939"/>
    </g>
   </g>
   <g id="text_33">
    <!-- 0.5 -->
    <g style="fill: #89b4fa" transform="translate(379.75505 217.437584) scale(0.1 -0.1)">
     <use xlink:href="#STZhongsong-30"/>
     <use xlink:href="#STZhongsong-2e" x="61.999985"/>
     <use xlink:href="#STZhongsong-35" x="93.999969"/>
    </g>
   </g>
   <g id="text_34">
    <!-- 实验组实验数据 -->
    <g transform="translate(516.444411 29.605095) scale(0.12 -0.12)">
     <use xlink:href="#STZhongsong-5b9e"/>
     <use xlink:href="#STZhongsong-9a8c" x="99.999985"/>
     <use xlink:href="#STZhongsong-7ec4" x="199.999969"/>
     <use xlink:href="#STZhongsong-5b9e" x="299.999954"/>
     <use xlink:href="#STZhongsong-9a8c" x="399.999939"/>
     <use xlink:href="#STZhongsong-6570" x="499.999924"/>
     <use xlink:href="#STZhongsong-636e" x="599.999908"/>
    </g>
   </g>
  </g>
  <g id="text_35">
   <!-- 阿托品对乙酰胆碱的竞争性拮抗作用 -->
   <g transform="translate(264 12.084615) scale(0.12 -0.12)">
    <defs>
     <path id="STZhongsong-963f" d="M 1261 4397 
L 1798 4397 
L 1939 4602 
Q 1978 4653 2016 4653 
Q 2054 4653 2297 4461 
Q 2541 4269 2541 4221 
Q 2541 4173 2432 4134 
Q 2374 4109 2278 3955 
Q 2182 3802 1645 2707 
Q 2042 2400 2237 2086 
Q 2432 1773 2432 1408 
Q 2432 922 2134 701 
Q 1837 480 1728 480 
Q 1683 480 1660 605 
Q 1638 730 1561 813 
Q 1485 896 1261 992 
L 1261 1114 
Q 1408 1088 1574 1088 
Q 1741 1088 1840 1203 
Q 1939 1318 1939 1580 
Q 1939 1843 1798 2147 
Q 1658 2451 1408 2662 
Q 1638 3456 1798 4198 
L 1158 4198 
L 1158 -755 
Q 1158 -838 1113 -873 
Q 1069 -909 912 -969 
Q 755 -1030 678 -1030 
Q 653 -1030 653 -1008 
Q 653 -986 662 -771 
Q 672 -557 672 -109 
L 672 4026 
Q 672 4486 646 4698 
Q 909 4589 1261 4397 
z
M 5434 4019 
L 5434 -179 
Q 5434 -442 5376 -547 
Q 5318 -653 5014 -819 
Q 4710 -986 4643 -986 
Q 4576 -986 4557 -877 
Q 4531 -698 4467 -598 
Q 4403 -499 4243 -416 
Q 4083 -333 3725 -211 
L 3763 -83 
Q 4499 -198 4665 -198 
Q 4832 -198 4870 -160 
Q 4909 -122 4909 -19 
L 4909 4019 
L 2989 4019 
Q 2816 4019 2720 3974 
L 2605 4250 
Q 2739 4218 2925 4218 
L 5190 4218 
L 5478 4595 
Q 5523 4659 5580 4659 
Q 5638 4659 5772 4540 
Q 5907 4422 6073 4284 
Q 6240 4147 6240 4083 
Q 6240 4019 6163 4019 
L 5434 4019 
z
M 3878 1203 
L 3296 1203 
L 3296 890 
Q 3296 826 3283 803 
Q 3270 781 3187 742 
Q 3104 704 2966 678 
Q 2829 653 2806 653 
Q 2784 653 2790 704 
Q 2822 1024 2822 1350 
L 2822 2835 
Q 2822 3002 2810 3322 
Q 3104 3200 3379 3059 
L 3821 3059 
L 3974 3258 
Q 4006 3302 4048 3302 
Q 4090 3302 4250 3200 
Q 4410 3098 4486 3046 
Q 4563 2995 4563 2956 
Q 4563 2918 4371 2797 
L 4371 1715 
Q 4371 1434 4378 1318 
L 4384 1107 
Q 4384 1050 4336 1014 
Q 4288 979 4121 918 
Q 3955 858 3916 858 
Q 3878 858 3878 922 
L 3878 1203 
z
M 3296 1402 
L 3878 1402 
L 3878 2893 
L 3296 2893 
L 3296 1402 
z
" transform="scale(0.015625)"/>
     <path id="STZhongsong-6258" d="M 1376 3072 
L 678 3072 
Q 518 3072 403 3040 
L 294 3290 
Q 429 3258 614 3258 
L 1376 3258 
L 1376 4154 
Q 1376 4525 1363 4845 
Q 2131 4614 2131 4518 
Q 2131 4461 1888 4352 
L 1888 3258 
L 2118 3258 
L 2362 3610 
Q 2426 3699 2496 3699 
Q 2566 3699 2713 3558 
Q 2861 3418 3005 3299 
Q 3149 3181 3149 3126 
Q 3149 3072 3002 3072 
L 1888 3072 
L 1888 1965 
L 2957 2394 
L 3014 2259 
L 1888 1600 
L 1888 -269 
Q 1888 -512 1782 -659 
Q 1677 -806 1475 -912 
Q 1274 -1018 1226 -1018 
Q 1178 -1018 1139 -896 
Q 1088 -710 918 -592 
Q 749 -474 326 -339 
L 352 -224 
Q 774 -301 985 -301 
Q 1197 -301 1286 -240 
Q 1376 -179 1376 -32 
L 1376 1293 
Q 877 992 781 909 
Q 685 826 656 826 
Q 627 826 611 838 
Q 595 851 461 1030 
L 198 1370 
Q 870 1581 1376 1766 
L 1376 3072 
z
M 4275 1952 
L 5178 2080 
L 5402 2477 
Q 5446 2554 5485 2554 
Q 5536 2554 5862 2339 
Q 6189 2125 6189 2064 
Q 6189 2003 6029 1978 
L 4275 1728 
L 4275 -179 
Q 4275 -320 4307 -361 
Q 4339 -403 4496 -416 
Q 4653 -429 5011 -429 
Q 5370 -429 5472 -368 
Q 5574 -307 5638 -32 
Q 5702 243 5792 1005 
L 5914 998 
Q 5901 742 5901 486 
Q 5901 230 5942 38 
Q 5984 -154 6157 -256 
Q 6246 -307 6246 -358 
Q 6246 -410 6150 -589 
Q 6054 -768 5942 -825 
Q 5830 -883 5564 -921 
Q 5299 -960 4819 -960 
Q 4339 -960 4112 -905 
Q 3885 -851 3811 -736 
Q 3738 -621 3738 -390 
L 3738 1651 
L 2944 1542 
Q 2835 1530 2675 1466 
L 2541 1734 
Q 2720 1734 2861 1754 
L 3738 1875 
L 3738 3725 
Q 3309 3654 2810 3603 
L 2784 3718 
Q 4096 4096 5210 4742 
Q 5709 4179 5709 4064 
Q 5709 4032 5667 4032 
Q 5626 4032 5539 4057 
Q 5453 4083 5385 4083 
Q 5318 4083 4870 3974 
Q 4422 3866 4275 3834 
L 4275 1952 
z
" transform="scale(0.015625)"/>
     <path id="STZhongsong-54c1" d="M 2400 4461 
L 4134 4461 
L 4282 4730 
Q 4320 4800 4371 4800 
Q 4422 4800 4716 4624 
Q 5011 4448 5011 4377 
Q 5011 4307 4774 4173 
L 4774 2995 
Q 4774 2867 4781 2771 
L 4794 2618 
Q 4794 2566 4733 2524 
Q 4672 2483 4496 2422 
Q 4320 2362 4237 2362 
Q 4186 2362 4186 2419 
L 4186 2816 
L 2317 2816 
L 2317 2592 
Q 2317 2515 2253 2467 
Q 2189 2419 2041 2358 
Q 1894 2298 1817 2298 
Q 1741 2298 1741 2355 
L 1754 2784 
L 1754 4198 
Q 1754 4467 1734 4742 
Q 2112 4621 2400 4461 
z
M 4186 3008 
L 4186 4275 
L 2317 4275 
L 2317 3008 
L 4186 3008 
z
M 4211 1926 
L 5075 1926 
L 5242 2170 
Q 5286 2234 5337 2234 
Q 5389 2234 5670 2048 
Q 5952 1862 5952 1776 
Q 5952 1690 5728 1536 
L 5728 -122 
L 5747 -506 
Q 5747 -544 5702 -585 
Q 5658 -627 5459 -697 
Q 5261 -768 5178 -768 
Q 5139 -768 5139 -698 
L 5139 -38 
L 4147 -38 
L 4147 -480 
Q 4147 -550 4083 -601 
Q 4019 -653 3859 -723 
Q 3699 -794 3644 -794 
Q 3590 -794 3590 -742 
L 3603 -301 
L 3603 1626 
Q 3603 1894 3584 2170 
Q 4051 2029 4211 1926 
z
M 5139 160 
L 5139 1715 
L 4147 1715 
L 4147 160 
L 5139 160 
z
M 1466 1869 
L 2278 1869 
L 2400 2080 
Q 2438 2144 2480 2144 
Q 2522 2144 2704 2041 
Q 2886 1939 2982 1865 
Q 3078 1792 3078 1747 
Q 3078 1670 2880 1542 
L 2880 58 
L 2899 -326 
Q 2899 -410 2675 -499 
Q 2451 -589 2396 -589 
Q 2342 -589 2342 -518 
L 2342 -38 
L 1370 -38 
L 1370 -550 
Q 1370 -614 1350 -640 
Q 1331 -666 1225 -726 
Q 1120 -787 1005 -819 
Q 890 -851 848 -851 
Q 806 -851 806 -794 
L 819 -365 
L 819 1632 
Q 819 1901 800 2176 
Q 1210 2048 1466 1869 
z
M 2342 160 
L 2342 1670 
L 1370 1670 
L 1370 160 
L 2342 160 
z
" transform="scale(0.015625)"/>
     <path id="STZhongsong-7ade" d="M 3014 3942 
Q 2944 4538 2618 4832 
L 2688 4928 
Q 3162 4813 3402 4685 
Q 3642 4557 3642 4390 
Q 3642 4288 3542 4141 
Q 3443 3994 3296 3942 
L 4672 3942 
L 4928 4269 
Q 4992 4346 5030 4346 
Q 5101 4346 5385 4118 
Q 5670 3891 5670 3808 
Q 5670 3763 5542 3763 
L 4128 3763 
Q 4614 3558 4614 3443 
Q 4614 3392 4499 3392 
Q 4403 3392 4297 3286 
Q 4192 3181 3853 2733 
L 5011 2733 
L 5318 3130 
Q 5370 3194 5408 3194 
Q 5472 3194 5741 2941 
Q 6010 2688 6010 2621 
Q 6010 2554 5856 2554 
L 666 2554 
Q 486 2554 397 2509 
L 282 2765 
Q 416 2733 602 2733 
L 3558 2733 
Q 3802 3264 3974 3763 
L 1056 3763 
Q 883 3763 787 3718 
L 672 3974 
Q 806 3942 992 3942 
L 3014 3942 
z
M 1843 3731 
Q 2720 3558 2720 3187 
Q 2720 3059 2608 2915 
Q 2496 2771 2397 2771 
Q 2298 2771 2256 2812 
Q 2214 2854 2172 3020 
Q 2131 3187 2041 3331 
Q 1952 3475 1792 3654 
L 1843 3731 
z
M 3840 819 
L 3840 -275 
Q 3840 -384 3881 -419 
Q 3923 -454 4160 -470 
Q 4397 -486 4627 -486 
Q 5286 -486 5376 -387 
Q 5466 -288 5581 698 
L 5696 698 
Q 5702 275 5728 73 
Q 5754 -128 5805 -208 
Q 5856 -288 5974 -329 
Q 6093 -371 6093 -448 
Q 6093 -525 5981 -672 
Q 5869 -819 5766 -873 
Q 5664 -928 5257 -947 
Q 4851 -966 4390 -966 
Q 3930 -966 3706 -924 
Q 3482 -883 3402 -812 
Q 3322 -742 3322 -589 
L 3322 819 
L 2931 819 
Q 2810 96 2557 -224 
Q 2304 -544 1792 -745 
Q 1280 -947 416 -1114 
L 378 -979 
Q 1395 -672 1862 -285 
Q 2330 102 2394 819 
L 1926 819 
L 1926 582 
Q 1926 550 1916 531 
Q 1907 512 1801 467 
Q 1696 422 1561 390 
Q 1427 358 1398 358 
Q 1370 358 1376 397 
Q 1402 704 1402 1094 
L 1402 1862 
Q 1402 2131 1382 2406 
Q 1786 2240 1990 2112 
L 4294 2112 
L 4467 2342 
Q 4506 2387 4541 2387 
Q 4576 2387 4857 2214 
Q 5139 2042 5139 1990 
Q 5139 1939 4915 1837 
L 4915 1184 
Q 4915 966 4922 851 
L 4934 653 
Q 4934 563 4700 489 
Q 4467 416 4397 416 
Q 4352 416 4352 493 
L 4352 819 
L 3840 819 
z
M 1926 1005 
L 4352 1005 
L 4352 1907 
L 1926 1907 
L 1926 1005 
z
" transform="scale(0.015625)"/>
     <path id="STZhongsong-4e89" d="M 1344 2874 
Q 896 2490 493 2221 
L 397 2304 
Q 1024 2938 1421 3491 
Q 1818 4045 2285 4954 
Q 2810 4691 2896 4633 
Q 2982 4576 2982 4537 
Q 2982 4499 2880 4499 
Q 2778 4499 2707 4410 
L 2464 4102 
L 3731 4102 
L 3859 4294 
Q 3923 4390 3984 4390 
Q 4045 4390 4179 4275 
Q 4314 4160 4464 4038 
Q 4614 3917 4614 3853 
Q 4614 3789 4448 3782 
Q 4282 3776 4208 3737 
Q 4134 3699 3865 3468 
Q 3597 3238 3386 3008 
L 4467 3008 
L 4627 3219 
Q 4672 3277 4720 3277 
Q 4768 3277 4979 3142 
L 5280 2957 
Q 5370 2899 5370 2848 
Q 5370 2797 5120 2682 
L 5120 1984 
L 5306 1984 
L 5587 2355 
Q 5632 2413 5689 2413 
Q 5747 2413 6003 2134 
Q 6259 1856 6259 1814 
Q 6259 1773 6118 1773 
L 5120 1773 
L 5120 1062 
L 5133 666 
Q 5133 602 5117 576 
Q 5101 550 5001 492 
Q 4902 435 4745 377 
Q 4589 320 4550 320 
Q 4512 320 4512 410 
L 4512 736 
L 3392 736 
L 3392 -230 
Q 3392 -493 3321 -627 
Q 3251 -762 2992 -896 
Q 2733 -1030 2643 -1030 
Q 2586 -1030 2566 -947 
Q 2522 -762 2464 -672 
Q 2406 -582 2252 -512 
Q 2099 -442 1741 -339 
L 1760 -205 
Q 2368 -294 2550 -294 
Q 2733 -294 2774 -256 
Q 2816 -218 2816 -122 
L 2816 736 
L 1210 736 
Q 1037 736 941 691 
L 826 992 
Q 960 960 1146 960 
L 2816 960 
L 2816 1773 
L 595 1773 
Q 422 1773 326 1728 
L 211 2016 
Q 346 1984 531 1984 
L 2816 1984 
L 2816 2803 
L 1664 2803 
Q 1491 2803 1395 2758 
L 1344 2874 
z
M 2304 3904 
Q 1901 3411 1491 3008 
L 3085 3008 
Q 3398 3488 3610 3904 
L 2304 3904 
z
M 4512 1984 
L 4512 2803 
L 3392 2803 
L 3392 1984 
L 4512 1984 
z
M 4512 960 
L 4512 1773 
L 3392 1773 
L 3392 960 
L 4512 960 
z
" transform="scale(0.015625)"/>
     <path id="STZhongsong-6027" d="M 1741 3366 
Q 2246 3251 2406 3164 
Q 2566 3078 2566 2921 
Q 2566 2765 2496 2621 
Q 2426 2477 2314 2477 
Q 2202 2477 2125 2662 
Q 1971 3046 1741 3194 
L 1741 -742 
Q 1741 -806 1683 -844 
Q 1626 -883 1437 -950 
Q 1248 -1018 1209 -1018 
Q 1171 -1018 1171 -979 
Q 1171 -941 1180 -752 
Q 1190 -563 1190 -96 
L 1190 4269 
Q 1190 4589 1178 4838 
Q 1446 4774 1673 4704 
Q 1901 4634 1936 4614 
Q 1971 4595 1971 4576 
Q 1971 4525 1741 4403 
L 1741 3366 
z
M 3930 1190 
L 2874 1190 
Q 2701 1190 2605 1146 
L 2483 1408 
Q 2618 1376 2803 1376 
L 3930 1376 
L 3930 2778 
L 3078 2778 
Q 2746 1869 2221 1101 
L 2093 1165 
Q 2682 2496 2848 4237 
Q 3226 4109 3405 4016 
Q 3584 3923 3584 3891 
Q 3584 3859 3510 3840 
Q 3437 3821 3398 3779 
Q 3360 3738 3286 3456 
Q 3213 3174 3142 2957 
L 3930 2957 
L 3930 4230 
Q 3930 4723 3917 4832 
Q 4192 4794 4397 4736 
Q 4602 4678 4646 4652 
Q 4691 4627 4691 4602 
Q 4691 4550 4499 4454 
L 4499 2957 
L 5024 2957 
L 5267 3334 
Q 5338 3450 5392 3450 
Q 5446 3450 5613 3296 
L 5914 3008 
Q 6048 2880 6048 2829 
Q 6048 2778 5939 2778 
L 4499 2778 
L 4499 1376 
L 4979 1376 
L 5242 1747 
Q 5312 1843 5369 1843 
Q 5427 1843 5683 1587 
Q 5939 1331 5939 1260 
Q 5939 1190 5818 1190 
L 4499 1190 
L 4499 -390 
L 5267 -390 
L 5562 -26 
Q 5638 70 5683 70 
Q 5728 70 5798 6 
Q 5869 -58 6029 -214 
Q 6189 -371 6243 -438 
Q 6298 -506 6298 -547 
Q 6298 -589 6176 -589 
L 2483 -589 
Q 2310 -589 2214 -634 
L 2106 -358 
Q 2240 -390 2426 -390 
L 3930 -390 
L 3930 1190 
z
M 787 3392 
Q 915 2829 915 2422 
Q 915 2016 755 1853 
Q 595 1690 416 1690 
Q 314 1690 240 1763 
Q 166 1837 166 1904 
Q 166 1971 332 2182 
Q 499 2394 563 2682 
Q 627 2970 608 3386 
L 787 3392 
z
" transform="scale(0.015625)"/>
     <path id="STZhongsong-62ee" d="M 4416 3430 
L 4416 2317 
L 4960 2317 
L 5184 2650 
Q 5242 2739 5312 2739 
Q 5382 2739 5676 2486 
Q 5971 2234 5971 2176 
Q 5971 2118 5875 2118 
L 3014 2118 
Q 2842 2118 2746 2074 
L 2630 2349 
Q 2765 2317 2950 2317 
L 3846 2317 
L 3846 3430 
L 3155 3430 
Q 2982 3430 2886 3386 
L 2771 3661 
Q 2906 3629 3091 3629 
L 3846 3629 
L 3846 4256 
Q 3846 4602 3834 4858 
Q 4154 4800 4362 4739 
Q 4570 4678 4624 4649 
Q 4678 4621 4678 4589 
Q 4678 4525 4416 4358 
L 4416 3629 
L 5184 3629 
L 5440 4000 
Q 5498 4083 5558 4083 
Q 5619 4083 5929 3811 
Q 6240 3539 6240 3469 
Q 6240 3430 6118 3430 
L 4416 3430 
z
M 1267 3168 
L 685 3168 
Q 525 3168 410 3136 
L 301 3405 
Q 435 3373 621 3373 
L 1267 3373 
L 1267 4166 
Q 1267 4538 1254 4858 
Q 2022 4672 2022 4582 
Q 2022 4538 1811 4435 
L 1811 3373 
L 2080 3373 
L 2259 3642 
Q 2304 3712 2361 3712 
Q 2419 3712 2502 3629 
L 2726 3398 
Q 2867 3258 2867 3213 
Q 2867 3168 2701 3168 
L 1811 3168 
L 1811 2208 
L 2701 2573 
L 2765 2470 
L 1811 1850 
L 1811 -301 
Q 1811 -486 1699 -636 
Q 1587 -787 1392 -886 
Q 1197 -986 1149 -986 
Q 1101 -986 1082 -890 
Q 1043 -640 864 -505 
Q 685 -371 320 -250 
L 346 -122 
Q 890 -269 1030 -269 
Q 1171 -269 1219 -230 
Q 1267 -192 1267 -64 
L 1267 1504 
Q 768 1197 576 1018 
Q 525 973 499 973 
Q 474 973 419 1059 
Q 365 1146 154 1594 
Q 544 1696 1267 1984 
L 1267 3168 
z
M 3552 1440 
L 4890 1440 
L 5043 1690 
Q 5069 1741 5110 1741 
Q 5152 1741 5462 1549 
Q 5773 1357 5773 1312 
Q 5773 1267 5510 1120 
L 5510 -70 
L 5530 -518 
Q 5530 -627 5315 -716 
Q 5101 -806 4992 -806 
Q 4934 -806 4934 -717 
L 4934 -371 
L 3450 -371 
L 3450 -691 
Q 3450 -749 3430 -774 
Q 3411 -800 3312 -851 
Q 3213 -902 3091 -940 
Q 2970 -979 2928 -979 
Q 2886 -979 2893 -896 
Q 2918 -659 2918 -326 
L 2918 1139 
Q 2918 1408 2899 1683 
Q 3283 1581 3552 1440 
z
M 4934 -154 
L 4934 1242 
L 3450 1242 
L 3450 -154 
L 4934 -154 
z
" transform="scale(0.015625)"/>
     <path id="STZhongsong-6297" d="M 3501 4973 
Q 3930 4710 4157 4502 
Q 4384 4294 4384 4121 
Q 4384 3949 4249 3798 
Q 4115 3648 3930 3648 
Q 3853 3648 3827 3693 
Q 3802 3738 3776 4003 
Q 3750 4269 3657 4486 
Q 3565 4704 3398 4851 
L 3501 4973 
z
M 1293 2982 
L 602 2982 
Q 442 2982 326 2950 
L 218 3219 
Q 352 3187 538 3187 
L 1293 3187 
L 1293 4109 
Q 1293 4480 1280 4800 
Q 2074 4608 2074 4518 
Q 2074 4467 1824 4333 
L 1824 3187 
L 2029 3187 
L 2253 3482 
Q 2323 3578 2371 3578 
Q 2419 3578 2640 3350 
Q 2861 3123 2861 3052 
Q 2861 2982 2726 2982 
L 1824 2982 
L 1824 2061 
L 2797 2432 
L 2848 2317 
L 1824 1696 
L 1824 -301 
Q 1824 -557 1760 -669 
Q 1696 -781 1478 -909 
Q 1261 -1037 1206 -1037 
Q 1152 -1037 1120 -896 
Q 1069 -678 941 -572 
Q 813 -467 384 -333 
L 403 -205 
Q 934 -301 1062 -301 
Q 1190 -301 1241 -278 
Q 1293 -256 1293 -160 
L 1293 1376 
Q 909 1139 797 1056 
Q 685 973 659 973 
Q 608 973 294 1510 
Q 883 1702 1293 1856 
L 1293 2982 
z
M 4986 3533 
L 5274 3955 
Q 5325 4032 5366 4032 
Q 5408 4032 5562 3898 
L 5882 3603 
Q 6054 3443 6054 3382 
Q 6054 3322 5914 3322 
L 3155 3322 
Q 2982 3322 2886 3277 
L 2771 3565 
Q 2906 3533 3091 3533 
L 4986 3533 
z
M 3520 2285 
Q 3514 1747 3437 976 
Q 3360 205 3030 -198 
Q 2701 -602 1933 -1037 
L 1862 -928 
Q 2323 -557 2566 -224 
Q 2810 109 2902 569 
Q 2995 1030 2995 2170 
Q 2995 2438 2982 2720 
Q 3283 2630 3571 2483 
L 4294 2483 
L 4416 2682 
Q 4454 2739 4518 2739 
Q 4582 2739 4736 2650 
L 5018 2483 
Q 5139 2413 5139 2345 
Q 5139 2278 4845 2138 
L 4845 -128 
Q 4845 -198 4870 -224 
Q 4896 -250 4992 -259 
Q 5088 -269 5331 -269 
Q 5485 -269 5549 -205 
Q 5613 -141 5664 102 
Q 5715 346 5798 1011 
L 5933 1011 
Q 5926 806 5926 566 
Q 5926 326 5971 147 
Q 6016 -32 6170 -141 
Q 6234 -186 6234 -240 
Q 6234 -294 6128 -473 
Q 6022 -653 5865 -717 
Q 5709 -781 5264 -781 
Q 4819 -781 4617 -742 
Q 4416 -704 4361 -611 
Q 4307 -518 4307 -314 
L 4307 2285 
L 3520 2285 
z
" transform="scale(0.015625)"/>
     <path id="STZhongsong-4f5c" d="M 3469 3738 
L 4941 3738 
L 5216 4160 
Q 5261 4237 5305 4237 
Q 5350 4237 5468 4147 
Q 5587 4058 5779 3894 
Q 5971 3731 6025 3676 
Q 6080 3622 6080 3584 
Q 6080 3520 5946 3520 
L 4032 3520 
L 4032 2272 
L 4813 2272 
L 5056 2637 
Q 5101 2701 5152 2701 
Q 5203 2701 5331 2605 
L 5651 2355 
Q 5850 2208 5850 2141 
Q 5850 2074 5734 2074 
L 4032 2074 
L 4032 902 
L 4896 902 
L 5171 1299 
Q 5216 1363 5277 1363 
Q 5338 1363 5658 1088 
Q 5978 813 5978 758 
Q 5978 704 5850 704 
L 4032 704 
L 4032 -768 
Q 4032 -806 4009 -828 
Q 3987 -851 3875 -921 
Q 3763 -992 3635 -1040 
Q 3507 -1088 3472 -1088 
Q 3437 -1088 3437 -1030 
L 3462 -435 
Q 3469 -166 3469 96 
L 3469 3520 
L 3360 3520 
Q 2944 2714 1965 1722 
L 1869 1818 
Q 2432 2566 2752 3273 
Q 3072 3981 3290 4909 
Q 3693 4787 3846 4700 
Q 4000 4614 4000 4582 
Q 4000 4538 3897 4515 
Q 3795 4493 3744 4358 
Q 3693 4224 3469 3738 
z
M 1261 2426 
Q 851 1830 250 1242 
L 154 1325 
Q 1357 2944 1747 4896 
Q 2509 4659 2509 4570 
Q 2509 4531 2413 4505 
Q 2317 4480 2259 4400 
Q 2202 4320 2038 3901 
Q 1875 3482 1632 3027 
Q 1843 2950 1888 2924 
Q 1933 2899 1933 2867 
Q 1933 2835 1792 2758 
L 1792 -717 
Q 1792 -768 1779 -787 
Q 1766 -806 1648 -873 
Q 1530 -941 1408 -985 
Q 1286 -1030 1257 -1030 
Q 1229 -1030 1229 -960 
L 1248 -621 
Q 1261 -275 1261 173 
L 1261 2426 
z
" transform="scale(0.015625)"/>
     <path id="STZhongsong-7528" d="M 1818 4358 
L 4941 4358 
L 5069 4563 
Q 5126 4653 5177 4653 
Q 5229 4653 5469 4521 
Q 5709 4390 5785 4326 
Q 5862 4262 5862 4204 
Q 5862 4147 5574 3981 
L 5574 -282 
Q 5574 -589 5523 -704 
Q 5472 -819 5245 -956 
Q 5018 -1094 4941 -1094 
Q 4864 -1094 4838 -973 
Q 4742 -557 3987 -346 
L 4000 -186 
Q 4570 -275 4742 -275 
Q 4915 -275 4956 -240 
Q 4998 -205 4998 -115 
L 4998 1466 
L 3597 1466 
L 3597 26 
Q 3597 -301 3603 -422 
L 3610 -653 
Q 3610 -742 3379 -822 
Q 3149 -902 3059 -902 
Q 3008 -902 3008 -838 
L 3021 -576 
Q 3027 -307 3027 13 
L 3027 1466 
L 1754 1466 
Q 1715 627 1478 80 
Q 1242 -467 589 -1133 
L 480 -1043 
Q 1030 -326 1120 749 
Q 1210 1824 1210 2970 
Q 1210 3603 1146 4646 
Q 1440 4557 1818 4358 
z
M 1792 2970 
L 3027 2970 
L 3027 4141 
L 1805 4141 
Q 1805 3712 1792 2970 
z
M 3597 2970 
L 4998 2970 
L 4998 4141 
L 3597 4141 
L 3597 2970 
z
M 3027 2765 
L 1786 2765 
Q 1798 2118 1760 1670 
L 3027 1670 
L 3027 2765 
z
M 4998 2765 
L 3597 2765 
L 3597 1670 
L 4998 1670 
L 4998 2765 
z
" transform="scale(0.015625)"/>
    </defs>
    <use xlink:href="#STZhongsong-963f"/>
    <use xlink:href="#STZhongsong-6258" x="99.999985"/>
    <use xlink:href="#STZhongsong-54c1" x="199.999969"/>
    <use xlink:href="#STZhongsong-5bf9" x="299.999954"/>
    <use xlink:href="#STZhongsong-4e59" x="399.999939"/>
    <use xlink:href="#STZhongsong-9170" x="499.999924"/>
    <use xlink:href="#STZhongsong-80c6" x="599.999908"/>
    <use xlink:href="#STZhongsong-78b1" x="699.999893"/>
    <use xlink:href="#STZhongsong-7684" x="799.999878"/>
    <use xlink:href="#STZhongsong-7ade" x="899.999863"/>
    <use xlink:href="#STZhongsong-4e89" x="999.999847"/>
    <use xlink:href="#STZhongsong-6027" x="1099.999832"/>
    <use xlink:href="#STZhongsong-62ee" x="1199.999817"/>
    <use xlink:href="#STZhongsong-6297" x="1299.999802"/>
    <use xlink:href="#STZhongsong-4f5c" x="1399.999786"/>
    <use xlink:href="#STZhongsong-7528" x="1499.999771"/>
   </g>
  </g>
 </g>
 <defs>
  <clipPath id="p5550f93018">
   <rect x="39.289303" y="35.605095" width="317.110697" height="363.664977"/>
  </clipPath>
  <clipPath id="p6330f11b52">
   <rect x="399.889062" y="35.605095" width="317.110697" height="363.664977"/>
  </clipPath>
 </defs>
</svg>
