<?xml version="1.0" encoding="utf-8" standalone="no"?>
<!DOCTYPE svg PUBLIC "-//W3C//DTD SVG 1.1//EN"
  "http://www.w3.org/Graphics/SVG/1.1/DTD/svg11.dtd">
<svg xmlns:xlink="http://www.w3.org/1999/xlink" width="432pt" height="288pt" viewBox="0 0 432 288" xmlns="http://www.w3.org/2000/svg" version="1.1">
 <metadata>
  <rdf:RDF xmlns:dc="http://purl.org/dc/elements/1.1/" xmlns:cc="http://creativecommons.org/ns#" xmlns:rdf="http://www.w3.org/1999/02/22-rdf-syntax-ns#">
   <cc:Work>
    <dc:type rdf:resource="http://purl.org/dc/dcmitype/StillImage"/>
    <dc:date>2024-10-10T00:14:43.804373</dc:date>
    <dc:format>image/svg+xml</dc:format>
    <dc:creator>
     <cc:Agent>
      <dc:title>Matplotlib v3.9.2, https://matplotlib.org/</dc:title>
     </cc:Agent>
    </dc:creator>
   </cc:Work>
  </rdf:RDF>
 </metadata>
 <defs>
  <style type="text/css">*{stroke-linejoin: round; stroke-linecap: butt}</style>
 </defs>
 <g id="figure_1">
  <g id="patch_1">
   <path d="M 0 288 
L 432 288 
L 432 0 
L 0 0 
z
" style="fill: #ffffff"/>
  </g>
  <g id="axes_1">
   <g id="patch_2">
    <path d="M 35.80024 255.28101 
L 209.964604 255.28101 
L 209.964604 33.839782 
L 35.80024 33.839782 
z
" style="fill: #ffffff"/>
   </g>
   <g id="patch_3">
    <path d="M 43.716802 255.28101 
L 70.105342 255.28101 
L 70.105342 255.28101 
L 43.716802 255.28101 
z
" clip-path="url(#pb6bdff5498)" style="fill: #89b4fa; stroke: #ffffff; stroke-linejoin: miter"/>
   </g>
   <g id="patch_4">
    <path d="M 70.105342 255.28101 
L 96.493882 255.28101 
L 96.493882 255.28101 
L 70.105342 255.28101 
z
" clip-path="url(#pb6bdff5498)" style="fill: #89b4fa; stroke: #ffffff; stroke-linejoin: miter"/>
   </g>
   <g id="patch_5">
    <path d="M 96.493882 255.28101 
L 122.882422 255.28101 
L 122.882422 202.556908 
L 96.493882 202.556908 
z
" clip-path="url(#pb6bdff5498)" style="fill: #89b4fa; stroke: #ffffff; stroke-linejoin: miter"/>
   </g>
   <g id="patch_6">
    <path d="M 122.882422 255.28101 
L 149.270962 255.28101 
L 149.270962 149.832806 
L 122.882422 149.832806 
z
" clip-path="url(#pb6bdff5498)" style="fill: #89b4fa; stroke: #ffffff; stroke-linejoin: miter"/>
   </g>
   <g id="patch_7">
    <path d="M 149.270962 255.28101 
L 175.659502 255.28101 
L 175.659502 61.959303 
L 149.270962 61.959303 
z
" clip-path="url(#pb6bdff5498)" style="fill: #89b4fa; stroke: #ffffff; stroke-linejoin: miter"/>
   </g>
   <g id="patch_8">
    <path d="M 175.659502 255.28101 
L 202.048042 255.28101 
L 202.048042 44.384603 
L 175.659502 44.384603 
z
" clip-path="url(#pb6bdff5498)" style="fill: #89b4fa; stroke: #ffffff; stroke-linejoin: miter"/>
   </g>
   <g id="matplotlib.axis_1">
    <g id="xtick_1">
     <g id="line2d_1">
      <defs>
       <path id="m98f19526b0" d="M 0 0 
L 0 3.5 
" style="stroke: #000000; stroke-width: 0.8"/>
      </defs>
      <g>
       <use xlink:href="#m98f19526b0" x="56.911072" y="255.28101" style="stroke: #000000; stroke-width: 0.8"/>
      </g>
     </g>
     <g id="text_1">
      <!-- 2.01 -->
      <g transform="translate(46.011072 269.440385) scale(0.1 -0.1)">
       <defs>
        <path id="STZhongsong-32" d="M 723 2714 
L 422 2675 
Q 397 2835 397 2989 
Q 397 3616 832 4025 
Q 1267 4435 1978 4435 
Q 2630 4435 3043 4064 
Q 3456 3693 3456 3098 
Q 3456 2669 3286 2349 
Q 3117 2029 2611 1603 
Q 2106 1178 1037 467 
L 2662 467 
Q 2963 467 3062 544 
Q 3162 621 3200 838 
L 3232 1018 
L 3494 1018 
L 3283 -154 
L 3085 -154 
L 3053 0 
L 320 0 
L 320 262 
L 819 640 
Q 1901 1453 2377 1977 
Q 2854 2502 2854 3066 
Q 2854 3507 2569 3788 
Q 2285 4070 1837 4070 
Q 1325 4070 1017 3753 
Q 710 3437 710 2918 
Q 710 2822 723 2714 
z
" transform="scale(0.015625)"/>
        <path id="STZhongsong-2e" d="M 634 339 
Q 634 506 749 618 
Q 864 730 1024 730 
Q 1184 730 1299 614 
Q 1414 499 1414 339 
Q 1414 173 1299 61 
Q 1184 -51 1024 -51 
Q 864 -51 749 61 
Q 634 173 634 339 
z
" transform="scale(0.015625)"/>
        <path id="STZhongsong-30" d="M 326 2182 
Q 326 3251 774 3843 
Q 1222 4435 1997 4435 
Q 2752 4435 3197 3827 
Q 3642 3219 3642 2144 
Q 3642 1139 3178 531 
Q 2714 -77 1952 -77 
Q 1229 -77 777 524 
Q 326 1126 326 2182 
z
M 3040 2182 
Q 3040 3104 2758 3616 
Q 2477 4128 1978 4128 
Q 1478 4128 1200 3590 
Q 922 3053 922 2118 
Q 922 1229 1210 733 
Q 1498 237 1971 237 
Q 2470 237 2755 752 
Q 3040 1267 3040 2182 
z
" transform="scale(0.015625)"/>
        <path id="STZhongsong-31" d="M 2150 4358 
L 2387 4358 
L 2387 742 
Q 2387 422 2464 342 
Q 2541 262 2822 262 
L 3130 262 
L 3130 0 
L 1069 0 
L 1069 262 
L 1408 262 
Q 1670 262 1766 348 
Q 1862 435 1862 742 
L 1862 3718 
L 1069 3718 
L 1069 3987 
Q 1709 4070 2150 4358 
z
" transform="scale(0.015625)"/>
       </defs>
       <use xlink:href="#STZhongsong-32"/>
       <use xlink:href="#STZhongsong-2e" x="61.999985"/>
       <use xlink:href="#STZhongsong-30" x="93.999969"/>
       <use xlink:href="#STZhongsong-31" x="155.999954"/>
      </g>
     </g>
    </g>
    <g id="xtick_2">
     <g id="line2d_2">
      <g>
       <use xlink:href="#m98f19526b0" x="83.299612" y="255.28101" style="stroke: #000000; stroke-width: 0.8"/>
      </g>
     </g>
     <g id="text_2">
      <!-- 2.11 -->
      <g transform="translate(72.399612 269.440385) scale(0.1 -0.1)">
       <use xlink:href="#STZhongsong-32"/>
       <use xlink:href="#STZhongsong-2e" x="61.999985"/>
       <use xlink:href="#STZhongsong-31" x="93.999969"/>
       <use xlink:href="#STZhongsong-31" x="155.999954"/>
      </g>
     </g>
    </g>
    <g id="xtick_3">
     <g id="line2d_3">
      <g>
       <use xlink:href="#m98f19526b0" x="109.688152" y="255.28101" style="stroke: #000000; stroke-width: 0.8"/>
      </g>
     </g>
     <g id="text_3">
      <!-- 2.2 -->
      <g transform="translate(101.888152 269.440385) scale(0.1 -0.1)">
       <use xlink:href="#STZhongsong-32"/>
       <use xlink:href="#STZhongsong-2e" x="61.999985"/>
       <use xlink:href="#STZhongsong-32" x="93.999969"/>
      </g>
     </g>
    </g>
    <g id="xtick_4">
     <g id="line2d_4">
      <g>
       <use xlink:href="#m98f19526b0" x="136.076692" y="255.28101" style="stroke: #000000; stroke-width: 0.8"/>
      </g>
     </g>
     <g id="text_4">
      <!-- 2.3 -->
      <g transform="translate(128.276692 269.440385) scale(0.1 -0.1)">
       <defs>
        <path id="STZhongsong-33" d="M 934 3194 
L 634 3238 
Q 717 3827 1097 4131 
Q 1478 4435 2061 4435 
Q 2662 4435 3046 4124 
Q 3430 3814 3430 3360 
Q 3430 3021 3190 2761 
Q 2950 2502 2502 2374 
Q 3046 2298 3334 1974 
Q 3622 1651 3622 1222 
Q 3622 698 3155 310 
Q 2688 -77 1997 -77 
Q 1299 -77 844 275 
Q 390 627 390 960 
Q 390 1114 505 1184 
Q 621 1254 710 1254 
Q 922 1254 1043 858 
Q 1133 544 1369 377 
Q 1606 211 1952 211 
Q 2419 211 2720 512 
Q 3021 813 3021 1267 
Q 3021 1702 2717 1952 
Q 2413 2202 1862 2202 
L 1568 2202 
L 1568 2502 
L 1754 2502 
Q 2829 2502 2829 3283 
Q 2829 3629 2592 3843 
Q 2355 4058 1952 4058 
Q 1107 4058 934 3194 
z
" transform="scale(0.015625)"/>
       </defs>
       <use xlink:href="#STZhongsong-32"/>
       <use xlink:href="#STZhongsong-2e" x="61.999985"/>
       <use xlink:href="#STZhongsong-33" x="93.999969"/>
      </g>
     </g>
    </g>
    <g id="xtick_5">
     <g id="line2d_5">
      <g>
       <use xlink:href="#m98f19526b0" x="162.465232" y="255.28101" style="stroke: #000000; stroke-width: 0.8"/>
      </g>
     </g>
     <g id="text_5">
      <!-- 2.4 -->
      <g transform="translate(154.665232 269.440385) scale(0.1 -0.1)">
       <defs>
        <path id="STZhongsong-34" d="M 3494 1242 
L 2906 1242 
L 2906 518 
Q 2906 275 3213 250 
L 3213 45 
L 1882 45 
L 1882 250 
Q 2054 262 2156 336 
Q 2259 410 2259 518 
L 2259 1242 
L 550 1242 
L 550 1658 
L 2483 4365 
L 2906 4365 
L 2906 1581 
L 3494 1581 
L 3494 1242 
z
M 2259 1581 
L 2259 3462 
L 902 1581 
L 2259 1581 
z
" transform="scale(0.015625)"/>
       </defs>
       <use xlink:href="#STZhongsong-32"/>
       <use xlink:href="#STZhongsong-2e" x="61.999985"/>
       <use xlink:href="#STZhongsong-34" x="93.999969"/>
      </g>
     </g>
    </g>
    <g id="xtick_6">
     <g id="line2d_6">
      <g>
       <use xlink:href="#m98f19526b0" x="188.853772" y="255.28101" style="stroke: #000000; stroke-width: 0.8"/>
      </g>
     </g>
     <g id="text_6">
      <!-- 2.49 -->
      <g transform="translate(177.953772 269.440385) scale(0.1 -0.1)">
       <defs>
        <path id="STZhongsong-39" d="M 736 -77 
L 736 218 
Q 1856 224 2374 688 
Q 2893 1152 2938 2138 
Q 2707 1798 2425 1638 
Q 2144 1478 1734 1478 
Q 1088 1478 681 1884 
Q 275 2291 275 2925 
Q 275 3616 720 4025 
Q 1165 4435 1882 4435 
Q 2688 4435 3126 3916 
Q 3565 3398 3565 2438 
Q 3565 1574 3181 963 
Q 2797 352 2201 137 
Q 1606 -77 979 -77 
L 736 -77 
z
M 896 2950 
Q 896 2445 1174 2128 
Q 1453 1811 1875 1811 
Q 2317 1811 2611 2147 
Q 2906 2483 2906 2970 
Q 2906 3475 2618 3814 
Q 2330 4154 1901 4154 
Q 1459 4154 1177 3824 
Q 896 3494 896 2950 
z
" transform="scale(0.015625)"/>
       </defs>
       <use xlink:href="#STZhongsong-32"/>
       <use xlink:href="#STZhongsong-2e" x="61.999985"/>
       <use xlink:href="#STZhongsong-34" x="93.999969"/>
       <use xlink:href="#STZhongsong-39" x="155.999954"/>
      </g>
     </g>
    </g>
    <g id="text_7">
     <!-- 剂量对数 -->
     <g transform="translate(102.882422 282.99976) scale(0.1 -0.1)">
      <defs>
       <path id="STZhongsong-5242" d="M 1517 4979 
Q 2061 4806 2240 4678 
Q 2419 4550 2419 4403 
Q 2419 4122 2300 4026 
Q 2182 3930 2064 3930 
Q 1946 3930 1898 4144 
Q 1850 4358 1744 4512 
Q 1638 4666 1453 4870 
L 1517 4979 
z
M 5203 4826 
Q 5350 4781 5619 4685 
Q 5888 4589 5933 4557 
Q 5978 4525 5978 4486 
Q 5978 4403 5760 4301 
L 5760 -371 
Q 5760 -595 5648 -726 
Q 5536 -858 5309 -960 
Q 5082 -1062 5021 -1062 
Q 4960 -1062 4947 -979 
Q 4896 -698 4701 -560 
Q 4506 -422 4173 -320 
L 4211 -205 
Q 4858 -314 5008 -314 
Q 5158 -314 5187 -288 
Q 5216 -262 5216 -205 
L 5216 4256 
Q 5216 4576 5203 4826 
z
M 2413 3693 
L 710 3693 
Q 538 3693 442 3648 
L 326 3936 
Q 461 3904 646 3904 
L 2982 3904 
L 3187 4186 
Q 3232 4250 3283 4250 
Q 3334 4250 3609 4026 
Q 3885 3802 3885 3747 
Q 3885 3693 3782 3693 
L 3002 3693 
Q 2778 3200 2522 2867 
Q 3206 2618 3411 2442 
Q 3616 2266 3616 2010 
Q 3616 1696 3437 1696 
Q 3360 1696 3270 1798 
Q 2957 2138 2246 2541 
Q 1901 2195 1478 1939 
Q 1843 1869 1936 1833 
Q 2029 1798 2029 1753 
Q 2029 1709 1949 1673 
Q 1869 1638 1869 1523 
Q 1843 755 1731 329 
Q 1619 -96 1331 -393 
Q 1043 -691 448 -973 
L 397 -890 
Q 826 -557 1018 -262 
Q 1210 32 1270 486 
Q 1331 941 1338 1856 
Q 877 1606 230 1389 
L 179 1498 
Q 1280 2099 1837 2765 
Q 1325 3034 736 3258 
L 781 3373 
Q 1395 3226 2042 3027 
Q 2259 3341 2413 3693 
z
M 4026 3930 
Q 4493 3808 4589 3766 
Q 4685 3725 4685 3686 
Q 4685 3648 4550 3578 
L 4550 1139 
L 4563 570 
Q 4563 506 4524 474 
Q 4486 442 4313 374 
Q 4141 307 4083 307 
Q 4026 307 4026 378 
L 4032 627 
Q 4038 768 4038 1139 
L 4038 3418 
Q 4038 3706 4026 3930 
z
M 2528 1939 
Q 2650 1914 2883 1853 
Q 3117 1792 3152 1766 
Q 3187 1741 3187 1696 
Q 3187 1651 3046 1568 
L 3046 -570 
Q 3046 -634 2998 -669 
Q 2950 -704 2796 -761 
Q 2643 -819 2579 -819 
Q 2515 -819 2515 -742 
L 2528 -474 
Q 2534 -173 2534 90 
L 2534 1370 
Q 2534 1843 2528 1939 
z
" transform="scale(0.015625)"/>
       <path id="STZhongsong-91cf" d="M 2054 4480 
L 4410 4480 
L 4576 4691 
Q 4608 4730 4640 4730 
Q 4691 4730 4969 4582 
Q 5248 4435 5248 4368 
Q 5248 4301 5024 4198 
L 5024 3738 
Q 5024 3552 5037 3341 
L 5043 3142 
Q 5043 3098 5030 3075 
Q 5018 3053 4922 2992 
Q 4826 2931 4685 2876 
Q 4544 2822 4509 2822 
Q 4474 2822 4474 2880 
L 4474 3046 
L 2016 3046 
Q 2029 2989 2006 2960 
Q 1984 2931 1897 2886 
Q 1811 2842 1660 2797 
Q 1510 2752 1475 2752 
Q 1440 2752 1446 2822 
Q 1478 3130 1478 3456 
L 1478 4198 
Q 1478 4467 1459 4742 
Q 1830 4608 2054 4480 
z
M 4474 3853 
L 4474 4294 
L 2016 4294 
L 2016 3853 
L 4474 3853 
z
M 4474 3213 
L 4474 3674 
L 2016 3674 
L 2016 3213 
L 4474 3213 
z
M 5171 2675 
L 5395 3040 
Q 5434 3110 5491 3110 
Q 5549 3110 5690 2989 
L 5984 2746 
Q 6138 2618 6138 2560 
Q 6138 2502 5990 2502 
L 640 2502 
Q 467 2502 371 2458 
L 256 2707 
Q 390 2675 576 2675 
L 5171 2675 
z
M 3482 672 
L 3482 166 
L 4666 166 
L 4864 416 
Q 4902 474 4950 474 
Q 4998 474 5251 285 
Q 5504 96 5504 38 
Q 5504 -19 5286 -19 
L 3482 -19 
L 3482 -550 
L 5203 -550 
L 5434 -230 
Q 5485 -160 5542 -160 
Q 5600 -160 5865 -390 
Q 6131 -621 6131 -691 
Q 6131 -736 5965 -736 
L 582 -736 
Q 410 -736 314 -781 
L 198 -518 
Q 333 -550 518 -550 
L 2931 -550 
L 2931 -19 
L 1274 -19 
Q 1101 -19 1005 -64 
L 877 198 
Q 1011 166 1197 166 
L 2931 166 
L 2931 672 
L 1843 672 
Q 1843 589 1824 569 
Q 1805 550 1725 505 
Q 1645 461 1481 413 
Q 1318 365 1296 365 
Q 1274 365 1280 422 
Q 1312 717 1312 1050 
L 1312 1747 
Q 1312 2074 1293 2355 
Q 1715 2253 1926 2150 
L 4544 2150 
L 4685 2362 
Q 4717 2413 4765 2413 
Q 4813 2413 4944 2333 
Q 5075 2253 5209 2157 
Q 5344 2061 5344 2029 
Q 5344 1971 5126 1850 
L 5126 1363 
Q 5126 1056 5133 954 
L 5139 762 
Q 5139 704 5091 669 
Q 5043 634 4880 592 
Q 4717 550 4627 550 
Q 4576 550 4576 627 
L 4576 672 
L 3482 672 
z
M 2931 1510 
L 2931 1978 
L 1843 1978 
L 1843 1510 
L 2931 1510 
z
M 3482 1978 
L 3482 1510 
L 4576 1510 
L 4576 1978 
L 3482 1978 
z
M 3482 1312 
L 3482 858 
L 4576 858 
L 4576 1312 
L 3482 1312 
z
M 2931 858 
L 2931 1312 
L 1843 1312 
L 1843 858 
L 2931 858 
z
" transform="scale(0.015625)"/>
       <path id="STZhongsong-5bf9" d="M 5082 3290 
L 5357 3290 
L 5638 3642 
Q 5690 3706 5741 3706 
Q 5792 3706 5923 3578 
Q 6054 3450 6166 3325 
Q 6278 3200 6278 3126 
Q 6278 3053 6093 3053 
L 5082 3053 
L 5082 -141 
Q 5082 -461 4963 -617 
Q 4845 -774 4617 -889 
Q 4390 -1005 4307 -1005 
Q 4224 -1005 4211 -902 
Q 4173 -602 4019 -467 
Q 3866 -333 3373 -160 
L 3405 13 
Q 4058 -128 4230 -128 
Q 4403 -128 4457 -99 
Q 4512 -70 4512 6 
L 4512 3053 
L 3149 3053 
Q 2989 3053 2874 3021 
L 2765 3322 
Q 2899 3290 3085 3290 
L 4512 3290 
L 4512 4230 
Q 4512 4595 4499 4909 
Q 4666 4864 4957 4771 
Q 5248 4678 5328 4633 
Q 5408 4589 5408 4544 
Q 5408 4454 5082 4358 
L 5082 3290 
z
M 1747 2234 
Q 2061 2976 2214 3802 
L 742 3802 
Q 570 3802 474 3757 
L 358 4032 
Q 493 4000 678 4000 
L 2189 4000 
L 2362 4230 
Q 2413 4294 2441 4294 
Q 2470 4294 2668 4166 
Q 2867 4038 2985 3955 
Q 3104 3872 3104 3821 
Q 3104 3770 2989 3750 
Q 2778 3718 2701 3482 
Q 2374 2464 2054 1862 
Q 2547 1261 2713 963 
Q 2880 666 2880 464 
Q 2880 262 2768 80 
Q 2656 -102 2557 -102 
Q 2458 -102 2416 -32 
Q 2374 38 2336 186 
Q 2195 768 1818 1440 
Q 1325 627 205 -435 
L 109 -346 
Q 1075 826 1581 1862 
Q 1293 2362 698 3270 
L 787 3341 
Q 1466 2573 1747 2234 
z
M 3021 2387 
Q 3597 1997 3795 1763 
Q 3994 1530 3994 1334 
Q 3994 1139 3885 1011 
Q 3776 883 3648 883 
Q 3578 883 3539 1018 
Q 3418 1440 3290 1712 
Q 3162 1984 2950 2317 
L 3021 2387 
z
" transform="scale(0.015625)"/>
       <path id="STZhongsong-6570" d="M 2394 3334 
L 2938 3334 
L 3136 3616 
Q 3181 3680 3245 3680 
Q 3309 3680 3520 3462 
Q 3731 3245 3731 3193 
Q 3731 3142 3610 3142 
L 2394 3142 
L 2394 3027 
Q 2784 2938 3069 2819 
Q 3354 2701 3354 2515 
Q 3354 2381 3296 2227 
Q 3238 2074 3171 2074 
Q 3104 2074 3069 2109 
Q 3034 2144 2963 2259 
Q 2893 2374 2720 2556 
Q 2547 2739 2394 2854 
Q 2406 2381 2406 2259 
Q 2406 2138 2393 2099 
Q 2381 2061 2217 2006 
Q 2054 1952 1971 1933 
Q 2291 1811 2291 1722 
Q 2291 1670 2227 1660 
Q 2163 1651 2118 1609 
Q 2074 1568 1990 1434 
L 2637 1434 
L 2803 1619 
Q 2854 1677 2892 1677 
Q 2931 1677 3190 1481 
Q 3450 1286 3450 1228 
Q 3450 1171 3338 1148 
Q 3226 1126 3168 1088 
Q 3110 1050 3053 941 
Q 2848 563 2637 307 
Q 3040 205 3133 38 
Q 3226 -128 3226 -262 
Q 3226 -397 3187 -467 
Q 3149 -538 3101 -538 
Q 3053 -538 2816 -378 
Q 2579 -218 2278 -51 
Q 1664 -589 384 -992 
L 333 -877 
Q 1338 -371 1875 141 
Q 1440 326 845 474 
Q 1184 954 1331 1222 
L 691 1222 
Q 518 1222 422 1190 
L 307 1453 
Q 410 1434 627 1434 
L 1440 1434 
Q 1626 1824 1690 2035 
Q 1818 1997 1869 1978 
Q 1888 2515 1888 2874 
Q 1421 2125 282 1613 
L 243 1715 
Q 1075 2330 1549 3142 
L 589 3142 
Q 467 3142 390 3110 
L 301 3366 
Q 416 3334 550 3334 
L 1888 3334 
L 1888 4147 
Q 1888 4698 1875 4877 
Q 2592 4723 2592 4653 
Q 2592 4608 2394 4499 
L 2394 3334 
z
M 1856 1222 
L 1427 570 
Q 1914 480 2138 429 
Q 2413 762 2630 1222 
L 1856 1222 
z
M 4326 3270 
L 5222 3270 
L 5485 3590 
Q 5549 3661 5609 3661 
Q 5670 3661 5939 3421 
Q 6208 3181 6208 3117 
Q 6208 3072 6054 3072 
L 5050 3072 
Q 5638 2925 5638 2810 
Q 5638 2771 5542 2742 
Q 5446 2714 5404 2643 
Q 5363 2573 5338 2438 
Q 5088 1069 4749 518 
Q 5261 -186 6304 -646 
L 6246 -774 
Q 6080 -730 5933 -730 
Q 5658 -730 5446 -902 
Q 5389 -947 5363 -947 
Q 5299 -947 4934 -534 
Q 4570 -122 4448 102 
Q 4115 -301 3657 -579 
Q 3200 -858 2470 -1139 
L 2413 -1005 
Q 3642 -307 4211 544 
Q 3942 1152 3878 2342 
Q 3654 1946 3322 1491 
L 3213 1555 
Q 3949 2963 4109 4877 
Q 4333 4832 4563 4761 
Q 4794 4691 4858 4649 
Q 4922 4608 4922 4563 
Q 4922 4518 4813 4492 
Q 4704 4467 4653 4384 
Q 4602 4301 4538 3974 
Q 4474 3648 4326 3270 
z
M 4870 3072 
L 4250 3072 
L 4064 2682 
Q 4141 1594 4454 979 
Q 4723 1619 4870 3072 
z
M 3104 4602 
Q 3264 4525 3453 4422 
Q 3642 4320 3670 4288 
Q 3699 4256 3699 4221 
Q 3699 4186 3673 4170 
Q 3648 4154 3539 4154 
Q 3430 4154 3315 4038 
Q 2957 3680 2528 3392 
L 2464 3488 
Q 2906 4102 3104 4602 
z
M 653 4512 
Q 1171 4326 1353 4201 
Q 1536 4077 1536 3901 
Q 1536 3725 1453 3590 
Q 1370 3456 1286 3456 
Q 1203 3456 1164 3494 
Q 1126 3533 1084 3673 
Q 1043 3814 899 4038 
Q 755 4262 589 4429 
L 653 4512 
z
" transform="scale(0.015625)"/>
      </defs>
      <use xlink:href="#STZhongsong-5242"/>
      <use xlink:href="#STZhongsong-91cf" x="99.999985"/>
      <use xlink:href="#STZhongsong-5bf9" x="199.999969"/>
      <use xlink:href="#STZhongsong-6570" x="299.999954"/>
     </g>
    </g>
   </g>
   <g id="matplotlib.axis_2">
    <g id="ytick_1">
     <g id="line2d_7">
      <defs>
       <path id="mb9e537a4f4" d="M 0 0 
L -3.5 0 
" style="stroke: #000000; stroke-width: 0.8"/>
      </defs>
      <g>
       <use xlink:href="#mb9e537a4f4" x="35.80024" y="255.28101" style="stroke: #000000; stroke-width: 0.8"/>
      </g>
     </g>
     <g id="text_8">
      <!-- 0 -->
      <g transform="translate(22.60024 258.860698) scale(0.1 -0.1)">
       <use xlink:href="#STZhongsong-30"/>
      </g>
     </g>
    </g>
    <g id="ytick_2">
     <g id="line2d_8">
      <g>
       <use xlink:href="#mb9e537a4f4" x="35.80024" y="220.131609" style="stroke: #000000; stroke-width: 0.8"/>
      </g>
     </g>
     <g id="text_9">
      <!-- 2 -->
      <g transform="translate(22.60024 223.711296) scale(0.1 -0.1)">
       <use xlink:href="#STZhongsong-32"/>
      </g>
     </g>
    </g>
    <g id="ytick_3">
     <g id="line2d_9">
      <g>
       <use xlink:href="#mb9e537a4f4" x="35.80024" y="184.982208" style="stroke: #000000; stroke-width: 0.8"/>
      </g>
     </g>
     <g id="text_10">
      <!-- 4 -->
      <g transform="translate(22.60024 188.561895) scale(0.1 -0.1)">
       <use xlink:href="#STZhongsong-34"/>
      </g>
     </g>
    </g>
    <g id="ytick_4">
     <g id="line2d_10">
      <g>
       <use xlink:href="#mb9e537a4f4" x="35.80024" y="149.832806" style="stroke: #000000; stroke-width: 0.8"/>
      </g>
     </g>
     <g id="text_11">
      <!-- 6 -->
      <g transform="translate(22.60024 153.412494) scale(0.1 -0.1)">
       <defs>
        <path id="STZhongsong-36" d="M 3238 4442 
L 3238 4154 
Q 2131 4141 1603 3686 
Q 1075 3232 1037 2227 
Q 1446 2893 2240 2893 
Q 2880 2893 3289 2486 
Q 3699 2080 3699 1440 
Q 3699 742 3257 332 
Q 2816 -77 2093 -77 
Q 1286 -77 848 444 
Q 410 966 410 1926 
Q 410 3046 1056 3744 
Q 1702 4442 2995 4442 
L 3238 4442 
z
M 3072 1414 
Q 3072 1933 2800 2246 
Q 2528 2560 2099 2560 
Q 1658 2560 1363 2224 
Q 1069 1888 1069 1402 
Q 1069 890 1350 550 
Q 1632 211 2074 211 
Q 2509 211 2790 544 
Q 3072 877 3072 1414 
z
" transform="scale(0.015625)"/>
       </defs>
       <use xlink:href="#STZhongsong-36"/>
      </g>
     </g>
    </g>
    <g id="ytick_5">
     <g id="line2d_11">
      <g>
       <use xlink:href="#mb9e537a4f4" x="35.80024" y="114.683405" style="stroke: #000000; stroke-width: 0.8"/>
      </g>
     </g>
     <g id="text_12">
      <!-- 8 -->
      <g transform="translate(22.60024 118.263093) scale(0.1 -0.1)">
       <defs>
        <path id="STZhongsong-38" d="M 2477 2419 
Q 3021 2208 3315 1923 
Q 3610 1638 3610 1197 
Q 3610 659 3152 291 
Q 2694 -77 1971 -77 
Q 1274 -77 816 272 
Q 358 621 358 1120 
Q 358 1485 633 1779 
Q 909 2074 1440 2259 
Q 1011 2451 800 2691 
Q 589 2931 589 3315 
Q 589 3814 998 4124 
Q 1408 4435 2035 4435 
Q 2618 4435 2998 4134 
Q 3379 3834 3379 3424 
Q 3379 2790 2477 2419 
z
M 2189 2534 
Q 2451 2707 2662 2918 
Q 2874 3130 2874 3418 
Q 2874 3706 2621 3923 
Q 2368 4141 1971 4141 
Q 1594 4141 1331 3926 
Q 1069 3712 1069 3430 
Q 1069 3168 1270 2989 
Q 1472 2810 1824 2675 
L 2189 2534 
z
M 1747 2131 
Q 1325 1939 1088 1670 
Q 851 1402 851 1126 
Q 851 762 1177 490 
Q 1504 218 1984 218 
Q 2438 218 2774 483 
Q 3110 749 3110 1082 
Q 3110 1594 2253 1933 
L 1747 2131 
z
" transform="scale(0.015625)"/>
       </defs>
       <use xlink:href="#STZhongsong-38"/>
      </g>
     </g>
    </g>
    <g id="ytick_6">
     <g id="line2d_12">
      <g>
       <use xlink:href="#mb9e537a4f4" x="35.80024" y="79.534004" style="stroke: #000000; stroke-width: 0.8"/>
      </g>
     </g>
     <g id="text_13">
      <!-- 10 -->
      <g transform="translate(16.40024 83.113692) scale(0.1 -0.1)">
       <use xlink:href="#STZhongsong-31"/>
       <use xlink:href="#STZhongsong-30" x="61.999985"/>
      </g>
     </g>
    </g>
    <g id="ytick_7">
     <g id="line2d_13">
      <g>
       <use xlink:href="#mb9e537a4f4" x="35.80024" y="44.384603" style="stroke: #000000; stroke-width: 0.8"/>
      </g>
     </g>
     <g id="text_14">
      <!-- 12 -->
      <g transform="translate(16.40024 47.96429) scale(0.1 -0.1)">
       <use xlink:href="#STZhongsong-31"/>
       <use xlink:href="#STZhongsong-32" x="61.999985"/>
      </g>
     </g>
    </g>
    <g id="text_15">
     <!-- 死亡数（只） -->
     <g transform="translate(10.40024 174.560396) rotate(-90) scale(0.1 -0.1)">
      <defs>
       <path id="STZhongsong-6b7b" d="M 1606 4006 
L 659 4006 
Q 486 4006 390 3962 
L 275 4269 
Q 410 4237 595 4237 
L 4934 4237 
L 5203 4653 
Q 5254 4730 5308 4730 
Q 5363 4730 5673 4426 
Q 5984 4122 5984 4064 
Q 5984 4006 5792 4006 
L 3750 4006 
Q 3974 3923 4150 3820 
Q 4326 3718 4326 3667 
Q 4326 3616 4102 3526 
L 4102 1715 
Q 4698 2259 5248 3226 
Q 5389 3130 5629 2928 
Q 5869 2726 5869 2662 
Q 5869 2624 5744 2624 
Q 5619 2624 5401 2425 
Q 5184 2227 4813 1955 
Q 4442 1683 4102 1485 
L 4102 128 
Q 4102 -58 4140 -138 
Q 4179 -218 4268 -237 
Q 4358 -256 4790 -256 
Q 5222 -256 5334 -192 
Q 5446 -128 5523 150 
Q 5600 429 5683 1114 
L 5824 1114 
Q 5805 806 5805 528 
Q 5805 250 5865 112 
Q 5926 -26 6080 -90 
Q 6157 -122 6157 -218 
Q 6157 -314 6006 -499 
Q 5856 -685 5485 -729 
Q 5114 -774 4659 -774 
Q 4205 -774 3958 -723 
Q 3712 -672 3638 -531 
Q 3565 -390 3565 -13 
L 3565 3366 
Q 3565 3661 3552 4006 
L 1843 4006 
Q 2349 3808 2349 3725 
Q 2349 3680 2243 3648 
Q 2138 3616 2080 3536 
Q 2022 3456 1958 3277 
Q 1894 3098 1779 2829 
L 2534 2829 
L 2720 3066 
Q 2758 3110 2803 3110 
Q 2848 3110 3014 3002 
L 3283 2810 
Q 3398 2733 3398 2675 
Q 3398 2618 3264 2547 
Q 3155 2490 3085 2221 
Q 2701 774 1958 99 
Q 1216 -576 96 -960 
L 45 -851 
Q 1210 -218 1802 560 
Q 2394 1338 2579 2573 
L 1658 2573 
Q 1491 2259 1357 2048 
Q 1670 1818 1840 1642 
Q 2010 1466 2010 1309 
Q 2010 1152 1888 979 
Q 1766 806 1651 806 
Q 1574 806 1552 860 
Q 1530 915 1517 1088 
Q 1498 1491 1267 1907 
Q 800 1203 147 621 
L 58 698 
Q 1107 2074 1606 4006 
z
" transform="scale(0.015625)"/>
       <path id="STZhongsong-4ea1" d="M 2490 4787 
Q 3098 4678 3418 4518 
Q 3738 4358 3738 4124 
Q 3738 3891 3584 3696 
Q 3430 3501 3322 3501 
Q 3264 3501 3229 3533 
Q 3194 3565 3149 3674 
Q 2970 4090 2832 4282 
Q 2694 4474 2438 4678 
L 2490 4787 
z
M 2099 3162 
L 2099 -256 
L 4730 -256 
L 4960 83 
Q 5024 173 5085 173 
Q 5146 173 5469 -73 
Q 5792 -320 5792 -393 
Q 5792 -467 5696 -467 
L 2150 -467 
L 1952 -698 
Q 1901 -755 1865 -755 
Q 1830 -755 1734 -688 
Q 1638 -621 1494 -509 
Q 1350 -397 1242 -288 
Q 1478 -77 1500 0 
Q 1523 77 1523 237 
L 1523 3162 
L 646 3162 
Q 474 3162 378 3117 
L 262 3379 
Q 397 3347 582 3347 
L 4966 3347 
L 5248 3744 
Q 5318 3846 5398 3846 
Q 5478 3846 5779 3587 
Q 6080 3328 6080 3245 
Q 6080 3162 5952 3162 
L 2099 3162 
z
" transform="scale(0.015625)"/>
       <path id="STZhongsong-ff08" d="M 5747 4563 
Q 4781 3258 4781 1997 
Q 4781 1075 5011 480 
Q 5242 -115 5741 -826 
L 5587 -966 
Q 4864 -320 4515 368 
Q 4166 1056 4166 1990 
Q 4166 2688 4537 3395 
Q 4909 4102 5619 4698 
L 5747 4563 
z
" transform="scale(0.015625)"/>
       <path id="STZhongsong-53ea" d="M 2157 4186 
L 4326 4186 
L 4486 4422 
Q 4538 4499 4582 4499 
Q 4627 4499 4816 4387 
Q 5005 4275 5133 4179 
Q 5261 4083 5261 4045 
Q 5261 3981 5005 3853 
L 5005 2029 
Q 5005 1869 5011 1747 
L 5024 1562 
Q 5024 1510 4998 1484 
Q 4973 1459 4861 1408 
Q 4749 1357 4601 1325 
Q 4454 1293 4422 1293 
Q 4390 1293 4390 1370 
L 4390 1875 
L 2099 1875 
L 2099 1542 
Q 2099 1453 2064 1427 
Q 2029 1402 1814 1344 
Q 1600 1286 1523 1286 
Q 1498 1286 1498 1350 
L 1504 1619 
Q 1510 1734 1510 1875 
L 1510 3834 
Q 1510 4154 1491 4486 
Q 1888 4339 2157 4186 
z
M 4390 2074 
L 4390 3981 
L 2099 3981 
L 2099 2074 
L 4390 2074 
z
M 2502 1382 
Q 3168 986 3168 915 
Q 3168 883 3065 870 
Q 2963 858 2873 800 
Q 2784 742 2650 602 
Q 2157 90 1619 -278 
Q 1082 -646 358 -992 
L 320 -890 
Q 1517 -58 2502 1382 
z
M 3533 1325 
Q 4371 922 4784 685 
Q 5197 448 5360 262 
Q 5523 77 5568 -144 
Q 5613 -365 5613 -480 
Q 5613 -595 5520 -739 
Q 5427 -883 5353 -883 
Q 5280 -883 5232 -838 
Q 5184 -794 5107 -640 
Q 4890 -224 4422 317 
Q 3955 858 3482 1222 
L 3533 1325 
z
" transform="scale(0.015625)"/>
       <path id="STZhongsong-ff09" d="M 819 4787 
Q 1536 4166 1904 3433 
Q 2272 2701 2272 1904 
Q 2272 1107 1881 323 
Q 1491 -461 800 -973 
L 646 -832 
Q 1158 -179 1398 486 
Q 1638 1152 1638 1933 
Q 1638 2714 1382 3421 
Q 1126 4128 646 4653 
L 819 4787 
z
" transform="scale(0.015625)"/>
      </defs>
      <use xlink:href="#STZhongsong-6b7b"/>
      <use xlink:href="#STZhongsong-4ea1" x="99.999985"/>
      <use xlink:href="#STZhongsong-6570" x="199.999969"/>
      <use xlink:href="#STZhongsong-ff08" x="299.999954"/>
      <use xlink:href="#STZhongsong-53ea" x="399.999939"/>
      <use xlink:href="#STZhongsong-ff09" x="499.999924"/>
     </g>
    </g>
   </g>
   <g id="patch_9">
    <path d="M 35.80024 255.28101 
L 35.80024 33.839782 
" style="fill: none; stroke: #000000; stroke-width: 0.8; stroke-linejoin: miter; stroke-linecap: square"/>
   </g>
   <g id="patch_10">
    <path d="M 209.964604 255.28101 
L 209.964604 33.839782 
" style="fill: none; stroke: #000000; stroke-width: 0.8; stroke-linejoin: miter; stroke-linecap: square"/>
   </g>
   <g id="patch_11">
    <path d="M 35.80024 255.28101 
L 209.964604 255.28101 
" style="fill: none; stroke: #000000; stroke-width: 0.8; stroke-linejoin: miter; stroke-linecap: square"/>
   </g>
   <g id="patch_12">
    <path d="M 35.80024 33.839782 
L 209.964604 33.839782 
" style="fill: none; stroke: #000000; stroke-width: 0.8; stroke-linejoin: miter; stroke-linecap: square"/>
   </g>
   <g id="text_16">
    <!-- 死亡频数图 -->
    <g transform="translate(97.882422 27.839782) scale(0.1 -0.1)">
     <defs>
      <path id="STZhongsong-9891" d="M 2246 3642 
L 2419 3642 
L 2656 3936 
Q 2682 3974 2707 3974 
Q 2746 3974 2960 3798 
Q 3174 3622 3174 3536 
Q 3174 3450 3053 3450 
L 2246 3450 
L 2246 2541 
L 2496 2541 
L 2694 2784 
Q 2739 2842 2784 2842 
Q 2829 2842 2941 2733 
Q 3053 2624 3142 2541 
Q 3232 2458 3232 2400 
Q 3232 2342 3123 2342 
L 2138 2342 
L 2138 723 
Q 2413 1197 2586 1856 
Q 3168 1555 3168 1472 
Q 3168 1440 3097 1414 
Q 3027 1389 2976 1312 
Q 2925 1235 2752 922 
Q 2298 70 1725 -330 
Q 1152 -730 186 -1114 
L 154 -1018 
Q 1395 -301 1939 422 
Q 1696 339 1657 339 
Q 1619 339 1619 416 
L 1626 678 
Q 1638 947 1638 1261 
L 1638 2342 
L 563 2342 
Q 416 2342 294 2298 
L 179 2573 
Q 314 2541 499 2541 
L 819 2541 
L 819 3706 
Q 819 4026 806 4275 
Q 941 4243 1142 4179 
Q 1344 4115 1414 4083 
Q 1485 4051 1485 4006 
Q 1485 3962 1306 3846 
L 1306 2541 
L 1779 2541 
L 1779 4333 
Q 1779 4653 1766 4902 
Q 2502 4717 2502 4614 
Q 2502 4557 2246 4416 
L 2246 3642 
z
M 4166 4064 
L 3360 4064 
Q 3200 4064 3085 4032 
L 2976 4307 
Q 3110 4275 3296 4275 
L 5254 4275 
L 5523 4634 
Q 5574 4698 5619 4698 
Q 5696 4698 5961 4448 
Q 6227 4198 6227 4131 
Q 6227 4064 6080 4064 
L 4794 4064 
Q 4595 3750 4410 3232 
L 5139 3232 
L 5299 3488 
Q 5350 3565 5398 3565 
Q 5446 3565 5708 3363 
Q 5971 3162 5971 3094 
Q 5971 3027 5747 2893 
L 5747 1069 
Q 5747 851 5754 762 
L 5760 589 
Q 5760 544 5741 518 
Q 5722 493 5642 448 
Q 5562 403 5434 361 
Q 5306 320 5254 320 
Q 5203 320 5203 384 
L 5203 3034 
L 3763 3034 
L 3763 557 
Q 3763 499 3747 470 
Q 3731 442 3644 390 
Q 3558 339 3440 300 
Q 3322 262 3277 262 
Q 3232 262 3232 326 
L 3245 672 
Q 3258 883 3258 1184 
L 3258 2950 
Q 3258 3232 3238 3501 
Q 3514 3418 3859 3232 
L 4096 3232 
Q 4147 3654 4166 4064 
z
M 4493 294 
Q 4064 -570 2381 -1126 
L 2330 -1024 
Q 2938 -749 3338 -435 
Q 3738 -122 3904 153 
Q 4070 429 4140 797 
Q 4211 1165 4211 1670 
Q 4211 2176 4205 2733 
Q 4589 2624 4742 2566 
Q 4896 2509 4896 2477 
Q 4896 2445 4832 2409 
Q 4768 2374 4752 2323 
Q 4736 2272 4730 2099 
Q 4704 922 4544 422 
Q 5120 173 5411 -6 
Q 5702 -186 5804 -342 
Q 5907 -499 5907 -675 
Q 5907 -851 5849 -960 
Q 5792 -1069 5709 -1069 
Q 5555 -1069 5453 -870 
Q 5094 -141 4493 294 
z
M 966 1888 
Q 1190 1818 1363 1738 
Q 1536 1658 1536 1610 
Q 1536 1562 1449 1539 
Q 1363 1517 1216 1200 
Q 1069 883 787 467 
Q 506 51 294 -141 
L 186 -83 
Q 685 704 966 1888 
z
" transform="scale(0.015625)"/>
      <path id="STZhongsong-56fe" d="M 5069 -378 
L 1286 -378 
L 1286 -723 
Q 1286 -794 1270 -813 
Q 1254 -832 1161 -883 
Q 1069 -934 928 -979 
Q 787 -1024 758 -1024 
Q 730 -1024 736 -973 
Q 768 -653 768 -320 
L 768 4211 
Q 768 4480 749 4755 
Q 1171 4589 1446 4422 
L 5018 4422 
L 5210 4685 
Q 5248 4742 5283 4742 
Q 5318 4742 5484 4624 
Q 5651 4506 5763 4416 
Q 5875 4326 5875 4282 
Q 5875 4211 5600 4064 
L 5600 -45 
Q 5600 -384 5606 -480 
L 5613 -653 
Q 5613 -704 5593 -726 
Q 5574 -749 5356 -841 
Q 5139 -934 5104 -934 
Q 5069 -934 5069 -870 
L 5069 -378 
z
M 1286 -205 
L 5069 -205 
L 5069 4230 
L 1286 4230 
L 1286 -205 
z
M 2458 3078 
Q 2035 2624 1504 2221 
L 1414 2304 
Q 1843 2733 2115 3145 
Q 2387 3558 2605 4186 
Q 3232 4038 3232 3974 
Q 3232 3942 3158 3916 
Q 3085 3891 3037 3830 
Q 2989 3770 2906 3635 
L 3859 3635 
L 4051 3840 
Q 4090 3878 4128 3878 
Q 4166 3878 4218 3834 
L 4410 3667 
Q 4550 3552 4595 3501 
Q 4640 3450 4640 3408 
Q 4640 3366 4499 3344 
Q 4358 3322 4294 3232 
Q 3898 2707 3482 2336 
Q 4083 2003 4973 1875 
L 4973 1760 
Q 4755 1734 4611 1673 
Q 4467 1613 4410 1453 
Q 4390 1395 4352 1395 
Q 4282 1395 3885 1600 
Q 3488 1805 3168 2080 
Q 2464 1549 1446 1248 
L 1395 1344 
Q 2406 1843 2931 2317 
Q 2643 2650 2458 3078 
z
M 2771 3450 
Q 2688 3334 2586 3226 
Q 2816 2842 3168 2541 
Q 3590 2963 3802 3450 
L 2771 3450 
z
M 2605 1651 
Q 3149 1562 3421 1440 
Q 3693 1318 3693 1126 
Q 3693 1018 3638 934 
Q 3584 851 3513 851 
Q 3443 851 3366 947 
Q 2963 1331 2586 1530 
L 2605 1651 
z
M 2003 800 
Q 2950 742 3356 659 
Q 3763 576 3907 454 
Q 4051 333 4051 141 
Q 4051 38 4009 -58 
Q 3968 -154 3878 -154 
Q 3827 -154 3718 -83 
Q 3341 173 2950 339 
Q 2560 506 1990 646 
L 2003 800 
z
" transform="scale(0.015625)"/>
     </defs>
     <use xlink:href="#STZhongsong-6b7b"/>
     <use xlink:href="#STZhongsong-4ea1" x="99.999985"/>
     <use xlink:href="#STZhongsong-9891" x="199.999969"/>
     <use xlink:href="#STZhongsong-6570" x="299.999954"/>
     <use xlink:href="#STZhongsong-56fe" x="399.999939"/>
    </g>
   </g>
  </g>
  <g id="axes_2">
   <g id="patch_13">
    <path d="M 254.835396 255.28101 
L 428.99976 255.28101 
L 428.99976 33.839782 
L 254.835396 33.839782 
z
" style="fill: #ffffff"/>
   </g>
   <g id="PathCollection_1">
    <defs>
     <path id="m15b690dd6c" d="M -3 0 
L 3 0 
M 0 3 
L 0 -3 
" style="stroke: #fab387; stroke-width: 1.5"/>
    </defs>
    <g clip-path="url(#pdea921e011)">
     <use xlink:href="#m15b690dd6c" x="262.751958" y="245.2155" style="fill: #fab387; stroke: #fab387; stroke-width: 1.5"/>
     <use xlink:href="#m15b690dd6c" x="294.463719" y="245.2155" style="fill: #fab387; stroke: #fab387; stroke-width: 1.5"/>
     <use xlink:href="#m15b690dd6c" x="326.17548" y="194.887948" style="fill: #fab387; stroke: #fab387; stroke-width: 1.5"/>
     <use xlink:href="#m15b690dd6c" x="357.887241" y="144.560396" style="fill: #fab387; stroke: #fab387; stroke-width: 1.5"/>
     <use xlink:href="#m15b690dd6c" x="389.599001" y="60.681143" style="fill: #fab387; stroke: #fab387; stroke-width: 1.5"/>
     <use xlink:href="#m15b690dd6c" x="421.083198" y="43.905293" style="fill: #fab387; stroke: #fab387; stroke-width: 1.5"/>
    </g>
   </g>
   <g id="matplotlib.axis_3">
    <g id="xtick_7">
     <g id="line2d_14">
      <g>
       <use xlink:href="#m98f19526b0" x="259.381514" y="255.28101" style="stroke: #000000; stroke-width: 0.8"/>
      </g>
     </g>
     <g id="text_17">
      <!-- 2.0 -->
      <g transform="translate(251.581514 269.440385) scale(0.1 -0.1)">
       <use xlink:href="#STZhongsong-32"/>
       <use xlink:href="#STZhongsong-2e" x="61.999985"/>
       <use xlink:href="#STZhongsong-30" x="93.999969"/>
      </g>
     </g>
    </g>
    <g id="xtick_8">
     <g id="line2d_15">
      <g>
       <use xlink:href="#m98f19526b0" x="324.827302" y="255.28101" style="stroke: #000000; stroke-width: 0.8"/>
      </g>
     </g>
     <g id="text_18">
      <!-- 2.2 -->
      <g transform="translate(317.027302 269.440385) scale(0.1 -0.1)">
       <use xlink:href="#STZhongsong-32"/>
       <use xlink:href="#STZhongsong-2e" x="61.999985"/>
       <use xlink:href="#STZhongsong-32" x="93.999969"/>
      </g>
     </g>
    </g>
    <g id="xtick_9">
     <g id="line2d_16">
      <g>
       <use xlink:href="#m98f19526b0" x="390.27309" y="255.28101" style="stroke: #000000; stroke-width: 0.8"/>
      </g>
     </g>
     <g id="text_19">
      <!-- 2.4 -->
      <g transform="translate(382.47309 269.440385) scale(0.1 -0.1)">
       <use xlink:href="#STZhongsong-32"/>
       <use xlink:href="#STZhongsong-2e" x="61.999985"/>
       <use xlink:href="#STZhongsong-34" x="93.999969"/>
      </g>
     </g>
    </g>
    <g id="text_20">
     <!-- 剂量对数 -->
     <g transform="translate(321.917578 282.99976) scale(0.1 -0.1)">
      <use xlink:href="#STZhongsong-5242"/>
      <use xlink:href="#STZhongsong-91cf" x="99.999985"/>
      <use xlink:href="#STZhongsong-5bf9" x="199.999969"/>
      <use xlink:href="#STZhongsong-6570" x="299.999954"/>
     </g>
    </g>
   </g>
   <g id="matplotlib.axis_4">
    <g id="ytick_8">
     <g id="line2d_17">
      <g>
       <use xlink:href="#mb9e537a4f4" x="254.835396" y="245.2155" style="stroke: #000000; stroke-width: 0.8"/>
      </g>
     </g>
     <g id="text_21">
      <!-- 0 -->
      <g transform="translate(241.635396 248.795187) scale(0.1 -0.1)">
       <use xlink:href="#STZhongsong-30"/>
      </g>
     </g>
    </g>
    <g id="ytick_9">
     <g id="line2d_18">
      <g>
       <use xlink:href="#mb9e537a4f4" x="254.835396" y="204.953458" style="stroke: #000000; stroke-width: 0.8"/>
      </g>
     </g>
     <g id="text_22">
      <!-- 20 -->
      <g transform="translate(235.435396 208.533146) scale(0.1 -0.1)">
       <use xlink:href="#STZhongsong-32"/>
       <use xlink:href="#STZhongsong-30" x="61.999985"/>
      </g>
     </g>
    </g>
    <g id="ytick_10">
     <g id="line2d_19">
      <g>
       <use xlink:href="#mb9e537a4f4" x="254.835396" y="164.691417" style="stroke: #000000; stroke-width: 0.8"/>
      </g>
     </g>
     <g id="text_23">
      <!-- 40 -->
      <g transform="translate(235.435396 168.271104) scale(0.1 -0.1)">
       <use xlink:href="#STZhongsong-34"/>
       <use xlink:href="#STZhongsong-30" x="61.999985"/>
      </g>
     </g>
    </g>
    <g id="ytick_11">
     <g id="line2d_20">
      <g>
       <use xlink:href="#mb9e537a4f4" x="254.835396" y="124.429376" style="stroke: #000000; stroke-width: 0.8"/>
      </g>
     </g>
     <g id="text_24">
      <!-- 60 -->
      <g transform="translate(235.435396 128.009063) scale(0.1 -0.1)">
       <use xlink:href="#STZhongsong-36"/>
       <use xlink:href="#STZhongsong-30" x="61.999985"/>
      </g>
     </g>
    </g>
    <g id="ytick_12">
     <g id="line2d_21">
      <g>
       <use xlink:href="#mb9e537a4f4" x="254.835396" y="84.167334" style="stroke: #000000; stroke-width: 0.8"/>
      </g>
     </g>
     <g id="text_25">
      <!-- 80 -->
      <g transform="translate(235.435396 87.747022) scale(0.1 -0.1)">
       <use xlink:href="#STZhongsong-38"/>
       <use xlink:href="#STZhongsong-30" x="61.999985"/>
      </g>
     </g>
    </g>
    <g id="ytick_13">
     <g id="line2d_22">
      <g>
       <use xlink:href="#mb9e537a4f4" x="254.835396" y="43.905293" style="stroke: #000000; stroke-width: 0.8"/>
      </g>
     </g>
     <g id="text_26">
      <!-- 100 -->
      <g transform="translate(229.235396 47.48498) scale(0.1 -0.1)">
       <use xlink:href="#STZhongsong-31"/>
       <use xlink:href="#STZhongsong-30" x="61.999985"/>
       <use xlink:href="#STZhongsong-30" x="123.999969"/>
      </g>
     </g>
    </g>
    <g id="text_27">
     <!-- 死亡率（%） -->
     <g transform="translate(223.235396 174.060396) rotate(-90) scale(0.1 -0.1)">
      <defs>
       <path id="STZhongsong-7387" d="M 3008 3930 
Q 2867 4262 2771 4409 
Q 2675 4557 2426 4717 
L 2483 4832 
Q 3002 4749 3270 4621 
Q 3539 4493 3539 4291 
Q 3539 4090 3347 3930 
L 4947 3930 
L 5210 4333 
Q 5274 4422 5334 4422 
Q 5395 4422 5683 4137 
Q 5971 3853 5971 3798 
Q 5971 3744 5830 3744 
L 3110 3744 
Q 3219 3706 3382 3610 
Q 3546 3514 3546 3462 
Q 3546 3411 3478 3398 
Q 3411 3386 3257 3270 
Q 3104 3155 2419 2707 
L 3245 2675 
Q 3584 3053 3834 3424 
Q 3968 3354 4185 3190 
Q 4403 3027 4403 2976 
Q 4403 2938 4269 2938 
Q 4205 2938 4019 2778 
Q 3411 2246 2432 1638 
L 3776 1728 
Q 3680 1933 3475 2163 
L 3533 2246 
Q 3987 2003 4230 1801 
Q 4474 1600 4474 1443 
Q 4474 1286 4365 1123 
Q 4256 960 4141 960 
Q 4064 960 4032 1021 
Q 4000 1082 3952 1261 
Q 3904 1440 3859 1555 
Q 3482 1485 2925 1344 
Q 3136 1350 3353 1308 
Q 3571 1267 3571 1187 
Q 3571 1107 3437 1018 
L 3437 602 
L 5184 602 
L 5434 986 
Q 5491 1082 5571 1082 
Q 5651 1082 5747 986 
L 6022 704 
Q 6202 525 6202 464 
Q 6202 403 6035 403 
L 3437 403 
L 3437 -179 
Q 3437 -390 3450 -627 
L 3456 -845 
Q 3456 -896 3398 -934 
Q 3341 -973 3165 -1037 
Q 2989 -1101 2893 -1101 
Q 2867 -1101 2857 -1085 
Q 2848 -1069 2848 -1005 
L 2861 -755 
Q 2867 -499 2867 -179 
L 2867 403 
L 525 403 
Q 352 403 256 358 
L 141 634 
Q 275 602 461 602 
L 2867 602 
L 2867 787 
Q 2867 1101 2854 1325 
Q 2458 1235 2307 1171 
Q 2157 1107 2128 1107 
Q 2099 1107 2080 1136 
Q 2061 1165 2013 1283 
Q 1965 1402 1894 1651 
Q 2067 1677 2201 1734 
Q 2336 1792 2608 2045 
Q 2880 2298 3040 2458 
Q 2451 2355 2234 2272 
Q 2182 2253 2156 2253 
Q 2131 2253 2118 2269 
Q 2106 2285 2045 2438 
Q 1984 2592 1952 2707 
Q 2093 2733 2160 2771 
Q 2227 2810 2406 2995 
Q 2586 3181 2742 3389 
Q 2899 3597 2970 3744 
L 794 3744 
Q 621 3744 525 3699 
L 410 3962 
Q 544 3930 730 3930 
L 3008 3930 
z
M 934 3648 
Q 1395 3405 1625 3190 
Q 1856 2976 1856 2771 
Q 1856 2566 1747 2428 
Q 1638 2291 1498 2291 
Q 1446 2291 1404 2348 
Q 1363 2406 1357 2483 
Q 1338 2752 1203 3046 
Q 1069 3341 864 3552 
L 934 3648 
z
M 4506 2291 
Q 4928 2144 5136 2029 
Q 5344 1914 5411 1798 
Q 5478 1683 5478 1523 
Q 5478 1363 5376 1219 
Q 5274 1075 5190 1075 
Q 5139 1075 5091 1120 
Q 5043 1165 5018 1229 
Q 4864 1574 4640 1827 
Q 4416 2080 4058 2336 
L 4109 2426 
L 4346 2349 
Q 4845 3194 4947 3603 
Q 5120 3526 5344 3379 
Q 5568 3232 5568 3187 
Q 5568 3142 5459 3129 
Q 5350 3117 5177 2973 
Q 5005 2829 4506 2291 
z
M 2093 2150 
L 1248 1325 
Q 941 1030 889 944 
Q 838 858 806 858 
Q 768 858 694 966 
Q 621 1075 422 1459 
Q 1094 1683 1997 2240 
L 2093 2150 
z
" transform="scale(0.015625)"/>
       <path id="STZhongsong-25" d="M 224 3264 
Q 224 3808 502 4121 
Q 781 4435 1248 4435 
Q 1715 4435 1987 4115 
Q 2259 3795 2259 3245 
Q 2259 2714 1974 2400 
Q 1690 2086 1222 2086 
Q 774 2086 499 2406 
Q 224 2726 224 3264 
z
M 1830 3264 
Q 1830 3712 1673 3974 
Q 1517 4237 1242 4237 
Q 966 4237 809 3977 
Q 653 3718 653 3232 
Q 653 2790 813 2537 
Q 973 2285 1229 2285 
Q 1491 2285 1660 2547 
Q 1830 2810 1830 3264 
z
M 4518 4435 
L 1613 -77 
L 1242 -77 
L 4141 4435 
L 4518 4435 
z
M 3501 1101 
Q 3501 1645 3776 1955 
Q 4051 2266 4525 2266 
Q 4998 2266 5267 1949 
Q 5536 1632 5536 1075 
Q 5536 557 5248 240 
Q 4960 -77 4499 -77 
Q 4045 -77 3773 240 
Q 3501 557 3501 1101 
z
M 5101 1094 
Q 5101 1555 4947 1814 
Q 4794 2074 4518 2074 
Q 4250 2074 4090 1811 
Q 3930 1549 3930 1069 
Q 3930 634 4093 381 
Q 4256 128 4506 128 
Q 4787 128 4944 377 
Q 5101 627 5101 1094 
z
" transform="scale(0.015625)"/>
      </defs>
      <use xlink:href="#STZhongsong-6b7b"/>
      <use xlink:href="#STZhongsong-4ea1" x="99.999985"/>
      <use xlink:href="#STZhongsong-7387" x="199.999969"/>
      <use xlink:href="#STZhongsong-ff08" x="299.999954"/>
      <use xlink:href="#STZhongsong-25" x="399.999939"/>
      <use xlink:href="#STZhongsong-ff09" x="489.999924"/>
     </g>
    </g>
   </g>
   <g id="line2d_23">
    <path d="M 262.751958 244.78149 
L 269.912668 244.353061 
L 275.482108 243.790961 
L 280.255914 243.073548 
L 284.234086 242.253043 
L 288.212258 241.175464 
L 291.394796 240.08919 
L 294.577333 238.768306 
L 297.759871 237.178193 
L 300.942408 235.283103 
L 303.329311 233.64001 
L 305.716214 231.790284 
L 308.103117 229.719673 
L 310.49002 227.414863 
L 312.876924 224.863823 
L 315.263827 222.056159 
L 317.65073 218.98347 
L 320.833267 214.464183 
L 324.015805 209.45636 
L 327.198342 203.962643 
L 330.38088 197.996112 
L 333.563417 191.580831 
L 337.541589 182.985304 
L 341.519761 173.836599 
L 346.293567 162.292637 
L 354.249911 142.309885 
L 362.206255 122.466285 
L 366.980061 111.130858 
L 370.958233 102.216571 
L 374.936405 93.899838 
L 378.118942 87.731817 
L 381.301479 82.027372 
L 384.484017 76.804381 
L 387.666554 72.069997 
L 390.849092 67.821398 
L 394.031629 64.046837 
L 396.418533 61.515593 
L 398.805436 59.229687 
L 401.192339 57.176972 
L 404.374876 54.779464 
L 407.557414 52.738462 
L 410.739951 51.018319 
L 413.922489 49.583079 
L 417.105026 48.397522 
L 420.287564 47.427998 
L 421.083198 47.215632 
L 421.083198 47.215632 
" clip-path="url(#pdea921e011)" style="fill: none; stroke: #eab0ac; stroke-width: 1.5; stroke-linecap: square"/>
   </g>
   <g id="patch_14">
    <path d="M 254.835396 255.28101 
L 254.835396 33.839782 
" style="fill: none; stroke: #000000; stroke-width: 0.8; stroke-linejoin: miter; stroke-linecap: square"/>
   </g>
   <g id="patch_15">
    <path d="M 428.99976 255.28101 
L 428.99976 33.839782 
" style="fill: none; stroke: #000000; stroke-width: 0.8; stroke-linejoin: miter; stroke-linecap: square"/>
   </g>
   <g id="patch_16">
    <path d="M 254.835396 255.28101 
L 428.99976 255.28101 
" style="fill: none; stroke: #000000; stroke-width: 0.8; stroke-linejoin: miter; stroke-linecap: square"/>
   </g>
   <g id="patch_17">
    <path d="M 254.835396 33.839782 
L 428.99976 33.839782 
" style="fill: none; stroke: #000000; stroke-width: 0.8; stroke-linejoin: miter; stroke-linecap: square"/>
   </g>
   <g id="patch_18">
    <path d="M 276.107694 239.412649 
Q 270.347707 241.91527 265.100434 244.195125 
" style="fill: none; stroke: #fab387; stroke-width: 0.5; stroke-linecap: round"/>
    <path d="M 268.226404 244.363376 
L 265.100434 244.195125 
L 267.110616 241.795299 
" style="fill: none; stroke: #fab387; stroke-width: 0.5; stroke-linecap: round"/>
   </g>
   <g id="text_28">
    <!-- (2.01, 0.0) -->
    <g style="fill: #fab387" transform="translate(272.751958 235.2155) scale(0.07 -0.07)">
     <defs>
      <path id="STZhongsong-28" d="M 1542 4934 
L 1734 4742 
Q 1402 4333 1274 3721 
Q 1146 3110 1146 1901 
Q 1146 646 1280 48 
Q 1414 -550 1734 -915 
L 1542 -1094 
Q 1030 -653 796 76 
Q 563 806 563 1965 
Q 563 3066 790 3760 
Q 1018 4454 1542 4934 
z
" transform="scale(0.015625)"/>
      <path id="STZhongsong-2c" d="M 691 -1133 
L 525 -928 
Q 883 -634 1036 -403 
Q 1190 -173 1158 45 
Q 1037 0 941 0 
Q 800 0 713 99 
Q 627 198 627 339 
Q 627 499 739 604 
Q 851 710 1024 710 
Q 1210 710 1363 540 
Q 1517 371 1517 128 
Q 1517 -211 1331 -486 
Q 1146 -762 691 -1133 
z
" transform="scale(0.015625)"/>
      <path id="STZhongsong-20" transform="scale(0.015625)"/>
      <path id="STZhongsong-29" d="M 378 4934 
Q 902 4454 1129 3760 
Q 1357 3066 1357 1965 
Q 1357 806 1123 76 
Q 890 -653 378 -1094 
L 186 -915 
Q 506 -550 640 48 
Q 774 646 774 1901 
Q 774 3110 646 3721 
Q 518 4333 186 4742 
L 378 4934 
z
" transform="scale(0.015625)"/>
     </defs>
     <use xlink:href="#STZhongsong-28"/>
     <use xlink:href="#STZhongsong-32" x="29.999985"/>
     <use xlink:href="#STZhongsong-2e" x="91.999969"/>
     <use xlink:href="#STZhongsong-30" x="123.999954"/>
     <use xlink:href="#STZhongsong-31" x="185.999939"/>
     <use xlink:href="#STZhongsong-2c" x="247.999924"/>
     <use xlink:href="#STZhongsong-20" x="279.999908"/>
     <use xlink:href="#STZhongsong-30" x="311.999893"/>
     <use xlink:href="#STZhongsong-2e" x="373.999878"/>
     <use xlink:href="#STZhongsong-30" x="405.999863"/>
     <use xlink:href="#STZhongsong-29" x="467.999847"/>
    </g>
   </g>
   <g id="patch_19">
    <path d="M 307.819455 239.412649 
Q 302.059468 241.91527 296.812194 244.195125 
" style="fill: none; stroke: #fab387; stroke-width: 0.5; stroke-linecap: round"/>
    <path d="M 299.938165 244.363376 
L 296.812194 244.195125 
L 298.822377 241.795299 
" style="fill: none; stroke: #fab387; stroke-width: 0.5; stroke-linecap: round"/>
   </g>
   <g id="text_29">
    <!-- (2.11, 0.0) -->
    <g style="fill: #fab387" transform="translate(304.463719 235.2155) scale(0.07 -0.07)">
     <use xlink:href="#STZhongsong-28"/>
     <use xlink:href="#STZhongsong-32" x="29.999985"/>
     <use xlink:href="#STZhongsong-2e" x="91.999969"/>
     <use xlink:href="#STZhongsong-31" x="123.999954"/>
     <use xlink:href="#STZhongsong-31" x="185.999939"/>
     <use xlink:href="#STZhongsong-2c" x="247.999924"/>
     <use xlink:href="#STZhongsong-20" x="279.999908"/>
     <use xlink:href="#STZhongsong-30" x="311.999893"/>
     <use xlink:href="#STZhongsong-2e" x="373.999878"/>
     <use xlink:href="#STZhongsong-30" x="405.999863"/>
     <use xlink:href="#STZhongsong-29" x="467.999847"/>
    </g>
   </g>
   <g id="patch_20">
    <path d="M 339.531215 189.085097 
Q 333.771228 191.587718 328.523955 193.867573 
" style="fill: none; stroke: #fab387; stroke-width: 0.5; stroke-linecap: round"/>
    <path d="M 331.649926 194.035824 
L 328.523955 193.867573 
L 330.534138 191.467747 
" style="fill: none; stroke: #fab387; stroke-width: 0.5; stroke-linecap: round"/>
   </g>
   <g id="text_30">
    <!-- (2.2, 0.25) -->
    <g style="fill: #fab387" transform="translate(336.17548 184.887948) scale(0.07 -0.07)">
     <defs>
      <path id="STZhongsong-35" d="M 934 4358 
L 2880 4358 
Q 3046 4358 3097 4387 
Q 3149 4416 3155 4512 
L 3386 4512 
L 3386 3853 
L 1229 3853 
L 1171 2752 
Q 1530 2848 1990 2848 
Q 2771 2848 3228 2451 
Q 3686 2054 3686 1414 
Q 3686 787 3212 355 
Q 2739 -77 2029 -77 
Q 1414 -77 982 236 
Q 550 550 550 890 
Q 550 1037 640 1123 
Q 730 1210 838 1210 
Q 1062 1210 1203 813 
Q 1421 218 2042 218 
Q 2515 218 2819 528 
Q 3123 838 3123 1312 
Q 3123 1824 2777 2128 
Q 2432 2432 1843 2432 
Q 1280 2432 832 2246 
L 934 4358 
z
" transform="scale(0.015625)"/>
     </defs>
     <use xlink:href="#STZhongsong-28"/>
     <use xlink:href="#STZhongsong-32" x="29.999985"/>
     <use xlink:href="#STZhongsong-2e" x="91.999969"/>
     <use xlink:href="#STZhongsong-32" x="123.999954"/>
     <use xlink:href="#STZhongsong-2c" x="185.999939"/>
     <use xlink:href="#STZhongsong-20" x="217.999924"/>
     <use xlink:href="#STZhongsong-30" x="249.999908"/>
     <use xlink:href="#STZhongsong-2e" x="311.999893"/>
     <use xlink:href="#STZhongsong-32" x="343.999878"/>
     <use xlink:href="#STZhongsong-35" x="405.999863"/>
     <use xlink:href="#STZhongsong-29" x="467.999847"/>
    </g>
   </g>
   <g id="patch_21">
    <path d="M 370.070271 138.812335 
Q 364.884452 141.25905 360.204205 143.467232 
" style="fill: none; stroke: #fab387; stroke-width: 0.5; stroke-linecap: round"/>
    <path d="M 363.333886 143.538621 
L 360.204205 143.467232 
L 362.139124 141.00632 
" style="fill: none; stroke: #fab387; stroke-width: 0.5; stroke-linecap: round"/>
   </g>
   <g id="text_31">
    <!-- (2.3, 0.5) -->
    <g style="fill: #fab387" transform="translate(367.887241 134.560396) scale(0.07 -0.07)">
     <use xlink:href="#STZhongsong-28"/>
     <use xlink:href="#STZhongsong-32" x="29.999985"/>
     <use xlink:href="#STZhongsong-2e" x="91.999969"/>
     <use xlink:href="#STZhongsong-33" x="123.999954"/>
     <use xlink:href="#STZhongsong-2c" x="185.999939"/>
     <use xlink:href="#STZhongsong-20" x="217.999924"/>
     <use xlink:href="#STZhongsong-30" x="249.999908"/>
     <use xlink:href="#STZhongsong-2e" x="311.999893"/>
     <use xlink:href="#STZhongsong-35" x="343.999878"/>
     <use xlink:href="#STZhongsong-29" x="405.999863"/>
    </g>
   </g>
   <g id="patch_22">
    <path d="M 381.867121 71.803554 
Q 385.162042 67.063767 388.13788 62.782985 
" style="fill: none; stroke: #fab387; stroke-width: 0.5; stroke-linecap: round"/>
    <path d="M 385.390127 64.282937 
L 388.13788 62.782985 
L 387.68919 65.881159 
" style="fill: none; stroke: #fab387; stroke-width: 0.5; stroke-linecap: round"/>
   </g>
   <g id="text_32">
    <!-- (2.4, 0.92) -->
    <g style="fill: #fab387" transform="translate(359.599001 80.681143) scale(0.07 -0.07)">
     <use xlink:href="#STZhongsong-28"/>
     <use xlink:href="#STZhongsong-32" x="29.999985"/>
     <use xlink:href="#STZhongsong-2e" x="91.999969"/>
     <use xlink:href="#STZhongsong-34" x="123.999954"/>
     <use xlink:href="#STZhongsong-2c" x="185.999939"/>
     <use xlink:href="#STZhongsong-20" x="217.999924"/>
     <use xlink:href="#STZhongsong-30" x="249.999908"/>
     <use xlink:href="#STZhongsong-2e" x="311.999893"/>
     <use xlink:href="#STZhongsong-39" x="343.999878"/>
     <use xlink:href="#STZhongsong-32" x="405.999863"/>
     <use xlink:href="#STZhongsong-29" x="467.999847"/>
    </g>
   </g>
   <g id="patch_23">
    <path d="M 413.351318 55.027704 
Q 416.646239 50.287917 419.622077 46.007135 
" style="fill: none; stroke: #fab387; stroke-width: 0.5; stroke-linecap: round"/>
    <path d="M 416.874324 47.507087 
L 419.622077 46.007135 
L 419.173387 49.105308 
" style="fill: none; stroke: #fab387; stroke-width: 0.5; stroke-linecap: round"/>
   </g>
   <g id="text_33">
    <!-- (2.49, 1.0) -->
    <g style="fill: #fab387" transform="translate(391.083198 63.905293) scale(0.07 -0.07)">
     <use xlink:href="#STZhongsong-28"/>
     <use xlink:href="#STZhongsong-32" x="29.999985"/>
     <use xlink:href="#STZhongsong-2e" x="91.999969"/>
     <use xlink:href="#STZhongsong-34" x="123.999954"/>
     <use xlink:href="#STZhongsong-39" x="185.999939"/>
     <use xlink:href="#STZhongsong-2c" x="247.999924"/>
     <use xlink:href="#STZhongsong-20" x="279.999908"/>
     <use xlink:href="#STZhongsong-31" x="311.999893"/>
     <use xlink:href="#STZhongsong-2e" x="373.999878"/>
     <use xlink:href="#STZhongsong-30" x="405.999863"/>
     <use xlink:href="#STZhongsong-29" x="467.999847"/>
    </g>
   </g>
   <g id="text_34">
    <!-- 死亡率 -->
    <g transform="translate(326.917578 27.839782) scale(0.1 -0.1)">
     <use xlink:href="#STZhongsong-6b7b"/>
     <use xlink:href="#STZhongsong-4ea1" x="99.999985"/>
     <use xlink:href="#STZhongsong-7387" x="199.999969"/>
    </g>
   </g>
  </g>
  <g id="text_35">
   <!-- 盐酸普鲁卡因 LD50 的测定 -->
   <g transform="translate(142.32 12.00024) scale(0.12 -0.12)">
    <defs>
     <path id="STZhongsong-76d0" d="M 1798 3110 
L 966 3110 
Q 794 3110 698 3066 
L 582 3354 
Q 717 3322 902 3322 
L 1798 3322 
L 1798 4122 
Q 1798 4442 1786 4691 
Q 2048 4634 2253 4570 
Q 2458 4506 2512 4480 
Q 2566 4454 2566 4429 
Q 2566 4384 2342 4256 
L 2342 3322 
L 2733 3322 
L 2970 3622 
Q 3034 3706 3078 3706 
Q 3117 3706 3267 3562 
Q 3418 3418 3507 3315 
Q 3597 3213 3597 3161 
Q 3597 3110 3443 3110 
L 2342 3110 
L 2342 2138 
L 3635 2298 
L 3648 2163 
L 1888 1683 
Q 1037 1453 883 1350 
Q 838 1318 806 1318 
Q 710 1318 467 1952 
Q 934 1965 1798 2074 
L 1798 3110 
z
M 4403 3290 
Q 5056 3072 5395 2915 
Q 5734 2758 5859 2608 
Q 5984 2458 5984 2266 
Q 5984 2074 5904 1936 
Q 5824 1798 5741 1798 
Q 5658 1798 5590 1856 
Q 5523 1914 5379 2134 
Q 5235 2355 4976 2624 
Q 4717 2893 4403 3130 
L 4403 2189 
L 4416 1427 
Q 4416 1363 4390 1337 
Q 4365 1312 4176 1245 
Q 3987 1178 3926 1178 
Q 3866 1178 3866 1242 
L 3878 1594 
Q 3885 1824 3885 2093 
L 3885 4115 
Q 3885 4435 3872 4685 
Q 4646 4531 4646 4448 
Q 4646 4397 4403 4288 
L 4403 3290 
z
M 1811 973 
L 4525 973 
L 4717 1178 
Q 4768 1235 4806 1235 
Q 4864 1235 5123 1004 
Q 5382 774 5382 710 
Q 5382 659 5133 589 
L 5133 -621 
L 5286 -621 
L 5542 -320 
Q 5613 -243 5645 -243 
Q 5702 -243 5932 -473 
Q 6163 -704 6163 -768 
Q 6163 -806 6042 -806 
L 627 -806 
Q 480 -806 410 -845 
L 307 -589 
Q 429 -621 576 -621 
L 1203 -621 
L 1203 710 
Q 1203 973 1184 1254 
Q 1600 1114 1811 973 
z
M 2330 774 
L 1715 774 
L 1715 -621 
L 2330 -621 
L 2330 774 
z
M 3437 774 
L 2816 774 
L 2816 -621 
L 3437 -621 
L 3437 774 
z
M 4582 -621 
L 4582 774 
L 3942 774 
L 3942 -621 
L 4582 -621 
z
" transform="scale(0.015625)"/>
     <path id="STZhongsong-9178" d="M 5267 3526 
Q 5088 3731 4762 4038 
L 4838 4141 
Q 5555 3840 5804 3651 
Q 6054 3462 6054 3276 
Q 6054 3091 5977 2956 
Q 5901 2822 5821 2822 
Q 5741 2822 5658 2963 
Q 5549 3149 5402 3354 
Q 4486 3264 3996 3197 
Q 3507 3130 3386 3059 
Q 3360 3046 3334 3046 
Q 3226 3046 3136 3526 
Q 3373 3558 3475 3628 
Q 3578 3699 3869 4096 
Q 4160 4493 4384 4883 
Q 4813 4640 4912 4563 
Q 5011 4486 5011 4454 
Q 5011 4397 4883 4393 
Q 4755 4390 4608 4256 
Q 4192 3872 3693 3488 
L 5267 3526 
z
M 2163 4032 
L 2163 3181 
L 2406 3181 
L 2509 3347 
Q 2547 3405 2582 3405 
Q 2618 3405 2778 3302 
L 3040 3136 
Q 3142 3066 3142 3014 
Q 3142 2963 2874 2822 
L 2874 237 
L 2886 -346 
Q 2886 -435 2857 -470 
Q 2829 -506 2678 -576 
Q 2528 -646 2470 -646 
Q 2413 -646 2413 -544 
L 2413 -403 
L 1005 -403 
L 1005 -595 
Q 1005 -685 944 -736 
Q 883 -787 736 -848 
Q 589 -909 550 -909 
Q 512 -909 512 -877 
Q 512 -845 518 -806 
Q 544 -506 544 -211 
L 544 2880 
Q 544 3149 525 3424 
Q 832 3309 1082 3181 
L 1254 3181 
L 1254 4032 
L 672 4032 
Q 499 4032 397 3994 
L 282 4275 
Q 416 4243 608 4243 
L 2477 4243 
L 2707 4595 
Q 2746 4653 2797 4653 
Q 2848 4653 3129 4390 
Q 3411 4128 3411 4080 
Q 3411 4032 3290 4032 
L 2163 4032 
z
M 1850 3181 
L 1850 4032 
L 1632 4032 
L 1632 3181 
L 1850 3181 
z
M 1005 1280 
Q 1165 1555 1209 1884 
Q 1254 2214 1254 2995 
L 1005 2995 
L 1005 1280 
z
M 2163 2995 
L 2163 1830 
Q 2163 1760 2224 1741 
Q 2285 1722 2413 1728 
L 2413 2995 
L 2163 2995 
z
M 2413 1402 
Q 2035 1389 1942 1453 
Q 1850 1517 1850 1773 
L 1850 2995 
L 1632 2995 
Q 1632 2381 1587 2067 
Q 1542 1754 1414 1549 
Q 1286 1344 1005 1082 
L 1005 800 
L 2413 800 
L 2413 1402 
z
M 1005 614 
L 1005 -211 
L 2413 -211 
L 2413 614 
L 1005 614 
z
M 3834 3040 
Q 4365 2752 4365 2694 
Q 4365 2662 4278 2656 
Q 4192 2650 4019 2496 
Q 3520 2067 3021 1766 
L 2931 1862 
Q 3520 2515 3834 3040 
z
M 4627 2982 
Q 5203 2765 5488 2627 
Q 5773 2490 5869 2374 
Q 5965 2259 5965 2099 
Q 5965 1939 5891 1830 
Q 5818 1722 5754 1722 
Q 5690 1722 5658 1747 
Q 5626 1773 5574 1856 
Q 5446 2061 5164 2349 
Q 4883 2637 4550 2886 
L 4627 2982 
z
M 3853 1210 
Q 3437 627 3008 307 
L 2912 397 
Q 3232 800 3453 1209 
Q 3674 1619 3968 2362 
Q 4250 2272 4426 2182 
Q 4602 2093 4602 2061 
Q 4602 2022 4525 2009 
Q 4448 1997 4390 1939 
Q 4333 1882 4179 1664 
L 4954 1664 
L 5069 1850 
Q 5101 1901 5126 1901 
Q 5152 1901 5283 1830 
Q 5414 1760 5574 1651 
Q 5734 1542 5756 1516 
Q 5779 1491 5779 1459 
Q 5779 1382 5651 1366 
Q 5523 1350 5462 1299 
Q 5402 1248 5350 1139 
Q 5075 531 4742 147 
Q 5235 -250 6227 -429 
L 6227 -582 
Q 5997 -582 5827 -656 
Q 5658 -730 5517 -922 
Q 5485 -960 5459 -960 
Q 5402 -960 5030 -701 
Q 4659 -442 4442 -166 
Q 3795 -762 2464 -1139 
L 2432 -1043 
Q 3674 -486 4218 141 
Q 3962 576 3853 1210 
z
M 4032 1459 
Q 3994 1408 3981 1382 
Q 4166 800 4448 442 
Q 4736 845 4934 1459 
L 4032 1459 
z
" transform="scale(0.015625)"/>
     <path id="STZhongsong-666e" d="M 2285 3610 
L 870 3610 
Q 698 3610 602 3565 
L 486 3840 
Q 621 3808 806 3808 
L 2323 3808 
Q 2240 3859 2195 3981 
Q 1997 4480 1638 4819 
L 1709 4915 
Q 2330 4685 2522 4553 
Q 2714 4422 2714 4268 
Q 2714 4115 2650 3990 
Q 2586 3866 2490 3808 
L 3546 3808 
Q 3910 4410 4134 4909 
Q 4467 4762 4640 4666 
Q 4813 4570 4813 4528 
Q 4813 4486 4672 4486 
Q 4589 4486 4438 4361 
Q 4288 4237 3878 3808 
L 4902 3808 
L 5165 4154 
Q 5229 4237 5277 4237 
Q 5325 4237 5613 3993 
Q 5901 3750 5901 3680 
Q 5901 3610 5792 3610 
L 4045 3610 
L 4045 2202 
Q 4634 2970 4986 3546 
Q 5184 3430 5392 3289 
Q 5600 3149 5600 3113 
Q 5600 3078 5466 3078 
Q 5414 3078 5321 3017 
Q 5229 2957 4877 2682 
L 4090 2074 
L 5139 2074 
L 5446 2477 
Q 5504 2560 5552 2560 
Q 5600 2560 5766 2416 
Q 5933 2272 6083 2153 
Q 6234 2035 6234 1955 
Q 6234 1875 6099 1875 
L 653 1875 
Q 480 1875 384 1830 
L 269 2106 
Q 403 2074 589 2074 
L 2285 2074 
L 2285 3610 
z
M 3482 3610 
L 2861 3610 
L 2861 2074 
L 3482 2074 
L 3482 3610 
z
M 928 3462 
Q 1402 3245 1645 3021 
Q 1888 2797 1888 2608 
Q 1888 2419 1798 2281 
Q 1709 2144 1597 2144 
Q 1485 2144 1414 2374 
Q 1318 2707 1187 2924 
Q 1056 3142 858 3366 
L 928 3462 
z
M 2093 1389 
L 4384 1389 
L 4576 1626 
Q 4627 1683 4656 1683 
Q 4685 1683 4870 1574 
Q 5056 1466 5152 1395 
Q 5248 1325 5248 1280 
Q 5248 1235 5018 1114 
L 5018 -218 
L 5030 -794 
Q 5030 -870 4998 -892 
Q 4966 -915 4752 -969 
Q 4538 -1024 4454 -1024 
Q 4403 -1024 4403 -947 
L 4403 -634 
L 1997 -634 
L 1997 -768 
Q 1997 -851 1961 -880 
Q 1926 -909 1696 -985 
Q 1466 -1062 1411 -1062 
Q 1357 -1062 1363 -986 
Q 1395 -582 1395 -358 
L 1395 1146 
Q 1395 1414 1376 1690 
Q 1843 1523 2093 1389 
z
M 4403 518 
L 4403 1190 
L 1997 1190 
L 1997 518 
L 4403 518 
z
M 4403 -448 
L 4403 333 
L 1997 333 
L 1997 -448 
L 4403 -448 
z
" transform="scale(0.015625)"/>
     <path id="STZhongsong-9c81" d="M 1293 3149 
Q 890 2861 346 2573 
L 288 2662 
Q 1030 3238 1484 3750 
Q 1939 4262 2330 4941 
Q 3021 4685 3021 4602 
Q 3021 4563 2921 4540 
Q 2822 4518 2745 4460 
Q 2669 4403 2490 4211 
L 3827 4211 
L 4032 4435 
Q 4070 4480 4099 4480 
Q 4128 4480 4237 4410 
L 4474 4243 
Q 4614 4154 4643 4125 
Q 4672 4096 4672 4070 
Q 4672 4013 4505 3990 
Q 4339 3968 3939 3741 
Q 3539 3514 3514 3482 
L 4659 3482 
L 4813 3642 
Q 4851 3686 4889 3686 
Q 4928 3686 5184 3507 
Q 5440 3328 5440 3270 
Q 5440 3213 5216 3110 
L 5216 2323 
L 5229 1965 
Q 5229 1882 5193 1850 
Q 5158 1818 4982 1766 
Q 4806 1715 4710 1715 
Q 4666 1715 4666 1792 
L 4666 1914 
L 1798 1914 
Q 1798 1792 1779 1763 
Q 1760 1734 1542 1686 
Q 1325 1638 1289 1638 
Q 1254 1638 1261 1709 
Q 1293 2003 1293 2336 
L 1293 3149 
z
M 2304 4026 
Q 1984 3706 1715 3482 
L 3200 3482 
Q 3533 3770 3744 4026 
L 2304 4026 
z
M 2906 2778 
L 2906 3290 
L 1798 3290 
L 1798 2778 
L 2906 2778 
z
M 3437 3290 
L 3437 2778 
L 4666 2778 
L 4666 3290 
L 3437 3290 
z
M 2906 2093 
L 2906 2592 
L 1798 2592 
L 1798 2093 
L 2906 2093 
z
M 3437 2592 
L 3437 2093 
L 4666 2093 
L 4666 2592 
L 3437 2592 
z
M 5299 1542 
L 5555 1875 
Q 5600 1933 5632 1933 
Q 5690 1933 5939 1689 
Q 6189 1446 6189 1404 
Q 6189 1363 6061 1363 
L 646 1363 
Q 506 1363 422 1331 
L 288 1574 
Q 390 1542 544 1542 
L 5299 1542 
z
M 2048 1043 
L 4358 1043 
L 4486 1222 
Q 4518 1267 4556 1267 
Q 4595 1267 4739 1184 
Q 4883 1101 5046 995 
Q 5210 890 5210 864 
Q 5210 813 4973 704 
L 4973 -410 
Q 4973 -544 4979 -640 
L 4992 -800 
Q 4992 -832 4973 -854 
Q 4954 -877 4822 -941 
Q 4691 -1005 4572 -1046 
Q 4454 -1088 4425 -1088 
Q 4397 -1088 4397 -992 
L 4397 -589 
L 1894 -589 
L 1894 -768 
Q 1894 -838 1856 -864 
Q 1818 -890 1616 -960 
Q 1414 -1030 1363 -1030 
Q 1338 -1030 1338 -979 
L 1344 -755 
Q 1350 -653 1350 -538 
L 1350 762 
Q 1350 1030 1331 1306 
Q 1651 1216 2048 1043 
z
M 4397 339 
L 4397 845 
L 1894 845 
L 1894 339 
L 4397 339 
z
M 4397 -390 
L 4397 141 
L 1894 141 
L 1894 -390 
L 4397 -390 
z
" transform="scale(0.015625)"/>
     <path id="STZhongsong-5361" d="M 3360 2515 
L 5152 2515 
L 5421 2938 
Q 5472 3014 5510 3014 
Q 5568 3014 5869 2723 
Q 6170 2432 6170 2377 
Q 6170 2323 6054 2323 
L 602 2323 
Q 429 2323 333 2278 
L 218 2547 
Q 352 2515 538 2515 
L 2771 2515 
L 2771 4320 
Q 2771 4640 2758 4890 
Q 3110 4838 3340 4764 
Q 3571 4691 3571 4640 
Q 3571 4589 3360 4525 
L 3360 3706 
L 4608 3706 
L 4877 4083 
Q 4922 4141 4947 4141 
Q 5005 4141 5296 3894 
Q 5587 3648 5587 3577 
Q 5587 3507 5485 3507 
L 3360 3507 
L 3360 2515 
z
M 3328 1478 
L 3328 -166 
Q 3328 -480 3334 -602 
L 3341 -832 
Q 3341 -883 3277 -924 
Q 3213 -966 3011 -1040 
Q 2810 -1114 2765 -1114 
Q 2720 -1114 2720 -1056 
L 2733 -698 
Q 2739 -461 2739 -192 
L 2739 1734 
Q 2739 2054 2726 2304 
Q 2931 2285 3228 2195 
Q 3526 2106 3526 2051 
Q 3526 1997 3328 1862 
L 3328 1606 
Q 4237 1382 4659 1222 
Q 5082 1062 5219 883 
Q 5357 704 5357 461 
Q 5357 218 5289 102 
Q 5222 -13 5126 -13 
Q 5088 -13 5046 28 
Q 5005 70 4909 205 
Q 4608 646 4233 937 
Q 3859 1229 3328 1478 
z
" transform="scale(0.015625)"/>
     <path id="STZhongsong-56e0" d="M 1574 4358 
L 5037 4358 
L 5203 4640 
Q 5267 4742 5328 4742 
Q 5389 4742 5555 4627 
L 5850 4435 
Q 5965 4352 5965 4275 
Q 5965 4198 5715 4077 
L 5715 -96 
Q 5715 -378 5722 -493 
L 5728 -704 
Q 5728 -755 5667 -790 
Q 5606 -826 5424 -883 
Q 5242 -941 5194 -941 
Q 5146 -941 5146 -858 
L 5146 -326 
L 1453 -326 
L 1453 -691 
Q 1453 -736 1446 -768 
Q 1440 -800 1334 -854 
Q 1229 -909 1078 -960 
Q 928 -1011 899 -1011 
Q 870 -1011 877 -915 
Q 902 -627 902 -301 
L 902 4192 
Q 902 4461 883 4736 
Q 1267 4563 1574 4358 
z
M 5146 -141 
L 5146 4173 
L 1453 4173 
L 1453 -141 
L 5146 -141 
z
M 2906 2637 
L 2029 2637 
Q 1869 2637 1754 2605 
L 1645 2874 
Q 1779 2842 1965 2842 
L 2918 2842 
Q 2938 3200 2938 3517 
Q 2938 3834 2931 4083 
Q 3405 3994 3545 3952 
Q 3686 3910 3686 3862 
Q 3686 3814 3609 3788 
Q 3533 3763 3517 3712 
Q 3501 3661 3481 3273 
Q 3462 2886 3462 2842 
L 4122 2842 
L 4339 3155 
Q 4390 3226 4438 3226 
Q 4486 3226 4614 3110 
L 4877 2880 
Q 5011 2765 5011 2701 
Q 5011 2637 4870 2637 
L 3443 2637 
Q 3418 2298 3354 1984 
Q 4256 1542 4566 1299 
Q 4877 1056 4877 829 
Q 4877 602 4797 467 
Q 4717 333 4605 333 
Q 4493 333 4397 538 
Q 4122 1126 3322 1837 
Q 3194 1299 2832 931 
Q 2470 563 1549 109 
L 1485 230 
Q 2246 704 2547 1232 
Q 2848 1760 2906 2637 
z
" transform="scale(0.015625)"/>
     <path id="STZhongsong-4c" d="M 294 4358 
L 1984 4358 
L 1984 4096 
L 1830 4096 
Q 1619 4096 1523 4035 
Q 1427 3974 1427 3725 
L 1427 685 
Q 1427 429 1475 381 
Q 1523 333 1779 333 
L 2010 333 
Q 2592 333 2928 592 
Q 3264 851 3533 1459 
L 3808 1363 
L 3322 0 
L 294 0 
L 294 262 
L 429 262 
Q 678 262 761 336 
Q 845 410 845 685 
L 845 3648 
Q 845 3917 777 4006 
Q 710 4096 429 4096 
L 294 4096 
L 294 4358 
z
" transform="scale(0.015625)"/>
     <path id="STZhongsong-44" d="M 301 4096 
L 301 4358 
L 1862 4358 
Q 2854 4358 3296 4240 
Q 3738 4122 4077 3811 
Q 4416 3501 4601 3062 
Q 4787 2624 4787 2125 
Q 4787 1261 4230 630 
Q 3674 0 2534 0 
L 301 0 
L 301 262 
L 544 262 
Q 717 243 787 352 
Q 858 461 858 704 
L 858 3622 
Q 858 3955 762 4025 
Q 666 4096 301 4096 
z
M 1440 339 
L 2387 339 
Q 2650 339 3098 435 
Q 3546 531 3834 1004 
Q 4122 1478 4122 2170 
Q 4122 2592 3997 2934 
Q 3872 3277 3648 3513 
Q 3424 3750 3152 3868 
Q 2880 3987 2675 4000 
Q 2470 4013 2080 4013 
L 1440 4013 
L 1440 339 
z
" transform="scale(0.015625)"/>
     <path id="STZhongsong-7684" d="M 4102 3194 
Q 3827 2637 3130 1715 
L 3021 1786 
Q 3418 2650 3613 3254 
Q 3808 3859 3994 4819 
Q 4288 4717 4512 4621 
Q 4736 4525 4784 4489 
Q 4832 4454 4832 4409 
Q 4832 4365 4726 4339 
Q 4621 4314 4585 4262 
Q 4550 4211 4435 3932 
Q 4320 3654 4205 3411 
L 5075 3411 
L 5248 3674 
Q 5306 3757 5366 3757 
Q 5427 3757 5712 3555 
Q 5997 3354 5997 3270 
Q 5997 3187 5728 3072 
Q 5683 1261 5657 633 
Q 5632 6 5590 -221 
Q 5549 -448 5421 -627 
Q 5293 -806 5030 -931 
Q 4768 -1056 4659 -1056 
Q 4608 -1056 4582 -960 
Q 4531 -781 4454 -678 
Q 4378 -576 4192 -486 
Q 4006 -397 3629 -294 
L 3661 -160 
Q 4422 -269 4620 -269 
Q 4819 -269 4892 -227 
Q 4966 -186 4992 -90 
Q 5018 6 5043 355 
Q 5069 704 5094 1488 
Q 5120 2272 5126 3194 
L 4102 3194 
z
M 1696 3315 
L 2317 3315 
L 2490 3571 
Q 2534 3642 2585 3642 
Q 2637 3642 2912 3469 
Q 3187 3296 3187 3209 
Q 3187 3123 2944 3027 
L 2944 384 
Q 2944 102 2950 -13 
L 2957 -230 
Q 2957 -262 2941 -284 
Q 2925 -307 2825 -355 
Q 2726 -403 2582 -451 
Q 2438 -499 2403 -499 
Q 2368 -499 2368 -429 
L 2368 -26 
L 1325 -26 
L 1325 -403 
Q 1325 -474 1267 -512 
Q 1210 -550 1014 -624 
Q 819 -698 764 -698 
Q 710 -698 717 -621 
Q 749 -326 749 13 
L 749 3085 
Q 749 3354 730 3629 
Q 1082 3507 1376 3334 
Q 1568 4205 1574 4749 
Q 1856 4691 2105 4595 
Q 2355 4499 2393 4467 
Q 2432 4435 2432 4397 
Q 2432 4333 2330 4307 
Q 2253 4288 2160 4144 
Q 2067 4000 1696 3315 
z
M 2368 1798 
L 2368 3110 
L 1325 3110 
L 1325 1798 
L 2368 1798 
z
M 2368 179 
L 2368 1587 
L 1325 1587 
L 1325 179 
L 2368 179 
z
M 3661 2227 
Q 4122 1894 4301 1728 
Q 4480 1562 4537 1485 
Q 4595 1408 4595 1280 
Q 4595 1050 4448 870 
Q 4301 691 4208 691 
Q 4115 691 4076 956 
Q 4038 1222 3907 1552 
Q 3776 1882 3590 2138 
L 3661 2227 
z
" transform="scale(0.015625)"/>
     <path id="STZhongsong-6d4b" d="M 5146 4851 
Q 5363 4800 5619 4707 
Q 5875 4614 5875 4563 
Q 5875 4512 5677 4390 
L 5677 -403 
Q 5677 -602 5603 -720 
Q 5530 -838 5290 -976 
Q 5050 -1114 4982 -1114 
Q 4915 -1114 4909 -1018 
Q 4896 -768 4765 -646 
Q 4634 -525 4218 -390 
L 4250 -275 
Q 4794 -371 4941 -371 
Q 5088 -371 5123 -332 
Q 5158 -294 5158 -192 
L 5158 4282 
Q 5158 4602 5146 4851 
z
M 704 4749 
Q 1088 4576 1389 4390 
Q 1690 4205 1690 4035 
Q 1690 3866 1594 3722 
Q 1498 3578 1389 3578 
Q 1357 3578 1328 3613 
Q 1299 3648 1209 3849 
Q 1120 4051 995 4227 
Q 870 4403 627 4666 
L 704 4749 
z
M 2490 4243 
L 3379 4243 
L 3520 4461 
Q 3552 4512 3600 4512 
Q 3648 4512 3881 4349 
Q 4115 4186 4115 4131 
Q 4115 4077 3898 3981 
L 3898 1370 
L 3904 883 
Q 3904 800 3705 707 
Q 3507 614 3475 614 
Q 3443 614 3443 704 
L 3443 4038 
L 2438 4038 
L 2438 838 
Q 2438 755 2396 713 
Q 2355 672 2208 608 
Q 2061 544 2019 544 
Q 1978 544 1978 602 
L 1990 870 
Q 1997 1139 1997 1453 
L 1997 3974 
Q 1997 4179 1984 4525 
Q 2259 4410 2490 4243 
z
M 4294 3853 
Q 4909 3680 4909 3584 
Q 4909 3546 4755 3469 
L 4755 1344 
L 4768 768 
Q 4768 717 4755 694 
Q 4742 672 4646 614 
Q 4550 557 4448 518 
Q 4346 480 4317 480 
Q 4288 480 4288 538 
L 4294 896 
Q 4301 1056 4301 1312 
L 4301 3341 
Q 4301 3763 4294 3853 
z
M 2982 544 
Q 2816 32 2441 -345 
Q 2067 -723 1376 -1120 
L 1286 -1018 
Q 2016 -422 2281 -22 
Q 2547 378 2646 989 
Q 2746 1600 2746 2810 
Q 2746 3213 2733 3616 
Q 3168 3469 3248 3424 
Q 3328 3379 3328 3344 
Q 3328 3309 3273 3270 
Q 3219 3232 3203 3177 
Q 3187 3123 3187 2957 
Q 3187 1222 3021 678 
Q 3514 410 3744 266 
Q 3974 122 4048 22 
Q 4122 -77 4122 -237 
Q 4122 -397 4045 -553 
Q 3968 -710 3885 -710 
Q 3846 -710 3814 -675 
Q 3782 -640 3628 -342 
Q 3475 -45 3324 160 
Q 3174 365 2982 544 
z
M 1894 3501 
L 1408 1715 
Q 1293 1299 1254 1046 
Q 1216 794 1216 522 
Q 1216 250 1251 -96 
Q 1286 -442 1286 -576 
Q 1286 -979 1107 -979 
Q 928 -979 768 -819 
Q 608 -659 608 -486 
Q 608 -442 621 -403 
Q 755 90 755 422 
Q 755 659 592 752 
Q 429 845 192 896 
L 192 1024 
Q 448 992 592 992 
Q 736 992 819 1091 
Q 902 1190 1024 1530 
L 1779 3578 
L 1894 3501 
z
M 307 3251 
Q 774 3098 1004 2938 
Q 1235 2778 1235 2602 
Q 1235 2426 1126 2269 
Q 1018 2112 890 2112 
Q 864 2112 845 2147 
Q 826 2182 768 2336 
Q 589 2810 237 3130 
L 307 3251 
z
" transform="scale(0.015625)"/>
     <path id="STZhongsong-5b9a" d="M 2586 4928 
Q 3674 4774 3674 4346 
Q 3674 4205 3546 4029 
Q 3418 3853 3187 3853 
Q 3098 3853 3059 3913 
Q 3021 3974 2982 4179 
Q 2906 4608 2560 4858 
L 2586 4928 
z
M 1517 3827 
L 5133 3827 
L 5299 4064 
Q 5331 4122 5363 4122 
Q 5440 4122 5747 3878 
Q 6054 3635 6054 3532 
Q 6054 3430 5856 3430 
Q 5658 3430 5530 3356 
Q 5402 3283 5158 3021 
Q 5638 2637 5638 2541 
Q 5638 2490 5536 2490 
L 3469 2490 
L 3469 1402 
L 4346 1402 
L 4653 1798 
Q 4704 1869 4749 1869 
Q 4832 1869 5104 1609 
Q 5376 1350 5376 1254 
Q 5376 1190 5235 1190 
L 3469 1190 
L 3469 -134 
Q 3987 -230 5338 -230 
Q 5754 -230 6266 -224 
L 6266 -365 
Q 6010 -390 5834 -470 
Q 5658 -550 5574 -768 
Q 5536 -858 5472 -858 
Q 5286 -858 4489 -784 
Q 3693 -710 3369 -659 
Q 3046 -608 2768 -445 
Q 2490 -282 2237 -6 
Q 1984 269 1805 621 
Q 1574 154 1267 -211 
Q 960 -576 384 -1056 
L 294 -973 
Q 934 -256 1264 477 
Q 1594 1210 1696 2138 
Q 2125 1933 2275 1840 
Q 2426 1747 2426 1692 
Q 2426 1638 2323 1616 
Q 2221 1594 2150 1427 
L 1920 870 
Q 2374 230 2912 6 
L 2912 2490 
L 1382 2490 
Q 1210 2490 1114 2445 
L 998 2720 
Q 1133 2688 1318 2688 
L 4614 2688 
L 4896 3059 
Q 4954 3136 5011 3117 
Q 5082 3373 5126 3642 
L 1530 3642 
Q 1542 3309 1334 3059 
Q 1126 2810 890 2810 
Q 755 2810 659 2883 
Q 563 2957 563 3059 
Q 563 3226 816 3418 
Q 1069 3610 1174 3789 
Q 1280 3968 1325 4262 
L 1466 4262 
L 1517 3827 
z
" transform="scale(0.015625)"/>
    </defs>
    <use xlink:href="#STZhongsong-76d0"/>
    <use xlink:href="#STZhongsong-9178" x="99.999985"/>
    <use xlink:href="#STZhongsong-666e" x="199.999969"/>
    <use xlink:href="#STZhongsong-9c81" x="299.999954"/>
    <use xlink:href="#STZhongsong-5361" x="399.999939"/>
    <use xlink:href="#STZhongsong-56e0" x="499.999924"/>
    <use xlink:href="#STZhongsong-20" x="599.999908"/>
    <use xlink:href="#STZhongsong-4c" x="631.999893"/>
    <use xlink:href="#STZhongsong-44" x="691.999878"/>
    <use xlink:href="#STZhongsong-35" x="771.999863"/>
    <use xlink:href="#STZhongsong-30" x="833.999847"/>
    <use xlink:href="#STZhongsong-20" x="895.999832"/>
    <use xlink:href="#STZhongsong-7684" x="927.999817"/>
    <use xlink:href="#STZhongsong-6d4b" x="1027.999802"/>
    <use xlink:href="#STZhongsong-5b9a" x="1127.999786"/>
   </g>
  </g>
 </g>
 <defs>
  <clipPath id="pb6bdff5498">
   <rect x="35.80024" y="33.839782" width="174.164364" height="221.441228"/>
  </clipPath>
  <clipPath id="pdea921e011">
   <rect x="254.835396" y="33.839782" width="174.164364" height="221.441228"/>
  </clipPath>
 </defs>
</svg>
