<?xml version="1.0" encoding="utf-8" standalone="no"?>
<!DOCTYPE svg PUBLIC "-//W3C//DTD SVG 1.1//EN"
  "http://www.w3.org/Graphics/SVG/1.1/DTD/svg11.dtd">
<svg xmlns:xlink="http://www.w3.org/1999/xlink" width="432pt" height="432pt" viewBox="0 0 432 432" xmlns="http://www.w3.org/2000/svg" version="1.1">
 <metadata>
  <rdf:RDF xmlns:dc="http://purl.org/dc/elements/1.1/" xmlns:cc="http://creativecommons.org/ns#" xmlns:rdf="http://www.w3.org/1999/02/22-rdf-syntax-ns#">
   <cc:Work>
    <dc:type rdf:resource="http://purl.org/dc/dcmitype/StillImage"/>
    <dc:date>2024-11-21T16:37:51.412343</dc:date>
    <dc:format>image/svg+xml</dc:format>
    <dc:creator>
     <cc:Agent>
      <dc:title>Matplotlib v3.9.2, https://matplotlib.org/</dc:title>
     </cc:Agent>
    </dc:creator>
   </cc:Work>
  </rdf:RDF>
 </metadata>
 <defs>
  <style type="text/css">*{stroke-linejoin: round; stroke-linecap: butt}</style>
 </defs>
 <g id="figure_1">
  <g id="patch_1">
   <path d="M 0 432 
L 432 432 
L 432 0 
L 0 0 
z
" style="fill: #ffffff"/>
  </g>
  <g id="axes_1">
   <g id="patch_2">
    <path d="M 54 384.48 
L 388.8 384.48 
L 388.8 51.84 
L 54 51.84 
z
" style="fill: #ffffff"/>
   </g>
   <g id="patch_3">
    <path d="M 69.218182 281.259213 
L 101.828571 281.259213 
L 101.828571 241.971024 
L 69.218182 241.971024 
z
" clip-path="url(#p44861b64d3)" style="fill: #89c9c8; opacity: 0.4"/>
   </g>
   <g id="patch_4">
    <path d="M 123.568831 281.259213 
L 156.179221 281.259213 
L 156.179221 205.262362 
L 123.568831 205.262362 
z
" clip-path="url(#p44861b64d3)" style="fill: #89c9c8; opacity: 0.4"/>
   </g>
   <g id="patch_5">
    <path d="M 177.919481 281.259213 
L 210.52987 281.259213 
L 210.52987 249.114331 
L 177.919481 249.114331 
z
" clip-path="url(#p44861b64d3)" style="fill: #89c9c8; opacity: 0.4"/>
   </g>
   <g id="patch_6">
    <path d="M 232.27013 281.259213 
L 264.880519 281.259213 
L 264.880519 213.397795 
L 232.27013 213.397795 
z
" clip-path="url(#p44861b64d3)" style="fill: #89c9c8; opacity: 0.4"/>
   </g>
   <g id="patch_7">
    <path d="M 286.620779 281.259213 
L 319.231169 281.259213 
L 319.231169 261.019843 
L 286.620779 261.019843 
z
" clip-path="url(#p44861b64d3)" style="fill: #89c9c8; opacity: 0.4"/>
   </g>
   <g id="patch_8">
    <path d="M 340.971429 281.259213 
L 373.581818 281.259213 
L 373.581818 277.489134 
L 340.971429 277.489134 
z
" clip-path="url(#p44861b64d3)" style="fill: #89c9c8; opacity: 0.4"/>
   </g>
   <g id="PathCollection_1">
    <defs>
     <path id="mbf976493b7" d="M 0 2.738613 
C 0.726289 2.738613 1.422928 2.450055 1.936492 1.936492 
C 2.450055 1.422928 2.738613 0.726289 2.738613 0 
C 2.738613 -0.726289 2.450055 -1.422928 1.936492 -1.936492 
C 1.422928 -2.450055 0.726289 -2.738613 0 -2.738613 
C -0.726289 -2.738613 -1.422928 -2.450055 -1.936492 -1.936492 
C -2.450055 -1.422928 -2.738613 -0.726289 -2.738613 0 
C -2.738613 0.726289 -2.450055 1.422928 -1.936492 1.936492 
C -1.422928 2.450055 -0.726289 2.738613 0 2.738613 
z
" style="stroke: #89c9c8"/>
    </defs>
    <g clip-path="url(#p44861b64d3)">
     <use xlink:href="#mbf976493b7" x="86.446756" y="162.204094" style="fill: #89c9c8; stroke: #89c9c8"/>
     <use xlink:href="#mbf976493b7" x="85.408476" y="255.067087" style="fill: #89c9c8; stroke: #89c9c8"/>
     <use xlink:href="#mbf976493b7" x="87.542194" y="281.259213" style="fill: #89c9c8; stroke: #89c9c8"/>
     <use xlink:href="#mbf976493b7" x="86.175232" y="257.448189" style="fill: #89c9c8; stroke: #89c9c8"/>
     <use xlink:href="#mbf976493b7" x="85.502167" y="240.780472" style="fill: #89c9c8; stroke: #89c9c8"/>
     <use xlink:href="#mbf976493b7" x="87.79184" y="255.067087" style="fill: #89c9c8; stroke: #89c9c8"/>
    </g>
   </g>
   <g id="PathCollection_2">
    <g clip-path="url(#p44861b64d3)">
     <use xlink:href="#mbf976493b7" x="141.241434" y="162.204094" style="fill: #89c9c8; stroke: #89c9c8"/>
     <use xlink:href="#mbf976493b7" x="137.159689" y="259.829291" style="fill: #89c9c8; stroke: #89c9c8"/>
     <use xlink:href="#mbf976493b7" x="138.364271" y="233.637165" style="fill: #89c9c8; stroke: #89c9c8"/>
     <use xlink:href="#mbf976493b7" x="141.922674" y="232.446614" style="fill: #89c9c8; stroke: #89c9c8"/>
     <use xlink:href="#mbf976493b7" x="139.533338" y="145.536378" style="fill: #89c9c8; stroke: #89c9c8"/>
     <use xlink:href="#mbf976493b7" x="142.221243" y="197.92063" style="fill: #89c9c8; stroke: #89c9c8"/>
    </g>
   </g>
   <g id="PathCollection_3">
    <g clip-path="url(#p44861b64d3)">
     <use xlink:href="#mbf976493b7" x="195.595628" y="257.448189" style="fill: #89c9c8; stroke: #89c9c8"/>
     <use xlink:href="#mbf976493b7" x="194.399442" y="302.689134" style="fill: #89c9c8; stroke: #89c9c8"/>
     <use xlink:href="#mbf976493b7" x="196.427225" y="281.259213" style="fill: #89c9c8; stroke: #89c9c8"/>
     <use xlink:href="#mbf976493b7" x="195.080461" y="233.637165" style="fill: #89c9c8; stroke: #89c9c8"/>
     <use xlink:href="#mbf976493b7" x="195.237972" y="155.060787" style="fill: #89c9c8; stroke: #89c9c8"/>
     <use xlink:href="#mbf976493b7" x="196.079259" y="264.591496" style="fill: #89c9c8; stroke: #89c9c8"/>
    </g>
   </g>
   <g id="PathCollection_4">
    <g clip-path="url(#p44861b64d3)">
     <use xlink:href="#mbf976493b7" x="247.064078" y="169.347402" style="fill: #89c9c8; stroke: #89c9c8"/>
     <use xlink:href="#mbf976493b7" x="247.261421" y="300.308031" style="fill: #89c9c8; stroke: #89c9c8"/>
     <use xlink:href="#mbf976493b7" x="246.286216" y="66.96" style="fill: #89c9c8; stroke: #89c9c8"/>
     <use xlink:href="#mbf976493b7" x="248.701614" y="257.448189" style="fill: #89c9c8; stroke: #89c9c8"/>
     <use xlink:href="#mbf976493b7" x="250.772015" y="186.015118" style="fill: #89c9c8; stroke: #89c9c8"/>
     <use xlink:href="#mbf976493b7" x="251.028051" y="300.308031" style="fill: #89c9c8; stroke: #89c9c8"/>
    </g>
   </g>
   <g id="PathCollection_5">
    <g clip-path="url(#p44861b64d3)">
     <use xlink:href="#mbf976493b7" x="301.086655" y="257.448189" style="fill: #89c9c8; stroke: #89c9c8"/>
     <use xlink:href="#mbf976493b7" x="304.759887" y="324.119055" style="fill: #89c9c8; stroke: #89c9c8"/>
     <use xlink:href="#mbf976493b7" x="303.761502" y="138.393071" style="fill: #89c9c8; stroke: #89c9c8"/>
     <use xlink:href="#mbf976493b7" x="304.349091" y="281.259213" style="fill: #89c9c8; stroke: #89c9c8"/>
     <use xlink:href="#mbf976493b7" x="305.041599" y="236.018268" style="fill: #89c9c8; stroke: #89c9c8"/>
     <use xlink:href="#mbf976493b7" x="303.677395" y="328.88126" style="fill: #89c9c8; stroke: #89c9c8"/>
    </g>
   </g>
   <g id="PathCollection_6">
    <g clip-path="url(#p44861b64d3)">
     <use xlink:href="#mbf976493b7" x="356.104856" y="293.164724" style="fill: #89c9c8; stroke: #89c9c8"/>
     <use xlink:href="#mbf976493b7" x="356.979701" y="281.259213" style="fill: #89c9c8; stroke: #89c9c8"/>
     <use xlink:href="#mbf976493b7" x="358.866776" y="126.487559" style="fill: #89c9c8; stroke: #89c9c8"/>
     <use xlink:href="#mbf976493b7" x="356.109879" y="330.071811" style="fill: #89c9c8; stroke: #89c9c8"/>
     <use xlink:href="#mbf976493b7" x="358.501224" y="264.591496" style="fill: #89c9c8; stroke: #89c9c8"/>
     <use xlink:href="#mbf976493b7" x="359.512237" y="369.36" style="fill: #89c9c8; stroke: #89c9c8"/>
    </g>
   </g>
   <g id="matplotlib.axis_1">
    <g id="xtick_1">
     <g id="line2d_1">
      <defs>
       <path id="m4d9bc77134" d="M 0 0 
L 0 3.5 
" style="stroke: #000000; stroke-width: 0.8"/>
      </defs>
      <g>
       <use xlink:href="#m4d9bc77134" x="85.523377" y="384.48" style="stroke: #000000; stroke-width: 0.8"/>
      </g>
     </g>
     <g id="text_1">
      <!-- 1 -->
      <g transform="translate(82.423377 398.639375) scale(0.1 -0.1)">
       <defs>
        <path id="STZhongsong-31" d="M 2150 4358 
L 2387 4358 
L 2387 742 
Q 2387 422 2464 342 
Q 2541 262 2822 262 
L 3130 262 
L 3130 0 
L 1069 0 
L 1069 262 
L 1408 262 
Q 1670 262 1766 348 
Q 1862 435 1862 742 
L 1862 3718 
L 1069 3718 
L 1069 3987 
Q 1709 4070 2150 4358 
z
" transform="scale(0.015625)"/>
       </defs>
       <use xlink:href="#STZhongsong-31"/>
      </g>
     </g>
    </g>
    <g id="xtick_2">
     <g id="line2d_2">
      <g>
       <use xlink:href="#m4d9bc77134" x="139.874026" y="384.48" style="stroke: #000000; stroke-width: 0.8"/>
      </g>
     </g>
     <g id="text_2">
      <!-- 2 -->
      <g transform="translate(136.774026 398.639375) scale(0.1 -0.1)">
       <defs>
        <path id="STZhongsong-32" d="M 723 2714 
L 422 2675 
Q 397 2835 397 2989 
Q 397 3616 832 4025 
Q 1267 4435 1978 4435 
Q 2630 4435 3043 4064 
Q 3456 3693 3456 3098 
Q 3456 2669 3286 2349 
Q 3117 2029 2611 1603 
Q 2106 1178 1037 467 
L 2662 467 
Q 2963 467 3062 544 
Q 3162 621 3200 838 
L 3232 1018 
L 3494 1018 
L 3283 -154 
L 3085 -154 
L 3053 0 
L 320 0 
L 320 262 
L 819 640 
Q 1901 1453 2377 1977 
Q 2854 2502 2854 3066 
Q 2854 3507 2569 3788 
Q 2285 4070 1837 4070 
Q 1325 4070 1017 3753 
Q 710 3437 710 2918 
Q 710 2822 723 2714 
z
" transform="scale(0.015625)"/>
       </defs>
       <use xlink:href="#STZhongsong-32"/>
      </g>
     </g>
    </g>
    <g id="xtick_3">
     <g id="line2d_3">
      <g>
       <use xlink:href="#m4d9bc77134" x="194.224675" y="384.48" style="stroke: #000000; stroke-width: 0.8"/>
      </g>
     </g>
     <g id="text_3">
      <!-- 3 -->
      <g transform="translate(191.124675 398.639375) scale(0.1 -0.1)">
       <defs>
        <path id="STZhongsong-33" d="M 934 3194 
L 634 3238 
Q 717 3827 1097 4131 
Q 1478 4435 2061 4435 
Q 2662 4435 3046 4124 
Q 3430 3814 3430 3360 
Q 3430 3021 3190 2761 
Q 2950 2502 2502 2374 
Q 3046 2298 3334 1974 
Q 3622 1651 3622 1222 
Q 3622 698 3155 310 
Q 2688 -77 1997 -77 
Q 1299 -77 844 275 
Q 390 627 390 960 
Q 390 1114 505 1184 
Q 621 1254 710 1254 
Q 922 1254 1043 858 
Q 1133 544 1369 377 
Q 1606 211 1952 211 
Q 2419 211 2720 512 
Q 3021 813 3021 1267 
Q 3021 1702 2717 1952 
Q 2413 2202 1862 2202 
L 1568 2202 
L 1568 2502 
L 1754 2502 
Q 2829 2502 2829 3283 
Q 2829 3629 2592 3843 
Q 2355 4058 1952 4058 
Q 1107 4058 934 3194 
z
" transform="scale(0.015625)"/>
       </defs>
       <use xlink:href="#STZhongsong-33"/>
      </g>
     </g>
    </g>
    <g id="xtick_4">
     <g id="line2d_4">
      <g>
       <use xlink:href="#m4d9bc77134" x="248.575325" y="384.48" style="stroke: #000000; stroke-width: 0.8"/>
      </g>
     </g>
     <g id="text_4">
      <!-- 4 -->
      <g transform="translate(245.475325 398.639375) scale(0.1 -0.1)">
       <defs>
        <path id="STZhongsong-34" d="M 3494 1242 
L 2906 1242 
L 2906 518 
Q 2906 275 3213 250 
L 3213 45 
L 1882 45 
L 1882 250 
Q 2054 262 2156 336 
Q 2259 410 2259 518 
L 2259 1242 
L 550 1242 
L 550 1658 
L 2483 4365 
L 2906 4365 
L 2906 1581 
L 3494 1581 
L 3494 1242 
z
M 2259 1581 
L 2259 3462 
L 902 1581 
L 2259 1581 
z
" transform="scale(0.015625)"/>
       </defs>
       <use xlink:href="#STZhongsong-34"/>
      </g>
     </g>
    </g>
    <g id="xtick_5">
     <g id="line2d_5">
      <g>
       <use xlink:href="#m4d9bc77134" x="302.925974" y="384.48" style="stroke: #000000; stroke-width: 0.8"/>
      </g>
     </g>
     <g id="text_5">
      <!-- 5 -->
      <g transform="translate(299.825974 398.639375) scale(0.1 -0.1)">
       <defs>
        <path id="STZhongsong-35" d="M 934 4358 
L 2880 4358 
Q 3046 4358 3097 4387 
Q 3149 4416 3155 4512 
L 3386 4512 
L 3386 3853 
L 1229 3853 
L 1171 2752 
Q 1530 2848 1990 2848 
Q 2771 2848 3228 2451 
Q 3686 2054 3686 1414 
Q 3686 787 3212 355 
Q 2739 -77 2029 -77 
Q 1414 -77 982 236 
Q 550 550 550 890 
Q 550 1037 640 1123 
Q 730 1210 838 1210 
Q 1062 1210 1203 813 
Q 1421 218 2042 218 
Q 2515 218 2819 528 
Q 3123 838 3123 1312 
Q 3123 1824 2777 2128 
Q 2432 2432 1843 2432 
Q 1280 2432 832 2246 
L 934 4358 
z
" transform="scale(0.015625)"/>
       </defs>
       <use xlink:href="#STZhongsong-35"/>
      </g>
     </g>
    </g>
    <g id="xtick_6">
     <g id="line2d_6">
      <g>
       <use xlink:href="#m4d9bc77134" x="357.276623" y="384.48" style="stroke: #000000; stroke-width: 0.8"/>
      </g>
     </g>
     <g id="text_6">
      <!-- 6 -->
      <g transform="translate(354.176623 398.639375) scale(0.1 -0.1)">
       <defs>
        <path id="STZhongsong-36" d="M 3238 4442 
L 3238 4154 
Q 2131 4141 1603 3686 
Q 1075 3232 1037 2227 
Q 1446 2893 2240 2893 
Q 2880 2893 3289 2486 
Q 3699 2080 3699 1440 
Q 3699 742 3257 332 
Q 2816 -77 2093 -77 
Q 1286 -77 848 444 
Q 410 966 410 1926 
Q 410 3046 1056 3744 
Q 1702 4442 2995 4442 
L 3238 4442 
z
M 3072 1414 
Q 3072 1933 2800 2246 
Q 2528 2560 2099 2560 
Q 1658 2560 1363 2224 
Q 1069 1888 1069 1402 
Q 1069 890 1350 550 
Q 1632 211 2074 211 
Q 2509 211 2790 544 
Q 3072 877 3072 1414 
z
" transform="scale(0.015625)"/>
       </defs>
       <use xlink:href="#STZhongsong-36"/>
      </g>
     </g>
    </g>
    <g id="text_7">
     <!-- 组号 -->
     <g transform="translate(211.4 411.83) scale(0.1 -0.1)">
      <defs>
       <path id="STZhongsong-7ec4" d="M 1632 2394 
Q 858 2202 531 2029 
Q 493 2010 461 2010 
Q 429 2010 358 2144 
Q 288 2278 179 2528 
Q 365 2605 461 2665 
Q 557 2726 633 2835 
Q 710 2944 892 3318 
Q 1075 3693 1209 4051 
Q 1344 4410 1446 4806 
Q 1798 4653 2000 4534 
Q 2202 4416 2202 4371 
Q 2202 4326 2080 4314 
Q 1978 4294 1856 4102 
Q 1318 3213 800 2573 
L 1754 2611 
Q 1990 3059 2182 3590 
Q 2790 3174 2790 3078 
Q 2790 3027 2707 3014 
Q 2624 3002 2573 2957 
Q 2522 2912 2413 2758 
Q 1958 2131 1274 1338 
L 2758 1357 
L 2752 1197 
Q 2016 1062 1536 944 
Q 1056 826 909 710 
Q 858 666 813 666 
Q 768 666 736 762 
L 531 1235 
Q 730 1254 829 1302 
Q 928 1350 1005 1443 
Q 1082 1536 1283 1833 
Q 1485 2131 1632 2394 
z
M 3590 4237 
L 4723 4237 
L 4845 4467 
Q 4890 4538 4954 4538 
Q 5018 4538 5312 4365 
Q 5606 4192 5606 4131 
Q 5606 4070 5350 3930 
L 5350 -320 
L 5382 -320 
L 5594 19 
Q 5638 90 5699 90 
Q 5760 90 5987 -137 
Q 6214 -365 6214 -435 
Q 6214 -486 6035 -486 
L 2189 -486 
Q 2016 -486 1920 -531 
L 1805 -288 
Q 1939 -320 2125 -320 
L 2950 -320 
L 2950 3750 
Q 2950 4243 2931 4538 
Q 3283 4422 3590 4237 
z
M 4787 2816 
L 4787 4038 
L 3494 4038 
L 3494 2816 
L 4787 2816 
z
M 4787 1382 
L 4787 2618 
L 3494 2618 
L 3494 1382 
L 4787 1382 
z
M 4787 -320 
L 4787 1171 
L 3494 1171 
L 3494 -320 
L 4787 -320 
z
M 2803 365 
L 1613 -128 
Q 1018 -365 819 -512 
Q 755 -557 723 -557 
Q 646 -557 307 102 
Q 1472 218 2778 480 
L 2803 365 
z
" transform="scale(0.015625)"/>
       <path id="STZhongsong-53f7" d="M 4192 2912 
L 2061 2912 
L 2061 2733 
Q 2061 2662 2009 2627 
Q 1958 2592 1763 2518 
Q 1568 2445 1517 2445 
Q 1466 2445 1466 2483 
L 1485 2842 
Q 1504 3098 1504 3354 
L 1504 4224 
Q 1504 4493 1485 4768 
Q 1926 4646 2131 4518 
L 4064 4518 
L 4307 4832 
Q 4346 4877 4394 4877 
Q 4442 4877 4608 4768 
L 4896 4582 
Q 5011 4506 5011 4454 
Q 5011 4403 4794 4314 
L 4794 3533 
Q 4794 3309 4803 3097 
Q 4813 2886 4813 2854 
Q 4813 2822 4749 2784 
Q 4685 2746 4493 2685 
Q 4301 2624 4246 2624 
Q 4192 2624 4192 2720 
L 4192 2912 
z
M 2061 3110 
L 4192 3110 
L 4192 4333 
L 2061 4333 
L 2061 3110 
z
M 2880 2048 
L 2522 1267 
L 4326 1267 
L 4538 1555 
Q 4582 1613 4624 1613 
Q 4666 1613 4944 1430 
Q 5222 1248 5222 1178 
Q 5222 1101 4986 1037 
Q 4915 691 4755 195 
Q 4595 -301 4499 -454 
Q 4403 -608 4236 -729 
Q 4070 -851 3808 -928 
Q 3546 -1005 3392 -1005 
Q 3238 -1005 3200 -976 
Q 3162 -947 3158 -886 
Q 3155 -826 3155 -768 
Q 3155 -621 2902 -480 
Q 2650 -339 2221 -179 
L 2266 -70 
Q 3098 -275 3501 -275 
Q 3686 -275 3804 -230 
Q 3923 -186 3984 -96 
Q 4045 -6 4163 339 
Q 4282 685 4378 1069 
L 2522 1069 
L 2298 800 
Q 2214 698 2144 698 
Q 2086 698 1932 819 
Q 1779 941 1536 1152 
Q 1946 1286 2016 1466 
L 2253 2048 
L 627 2048 
Q 454 2048 358 2003 
L 243 2266 
Q 378 2234 563 2234 
L 5069 2234 
L 5370 2611 
Q 5427 2688 5497 2688 
Q 5568 2688 5670 2598 
L 5971 2336 
Q 6182 2163 6182 2105 
Q 6182 2048 6042 2048 
L 2880 2048 
z
" transform="scale(0.015625)"/>
      </defs>
      <use xlink:href="#STZhongsong-7ec4"/>
      <use xlink:href="#STZhongsong-53f7" x="99.999985"/>
     </g>
    </g>
   </g>
   <g id="matplotlib.axis_2">
    <g id="ytick_1">
     <g id="line2d_7">
      <defs>
       <path id="m2a3d0cf7d8" d="M 0 0 
L -3.5 0 
" style="stroke: #000000; stroke-width: 0.8"/>
      </defs>
      <g>
       <use xlink:href="#m2a3d0cf7d8" x="54" y="376.503307" style="stroke: #000000; stroke-width: 0.8"/>
      </g>
     </g>
     <g id="text_8">
      <!-- −4 -->
      <g transform="translate(34.8 380.082995) scale(0.1 -0.1)">
       <defs>
        <path id="STZhongsong-2212" d="M 3443 2374 
L 3443 1990 
L 397 1990 
L 397 2374 
L 3443 2374 
z
" transform="scale(0.015625)"/>
       </defs>
       <use xlink:href="#STZhongsong-2212"/>
       <use xlink:href="#STZhongsong-34" x="59.999985"/>
      </g>
     </g>
    </g>
    <g id="ytick_2">
     <g id="line2d_8">
      <g>
       <use xlink:href="#m2a3d0cf7d8" x="54" y="328.88126" style="stroke: #000000; stroke-width: 0.8"/>
      </g>
     </g>
     <g id="text_9">
      <!-- −2 -->
      <g transform="translate(34.8 332.460947) scale(0.1 -0.1)">
       <use xlink:href="#STZhongsong-2212"/>
       <use xlink:href="#STZhongsong-32" x="59.999985"/>
      </g>
     </g>
    </g>
    <g id="ytick_3">
     <g id="line2d_9">
      <g>
       <use xlink:href="#m2a3d0cf7d8" x="54" y="281.259213" style="stroke: #000000; stroke-width: 0.8"/>
      </g>
     </g>
     <g id="text_10">
      <!-- 0 -->
      <g transform="translate(40.8 284.8389) scale(0.1 -0.1)">
       <defs>
        <path id="STZhongsong-30" d="M 326 2182 
Q 326 3251 774 3843 
Q 1222 4435 1997 4435 
Q 2752 4435 3197 3827 
Q 3642 3219 3642 2144 
Q 3642 1139 3178 531 
Q 2714 -77 1952 -77 
Q 1229 -77 777 524 
Q 326 1126 326 2182 
z
M 3040 2182 
Q 3040 3104 2758 3616 
Q 2477 4128 1978 4128 
Q 1478 4128 1200 3590 
Q 922 3053 922 2118 
Q 922 1229 1210 733 
Q 1498 237 1971 237 
Q 2470 237 2755 752 
Q 3040 1267 3040 2182 
z
" transform="scale(0.015625)"/>
       </defs>
       <use xlink:href="#STZhongsong-30"/>
      </g>
     </g>
    </g>
    <g id="ytick_4">
     <g id="line2d_10">
      <g>
       <use xlink:href="#m2a3d0cf7d8" x="54" y="233.637165" style="stroke: #000000; stroke-width: 0.8"/>
      </g>
     </g>
     <g id="text_11">
      <!-- 2 -->
      <g transform="translate(40.8 237.216853) scale(0.1 -0.1)">
       <use xlink:href="#STZhongsong-32"/>
      </g>
     </g>
    </g>
    <g id="ytick_5">
     <g id="line2d_11">
      <g>
       <use xlink:href="#m2a3d0cf7d8" x="54" y="186.015118" style="stroke: #000000; stroke-width: 0.8"/>
      </g>
     </g>
     <g id="text_12">
      <!-- 4 -->
      <g transform="translate(40.8 189.594806) scale(0.1 -0.1)">
       <use xlink:href="#STZhongsong-34"/>
      </g>
     </g>
    </g>
    <g id="ytick_6">
     <g id="line2d_12">
      <g>
       <use xlink:href="#m2a3d0cf7d8" x="54" y="138.393071" style="stroke: #000000; stroke-width: 0.8"/>
      </g>
     </g>
     <g id="text_13">
      <!-- 6 -->
      <g transform="translate(40.8 141.972758) scale(0.1 -0.1)">
       <use xlink:href="#STZhongsong-36"/>
      </g>
     </g>
    </g>
    <g id="ytick_7">
     <g id="line2d_13">
      <g>
       <use xlink:href="#m2a3d0cf7d8" x="54" y="90.771024" style="stroke: #000000; stroke-width: 0.8"/>
      </g>
     </g>
     <g id="text_14">
      <!-- 8 -->
      <g transform="translate(40.8 94.350711) scale(0.1 -0.1)">
       <defs>
        <path id="STZhongsong-38" d="M 2477 2419 
Q 3021 2208 3315 1923 
Q 3610 1638 3610 1197 
Q 3610 659 3152 291 
Q 2694 -77 1971 -77 
Q 1274 -77 816 272 
Q 358 621 358 1120 
Q 358 1485 633 1779 
Q 909 2074 1440 2259 
Q 1011 2451 800 2691 
Q 589 2931 589 3315 
Q 589 3814 998 4124 
Q 1408 4435 2035 4435 
Q 2618 4435 2998 4134 
Q 3379 3834 3379 3424 
Q 3379 2790 2477 2419 
z
M 2189 2534 
Q 2451 2707 2662 2918 
Q 2874 3130 2874 3418 
Q 2874 3706 2621 3923 
Q 2368 4141 1971 4141 
Q 1594 4141 1331 3926 
Q 1069 3712 1069 3430 
Q 1069 3168 1270 2989 
Q 1472 2810 1824 2675 
L 2189 2534 
z
M 1747 2131 
Q 1325 1939 1088 1670 
Q 851 1402 851 1126 
Q 851 762 1177 490 
Q 1504 218 1984 218 
Q 2438 218 2774 483 
Q 3110 749 3110 1082 
Q 3110 1594 2253 1933 
L 1747 2131 
z
" transform="scale(0.015625)"/>
       </defs>
       <use xlink:href="#STZhongsong-38"/>
      </g>
     </g>
    </g>
    <g id="text_15">
     <!-- 单位时间内家兔尿量增加量（mL） -->
     <g transform="translate(28.8 295.86) rotate(-90) scale(0.1 -0.1)">
      <defs>
       <path id="STZhongsong-5355" d="M 4646 1370 
L 3488 1370 
L 3488 582 
L 5178 582 
L 5472 979 
Q 5530 1050 5603 1050 
Q 5677 1050 5718 1021 
Q 5760 992 5977 777 
Q 6195 563 6224 524 
Q 6253 486 6253 454 
Q 6253 352 6035 352 
L 3488 352 
L 3488 -198 
Q 3488 -410 3501 -653 
L 3507 -870 
Q 3507 -922 3449 -960 
Q 3392 -998 3209 -1065 
Q 3027 -1133 2957 -1133 
Q 2918 -1133 2918 -1030 
L 2925 -653 
Q 2931 -486 2931 -198 
L 2931 352 
L 672 352 
Q 499 352 403 307 
L 288 614 
Q 422 582 608 582 
L 2931 582 
L 2931 1370 
L 1766 1370 
L 1766 1139 
Q 1766 1088 1753 1065 
Q 1741 1043 1619 988 
Q 1498 934 1376 905 
Q 1254 877 1225 877 
Q 1197 877 1197 928 
L 1210 1235 
Q 1222 1562 1222 1805 
L 1222 3283 
Q 1222 3552 1203 3827 
Q 1562 3706 1875 3507 
L 3462 3507 
Q 3866 4301 4083 4934 
Q 4346 4838 4570 4729 
Q 4794 4621 4822 4592 
Q 4851 4563 4851 4531 
Q 4851 4454 4736 4442 
Q 4666 4435 4611 4409 
Q 4557 4384 4464 4297 
Q 4371 4211 4166 3987 
L 3725 3507 
L 4563 3507 
L 4742 3795 
Q 4774 3853 4806 3853 
Q 4838 3853 5075 3712 
Q 5312 3571 5392 3507 
Q 5472 3443 5472 3395 
Q 5472 3347 5216 3200 
L 5216 1920 
L 5229 1280 
Q 5229 1222 5216 1200 
Q 5203 1178 5113 1133 
Q 5024 1088 4877 1046 
Q 4730 1005 4688 1005 
Q 4646 1005 4646 1101 
L 4646 1370 
z
M 3488 2598 
L 4646 2598 
L 4646 3296 
L 3488 3296 
L 3488 2598 
z
M 1766 2598 
L 2931 2598 
L 2931 3296 
L 1766 3296 
L 1766 2598 
z
M 4646 2368 
L 3488 2368 
L 3488 1587 
L 4646 1587 
L 4646 2368 
z
M 2931 2368 
L 1766 2368 
L 1766 1587 
L 2931 1587 
L 2931 2368 
z
M 1709 4883 
Q 2240 4646 2531 4438 
Q 2822 4230 2822 4044 
Q 2822 3859 2697 3712 
Q 2573 3565 2426 3565 
Q 2349 3565 2320 3606 
Q 2291 3648 2259 3802 
Q 2170 4211 1658 4774 
L 1709 4883 
z
" transform="scale(0.015625)"/>
       <path id="STZhongsong-4f4d" d="M 3405 4954 
Q 3930 4742 4198 4531 
Q 4467 4320 4467 4105 
Q 4467 3891 4342 3753 
Q 4218 3616 4122 3616 
Q 4077 3616 4048 3657 
Q 4019 3699 3980 3849 
Q 3942 4000 3744 4320 
Q 3546 4640 3328 4877 
L 3405 4954 
z
M 1248 2611 
Q 768 1946 237 1434 
L 166 1523 
Q 1267 2938 1818 4890 
Q 2554 4480 2554 4378 
Q 2554 4326 2419 4307 
Q 2323 4294 2243 4188 
Q 2163 4083 1971 3744 
Q 1779 3405 1581 3104 
Q 1965 3002 1965 2944 
Q 1965 2886 1792 2810 
L 1792 -698 
Q 1792 -762 1734 -806 
Q 1677 -851 1494 -924 
Q 1312 -998 1248 -998 
Q 1216 -998 1216 -934 
L 1229 -525 
Q 1248 -64 1248 224 
L 1248 2611 
z
M 5120 3456 
L 5389 3898 
Q 5427 3962 5466 3962 
Q 5530 3962 5840 3677 
Q 6150 3392 6150 3322 
Q 6150 3277 5984 3277 
L 2579 3277 
Q 2406 3277 2310 3232 
L 2195 3488 
Q 2330 3456 2515 3456 
L 5120 3456 
z
M 4333 -339 
L 5190 -339 
L 5408 70 
Q 5478 205 5545 205 
Q 5613 205 5677 157 
Q 5741 109 5945 -96 
Q 6150 -301 6208 -374 
Q 6266 -448 6266 -486 
Q 6266 -525 6138 -525 
L 2336 -525 
Q 2163 -525 2067 -570 
L 1952 -307 
Q 2086 -339 2272 -339 
L 4058 -339 
Q 4435 1254 4691 3046 
Q 5114 2880 5315 2774 
Q 5517 2669 5517 2611 
Q 5517 2554 5389 2528 
Q 5331 2515 5289 2448 
Q 5248 2381 4941 1485 
L 4333 -339 
z
M 2701 2758 
Q 3654 1421 3654 826 
Q 3654 608 3545 429 
Q 3437 250 3232 250 
Q 3149 250 3117 314 
Q 3085 378 3075 675 
Q 3066 973 2928 1600 
Q 2790 2227 2605 2682 
L 2701 2758 
z
" transform="scale(0.015625)"/>
       <path id="STZhongsong-65f6" d="M 5146 3200 
L 5312 3200 
L 5549 3533 
Q 5594 3597 5642 3597 
Q 5690 3597 5926 3341 
Q 6163 3085 6163 3040 
Q 6163 2995 6042 2995 
L 5146 2995 
L 5146 -294 
Q 5146 -499 5117 -608 
Q 5088 -717 4989 -793 
Q 4890 -870 4659 -956 
Q 4429 -1043 4374 -1043 
Q 4320 -1043 4288 -941 
Q 4211 -666 4022 -554 
Q 3834 -442 3501 -346 
L 3520 -218 
Q 4134 -314 4313 -314 
Q 4493 -314 4537 -259 
Q 4582 -205 4582 -58 
L 4582 2995 
L 3136 2995 
Q 2976 2995 2861 2963 
L 2752 3232 
Q 2886 3200 3072 3200 
L 4582 3200 
L 4582 4243 
Q 4582 4595 4570 4922 
Q 4749 4883 5049 4806 
Q 5350 4730 5392 4704 
Q 5434 4678 5434 4653 
Q 5434 4576 5146 4429 
L 5146 3200 
z
M 1306 4045 
L 2061 4045 
L 2208 4301 
Q 2246 4365 2298 4365 
Q 2336 4365 2518 4253 
Q 2701 4141 2809 4057 
Q 2918 3974 2918 3929 
Q 2918 3885 2669 3757 
L 2669 717 
L 2682 141 
Q 2682 64 2669 48 
Q 2656 32 2544 -29 
Q 2432 -90 2310 -128 
Q 2189 -166 2160 -166 
Q 2131 -166 2131 -90 
L 2131 454 
L 1190 454 
L 1190 -166 
Q 1190 -224 1177 -246 
Q 1165 -269 1065 -323 
Q 966 -378 832 -422 
Q 698 -467 669 -467 
Q 640 -467 646 -410 
Q 678 -96 678 230 
L 678 3859 
Q 678 4128 659 4403 
Q 1082 4218 1306 4045 
z
M 2131 2304 
L 2131 3846 
L 1190 3846 
L 1190 2304 
L 2131 2304 
z
M 2131 653 
L 2131 2106 
L 1190 2106 
L 1190 653 
L 2131 653 
z
M 3181 2528 
Q 3603 2227 3827 1984 
Q 4051 1741 4051 1536 
Q 4051 1331 3916 1171 
Q 3782 1011 3629 1011 
Q 3488 1011 3469 1229 
Q 3418 1965 3098 2458 
L 3181 2528 
z
" transform="scale(0.015625)"/>
       <path id="STZhongsong-95f4" d="M 1382 4973 
Q 1933 4710 2208 4508 
Q 2483 4307 2483 4054 
Q 2483 3802 2345 3658 
Q 2208 3514 2112 3514 
Q 2016 3514 1974 3568 
Q 1933 3622 1907 3757 
Q 1837 4186 1693 4429 
Q 1549 4672 1325 4883 
L 1382 4973 
z
M 5037 4179 
L 5254 4512 
Q 5306 4595 5350 4595 
Q 5395 4595 5702 4390 
Q 6010 4186 6010 4125 
Q 6010 4064 5696 3866 
L 5696 6 
Q 5696 -326 5664 -480 
Q 5632 -634 5526 -730 
Q 5421 -826 5129 -925 
Q 4838 -1024 4768 -1024 
Q 4704 -1024 4704 -915 
Q 4704 -480 3962 -256 
L 3981 -122 
Q 4659 -250 4844 -250 
Q 5030 -250 5075 -192 
Q 5120 -134 5120 19 
L 5120 3962 
L 3373 3962 
Q 3251 3962 3142 3917 
L 2976 4192 
Q 3130 4179 3296 4179 
L 5037 4179 
z
M 755 3763 
Q 1517 3565 1517 3475 
Q 1517 3418 1318 3296 
L 1318 -736 
Q 1318 -806 1267 -844 
Q 1216 -883 1021 -953 
Q 826 -1024 781 -1024 
Q 736 -1024 736 -985 
Q 736 -947 752 -688 
Q 768 -429 768 -96 
L 768 3194 
Q 768 3514 755 3763 
z
M 2746 2938 
L 3706 2938 
L 3866 3174 
Q 3904 3232 3952 3232 
Q 4000 3232 4262 3081 
Q 4525 2931 4525 2873 
Q 4525 2816 4294 2656 
L 4294 883 
L 4301 320 
Q 4301 237 4259 201 
Q 4218 166 4051 102 
Q 3885 38 3830 38 
Q 3776 38 3776 211 
L 3776 486 
L 2618 486 
L 2618 122 
Q 2618 64 2560 19 
Q 2502 -26 2336 -90 
Q 2170 -154 2125 -154 
Q 2080 -154 2093 -45 
Q 2118 211 2118 544 
L 2118 2701 
Q 2118 2970 2099 3245 
Q 2618 3059 2746 2938 
z
M 2618 1837 
L 3776 1837 
L 3776 2758 
L 2618 2758 
L 2618 1837 
z
M 3776 1638 
L 2618 1638 
L 2618 672 
L 3776 672 
L 3776 1638 
z
" transform="scale(0.015625)"/>
       <path id="STZhongsong-5185" d="M 1619 3571 
L 2816 3571 
Q 2822 3827 2822 4108 
Q 2822 4390 2803 4909 
Q 3686 4736 3686 4634 
Q 3686 4595 3593 4556 
Q 3501 4518 3478 4444 
Q 3456 4371 3433 4080 
Q 3411 3789 3379 3571 
L 4742 3571 
L 4915 3814 
Q 4960 3872 5005 3872 
Q 5050 3872 5350 3686 
Q 5651 3501 5651 3437 
Q 5651 3373 5363 3232 
L 5363 -262 
Q 5363 -448 5289 -563 
Q 5216 -678 4950 -822 
Q 4685 -966 4614 -966 
Q 4557 -966 4528 -819 
Q 4499 -672 4425 -576 
Q 4352 -480 4157 -393 
Q 3962 -307 3578 -205 
L 3603 -77 
Q 4282 -160 4490 -160 
Q 4698 -160 4746 -102 
Q 4794 -45 4794 122 
L 4794 3354 
L 3360 3354 
Q 3277 2592 3187 2189 
Q 3853 1920 4201 1670 
Q 4550 1421 4550 1152 
Q 4550 1011 4476 822 
Q 4403 634 4269 634 
Q 4192 634 4147 694 
Q 4102 755 4051 890 
Q 3782 1549 3149 2048 
Q 2880 986 1562 301 
L 1498 416 
Q 2253 1024 2512 1721 
Q 2771 2419 2803 3354 
L 1395 3354 
L 1395 -627 
Q 1395 -698 1379 -723 
Q 1363 -749 1267 -800 
Q 1171 -851 1046 -889 
Q 922 -928 870 -928 
Q 819 -928 819 -880 
Q 819 -832 835 -598 
Q 851 -365 851 -51 
L 851 3398 
Q 851 3712 838 3955 
Q 1235 3859 1619 3571 
z
" transform="scale(0.015625)"/>
       <path id="STZhongsong-5bb6" d="M 3059 3910 
Q 2893 4621 2464 4838 
L 2522 4960 
Q 3648 4710 3648 4333 
Q 3648 4230 3571 4099 
Q 3494 3968 3386 3910 
L 5043 3910 
L 5248 4115 
Q 5331 4198 5369 4198 
Q 5408 4198 5533 4099 
Q 5658 4000 5811 3865 
Q 5965 3731 6025 3660 
Q 6086 3590 6086 3546 
Q 6086 3430 5914 3430 
L 5773 3443 
Q 5600 3443 5363 3360 
Q 5126 3277 4909 3123 
L 4819 3213 
Q 5024 3507 5114 3712 
L 1453 3712 
Q 1440 3258 1251 3014 
Q 1062 2771 832 2771 
Q 659 2771 547 2860 
Q 435 2950 435 3068 
Q 435 3187 602 3264 
Q 1203 3552 1293 4262 
L 1446 4262 
Q 1453 4141 1453 3910 
L 3059 3910 
z
M 2669 2816 
L 1715 2816 
Q 1542 2816 1446 2771 
L 1350 3059 
Q 1485 3027 1670 3027 
L 4154 3027 
L 4403 3322 
Q 4448 3379 4525 3379 
Q 4602 3379 4851 3139 
Q 5101 2899 5101 2857 
Q 5101 2816 5005 2816 
L 3501 2816 
Q 3066 2496 2899 2381 
Q 3360 2080 3584 1683 
Q 4442 2214 4845 2643 
Q 5030 2509 5212 2342 
Q 5395 2176 5420 2137 
Q 5446 2099 5446 2067 
Q 5446 1997 5350 1997 
Q 5312 1997 5248 2013 
Q 5184 2029 5110 2029 
Q 5037 2029 4758 1907 
Q 4480 1786 4205 1690 
Q 4429 1030 4893 620 
Q 5357 211 6189 -70 
L 6163 -198 
Q 5645 -173 5408 -480 
Q 5376 -525 5338 -525 
Q 5235 -525 4752 -32 
Q 4269 461 4032 1626 
L 3667 1498 
Q 3821 1126 3821 691 
Q 3821 256 3734 -185 
Q 3648 -627 3321 -816 
Q 2995 -1005 2886 -1005 
Q 2829 -1005 2803 -883 
Q 2720 -512 2048 -301 
L 2061 -173 
Q 2509 -275 2726 -275 
Q 2944 -275 3037 -233 
Q 3130 -192 3168 -121 
Q 3206 -51 3251 281 
Q 3296 614 3290 883 
Q 2598 326 1939 -13 
Q 1280 -352 320 -634 
L 256 -506 
Q 1248 -83 1875 365 
Q 2502 813 3181 1555 
Q 3155 1651 3091 1773 
Q 2470 1274 1907 966 
Q 1344 659 512 390 
L 435 531 
Q 1088 806 1750 1280 
Q 2413 1754 2790 2214 
L 2733 2272 
Q 1766 1645 474 1312 
L 403 1440 
Q 1133 1702 1753 2083 
Q 2374 2464 2669 2816 
z
" transform="scale(0.015625)"/>
       <path id="STZhongsong-5154" d="M 3693 2963 
L 4794 2963 
L 4954 3174 
Q 4998 3238 5046 3238 
Q 5094 3238 5398 3068 
Q 5702 2899 5702 2828 
Q 5702 2758 5440 2592 
L 5440 1715 
Q 5440 1606 5446 1536 
L 5459 1408 
Q 5459 1312 5222 1245 
Q 4986 1178 4915 1178 
Q 4845 1178 4845 1261 
L 4845 1504 
L 4058 1504 
L 4058 -186 
Q 4058 -269 4115 -323 
Q 4173 -378 4377 -410 
Q 4582 -442 4998 -442 
Q 5306 -442 5430 -358 
Q 5555 -275 5619 -32 
Q 5683 211 5786 890 
L 5926 890 
Q 5914 634 5914 390 
Q 5914 147 5968 9 
Q 6022 -128 6176 -250 
Q 6259 -314 6259 -365 
Q 6259 -416 6099 -608 
Q 5939 -800 5686 -854 
Q 5434 -909 4787 -909 
Q 4141 -909 3907 -845 
Q 3674 -781 3594 -611 
Q 3514 -442 3514 -64 
L 3514 1504 
Q 3354 493 2637 -115 
Q 1920 -723 454 -1114 
L 410 -992 
Q 1632 -506 2208 41 
Q 2784 589 2963 1504 
L 2048 1504 
L 2048 1254 
Q 2048 1190 1993 1155 
Q 1939 1120 1744 1062 
Q 1549 1005 1491 1005 
Q 1434 1005 1440 1075 
Q 1472 1363 1472 1683 
L 1472 2675 
Q 1011 2291 448 1997 
L 352 2093 
Q 1984 3392 2624 4966 
Q 2886 4870 3107 4771 
Q 3328 4672 3360 4640 
Q 3392 4608 3392 4576 
Q 3392 4512 3273 4505 
Q 3155 4499 3075 4425 
Q 2995 4352 2739 4013 
L 3808 4013 
L 4019 4294 
Q 4090 4384 4147 4384 
Q 4205 4384 4393 4243 
Q 4582 4102 4681 4032 
Q 4781 3962 4781 3904 
Q 4781 3846 4672 3840 
Q 4563 3834 4470 3782 
Q 4378 3731 4205 3552 
Q 4032 3373 3693 2963 
z
M 1958 2963 
L 3437 2963 
Q 3635 3341 3808 3814 
L 2579 3814 
Q 2214 3366 1837 3002 
Q 1888 2995 1958 2963 
z
M 3078 2733 
L 2048 2733 
L 2048 1754 
L 3002 1754 
Q 3059 2189 3078 2733 
z
M 4845 1754 
L 4845 2733 
L 3654 2733 
Q 3558 1792 3546 1754 
L 4845 1754 
z
M 4403 1210 
Q 4960 806 5129 643 
Q 5299 480 5299 352 
Q 5299 224 5222 32 
Q 5146 -160 5030 -160 
Q 4915 -160 4883 -112 
Q 4851 -64 4780 192 
Q 4710 448 4601 653 
Q 4493 858 4314 1101 
L 4403 1210 
z
" transform="scale(0.015625)"/>
       <path id="STZhongsong-5c3f" d="M 1574 4461 
L 4845 4461 
L 5018 4717 
Q 5056 4781 5094 4781 
Q 5152 4781 5424 4608 
Q 5696 4435 5696 4364 
Q 5696 4294 5466 4166 
L 5466 3469 
Q 5466 3373 5472 3290 
L 5485 3149 
Q 5485 3098 5449 3085 
Q 5414 3072 5206 3011 
Q 4998 2950 4966 2950 
Q 4934 2950 4934 3014 
L 4934 3149 
L 1581 3149 
Q 1581 2163 1517 1587 
Q 1453 1011 1152 352 
Q 851 -307 218 -986 
L 134 -909 
Q 640 -243 835 582 
Q 1030 1408 1030 2675 
Q 1030 3386 960 4742 
Q 1306 4614 1574 4461 
z
M 4934 3354 
L 4934 4250 
L 1574 4250 
Q 1587 3763 1587 3354 
L 4934 3354 
z
M 3930 2426 
L 3930 -371 
Q 3930 -582 3875 -678 
Q 3821 -774 3593 -892 
Q 3366 -1011 3296 -1011 
Q 3226 -1011 3219 -941 
Q 3200 -768 3056 -665 
Q 2912 -563 2445 -416 
L 2445 -250 
Q 2931 -320 3097 -320 
Q 3264 -320 3328 -291 
Q 3392 -262 3392 -160 
L 3392 2547 
Q 3392 2989 3379 3091 
Q 3872 2982 4013 2928 
Q 4154 2874 4154 2832 
Q 4154 2790 4032 2726 
Q 4160 2080 4416 1542 
Q 4800 2048 5133 2637 
Q 5280 2541 5478 2397 
Q 5677 2253 5712 2208 
Q 5747 2163 5747 2131 
Q 5747 2099 5724 2089 
Q 5702 2080 5628 2080 
Q 5555 2080 5481 2051 
Q 5408 2022 5078 1769 
Q 4749 1517 4525 1338 
Q 5062 384 6208 -77 
L 6189 -198 
Q 6074 -186 5936 -186 
Q 5798 -186 5657 -240 
Q 5517 -294 5430 -384 
Q 5344 -474 5312 -474 
Q 5210 -474 4614 361 
Q 4019 1197 3930 2426 
z
M 2387 2093 
L 2547 2291 
Q 2611 2368 2659 2368 
Q 2707 2368 2985 2166 
Q 3264 1965 3264 1910 
Q 3264 1856 3165 1846 
Q 3066 1837 3014 1776 
Q 2963 1715 2912 1581 
Q 2592 800 2201 342 
Q 1811 -115 1216 -525 
L 1133 -403 
Q 2227 531 2477 1894 
L 1939 1894 
Q 1824 1894 1734 1862 
L 1632 2112 
Q 1722 2093 1933 2093 
L 2387 2093 
z
" transform="scale(0.015625)"/>
       <path id="STZhongsong-91cf" d="M 2054 4480 
L 4410 4480 
L 4576 4691 
Q 4608 4730 4640 4730 
Q 4691 4730 4969 4582 
Q 5248 4435 5248 4368 
Q 5248 4301 5024 4198 
L 5024 3738 
Q 5024 3552 5037 3341 
L 5043 3142 
Q 5043 3098 5030 3075 
Q 5018 3053 4922 2992 
Q 4826 2931 4685 2876 
Q 4544 2822 4509 2822 
Q 4474 2822 4474 2880 
L 4474 3046 
L 2016 3046 
Q 2029 2989 2006 2960 
Q 1984 2931 1897 2886 
Q 1811 2842 1660 2797 
Q 1510 2752 1475 2752 
Q 1440 2752 1446 2822 
Q 1478 3130 1478 3456 
L 1478 4198 
Q 1478 4467 1459 4742 
Q 1830 4608 2054 4480 
z
M 4474 3853 
L 4474 4294 
L 2016 4294 
L 2016 3853 
L 4474 3853 
z
M 4474 3213 
L 4474 3674 
L 2016 3674 
L 2016 3213 
L 4474 3213 
z
M 5171 2675 
L 5395 3040 
Q 5434 3110 5491 3110 
Q 5549 3110 5690 2989 
L 5984 2746 
Q 6138 2618 6138 2560 
Q 6138 2502 5990 2502 
L 640 2502 
Q 467 2502 371 2458 
L 256 2707 
Q 390 2675 576 2675 
L 5171 2675 
z
M 3482 672 
L 3482 166 
L 4666 166 
L 4864 416 
Q 4902 474 4950 474 
Q 4998 474 5251 285 
Q 5504 96 5504 38 
Q 5504 -19 5286 -19 
L 3482 -19 
L 3482 -550 
L 5203 -550 
L 5434 -230 
Q 5485 -160 5542 -160 
Q 5600 -160 5865 -390 
Q 6131 -621 6131 -691 
Q 6131 -736 5965 -736 
L 582 -736 
Q 410 -736 314 -781 
L 198 -518 
Q 333 -550 518 -550 
L 2931 -550 
L 2931 -19 
L 1274 -19 
Q 1101 -19 1005 -64 
L 877 198 
Q 1011 166 1197 166 
L 2931 166 
L 2931 672 
L 1843 672 
Q 1843 589 1824 569 
Q 1805 550 1725 505 
Q 1645 461 1481 413 
Q 1318 365 1296 365 
Q 1274 365 1280 422 
Q 1312 717 1312 1050 
L 1312 1747 
Q 1312 2074 1293 2355 
Q 1715 2253 1926 2150 
L 4544 2150 
L 4685 2362 
Q 4717 2413 4765 2413 
Q 4813 2413 4944 2333 
Q 5075 2253 5209 2157 
Q 5344 2061 5344 2029 
Q 5344 1971 5126 1850 
L 5126 1363 
Q 5126 1056 5133 954 
L 5139 762 
Q 5139 704 5091 669 
Q 5043 634 4880 592 
Q 4717 550 4627 550 
Q 4576 550 4576 627 
L 4576 672 
L 3482 672 
z
M 2931 1510 
L 2931 1978 
L 1843 1978 
L 1843 1510 
L 2931 1510 
z
M 3482 1978 
L 3482 1510 
L 4576 1510 
L 4576 1978 
L 3482 1978 
z
M 3482 1312 
L 3482 858 
L 4576 858 
L 4576 1312 
L 3482 1312 
z
M 2931 858 
L 2931 1312 
L 1843 1312 
L 1843 858 
L 2931 858 
z
" transform="scale(0.015625)"/>
       <path id="STZhongsong-589e" d="M 5331 1907 
L 2982 1907 
Q 2982 1779 2947 1737 
Q 2912 1696 2720 1619 
Q 2528 1542 2470 1542 
Q 2438 1542 2445 1613 
Q 2477 1907 2477 2246 
L 2477 3501 
Q 2477 3770 2458 4045 
Q 2829 3917 3066 3738 
L 3501 3738 
Q 3437 3763 3357 4041 
Q 3277 4320 3161 4502 
Q 3046 4685 2880 4858 
L 2925 4954 
Q 3386 4762 3626 4576 
Q 3866 4390 3866 4186 
Q 3866 4064 3782 3920 
Q 3699 3776 3584 3738 
L 4352 3738 
Q 4678 4326 4890 4922 
Q 5491 4602 5491 4506 
Q 5491 4454 5379 4441 
Q 5267 4429 5132 4307 
Q 4998 4186 4627 3738 
L 5274 3738 
L 5389 3910 
Q 5466 4026 5526 4026 
Q 5587 4026 5830 3859 
Q 6074 3693 6074 3635 
Q 6074 3578 5862 3482 
L 5862 2522 
Q 5862 2170 5869 2067 
L 5882 1875 
Q 5882 1837 5834 1795 
Q 5786 1754 5597 1680 
Q 5408 1606 5357 1606 
Q 5331 1606 5331 1664 
L 5331 1907 
z
M 3898 2112 
L 3898 3552 
L 2982 3552 
L 2982 2112 
L 3898 2112 
z
M 3162 3354 
Q 3533 3066 3619 2957 
Q 3706 2848 3706 2704 
Q 3706 2560 3616 2454 
Q 3526 2349 3424 2349 
Q 3322 2349 3312 2646 
Q 3302 2944 3085 3277 
L 3162 3354 
z
M 4365 3552 
L 4365 2112 
L 5331 2112 
L 5331 3552 
L 4365 3552 
z
M 4794 3354 
Q 5261 3091 5261 3002 
Q 5261 2976 5241 2969 
Q 5222 2963 5136 2963 
Q 5050 2963 4909 2778 
Q 4685 2477 4493 2266 
L 4416 2336 
Q 4672 2906 4794 3354 
z
M 1082 2630 
L 621 2630 
Q 448 2630 352 2586 
L 230 2854 
Q 365 2822 550 2822 
L 1082 2822 
L 1082 4198 
Q 1082 4614 1056 4774 
Q 1408 4678 1625 4585 
Q 1843 4493 1843 4435 
Q 1843 4378 1613 4269 
L 1613 2822 
L 1715 2822 
L 1862 3072 
Q 1920 3162 1984 3162 
Q 2048 3162 2233 2970 
Q 2419 2778 2419 2704 
Q 2419 2630 2298 2630 
L 1613 2630 
L 1613 896 
L 2592 1203 
L 2656 1082 
L 1574 467 
Q 1152 230 1008 134 
Q 864 38 736 -70 
Q 685 -115 659 -115 
Q 634 -115 586 -44 
Q 538 26 288 512 
Q 550 563 1082 723 
L 1082 2630 
z
M 4966 -435 
L 3373 -435 
L 3373 -685 
Q 3373 -749 3357 -771 
Q 3341 -794 3257 -838 
Q 3174 -883 3040 -921 
Q 2906 -960 2870 -960 
Q 2835 -960 2842 -890 
Q 2874 -646 2874 -256 
L 2874 1075 
Q 2874 1344 2854 1619 
Q 3354 1472 3507 1395 
L 4922 1395 
L 5018 1581 
Q 5056 1651 5123 1651 
Q 5190 1651 5456 1497 
Q 5722 1344 5722 1289 
Q 5722 1235 5517 1146 
L 5517 -19 
Q 5517 -224 5530 -429 
L 5536 -614 
Q 5536 -678 5491 -710 
Q 5446 -742 5264 -806 
Q 5082 -870 5024 -870 
Q 4966 -870 4966 -819 
L 4966 -435 
z
M 3373 557 
L 4966 557 
L 4966 1203 
L 3373 1203 
L 3373 557 
z
M 4966 378 
L 3373 378 
L 3373 -250 
L 4966 -250 
L 4966 378 
z
" transform="scale(0.015625)"/>
       <path id="STZhongsong-52a0" d="M 2022 3245 
Q 1958 1370 1584 496 
Q 1210 -378 384 -1018 
L 294 -922 
Q 934 -205 1180 720 
Q 1427 1645 1504 3245 
L 768 3245 
Q 602 3245 525 3194 
L 422 3482 
Q 557 3437 710 3437 
L 1517 3437 
Q 1530 3802 1530 4182 
Q 1530 4563 1510 4864 
Q 2336 4646 2336 4570 
Q 2336 4531 2208 4461 
Q 2144 4422 2115 4246 
Q 2086 4070 2035 3437 
L 2714 3437 
L 2829 3642 
Q 2880 3731 2921 3731 
Q 2963 3731 3132 3625 
Q 3302 3520 3408 3446 
Q 3514 3373 3514 3331 
Q 3514 3290 3283 3194 
Q 3270 2330 3232 1414 
Q 3181 192 3142 -89 
Q 3104 -371 2973 -528 
Q 2842 -685 2522 -890 
Q 2438 -941 2400 -941 
Q 2342 -941 2323 -813 
Q 2278 -595 2156 -483 
Q 2035 -371 1677 -237 
L 1696 -115 
Q 2131 -211 2291 -211 
Q 2451 -211 2521 -144 
Q 2592 -77 2617 102 
Q 2643 282 2688 1293 
Q 2733 2304 2746 3245 
L 2022 3245 
z
M 4403 3686 
L 5235 3686 
L 5382 3917 
Q 5421 3981 5456 3981 
Q 5491 3981 5779 3798 
Q 6067 3616 6067 3558 
Q 6067 3501 5824 3405 
L 5824 -26 
L 5837 -595 
Q 5837 -672 5789 -707 
Q 5741 -742 5552 -806 
Q 5363 -870 5321 -870 
Q 5280 -870 5280 -787 
L 5280 -115 
L 4307 -115 
L 4307 -659 
Q 4307 -736 4259 -768 
Q 4211 -800 4025 -861 
Q 3840 -922 3795 -922 
Q 3750 -922 3757 -819 
Q 3782 -538 3782 -218 
L 3782 3469 
Q 3782 3738 3763 4013 
Q 4154 3846 4403 3686 
z
M 5280 90 
L 5280 3482 
L 4307 3482 
L 4307 90 
L 5280 90 
z
" transform="scale(0.015625)"/>
       <path id="STZhongsong-ff08" d="M 5747 4563 
Q 4781 3258 4781 1997 
Q 4781 1075 5011 480 
Q 5242 -115 5741 -826 
L 5587 -966 
Q 4864 -320 4515 368 
Q 4166 1056 4166 1990 
Q 4166 2688 4537 3395 
Q 4909 4102 5619 4698 
L 5747 4563 
z
" transform="scale(0.015625)"/>
       <path id="STZhongsong-6d" d="M 224 2566 
L 224 2829 
Q 646 2874 1037 3091 
L 1267 3091 
L 1267 2566 
Q 1683 2893 1916 2992 
Q 2150 3091 2406 3091 
Q 2662 3091 2902 2969 
Q 3142 2848 3264 2566 
Q 3853 3091 4435 3091 
Q 4858 3091 5091 2854 
Q 5325 2618 5325 2189 
L 5325 736 
Q 5325 448 5398 355 
Q 5472 262 5760 262 
L 5862 262 
L 5862 0 
L 4288 0 
L 4288 262 
Q 4608 262 4704 342 
Q 4800 422 4800 736 
L 4800 2118 
Q 4800 2438 4678 2576 
Q 4557 2714 4282 2714 
Q 4051 2714 3776 2576 
Q 3501 2438 3309 2227 
L 3309 736 
Q 3309 416 3395 339 
Q 3482 262 3821 262 
L 3821 0 
L 2278 0 
L 2278 262 
L 2368 262 
Q 2624 262 2701 361 
Q 2778 461 2778 736 
L 2778 2067 
Q 2778 2406 2656 2560 
Q 2534 2714 2259 2714 
Q 1824 2714 1286 2227 
L 1286 621 
Q 1286 422 1372 342 
Q 1459 262 1683 262 
L 1798 262 
L 1798 0 
L 224 0 
L 224 262 
L 307 262 
Q 608 262 685 348 
Q 762 435 762 736 
L 762 2566 
L 224 2566 
z
" transform="scale(0.015625)"/>
       <path id="STZhongsong-4c" d="M 294 4358 
L 1984 4358 
L 1984 4096 
L 1830 4096 
Q 1619 4096 1523 4035 
Q 1427 3974 1427 3725 
L 1427 685 
Q 1427 429 1475 381 
Q 1523 333 1779 333 
L 2010 333 
Q 2592 333 2928 592 
Q 3264 851 3533 1459 
L 3808 1363 
L 3322 0 
L 294 0 
L 294 262 
L 429 262 
Q 678 262 761 336 
Q 845 410 845 685 
L 845 3648 
Q 845 3917 777 4006 
Q 710 4096 429 4096 
L 294 4096 
L 294 4358 
z
" transform="scale(0.015625)"/>
       <path id="STZhongsong-ff09" d="M 819 4787 
Q 1536 4166 1904 3433 
Q 2272 2701 2272 1904 
Q 2272 1107 1881 323 
Q 1491 -461 800 -973 
L 646 -832 
Q 1158 -179 1398 486 
Q 1638 1152 1638 1933 
Q 1638 2714 1382 3421 
Q 1126 4128 646 4653 
L 819 4787 
z
" transform="scale(0.015625)"/>
      </defs>
      <use xlink:href="#STZhongsong-5355"/>
      <use xlink:href="#STZhongsong-4f4d" x="99.999985"/>
      <use xlink:href="#STZhongsong-65f6" x="199.999969"/>
      <use xlink:href="#STZhongsong-95f4" x="299.999954"/>
      <use xlink:href="#STZhongsong-5185" x="399.999939"/>
      <use xlink:href="#STZhongsong-5bb6" x="499.999924"/>
      <use xlink:href="#STZhongsong-5154" x="599.999908"/>
      <use xlink:href="#STZhongsong-5c3f" x="699.999893"/>
      <use xlink:href="#STZhongsong-91cf" x="799.999878"/>
      <use xlink:href="#STZhongsong-589e" x="899.999863"/>
      <use xlink:href="#STZhongsong-52a0" x="999.999847"/>
      <use xlink:href="#STZhongsong-91cf" x="1099.999832"/>
      <use xlink:href="#STZhongsong-ff08" x="1199.999817"/>
      <use xlink:href="#STZhongsong-6d" x="1299.999802"/>
      <use xlink:href="#STZhongsong-4c" x="1393.999786"/>
      <use xlink:href="#STZhongsong-ff09" x="1453.999771"/>
     </g>
    </g>
   </g>
   <g id="LineCollection_1">
    <path d="M 85.523377 283.178544 
L 85.523377 200.763504 
" clip-path="url(#p44861b64d3)" style="fill: none; stroke: #89c9c8; stroke-width: 2"/>
    <path d="M 139.874026 227.619432 
L 139.874026 182.905292 
" clip-path="url(#p44861b64d3)" style="fill: none; stroke: #89c9c8; stroke-width: 2"/>
    <path d="M 194.224675 266.304871 
L 194.224675 231.92379 
" clip-path="url(#p44861b64d3)" style="fill: none; stroke: #89c9c8; stroke-width: 2"/>
    <path d="M 248.575325 236.086309 
L 248.575325 190.709282 
" clip-path="url(#p44861b64d3)" style="fill: none; stroke: #89c9c8; stroke-width: 2"/>
    <path d="M 302.925974 275.06875 
L 302.925974 246.970935 
" clip-path="url(#p44861b64d3)" style="fill: none; stroke: #89c9c8; stroke-width: 2"/>
    <path d="M 357.276623 291.320049 
L 357.276623 263.658219 
" clip-path="url(#p44861b64d3)" style="fill: none; stroke: #89c9c8; stroke-width: 2"/>
   </g>
   <g id="line2d_14">
    <defs>
     <path id="me2bcc65a47" d="M 5 0 
L -5 -0 
" style="stroke: #89c9c8"/>
    </defs>
    <g clip-path="url(#p44861b64d3)">
     <use xlink:href="#me2bcc65a47" x="85.523377" y="283.178544" style="fill: #89c9c8; stroke: #89c9c8"/>
     <use xlink:href="#me2bcc65a47" x="139.874026" y="227.619432" style="fill: #89c9c8; stroke: #89c9c8"/>
     <use xlink:href="#me2bcc65a47" x="194.224675" y="266.304871" style="fill: #89c9c8; stroke: #89c9c8"/>
     <use xlink:href="#me2bcc65a47" x="248.575325" y="236.086309" style="fill: #89c9c8; stroke: #89c9c8"/>
     <use xlink:href="#me2bcc65a47" x="302.925974" y="275.06875" style="fill: #89c9c8; stroke: #89c9c8"/>
     <use xlink:href="#me2bcc65a47" x="357.276623" y="291.320049" style="fill: #89c9c8; stroke: #89c9c8"/>
    </g>
   </g>
   <g id="line2d_15">
    <g clip-path="url(#p44861b64d3)">
     <use xlink:href="#me2bcc65a47" x="85.523377" y="200.763504" style="fill: #89c9c8; stroke: #89c9c8"/>
     <use xlink:href="#me2bcc65a47" x="139.874026" y="182.905292" style="fill: #89c9c8; stroke: #89c9c8"/>
     <use xlink:href="#me2bcc65a47" x="194.224675" y="231.92379" style="fill: #89c9c8; stroke: #89c9c8"/>
     <use xlink:href="#me2bcc65a47" x="248.575325" y="190.709282" style="fill: #89c9c8; stroke: #89c9c8"/>
     <use xlink:href="#me2bcc65a47" x="302.925974" y="246.970935" style="fill: #89c9c8; stroke: #89c9c8"/>
     <use xlink:href="#me2bcc65a47" x="357.276623" y="263.658219" style="fill: #89c9c8; stroke: #89c9c8"/>
    </g>
   </g>
   <g id="patch_9">
    <path d="M 54 384.48 
L 54 51.84 
" style="fill: none; stroke: #000000; stroke-width: 0.8; stroke-linejoin: miter; stroke-linecap: square"/>
   </g>
   <g id="patch_10">
    <path d="M 388.8 384.48 
L 388.8 51.84 
" style="fill: none; stroke: #000000; stroke-width: 0.8; stroke-linejoin: miter; stroke-linecap: square"/>
   </g>
   <g id="patch_11">
    <path d="M 54 384.48 
L 388.8 384.48 
" style="fill: none; stroke: #000000; stroke-width: 0.8; stroke-linejoin: miter; stroke-linecap: square"/>
   </g>
   <g id="patch_12">
    <path d="M 54 51.84 
L 388.8 51.84 
" style="fill: none; stroke: #000000; stroke-width: 0.8; stroke-linejoin: miter; stroke-linecap: square"/>
   </g>
  </g>
  <g id="text_16">
   <!-- 呋塞米对家兔利尿作用的研究 -->
   <g transform="translate(138 17.724375) scale(0.12 -0.12)">
    <defs>
     <path id="STZhongsong-544b" d="M 4218 3264 
Q 4198 2618 4147 2086 
L 5011 2086 
L 5344 2496 
Q 5382 2547 5427 2547 
Q 5504 2547 5801 2281 
Q 6099 2016 6099 1955 
Q 6099 1894 6010 1894 
L 4333 1894 
Q 4506 998 4944 473 
Q 5382 -51 6227 -435 
L 6202 -544 
Q 6074 -525 5965 -525 
Q 5600 -525 5421 -800 
Q 5395 -851 5357 -851 
Q 5248 -851 4733 -80 
Q 4218 691 4160 1894 
L 4134 1894 
Q 4122 819 3597 163 
Q 3072 -493 1805 -1101 
L 1747 -986 
Q 2650 -378 3040 195 
Q 3430 768 3571 1894 
L 2694 1894 
Q 2566 1894 2490 1850 
L 2400 2118 
Q 2502 2086 2650 2086 
L 3584 2086 
Q 3635 2650 3642 3264 
L 2842 3264 
Q 2707 3264 2630 3219 
L 2541 3520 
Q 2650 3488 2790 3488 
L 3642 3488 
Q 3654 4154 3635 4845 
Q 3930 4774 4160 4694 
Q 4390 4614 4448 4582 
Q 4506 4550 4506 4508 
Q 4506 4467 4422 4435 
Q 4250 4371 4246 4124 
Q 4243 3878 4224 3488 
L 4762 3488 
L 5030 3866 
Q 5075 3930 5133 3930 
Q 5222 3930 5504 3677 
Q 5786 3424 5786 3344 
Q 5786 3264 5690 3264 
L 4218 3264 
z
M 1165 3712 
L 1722 3712 
L 1862 3930 
Q 1901 3987 1952 3987 
Q 2003 3987 2240 3817 
Q 2477 3648 2477 3584 
Q 2477 3526 2227 3398 
L 2227 1318 
L 2240 723 
Q 2240 672 2227 649 
Q 2214 627 2128 582 
Q 2042 538 1923 509 
Q 1805 480 1766 480 
Q 1728 480 1728 570 
L 1728 986 
L 1062 986 
L 1062 397 
Q 1062 301 1008 256 
Q 954 211 784 137 
Q 614 64 563 64 
Q 525 64 531 154 
Q 557 461 557 762 
L 557 3456 
Q 557 3725 538 4000 
Q 922 3866 1165 3712 
z
M 1728 1190 
L 1728 3520 
L 1062 3520 
L 1062 1190 
L 1728 1190 
z
" transform="scale(0.015625)"/>
     <path id="STZhongsong-585e" d="M 5216 3194 
Q 5472 2938 5472 2902 
Q 5472 2867 5344 2867 
L 4211 2867 
L 4211 2349 
L 4627 2349 
L 4819 2618 
Q 4870 2694 4924 2694 
Q 4979 2694 5200 2480 
Q 5421 2266 5421 2208 
Q 5421 2150 5312 2150 
L 4211 2150 
L 4211 1670 
L 5216 1670 
L 5446 1958 
Q 5517 2042 5574 2042 
Q 5632 2042 5872 1814 
Q 6112 1587 6112 1542 
Q 6112 1498 5978 1498 
L 4109 1498 
Q 4851 742 6368 461 
L 6362 346 
Q 6118 358 5955 278 
Q 5792 198 5658 0 
Q 5619 -51 5594 -51 
Q 5542 -51 5148 198 
Q 4755 448 4412 784 
Q 4070 1120 3859 1498 
L 2605 1498 
Q 2330 986 1670 474 
Q 1011 -38 198 -365 
L 179 -250 
Q 1517 595 2003 1498 
L 762 1498 
Q 589 1498 493 1453 
L 390 1702 
Q 525 1670 710 1670 
L 2202 1670 
L 2202 2150 
L 1491 2150 
Q 1318 2150 1222 2106 
L 1094 2381 
Q 1229 2349 1414 2349 
L 2202 2349 
L 2202 2867 
L 1510 2867 
Q 1338 2867 1242 2822 
L 1094 3040 
Q 915 2810 685 2810 
Q 544 2810 445 2890 
Q 346 2970 346 3072 
Q 346 3149 512 3283 
Q 800 3507 937 3747 
Q 1075 3987 1171 4307 
L 1318 4314 
Q 1331 4102 1331 4019 
L 3066 4019 
Q 2925 4621 2598 4922 
L 2637 4992 
Q 3136 4941 3395 4797 
Q 3654 4653 3654 4454 
Q 3654 4346 3558 4214 
Q 3462 4083 3341 4019 
L 5312 4019 
L 5517 4282 
Q 5555 4333 5587 4333 
Q 5619 4333 5699 4265 
Q 5779 4198 5958 4025 
Q 6138 3853 6176 3805 
Q 6214 3757 6214 3712 
Q 6214 3667 6185 3641 
Q 6157 3616 6099 3616 
L 6016 3616 
Q 5856 3616 5705 3539 
Q 5555 3462 5216 3194 
z
M 1139 3091 
Q 1312 3046 1434 3046 
L 2202 3046 
Q 2202 3661 2189 3763 
Q 2374 3731 2579 3654 
Q 2784 3578 2835 3549 
Q 2886 3520 2886 3485 
Q 2886 3450 2714 3360 
L 2714 3046 
L 3693 3046 
Q 3693 3674 3680 3770 
Q 4000 3718 4198 3654 
Q 4397 3590 4397 3548 
Q 4397 3507 4211 3411 
L 4211 3046 
L 4678 3046 
L 4922 3315 
Q 4960 3360 4998 3360 
Q 5037 3360 5120 3277 
Q 5242 3584 5312 3834 
L 1331 3834 
Q 1325 3309 1139 3091 
z
M 3693 2867 
L 2714 2867 
L 2714 2349 
L 3693 2349 
L 3693 2867 
z
M 3693 1670 
L 3693 2150 
L 2714 2150 
L 2714 1670 
L 3693 1670 
z
M 3520 -640 
L 4621 -640 
L 4851 -314 
Q 4928 -211 4992 -211 
Q 5056 -211 5360 -460 
Q 5664 -710 5664 -781 
Q 5664 -826 5523 -826 
L 1344 -826 
Q 1171 -826 1075 -870 
L 973 -608 
Q 1107 -640 1293 -640 
L 2957 -640 
L 2957 230 
L 2150 230 
Q 1978 230 1882 186 
L 1754 442 
Q 1888 410 2074 410 
L 2957 410 
L 2957 634 
Q 2957 1126 2944 1235 
Q 3149 1222 3360 1184 
Q 3571 1146 3638 1117 
Q 3706 1088 3706 1046 
Q 3706 1005 3520 883 
L 3520 410 
L 4115 410 
L 4230 589 
Q 4282 672 4326 672 
Q 4371 672 4569 493 
Q 4768 314 4768 272 
Q 4768 230 4646 230 
L 3520 230 
L 3520 -640 
z
" transform="scale(0.015625)"/>
     <path id="STZhongsong-7c73" d="M 2426 2163 
L 723 2163 
Q 557 2163 448 2131 
L 339 2394 
Q 474 2362 659 2362 
L 2963 2362 
L 2963 4128 
Q 2963 4550 2944 4858 
Q 3744 4678 3744 4582 
Q 3744 4518 3514 4410 
L 3514 2362 
L 5107 2362 
L 5363 2714 
Q 5440 2816 5478 2816 
Q 5542 2816 5836 2541 
Q 6131 2266 6131 2214 
Q 6131 2163 5990 2163 
L 3795 2163 
Q 4435 806 6266 128 
L 6266 -6 
Q 5894 0 5731 -54 
Q 5568 -109 5350 -288 
Q 5306 -326 5280 -326 
Q 5197 -326 4729 138 
Q 4262 602 3961 1117 
Q 3661 1632 3565 2163 
L 3514 2163 
L 3514 0 
L 3526 -774 
Q 3526 -838 3475 -870 
Q 3424 -902 3229 -969 
Q 3034 -1037 2982 -1037 
Q 2944 -1037 2944 -954 
L 2957 -691 
Q 2963 -422 2963 -109 
L 2963 1926 
Q 2022 186 358 -704 
L 288 -602 
Q 1101 58 1603 704 
Q 2106 1350 2426 2163 
z
M 4800 4307 
Q 5050 4186 5264 4054 
Q 5478 3923 5510 3888 
Q 5542 3853 5542 3821 
Q 5542 3757 5427 3744 
Q 5312 3731 5254 3705 
Q 5197 3680 5126 3590 
Q 4608 2989 3840 2368 
L 3738 2432 
Q 4518 3456 4800 4307 
z
M 1043 4256 
Q 1638 3936 1929 3731 
Q 2221 3526 2317 3379 
Q 2413 3232 2413 3033 
Q 2413 2835 2294 2649 
Q 2176 2464 2042 2464 
Q 1965 2464 1936 2489 
Q 1907 2515 1875 2630 
Q 1722 3168 1517 3504 
Q 1312 3840 986 4154 
L 1043 4256 
z
" transform="scale(0.015625)"/>
     <path id="STZhongsong-5bf9" d="M 5082 3290 
L 5357 3290 
L 5638 3642 
Q 5690 3706 5741 3706 
Q 5792 3706 5923 3578 
Q 6054 3450 6166 3325 
Q 6278 3200 6278 3126 
Q 6278 3053 6093 3053 
L 5082 3053 
L 5082 -141 
Q 5082 -461 4963 -617 
Q 4845 -774 4617 -889 
Q 4390 -1005 4307 -1005 
Q 4224 -1005 4211 -902 
Q 4173 -602 4019 -467 
Q 3866 -333 3373 -160 
L 3405 13 
Q 4058 -128 4230 -128 
Q 4403 -128 4457 -99 
Q 4512 -70 4512 6 
L 4512 3053 
L 3149 3053 
Q 2989 3053 2874 3021 
L 2765 3322 
Q 2899 3290 3085 3290 
L 4512 3290 
L 4512 4230 
Q 4512 4595 4499 4909 
Q 4666 4864 4957 4771 
Q 5248 4678 5328 4633 
Q 5408 4589 5408 4544 
Q 5408 4454 5082 4358 
L 5082 3290 
z
M 1747 2234 
Q 2061 2976 2214 3802 
L 742 3802 
Q 570 3802 474 3757 
L 358 4032 
Q 493 4000 678 4000 
L 2189 4000 
L 2362 4230 
Q 2413 4294 2441 4294 
Q 2470 4294 2668 4166 
Q 2867 4038 2985 3955 
Q 3104 3872 3104 3821 
Q 3104 3770 2989 3750 
Q 2778 3718 2701 3482 
Q 2374 2464 2054 1862 
Q 2547 1261 2713 963 
Q 2880 666 2880 464 
Q 2880 262 2768 80 
Q 2656 -102 2557 -102 
Q 2458 -102 2416 -32 
Q 2374 38 2336 186 
Q 2195 768 1818 1440 
Q 1325 627 205 -435 
L 109 -346 
Q 1075 826 1581 1862 
Q 1293 2362 698 3270 
L 787 3341 
Q 1466 2573 1747 2234 
z
M 3021 2387 
Q 3597 1997 3795 1763 
Q 3994 1530 3994 1334 
Q 3994 1139 3885 1011 
Q 3776 883 3648 883 
Q 3578 883 3539 1018 
Q 3418 1440 3290 1712 
Q 3162 1984 2950 2317 
L 3021 2387 
z
" transform="scale(0.015625)"/>
     <path id="STZhongsong-5229" d="M 5203 4819 
Q 5619 4723 5811 4643 
Q 6003 4563 6003 4525 
Q 6003 4474 5786 4352 
L 5786 -262 
Q 5786 -531 5651 -681 
Q 5517 -832 5277 -928 
Q 5037 -1024 4982 -1024 
Q 4928 -1024 4909 -915 
Q 4870 -685 4716 -541 
Q 4563 -397 4115 -237 
L 4141 -115 
Q 4774 -256 4940 -256 
Q 5107 -256 5164 -217 
Q 5222 -179 5222 -58 
L 5222 4198 
Q 5222 4608 5203 4819 
z
M 1882 3808 
Q 1152 3635 518 3590 
L 493 3718 
Q 1926 4083 2880 4742 
Q 3456 4275 3456 4154 
Q 3456 4115 3395 4115 
Q 3334 4115 3276 4121 
Q 3219 4128 3148 4128 
Q 3078 4128 2918 4083 
L 2413 3942 
L 2413 2746 
L 2771 2746 
L 2995 3098 
Q 3053 3187 3126 3187 
Q 3200 3187 3469 2944 
Q 3738 2701 3738 2611 
Q 3738 2547 3578 2547 
L 2413 2547 
L 2413 2118 
Q 2944 1901 3193 1757 
Q 3443 1613 3526 1488 
Q 3610 1363 3610 1171 
Q 3610 979 3514 854 
Q 3418 730 3347 730 
Q 3277 730 3238 774 
Q 3200 819 3101 1043 
Q 3002 1267 2842 1475 
Q 2682 1683 2413 1946 
L 2413 -685 
Q 2413 -755 2365 -787 
Q 2317 -819 2137 -876 
Q 1958 -934 1888 -934 
Q 1856 -934 1856 -883 
L 1869 -582 
Q 1882 -275 1882 -13 
L 1882 1613 
Q 1645 1075 1353 710 
Q 1062 346 333 -333 
L 256 -250 
Q 736 333 1152 1120 
Q 1568 1907 1722 2547 
L 691 2547 
Q 525 2547 416 2515 
L 307 2778 
Q 442 2746 627 2746 
L 1882 2746 
L 1882 3808 
z
M 3994 3187 
Q 3994 3661 3974 3859 
Q 4704 3712 4704 3610 
Q 4704 3552 4499 3424 
L 4499 1376 
Q 4499 1056 4506 928 
L 4518 691 
Q 4518 627 4278 521 
Q 4038 416 4006 416 
Q 3974 416 3974 480 
L 3987 813 
Q 3994 986 3994 1344 
L 3994 3187 
z
" transform="scale(0.015625)"/>
     <path id="STZhongsong-4f5c" d="M 3469 3738 
L 4941 3738 
L 5216 4160 
Q 5261 4237 5305 4237 
Q 5350 4237 5468 4147 
Q 5587 4058 5779 3894 
Q 5971 3731 6025 3676 
Q 6080 3622 6080 3584 
Q 6080 3520 5946 3520 
L 4032 3520 
L 4032 2272 
L 4813 2272 
L 5056 2637 
Q 5101 2701 5152 2701 
Q 5203 2701 5331 2605 
L 5651 2355 
Q 5850 2208 5850 2141 
Q 5850 2074 5734 2074 
L 4032 2074 
L 4032 902 
L 4896 902 
L 5171 1299 
Q 5216 1363 5277 1363 
Q 5338 1363 5658 1088 
Q 5978 813 5978 758 
Q 5978 704 5850 704 
L 4032 704 
L 4032 -768 
Q 4032 -806 4009 -828 
Q 3987 -851 3875 -921 
Q 3763 -992 3635 -1040 
Q 3507 -1088 3472 -1088 
Q 3437 -1088 3437 -1030 
L 3462 -435 
Q 3469 -166 3469 96 
L 3469 3520 
L 3360 3520 
Q 2944 2714 1965 1722 
L 1869 1818 
Q 2432 2566 2752 3273 
Q 3072 3981 3290 4909 
Q 3693 4787 3846 4700 
Q 4000 4614 4000 4582 
Q 4000 4538 3897 4515 
Q 3795 4493 3744 4358 
Q 3693 4224 3469 3738 
z
M 1261 2426 
Q 851 1830 250 1242 
L 154 1325 
Q 1357 2944 1747 4896 
Q 2509 4659 2509 4570 
Q 2509 4531 2413 4505 
Q 2317 4480 2259 4400 
Q 2202 4320 2038 3901 
Q 1875 3482 1632 3027 
Q 1843 2950 1888 2924 
Q 1933 2899 1933 2867 
Q 1933 2835 1792 2758 
L 1792 -717 
Q 1792 -768 1779 -787 
Q 1766 -806 1648 -873 
Q 1530 -941 1408 -985 
Q 1286 -1030 1257 -1030 
Q 1229 -1030 1229 -960 
L 1248 -621 
Q 1261 -275 1261 173 
L 1261 2426 
z
" transform="scale(0.015625)"/>
     <path id="STZhongsong-7528" d="M 1818 4358 
L 4941 4358 
L 5069 4563 
Q 5126 4653 5177 4653 
Q 5229 4653 5469 4521 
Q 5709 4390 5785 4326 
Q 5862 4262 5862 4204 
Q 5862 4147 5574 3981 
L 5574 -282 
Q 5574 -589 5523 -704 
Q 5472 -819 5245 -956 
Q 5018 -1094 4941 -1094 
Q 4864 -1094 4838 -973 
Q 4742 -557 3987 -346 
L 4000 -186 
Q 4570 -275 4742 -275 
Q 4915 -275 4956 -240 
Q 4998 -205 4998 -115 
L 4998 1466 
L 3597 1466 
L 3597 26 
Q 3597 -301 3603 -422 
L 3610 -653 
Q 3610 -742 3379 -822 
Q 3149 -902 3059 -902 
Q 3008 -902 3008 -838 
L 3021 -576 
Q 3027 -307 3027 13 
L 3027 1466 
L 1754 1466 
Q 1715 627 1478 80 
Q 1242 -467 589 -1133 
L 480 -1043 
Q 1030 -326 1120 749 
Q 1210 1824 1210 2970 
Q 1210 3603 1146 4646 
Q 1440 4557 1818 4358 
z
M 1792 2970 
L 3027 2970 
L 3027 4141 
L 1805 4141 
Q 1805 3712 1792 2970 
z
M 3597 2970 
L 4998 2970 
L 4998 4141 
L 3597 4141 
L 3597 2970 
z
M 3027 2765 
L 1786 2765 
Q 1798 2118 1760 1670 
L 3027 1670 
L 3027 2765 
z
M 4998 2765 
L 3597 2765 
L 3597 1670 
L 4998 1670 
L 4998 2765 
z
" transform="scale(0.015625)"/>
     <path id="STZhongsong-7684" d="M 4102 3194 
Q 3827 2637 3130 1715 
L 3021 1786 
Q 3418 2650 3613 3254 
Q 3808 3859 3994 4819 
Q 4288 4717 4512 4621 
Q 4736 4525 4784 4489 
Q 4832 4454 4832 4409 
Q 4832 4365 4726 4339 
Q 4621 4314 4585 4262 
Q 4550 4211 4435 3932 
Q 4320 3654 4205 3411 
L 5075 3411 
L 5248 3674 
Q 5306 3757 5366 3757 
Q 5427 3757 5712 3555 
Q 5997 3354 5997 3270 
Q 5997 3187 5728 3072 
Q 5683 1261 5657 633 
Q 5632 6 5590 -221 
Q 5549 -448 5421 -627 
Q 5293 -806 5030 -931 
Q 4768 -1056 4659 -1056 
Q 4608 -1056 4582 -960 
Q 4531 -781 4454 -678 
Q 4378 -576 4192 -486 
Q 4006 -397 3629 -294 
L 3661 -160 
Q 4422 -269 4620 -269 
Q 4819 -269 4892 -227 
Q 4966 -186 4992 -90 
Q 5018 6 5043 355 
Q 5069 704 5094 1488 
Q 5120 2272 5126 3194 
L 4102 3194 
z
M 1696 3315 
L 2317 3315 
L 2490 3571 
Q 2534 3642 2585 3642 
Q 2637 3642 2912 3469 
Q 3187 3296 3187 3209 
Q 3187 3123 2944 3027 
L 2944 384 
Q 2944 102 2950 -13 
L 2957 -230 
Q 2957 -262 2941 -284 
Q 2925 -307 2825 -355 
Q 2726 -403 2582 -451 
Q 2438 -499 2403 -499 
Q 2368 -499 2368 -429 
L 2368 -26 
L 1325 -26 
L 1325 -403 
Q 1325 -474 1267 -512 
Q 1210 -550 1014 -624 
Q 819 -698 764 -698 
Q 710 -698 717 -621 
Q 749 -326 749 13 
L 749 3085 
Q 749 3354 730 3629 
Q 1082 3507 1376 3334 
Q 1568 4205 1574 4749 
Q 1856 4691 2105 4595 
Q 2355 4499 2393 4467 
Q 2432 4435 2432 4397 
Q 2432 4333 2330 4307 
Q 2253 4288 2160 4144 
Q 2067 4000 1696 3315 
z
M 2368 1798 
L 2368 3110 
L 1325 3110 
L 1325 1798 
L 2368 1798 
z
M 2368 179 
L 2368 1587 
L 1325 1587 
L 1325 179 
L 2368 179 
z
M 3661 2227 
Q 4122 1894 4301 1728 
Q 4480 1562 4537 1485 
Q 4595 1408 4595 1280 
Q 4595 1050 4448 870 
Q 4301 691 4208 691 
Q 4115 691 4076 956 
Q 4038 1222 3907 1552 
Q 3776 1882 3590 2138 
L 3661 2227 
z
" transform="scale(0.015625)"/>
     <path id="STZhongsong-7814" d="M 4006 2016 
Q 3974 634 3571 29 
Q 3168 -576 2221 -1082 
L 2157 -998 
Q 2906 -378 3184 230 
Q 3462 838 3482 2016 
L 3053 2016 
Q 2912 2016 2810 1978 
L 2707 2227 
Q 2835 2202 2995 2202 
L 3482 2202 
Q 3488 2496 3488 3024 
Q 3488 3552 3456 4096 
L 3328 4096 
Q 3181 4096 3078 4058 
L 2976 4320 
Q 3104 4294 3264 4294 
L 5101 4294 
L 5318 4672 
Q 5370 4749 5414 4749 
Q 5459 4749 5548 4685 
Q 5638 4621 5788 4480 
Q 5939 4339 5993 4278 
Q 6048 4218 6048 4173 
Q 6048 4096 5946 4096 
L 5210 4096 
L 5210 2202 
L 5389 2202 
L 5626 2566 
Q 5664 2630 5718 2630 
Q 5773 2630 6025 2384 
Q 6278 2138 6278 2077 
Q 6278 2016 6093 2016 
L 5210 2016 
L 5210 -192 
L 5222 -730 
Q 5222 -813 5190 -851 
Q 5158 -890 4995 -950 
Q 4832 -1011 4717 -1011 
Q 4666 -1011 4666 -915 
L 4666 2016 
L 4006 2016 
z
M 4026 4096 
Q 4038 3072 4006 2202 
L 4666 2202 
L 4666 4096 
L 4026 4096 
z
M 1210 3936 
L 672 3936 
Q 499 3936 403 3891 
L 288 4154 
Q 422 4122 608 4122 
L 2086 4122 
L 2330 4518 
Q 2362 4570 2403 4570 
Q 2445 4570 2589 4442 
Q 2733 4314 2867 4195 
Q 3002 4077 3002 4006 
Q 3002 3936 2886 3936 
L 1792 3936 
Q 1677 3085 1446 2496 
L 2035 2496 
L 2138 2675 
Q 2170 2726 2214 2726 
Q 2259 2726 2496 2569 
Q 2733 2413 2733 2368 
Q 2733 2323 2592 2221 
L 2592 589 
Q 2592 320 2598 211 
L 2605 6 
Q 2605 -115 2425 -185 
Q 2246 -256 2176 -256 
Q 2106 -256 2093 -237 
Q 2080 -218 2080 -160 
L 2080 147 
L 1523 147 
L 1523 -480 
Q 1523 -557 1465 -605 
Q 1408 -653 1267 -710 
Q 1126 -768 1050 -768 
Q 1005 -768 1005 -666 
L 1018 -474 
Q 1024 -262 1024 -83 
L 1024 1677 
Q 768 1274 339 787 
L 256 851 
Q 1139 2195 1210 3936 
z
M 2080 326 
L 2080 2291 
L 1523 2291 
L 1523 326 
L 2080 326 
z
" transform="scale(0.015625)"/>
     <path id="STZhongsong-7a76" d="M 3085 3936 
Q 2957 4474 2534 4806 
L 2579 4902 
Q 3110 4813 3376 4701 
Q 3642 4589 3642 4397 
Q 3642 4301 3568 4144 
Q 3494 3987 3398 3936 
L 5075 3936 
L 5286 4166 
Q 5344 4230 5401 4230 
Q 5459 4230 5769 3952 
Q 6080 3674 6080 3613 
Q 6080 3552 5990 3552 
L 5869 3558 
Q 5677 3558 5443 3443 
Q 5210 3328 4755 3008 
L 4653 3085 
Q 4947 3501 5043 3757 
L 1344 3757 
Q 1350 3328 1203 3101 
Q 1056 2874 826 2874 
Q 698 2874 618 2938 
Q 538 3002 538 3107 
Q 538 3213 691 3354 
Q 1050 3686 1146 4339 
L 1280 4333 
Q 1318 4128 1338 3936 
L 3085 3936 
z
M 2176 3501 
Q 2810 3194 2810 3085 
Q 2810 3021 2685 3021 
Q 2560 3021 2473 2973 
Q 2387 2925 2112 2714 
Q 1427 2195 390 1792 
L 346 1907 
Q 1485 2650 2176 3501 
z
M 3238 3443 
Q 4154 3174 4566 3011 
Q 4979 2848 5100 2713 
Q 5222 2579 5222 2384 
Q 5222 2189 5152 2061 
Q 5082 1933 4998 1933 
Q 4954 1933 4912 1971 
Q 4870 2010 4749 2163 
Q 4512 2464 4102 2774 
Q 3693 3085 3194 3328 
L 3238 3443 
z
M 2912 1402 
Q 2746 269 2250 -217 
Q 1754 -704 435 -1075 
L 403 -973 
Q 1427 -512 1836 -29 
Q 2246 454 2355 1363 
L 1126 1363 
Q 954 1363 858 1318 
L 749 1587 
Q 883 1555 1069 1555 
L 2381 1555 
Q 2426 1978 2445 2592 
Q 2733 2554 2931 2502 
Q 3130 2451 3187 2425 
Q 3245 2400 3245 2368 
Q 3245 2336 3165 2297 
Q 3085 2259 3049 2169 
Q 3014 2080 2992 1894 
Q 2970 1709 2944 1594 
L 3763 1594 
L 3917 1856 
Q 3962 1926 3997 1926 
Q 4032 1926 4205 1811 
Q 4378 1696 4518 1597 
Q 4659 1498 4659 1459 
Q 4659 1402 4352 1274 
L 4352 -160 
Q 4352 -275 4381 -316 
Q 4410 -358 4515 -371 
Q 4621 -384 4912 -384 
Q 5203 -384 5308 -320 
Q 5414 -256 5465 -13 
Q 5517 230 5581 928 
L 5715 928 
Q 5734 442 5763 234 
Q 5792 26 5856 -60 
Q 5920 -147 6067 -224 
Q 6150 -269 6150 -326 
Q 6150 -384 6019 -585 
Q 5888 -787 5686 -835 
Q 5485 -883 4880 -883 
Q 4275 -883 4076 -854 
Q 3878 -826 3824 -720 
Q 3770 -614 3770 -320 
L 3770 1402 
L 2912 1402 
z
" transform="scale(0.015625)"/>
    </defs>
    <use xlink:href="#STZhongsong-544b"/>
    <use xlink:href="#STZhongsong-585e" x="99.999985"/>
    <use xlink:href="#STZhongsong-7c73" x="199.999969"/>
    <use xlink:href="#STZhongsong-5bf9" x="299.999954"/>
    <use xlink:href="#STZhongsong-5bb6" x="399.999939"/>
    <use xlink:href="#STZhongsong-5154" x="499.999924"/>
    <use xlink:href="#STZhongsong-5229" x="599.999908"/>
    <use xlink:href="#STZhongsong-5c3f" x="699.999893"/>
    <use xlink:href="#STZhongsong-4f5c" x="799.999878"/>
    <use xlink:href="#STZhongsong-7528" x="899.999863"/>
    <use xlink:href="#STZhongsong-7684" x="999.999847"/>
    <use xlink:href="#STZhongsong-7814" x="1099.999832"/>
    <use xlink:href="#STZhongsong-7a76" x="1199.999817"/>
   </g>
  </g>
 </g>
 <defs>
  <clipPath id="p44861b64d3">
   <rect x="54" y="51.84" width="334.8" height="332.64"/>
  </clipPath>
 </defs>
</svg>
